<svg width="16" height="16" viewBox="0 0 16 16" fill="none" xmlns="http://www.w3.org/2000/svg">
<g clip-path="url(#clip0_1469_16708)">
<path d="M16 0H0V16H16V0Z" fill="white"/>
<path d="M16 0H0V5.41124H16V0Z" fill="#FB7C24"/>
<path d="M16 10.5889H0V16.0001H16V10.5889Z" fill="#24B44C"/>
<path d="M6.67383 6.31508L6.74511 5.76352L7.08409 5.21268L7.61375 4.87793L8.56714 4.94149L8.94426 5.32285L8.8807 6.00505L8.18579 6.5559L7.5502 6.72539L6.80867 6.522L6.67383 6.31508Z" fill="#24B44C"/>
<path d="M5.42439 3.91992L6.15744 4.22501L6.54727 4.85636L6.66168 5.93687L6.64049 6.0428L6.14473 5.91992L5.98795 6.18687L5.47524 6.19958L4.90744 5.72077L4.49219 5.03857L4.61507 4.34365L5.42439 3.91992Z" fill="white"/>
<path d="M5.69895 6.38574L5.30065 6.4832L4.67353 6.75862L4.2837 7.33066L4.15234 7.72896L4.27522 8.22472L4.72861 8.4832L5.47014 8.301L6.02099 7.67811L6.19895 7.301L6.27946 6.68235L5.69895 6.38574Z" fill="#FB7C24"/>
<path d="M9.82712 7.80704L9.90502 7.96883L10.1687 8.10067L10.1747 8.53212L9.7612 9.05946L9.22188 9.30515L8.48481 9.2632L8.19718 8.90365L8.11328 8.4662L8.39493 7.98681L8.88631 7.72914L9.45559 7.65723L9.82712 7.80704Z" fill="#FB7C24"/>
<path d="M10.6653 7.87305C10.6353 7.909 10.3717 8.17866 10.3717 8.17866L10.2578 8.79588L10.4196 9.23333L10.7732 9.6528L11.2286 9.82059L11.69 9.53894L11.9417 9.07753L11.8578 8.67004L11.5881 8.24458L11.0189 7.96293L10.6653 7.87305Z" fill="#24B44C"/>
<path d="M7.09974 10.4229L7.09375 12.0528L7.1952 12.146H7.66902L7.62408 10.6236L7.71397 10.4588L7.09974 10.4229Z" fill="white"/>
<path d="M4.92812 3.68503C4.3992 3.86934 4.2069 4.17808 4.2389 4.79115C4.25104 5.05574 4.27505 5.14376 4.35506 5.25605C4.40721 5.3322 4.45935 5.40421 4.47122 5.41635C4.48336 5.42849 4.56337 5.52865 4.64366 5.64481C4.81996 5.88512 5.10856 6.14972 5.27687 6.22587C5.34088 6.25401 5.39302 6.28602 5.39302 6.29788C5.39302 6.31002 5.29673 6.34203 5.18471 6.36989C4.69167 6.48605 4.2229 6.8428 4.01045 7.25969C3.87829 7.52015 3.83415 7.92905 3.9103 8.1575C4.07446 8.66241 4.74381 8.89472 5.27659 8.63427C5.7415 8.40582 6.37057 7.62444 6.45472 7.16754C6.49086 6.98324 6.50273 6.99124 6.57888 7.26383C6.7596 7.94505 7.02005 9.78039 7.06006 10.6661C7.0802 11.1671 7.04406 11.6237 6.98391 11.64C6.96377 11.6441 6.86361 11.3876 6.75546 11.0669C6.57115 10.506 6.37884 10.0251 6.33856 10.0251C6.33056 10.0251 6.33056 10.1294 6.33856 10.2536C6.3507 10.3819 6.3427 10.7665 6.32642 11.1072L6.29028 11.7283L6.21826 11.568C6.17826 11.4797 6.10211 11.2995 6.05382 11.1674C5.96553 10.9351 5.96167 10.9309 5.93767 11.0471C5.86565 11.3677 5.7815 11.6723 5.75336 11.6883C5.73736 11.6963 5.71335 11.6403 5.70121 11.5561C5.68907 11.4761 5.66121 11.3517 5.63306 11.2877L5.58092 11.1674L5.47662 11.3878L5.37233 11.6083L5.36019 11.448C5.33205 11.0112 5.21589 10.3899 5.08759 9.98125C5.00758 9.72879 4.93143 9.51248 4.91515 9.4962C4.89915 9.4802 4.839 10.0373 4.77499 10.7386C4.71484 11.4358 4.64283 12.029 4.62269 12.0572C4.59869 12.0853 4.52254 12.1292 4.44638 12.1573C4.35423 12.1893 4.31009 12.2293 4.31009 12.2815C4.31009 12.3535 4.33409 12.3576 4.57468 12.3375C4.71898 12.3254 4.85114 12.3055 4.86328 12.2934C4.87542 12.2812 4.91543 11.9247 4.95543 11.504C4.99544 11.0791 5.03545 10.7265 5.04759 10.7185C5.07959 10.6865 5.19575 11.4237 5.22003 11.8166C5.23217 12.045 5.25617 12.2293 5.26804 12.2293C5.28404 12.2293 5.36433 12.1932 5.45234 12.1493C5.5445 12.1013 5.6888 12.0693 5.80109 12.0693H5.9934V11.917C5.9934 11.7007 6.03341 11.6847 6.1137 11.861C6.14984 11.941 6.23399 12.0693 6.298 12.1455L6.41416 12.2856L6.43816 12.1653C6.45417 12.1013 6.46631 11.8767 6.47431 11.6684C6.47845 11.4601 6.49445 11.2077 6.51045 11.1075L6.54246 10.9271L6.61061 11.0752C6.71876 11.3238 6.79491 11.6684 6.82305 12.037C6.83519 12.2335 6.8592 12.3896 6.87106 12.3896C6.88707 12.3896 6.96322 12.3336 7.04737 12.2655L7.19553 12.1452V11.6764C7.19139 10.8749 7.12352 9.82895 7.03523 9.22388C6.92707 8.49438 6.69062 7.27625 6.61447 7.0558C6.53832 6.84335 6.53832 6.68305 6.61033 6.6229C6.68648 6.55889 6.70662 6.5989 6.88679 7.15982C7.12324 7.89732 7.27554 8.65055 7.38784 9.6405L7.45599 10.2376L7.79259 9.85295L8.12534 9.46834L8.2415 9.52848L8.35765 9.58863L8.01801 9.9727C7.8257 10.1851 7.64526 10.4095 7.61739 10.4696C7.56939 10.5618 7.56138 10.7262 7.58539 11.3873L7.60939 12.1968L7.73355 12.2729C7.88171 12.3651 8.0823 12.3692 8.23846 12.2889C8.36676 12.2208 8.38276 12.1728 8.4109 11.8039C8.43491 11.5233 8.56321 11.1947 8.70751 11.0584C8.79966 10.9742 8.80766 10.9742 8.78779 11.0463C8.68764 11.379 8.66364 12.1044 8.74365 12.2365C8.75579 12.2567 8.8198 12.2164 8.88795 12.1482C9.0844 11.9518 9.15641 11.9278 9.20055 12.0439C9.2367 12.1482 9.35285 12.2282 9.45715 12.2282C9.49329 12.2282 9.5493 12.1601 9.58131 12.0801C9.61745 11.9959 9.6856 11.8878 9.73361 11.8356C9.8139 11.7515 9.8219 11.7473 9.8459 11.8155C9.8619 11.8555 9.87791 11.9438 9.87791 12.0119C9.88204 12.1844 9.9662 12.2845 10.0744 12.2522C10.1425 12.2282 10.1626 12.1921 10.1626 12.0878C10.1626 11.6991 10.371 11.19 10.6314 10.9417L10.7716 10.8054L10.7476 10.9455C10.7034 11.2021 10.6714 12.0117 10.6996 12.1598C10.7316 12.3361 10.7837 12.3521 10.8237 12.1998C10.8557 12.0757 10.992 11.8671 11.048 11.8671C11.0682 11.8671 11.0842 11.8991 11.0842 11.9352C11.0842 11.9714 11.1242 12.0434 11.1683 12.0914L11.2566 12.1835L11.3408 12.0552C11.4611 11.8789 11.5411 11.8748 11.6092 12.0351C11.6412 12.1071 11.6614 12.1794 11.6534 12.1954C11.6492 12.2156 11.6815 12.2274 11.7254 12.2274C11.8617 12.2274 11.8697 12.055 11.7414 11.8867C11.6051 11.7062 11.5171 11.6582 11.3888 11.6902C11.3046 11.7104 11.2845 11.6982 11.2605 11.5981C11.2125 11.3936 11.1642 11.3696 11.0602 11.5098C11.0122 11.5779 10.928 11.6621 10.8797 11.6982L10.7956 11.7584L10.8237 11.5018C10.8797 10.9969 11.056 10.3355 11.1683 10.1954C11.2445 10.1071 11.1805 10.0911 11.024 10.1672C10.8157 10.2635 10.5271 10.5678 10.3428 10.8846C10.2145 11.105 10.1825 11.1412 10.1585 11.081C10.1425 11.0369 10.1265 10.9649 10.1265 10.9127C10.1185 10.7083 9.94219 10.9006 9.70574 11.3735C9.62959 11.5296 9.54544 11.6701 9.5253 11.6819C9.50515 11.6938 9.44114 11.6499 9.38513 11.5818L9.28084 11.4576L9.10454 11.6019C9.00438 11.6819 8.91223 11.7462 8.90009 11.7462C8.85208 11.7462 8.91609 11.1933 9.00438 10.8564C9.04439 10.6881 9.14068 10.4037 9.21683 10.2274C9.29298 10.0469 9.34099 9.90262 9.32499 9.90262C9.2367 9.90262 8.90423 10.1672 8.75579 10.3515C8.46664 10.7182 8.19818 11.4276 8.19818 11.8282C8.19818 12.0726 8.13003 12.1648 7.98187 12.1248C7.81356 12.0848 7.76942 11.9245 7.74155 11.2433C7.70541 10.4977 7.71341 10.4737 8.16231 10.0088L8.49092 9.66423H8.69536C9.13213 9.66423 9.63704 9.46392 9.95764 9.16318L10.1461 8.98688L10.2142 9.18332C10.3185 9.47992 10.5108 9.70838 10.7592 9.83253C11.3844 10.1531 12.1257 9.70037 12.1257 8.99902C12.1257 8.42596 11.745 8.00906 11.0318 7.80075L10.8033 7.73674L11.0238 7.53643C11.3364 7.24783 11.5005 6.89936 11.5005 6.52247C11.5047 5.80925 11.0916 5.3322 10.4747 5.3322C9.94164 5.3322 9.49274 5.62466 9.27643 6.11771C9.12413 6.46646 9.18013 7.07153 9.39672 7.37613L9.47701 7.48842L9.14427 7.50856C8.73951 7.53671 8.45091 7.65286 8.18245 7.90118C7.90599 8.15777 7.8257 8.36195 7.84585 8.7347C7.85799 8.92314 7.89799 9.11545 7.946 9.22361L8.02629 9.40791L7.77383 9.68437C7.48937 10.005 7.50124 10.013 7.45737 9.46392C7.40936 8.80671 7.14476 7.5643 6.92045 6.92309C6.87244 6.79093 6.8363 6.67063 6.8363 6.65463C6.8363 6.63863 6.91245 6.65877 7.00874 6.69877C7.5818 6.95537 8.39932 6.76692 8.90837 6.26587C9.48143 5.70082 9.46128 5.00746 8.86422 4.715C8.65591 4.6107 8.61563 4.60684 8.23101 4.62284C7.60994 4.64685 7.21705 4.83529 6.90445 5.24805L6.77615 5.42436L6.74801 5.12776C6.71186 4.75114 6.59985 4.45454 6.38326 4.16594C6.21882 3.94549 5.9625 3.73304 5.86234 3.73304C5.8342 3.73304 5.74205 3.7049 5.65403 3.67289C5.43689 3.59674 5.17644 3.60088 4.92812 3.68503ZM5.92994 4.22995C6.30656 4.4504 6.47486 4.81515 6.50714 5.46436L6.52728 5.89726H6.41112C6.34711 5.89726 6.24668 5.86526 6.18681 5.82525C5.9785 5.68895 5.64989 5.21218 5.50946 4.84329C5.4093 4.5867 5.32901 4.53869 5.36516 4.75914C5.4013 4.96359 5.60547 5.38435 5.81406 5.68095C5.91421 5.81725 5.9945 5.96955 5.9945 6.0137C5.9945 6.11385 5.85434 6.15799 5.64576 6.11799C5.43717 6.07798 5.00455 5.64122 4.84011 5.29633C4.6638 4.93158 4.6398 4.70727 4.75181 4.47882C4.93198 4.10165 5.50504 3.98136 5.92994 4.22995ZM8.45477 5.09161C8.74337 5.23177 8.88353 5.61666 8.74337 5.88898C8.58721 6.19359 8.04202 6.55034 7.6574 6.60634C7.29679 6.65435 6.75573 6.47805 6.75573 6.31774C6.75573 6.14944 7.26865 5.88098 7.72969 5.80869C8.02629 5.76455 8.1063 5.7204 7.97828 5.6724C7.87012 5.62825 7.38922 5.77669 7.08462 5.93699L6.79215 6.09729L6.8203 5.94499C6.88044 5.59625 7.1089 5.24778 7.36521 5.11148C7.66513 4.95531 8.15017 4.94731 8.45477 5.09161ZM10.8232 5.94913C11.0635 6.08129 11.1758 6.32575 11.1479 6.65049C11.1239 6.95509 10.9556 7.34385 10.7953 7.48014C10.6471 7.60844 10.4667 7.6123 10.3864 7.49228C10.3023 7.37613 10.3061 7.23569 10.3985 6.81907C10.4706 6.49433 10.4626 6.37817 10.3665 6.43445C10.3064 6.47446 10.2424 6.73906 10.1861 7.17582C10.1339 7.60872 10.1019 7.64072 9.88149 7.49228C9.67291 7.35185 9.56475 7.09525 9.56475 6.75865C9.56061 6.18145 9.86135 5.86084 10.4024 5.86084C10.5989 5.85698 10.7029 5.88098 10.8232 5.94913ZM6.53114 6.08129C6.68731 6.23746 6.54328 6.49819 6.29469 6.49819C6.12225 6.49819 6.00223 6.35389 6.07038 6.22173C6.1744 6.03328 6.41085 5.96127 6.53114 6.08129ZM5.85793 6.5462C5.87807 6.57434 5.82979 6.64249 5.73377 6.7145C5.43717 6.95482 5.14857 7.23541 5.06856 7.36785C4.92426 7.6043 5.00841 7.5963 5.21286 7.35571C5.54946 6.95896 5.89821 6.6985 6.09052 6.6985C6.15867 6.6985 6.16253 6.7225 6.14653 6.99096C6.10238 7.64817 5.62561 8.22123 5.02027 8.34953C4.40307 8.48197 4.03832 7.97705 4.33492 7.39599C4.59151 6.88694 5.15243 6.51033 5.66148 6.50233C5.75364 6.49819 5.84193 6.51833 5.85793 6.5462ZM10.4104 7.76874C10.4987 7.84876 10.4987 7.8769 10.4184 7.95719C10.2981 8.08135 10.0418 8.01734 10.0418 7.8609C10.0418 7.70446 10.2741 7.64431 10.4104 7.76874ZM9.63704 7.81261C9.71319 7.84876 9.78134 7.89677 9.78934 7.92077C9.79348 7.94091 9.69719 8.01706 9.56889 8.08907C9.29243 8.24137 8.92768 8.50183 8.90368 8.56998C8.85567 8.68614 8.96769 8.64613 9.21628 8.45769C9.80534 8.01292 10.1861 7.98478 10.1019 8.39368C9.99765 8.89086 9.43645 9.26334 8.87139 9.21147C8.6148 9.18746 8.48264 9.11931 8.34248 8.93087C8.15017 8.67427 8.30247 8.13736 8.62308 7.94091C8.94368 7.7406 9.38845 7.68432 9.63704 7.81261ZM11.1198 8.08935C11.5085 8.22951 11.785 8.6064 11.777 8.98715C11.7728 9.29976 11.6768 9.4802 11.4685 9.58422C11.1518 9.73624 10.8552 9.66009 10.6427 9.36763C10.4104 9.05917 10.318 8.45382 10.4744 8.26152C10.6146 8.08907 10.8152 8.27366 11.1278 8.85858C11.2359 9.06303 11.3242 9.11517 11.3242 8.97888C11.3242 8.81857 11.1518 8.52611 10.9153 8.28552C10.787 8.15722 10.683 8.03693 10.683 8.01706C10.683 7.97292 10.8913 8.00906 11.1198 8.08935Z" fill="black"/>
<path d="M6.67383 6.31508L6.74511 5.76352L7.08409 5.21268L7.61375 4.87793L8.56714 4.94149L8.94426 5.32285L8.8807 6.00505L8.18579 6.5559L7.5502 6.72539L6.80867 6.522L6.67383 6.31508Z" fill="#24B44C"/>
<path d="M5.42439 3.91992L6.15744 4.22501L6.54727 4.85636L6.66168 5.93687L6.64049 6.0428L6.14473 5.91992L5.98795 6.18687L5.47524 6.19958L4.90744 5.72077L4.49219 5.03857L4.61507 4.34365L5.42439 3.91992Z" fill="white"/>
<path d="M5.69895 6.38574L5.30065 6.4832L4.67353 6.75862L4.2837 7.33066L4.15234 7.72896L4.27522 8.22472L4.72861 8.4832L5.47014 8.301L6.02099 7.67811L6.19895 7.301L6.27946 6.68235L5.69895 6.38574Z" fill="#FB7C24"/>
<path d="M9.82712 7.80704L9.90502 7.96883L10.1687 8.10067L10.1747 8.53212L9.7612 9.05946L9.22188 9.30515L8.48481 9.2632L8.19718 8.90365L8.11328 8.4662L8.39493 7.98681L8.88631 7.72914L9.45559 7.65723L9.82712 7.80704Z" fill="#FB7C24"/>
<path d="M10.6653 7.87305C10.6353 7.909 10.3717 8.17866 10.3717 8.17866L10.2578 8.79588L10.4196 9.23333L10.7732 9.6528L11.2286 9.82059L11.69 9.53894L11.9417 9.07753L11.8578 8.67004L11.5881 8.24458L11.0189 7.96293L10.6653 7.87305Z" fill="#24B44C"/>
<path d="M7.09974 10.4229L7.09375 12.0528L7.1952 12.146H7.66902L7.62408 10.6236L7.71397 10.4588L7.09974 10.4229Z" fill="white"/>
<path d="M4.92812 3.68503C4.3992 3.86934 4.2069 4.17808 4.2389 4.79115C4.25104 5.05574 4.27505 5.14376 4.35506 5.25605C4.40721 5.3322 4.45935 5.40421 4.47122 5.41635C4.48336 5.42849 4.56337 5.52865 4.64366 5.64481C4.81996 5.88512 5.10856 6.14972 5.27687 6.22587C5.34088 6.25401 5.39302 6.28602 5.39302 6.29788C5.39302 6.31002 5.29673 6.34203 5.18471 6.36989C4.69167 6.48605 4.2229 6.8428 4.01045 7.25969C3.87829 7.52015 3.83415 7.92905 3.9103 8.1575C4.07446 8.66241 4.74381 8.89472 5.27659 8.63427C5.7415 8.40582 6.37057 7.62444 6.45472 7.16754C6.49086 6.98324 6.50273 6.99124 6.57888 7.26383C6.7596 7.94505 7.02005 9.78039 7.06006 10.6661C7.0802 11.1671 7.04406 11.6237 6.98391 11.64C6.96377 11.6441 6.86361 11.3876 6.75546 11.0669C6.57115 10.506 6.37884 10.0251 6.33856 10.0251C6.33056 10.0251 6.33056 10.1294 6.33856 10.2536C6.3507 10.3819 6.3427 10.7665 6.32642 11.1072L6.29028 11.7283L6.21826 11.568C6.17826 11.4797 6.10211 11.2995 6.05382 11.1674C5.96553 10.9351 5.96167 10.9309 5.93767 11.0471C5.86565 11.3677 5.7815 11.6723 5.75336 11.6883C5.73736 11.6963 5.71335 11.6403 5.70121 11.5561C5.68907 11.4761 5.66121 11.3517 5.63306 11.2877L5.58092 11.1674L5.47662 11.3878L5.37233 11.6083L5.36019 11.448C5.33205 11.0112 5.21589 10.3899 5.08759 9.98125C5.00758 9.72879 4.93143 9.51248 4.91515 9.4962C4.89915 9.4802 4.839 10.0373 4.77499 10.7386C4.71484 11.4358 4.64283 12.029 4.62269 12.0572C4.59869 12.0853 4.52254 12.1292 4.44638 12.1573C4.35423 12.1893 4.31009 12.2293 4.31009 12.2815C4.31009 12.3535 4.33409 12.3576 4.57468 12.3375C4.71898 12.3254 4.85114 12.3055 4.86328 12.2934C4.87542 12.2812 4.91543 11.9247 4.95543 11.504C4.99544 11.0791 5.03545 10.7265 5.04759 10.7185C5.07959 10.6865 5.19575 11.4237 5.22003 11.8166C5.23217 12.045 5.25617 12.2293 5.26804 12.2293C5.28404 12.2293 5.36433 12.1932 5.45234 12.1493C5.5445 12.1013 5.6888 12.0693 5.80109 12.0693H5.9934V11.917C5.9934 11.7007 6.03341 11.6847 6.1137 11.861C6.14984 11.941 6.23399 12.0693 6.298 12.1455L6.41416 12.2856L6.43816 12.1653C6.45417 12.1013 6.46631 11.8767 6.47431 11.6684C6.47845 11.4601 6.49445 11.2077 6.51045 11.1075L6.54246 10.9271L6.61061 11.0752C6.71876 11.3238 6.79491 11.6684 6.82305 12.037C6.83519 12.2335 6.8592 12.3896 6.87106 12.3896C6.88707 12.3896 6.96322 12.3336 7.04737 12.2655L7.19553 12.1452V11.6764C7.19139 10.8749 7.12352 9.82895 7.03523 9.22388C6.92707 8.49438 6.69062 7.27625 6.61447 7.0558C6.53832 6.84335 6.53832 6.68305 6.61033 6.6229C6.68648 6.55889 6.70662 6.5989 6.88679 7.15982C7.12324 7.89732 7.27554 8.65055 7.38784 9.6405L7.45599 10.2376L7.79259 9.85295L8.12534 9.46834L8.2415 9.52848L8.35765 9.58863L8.01801 9.9727C7.8257 10.1851 7.64526 10.4095 7.61739 10.4696C7.56939 10.5618 7.56138 10.7262 7.58539 11.3873L7.60939 12.1968L7.73355 12.2729C7.88171 12.3651 8.0823 12.3692 8.23846 12.2889C8.36676 12.2208 8.38276 12.1728 8.4109 11.8039C8.43491 11.5233 8.56321 11.1947 8.70751 11.0584C8.79966 10.9742 8.80766 10.9742 8.78779 11.0463C8.68764 11.379 8.66364 12.1044 8.74365 12.2365C8.75579 12.2567 8.8198 12.2164 8.88795 12.1482C9.0844 11.9518 9.15641 11.9278 9.20055 12.0439C9.2367 12.1482 9.35285 12.2282 9.45715 12.2282C9.49329 12.2282 9.5493 12.1601 9.58131 12.0801C9.61745 11.9959 9.6856 11.8878 9.73361 11.8356C9.8139 11.7515 9.8219 11.7473 9.8459 11.8155C9.8619 11.8555 9.87791 11.9438 9.87791 12.0119C9.88204 12.1844 9.9662 12.2845 10.0744 12.2522C10.1425 12.2282 10.1626 12.1921 10.1626 12.0878C10.1626 11.6991 10.371 11.19 10.6314 10.9417L10.7716 10.8054L10.7476 10.9455C10.7034 11.2021 10.6714 12.0117 10.6996 12.1598C10.7316 12.3361 10.7837 12.3521 10.8237 12.1998C10.8557 12.0757 10.992 11.8671 11.048 11.8671C11.0682 11.8671 11.0842 11.8991 11.0842 11.9352C11.0842 11.9714 11.1242 12.0434 11.1683 12.0914L11.2566 12.1835L11.3408 12.0552C11.4611 11.8789 11.5411 11.8748 11.6092 12.0351C11.6412 12.1071 11.6614 12.1794 11.6534 12.1954C11.6492 12.2156 11.6815 12.2274 11.7254 12.2274C11.8617 12.2274 11.8697 12.055 11.7414 11.8867C11.6051 11.7062 11.5171 11.6582 11.3888 11.6902C11.3046 11.7104 11.2845 11.6982 11.2605 11.5981C11.2125 11.3936 11.1642 11.3696 11.0602 11.5098C11.0122 11.5779 10.928 11.6621 10.8797 11.6982L10.7956 11.7584L10.8237 11.5018C10.8797 10.9969 11.056 10.3355 11.1683 10.1954C11.2445 10.1071 11.1805 10.0911 11.024 10.1672C10.8157 10.2635 10.5271 10.5678 10.3428 10.8846C10.2145 11.105 10.1825 11.1412 10.1585 11.081C10.1425 11.0369 10.1265 10.9649 10.1265 10.9127C10.1185 10.7083 9.94219 10.9006 9.70574 11.3735C9.62959 11.5296 9.54544 11.6701 9.5253 11.6819C9.50515 11.6938 9.44114 11.6499 9.38513 11.5818L9.28084 11.4576L9.10454 11.6019C9.00438 11.6819 8.91223 11.7462 8.90009 11.7462C8.85208 11.7462 8.91609 11.1933 9.00438 10.8564C9.04439 10.6881 9.14068 10.4037 9.21683 10.2274C9.29298 10.0469 9.34099 9.90262 9.32499 9.90262C9.2367 9.90262 8.90423 10.1672 8.75579 10.3515C8.46664 10.7182 8.19818 11.4276 8.19818 11.8282C8.19818 12.0726 8.13003 12.1648 7.98187 12.1248C7.81356 12.0848 7.76942 11.9245 7.74155 11.2433C7.70541 10.4977 7.71341 10.4737 8.16231 10.0088L8.49092 9.66423H8.69536C9.13213 9.66423 9.63704 9.46392 9.95764 9.16318L10.1461 8.98688L10.2142 9.18332C10.3185 9.47992 10.5108 9.70838 10.7592 9.83253C11.3844 10.1531 12.1257 9.70037 12.1257 8.99902C12.1257 8.42596 11.745 8.00906 11.0318 7.80075L10.8033 7.73674L11.0238 7.53643C11.3364 7.24783 11.5005 6.89936 11.5005 6.52247C11.5047 5.80925 11.0916 5.3322 10.4747 5.3322C9.94164 5.3322 9.49274 5.62466 9.27643 6.11771C9.12413 6.46646 9.18013 7.07153 9.39672 7.37613L9.47701 7.48842L9.14427 7.50856C8.73951 7.53671 8.45091 7.65286 8.18245 7.90118C7.90599 8.15777 7.8257 8.36195 7.84585 8.7347C7.85799 8.92314 7.89799 9.11545 7.946 9.22361L8.02629 9.40791L7.77383 9.68437C7.48937 10.005 7.50124 10.013 7.45737 9.46392C7.40936 8.80671 7.14476 7.5643 6.92045 6.92309C6.87244 6.79093 6.8363 6.67063 6.8363 6.65463C6.8363 6.63863 6.91245 6.65877 7.00874 6.69877C7.5818 6.95537 8.39932 6.76692 8.90837 6.26587C9.48143 5.70082 9.46128 5.00746 8.86422 4.715C8.65591 4.6107 8.61563 4.60684 8.23101 4.62284C7.60994 4.64685 7.21705 4.83529 6.90445 5.24805L6.77615 5.42436L6.74801 5.12776C6.71186 4.75114 6.59985 4.45454 6.38326 4.16594C6.21882 3.94549 5.9625 3.73304 5.86234 3.73304C5.8342 3.73304 5.74205 3.7049 5.65403 3.67289C5.43689 3.59674 5.17644 3.60088 4.92812 3.68503ZM5.92994 4.22995C6.30656 4.4504 6.47486 4.81515 6.50714 5.46436L6.52728 5.89726H6.41112C6.34711 5.89726 6.24668 5.86526 6.18681 5.82525C5.9785 5.68895 5.64989 5.21218 5.50946 4.84329C5.4093 4.5867 5.32901 4.53869 5.36516 4.75914C5.4013 4.96359 5.60547 5.38435 5.81406 5.68095C5.91421 5.81725 5.9945 5.96955 5.9945 6.0137C5.9945 6.11385 5.85434 6.15799 5.64576 6.11799C5.43717 6.07798 5.00455 5.64122 4.84011 5.29633C4.6638 4.93158 4.6398 4.70727 4.75181 4.47882C4.93198 4.10165 5.50504 3.98136 5.92994 4.22995ZM8.45477 5.09161C8.74337 5.23177 8.88353 5.61666 8.74337 5.88898C8.58721 6.19359 8.04202 6.55034 7.6574 6.60634C7.29679 6.65435 6.75573 6.47805 6.75573 6.31774C6.75573 6.14944 7.26865 5.88098 7.72969 5.80869C8.02629 5.76455 8.1063 5.7204 7.97828 5.6724C7.87012 5.62825 7.38922 5.77669 7.08462 5.93699L6.79215 6.09729L6.8203 5.94499C6.88044 5.59625 7.1089 5.24778 7.36521 5.11148C7.66513 4.95531 8.15017 4.94731 8.45477 5.09161ZM10.8232 5.94913C11.0635 6.08129 11.1758 6.32575 11.1479 6.65049C11.1239 6.95509 10.9556 7.34385 10.7953 7.48014C10.6471 7.60844 10.4667 7.6123 10.3864 7.49228C10.3023 7.37613 10.3061 7.23569 10.3985 6.81907C10.4706 6.49433 10.4626 6.37817 10.3665 6.43445C10.3064 6.47446 10.2424 6.73906 10.1861 7.17582C10.1339 7.60872 10.1019 7.64072 9.88149 7.49228C9.67291 7.35185 9.56475 7.09525 9.56475 6.75865C9.56061 6.18145 9.86135 5.86084 10.4024 5.86084C10.5989 5.85698 10.7029 5.88098 10.8232 5.94913ZM6.53114 6.08129C6.68731 6.23746 6.54328 6.49819 6.29469 6.49819C6.12225 6.49819 6.00223 6.35389 6.07038 6.22173C6.1744 6.03328 6.41085 5.96127 6.53114 6.08129ZM5.85793 6.5462C5.87807 6.57434 5.82979 6.64249 5.73377 6.7145C5.43717 6.95482 5.14857 7.23541 5.06856 7.36785C4.92426 7.6043 5.00841 7.5963 5.21286 7.35571C5.54946 6.95896 5.89821 6.6985 6.09052 6.6985C6.15867 6.6985 6.16253 6.7225 6.14653 6.99096C6.10238 7.64817 5.62561 8.22123 5.02027 8.34953C4.40307 8.48197 4.03832 7.97705 4.33492 7.39599C4.59151 6.88694 5.15243 6.51033 5.66148 6.50233C5.75364 6.49819 5.84193 6.51833 5.85793 6.5462ZM10.4104 7.76874C10.4987 7.84876 10.4987 7.8769 10.4184 7.95719C10.2981 8.08135 10.0418 8.01734 10.0418 7.8609C10.0418 7.70446 10.2741 7.64431 10.4104 7.76874ZM9.63704 7.81261C9.71319 7.84876 9.78134 7.89677 9.78934 7.92077C9.79348 7.94091 9.69719 8.01706 9.56889 8.08907C9.29243 8.24137 8.92768 8.50183 8.90368 8.56998C8.85567 8.68614 8.96769 8.64613 9.21628 8.45769C9.80534 8.01292 10.1861 7.98478 10.1019 8.39368C9.99765 8.89086 9.43645 9.26334 8.87139 9.21147C8.6148 9.18746 8.48264 9.11931 8.34248 8.93087C8.15017 8.67427 8.30247 8.13736 8.62308 7.94091C8.94368 7.7406 9.38845 7.68432 9.63704 7.81261ZM11.1198 8.08935C11.5085 8.22951 11.785 8.6064 11.777 8.98715C11.7728 9.29976 11.6768 9.4802 11.4685 9.58422C11.1518 9.73624 10.8552 9.66009 10.6427 9.36763C10.4104 9.05917 10.318 8.45382 10.4744 8.26152C10.6146 8.08907 10.8152 8.27366 11.1278 8.85858C11.2359 9.06303 11.3242 9.11517 11.3242 8.97888C11.3242 8.81857 11.1518 8.52611 10.9153 8.28552C10.787 8.15722 10.683 8.03693 10.683 8.01706C10.683 7.97292 10.8913 8.00906 11.1198 8.08935Z" fill="black"/>
</g>
<defs>
<clipPath id="clip0_1469_16708">
<rect width="16" height="16" rx="8" fill="white"/>
</clipPath>
</defs>
</svg>
