<svg width="720" height="720" viewBox="0 0 720 720" fill="none" xmlns="http://www.w3.org/2000/svg">
<rect width="720" height="720" rx="360" fill="white"/>
<path d="M454.362 138C489.353 228.415 523.38 329.224 463.704 410.473C391.019 332.808 361.458 300.737 361.458 300.737L353.89 307.161C380.916 279.884 408.018 253.341 416.512 245.047C418.196 242.933 416.644 242.254 415.002 242.111L346.224 237.471C340.888 236.432 339.284 237.344 336.497 240.225C326.22 250.852 292.376 285.945 265.126 315.321C263.029 317.581 263.644 322.373 265.915 324.465C280.777 338.158 289.126 344.909 301.169 355.416C302.929 356.952 306.598 356.275 308.177 354.559C318.237 343.626 331.381 330.04 345.011 316.183C346.336 317.757 377.135 354.309 443.694 431.985C361.88 503.2 269.687 468.009 199.069 393.619C199.069 393.619 195.799 393.885 194.368 394.591C192.327 395.599 190.31 397.07 189.23 399.05C188.51 400.369 188.608 403.501 188.608 403.501C189.377 404.594 190.157 405.668 190.933 406.751C190.026 406.967 182.452 408.802 179.111 411.075C177.418 412.228 175.068 415.67 175.068 415.67C175.068 415.67 128.51 468.114 103.869 496.594C102.028 498.723 100.126 502.146 101.432 504.627C108.735 518.5 116.899 525.877 128.221 527.14C130.708 527.418 134.22 528.689 135.716 526.716C174.001 476.186 176.917 472.163 205.326 433.052C206.18 431.877 206.936 429.647 207.362 428.256C250.672 481.15 313.226 515.242 377.853 520.277C416.912 523.32 460.725 506.709 488.515 481.31C507.908 503.883 519.367 520.086 543.364 547.912C548.374 554.119 556.728 556.556 563.796 555.066C569.664 553.829 574.724 548.352 576.788 542.812C578.35 538.619 578.89 533.245 575.375 529.489C546.937 499.248 532.2 481.578 510.071 457.977C533.608 427.345 544.403 381.522 541.559 341.42C536.352 268.015 506.405 193.783 454.362 138ZM430.039 152.479L412.702 164.704L396.503 153.422L402.717 171.222L384.569 182.573L405.749 181.351L410.73 199.647L417.604 181.09L438.833 181.048L421.901 170.803L430.039 152.479Z" fill="#FF0000" stroke="#FF0000" stroke-width="1.52459"/>
</svg>
