<svg width="300" height="300" viewBox="0 0 300 300" fill="none" xmlns="http://www.w3.org/2000/svg">
<g clip-path="url(#clip0_1169_5446)">
<path d="M300 200H0V300H300V200Z" fill="#138808"/>
<path d="M300 100H0V200H300V100Z" fill="white"/>
<path d="M300 0H0V100H300V0Z" fill="#FF9933"/>
<path d="M185.164 151.584C185.164 160.888 181.468 169.811 174.889 176.391C168.309 182.97 159.386 186.666 150.082 186.666C140.778 186.666 131.854 182.97 125.275 176.391C118.696 169.811 115 160.888 115 151.584C115 142.28 118.696 133.356 125.275 126.777C131.854 120.198 140.778 116.502 150.082 116.502C159.386 116.502 168.309 120.198 174.889 126.777C181.468 133.356 185.164 142.28 185.164 151.584Z" stroke="#000080" stroke-width="4.67759"/>
<path d="M150.902 122.992C150.902 123.107 150.881 123.221 150.84 123.327C150.799 123.434 150.739 123.53 150.663 123.612C150.586 123.693 150.496 123.758 150.396 123.802C150.297 123.846 150.19 123.869 150.082 123.869C149.974 123.869 149.867 123.846 149.768 123.802C149.668 123.758 149.578 123.693 149.501 123.612C149.425 123.53 149.365 123.434 149.324 123.327C149.283 123.221 149.262 123.107 149.262 122.992C149.262 122.876 149.283 122.762 149.324 122.656C149.365 122.55 149.425 122.453 149.501 122.371C149.578 122.29 149.668 122.225 149.768 122.181C149.867 122.137 149.974 122.114 150.082 122.114C150.19 122.114 150.297 122.137 150.396 122.181C150.496 122.225 150.586 122.29 150.663 122.371C150.739 122.453 150.799 122.55 150.84 122.656C150.881 122.762 150.902 122.876 150.902 122.992Z" stroke="#000080" stroke-width="3.25007"/>
<path d="M150.902 180.891C150.902 181.006 150.881 181.12 150.84 181.227C150.799 181.333 150.739 181.43 150.663 181.511C150.586 181.593 150.496 181.657 150.396 181.701C150.297 181.746 150.19 181.768 150.082 181.768C149.974 181.768 149.867 181.746 149.768 181.701C149.668 181.657 149.578 181.593 149.501 181.511C149.425 181.43 149.365 181.333 149.324 181.227C149.283 181.12 149.262 181.006 149.262 180.891C149.262 180.776 149.283 180.662 149.324 180.555C149.365 180.449 149.425 180.352 149.501 180.271C149.578 180.189 149.668 180.125 149.768 180.081C149.867 180.036 149.974 180.014 150.082 180.014C150.19 180.014 150.297 180.036 150.396 180.081C150.496 180.125 150.586 180.189 150.663 180.271C150.739 180.352 150.799 180.449 150.84 180.555C150.881 180.662 150.902 180.776 150.902 180.891Z" stroke="#000080" stroke-width="3.25007"/>
<path d="M121.551 151.584C121.551 151.699 121.53 151.813 121.489 151.919C121.448 152.026 121.388 152.123 121.312 152.204C121.235 152.286 121.145 152.35 121.045 152.394C120.946 152.438 120.839 152.461 120.731 152.461C120.623 152.461 120.516 152.438 120.417 152.394C120.317 152.35 120.227 152.286 120.15 152.204C120.074 152.123 120.014 152.026 119.973 151.919C119.932 151.813 119.911 151.699 119.911 151.584C119.911 151.469 119.932 151.355 119.973 151.248C120.014 151.142 120.074 151.045 120.15 150.964C120.227 150.882 120.317 150.817 120.417 150.773C120.516 150.729 120.623 150.707 120.731 150.707C120.839 150.707 120.946 150.729 121.045 150.773C121.145 150.817 121.235 150.882 121.312 150.964C121.388 151.045 121.448 151.142 121.489 151.248C121.53 151.355 121.551 151.469 121.551 151.584Z" stroke="#000080" stroke-width="3.25007"/>
<path d="M179.752 151.584C179.752 151.699 179.731 151.813 179.69 151.919C179.649 152.026 179.589 152.123 179.513 152.204C179.437 152.286 179.346 152.35 179.246 152.394C179.147 152.438 179.04 152.461 178.932 152.461C178.824 152.461 178.718 152.438 178.618 152.394C178.518 152.35 178.428 152.286 178.352 152.204C178.275 152.123 178.215 152.026 178.174 151.919C178.133 151.813 178.112 151.699 178.112 151.584C178.112 151.469 178.133 151.355 178.174 151.248C178.215 151.142 178.275 151.045 178.352 150.964C178.428 150.882 178.518 150.817 178.618 150.773C178.718 150.729 178.824 150.707 178.932 150.707C179.04 150.707 179.147 150.729 179.246 150.773C179.346 150.817 179.437 150.882 179.513 150.964C179.589 151.045 179.649 151.142 179.69 151.248C179.731 151.355 179.752 151.469 179.752 151.584Z" stroke="#000080" stroke-width="3.25007"/>
<path d="M167.473 127.174C167.474 127.244 167.461 127.313 167.437 127.378C167.413 127.443 167.378 127.501 167.333 127.551C167.288 127.6 167.235 127.639 167.177 127.666C167.119 127.693 167.056 127.707 166.993 127.707C166.929 127.707 166.867 127.693 166.808 127.666C166.75 127.639 166.697 127.6 166.652 127.551C166.608 127.501 166.572 127.443 166.548 127.378C166.524 127.313 166.512 127.244 166.512 127.174C166.512 127.105 166.524 127.035 166.548 126.971C166.572 126.906 166.608 126.848 166.652 126.798C166.697 126.749 166.75 126.709 166.808 126.683C166.867 126.656 166.929 126.642 166.993 126.642C167.056 126.642 167.119 126.656 167.177 126.683C167.235 126.709 167.288 126.749 167.333 126.798C167.378 126.848 167.413 126.906 167.437 126.971C167.461 127.035 167.474 127.105 167.473 127.174Z" stroke="#000080" stroke-width="1.93833"/>
<path d="M134.468 127.576C134.468 127.646 134.456 127.715 134.432 127.78C134.408 127.844 134.372 127.903 134.328 127.952C134.283 128.002 134.23 128.041 134.172 128.068C134.113 128.095 134.051 128.108 133.987 128.108C133.924 128.108 133.861 128.095 133.803 128.068C133.745 128.041 133.692 128.002 133.647 127.952C133.602 127.903 133.567 127.844 133.543 127.78C133.519 127.715 133.506 127.646 133.507 127.576C133.506 127.506 133.519 127.437 133.543 127.373C133.567 127.308 133.602 127.249 133.647 127.2C133.692 127.15 133.745 127.111 133.803 127.084C133.861 127.058 133.924 127.044 133.987 127.044C134.051 127.044 134.113 127.058 134.172 127.084C134.23 127.111 134.283 127.15 134.328 127.2C134.372 127.249 134.408 127.308 134.432 127.373C134.456 127.437 134.468 127.506 134.468 127.576Z" stroke="#000080" stroke-width="1.93833"/>
<path d="M124.659 137.576C124.659 137.646 124.646 137.715 124.622 137.78C124.598 137.844 124.563 137.903 124.518 137.952C124.473 138.002 124.42 138.041 124.362 138.068C124.304 138.095 124.241 138.108 124.178 138.108C124.115 138.108 124.052 138.095 123.993 138.068C123.935 138.041 123.882 138.002 123.837 137.952C123.793 137.903 123.757 137.844 123.733 137.78C123.709 137.715 123.697 137.646 123.697 137.576C123.697 137.506 123.709 137.437 123.733 137.373C123.757 137.308 123.793 137.249 123.837 137.2C123.882 137.15 123.935 137.111 123.993 137.084C124.052 137.058 124.115 137.044 124.178 137.044C124.241 137.044 124.304 137.058 124.362 137.084C124.42 137.111 124.473 137.15 124.518 137.2C124.563 137.249 124.598 137.308 124.622 137.373C124.646 137.437 124.659 137.506 124.659 137.576Z" stroke="#000080" stroke-width="1.93833"/>
<path d="M177.484 139.185C177.484 139.255 177.472 139.324 177.448 139.389C177.424 139.453 177.388 139.512 177.344 139.561C177.299 139.611 177.246 139.65 177.188 139.677C177.129 139.704 177.067 139.717 177.003 139.717C176.94 139.717 176.878 139.704 176.819 139.677C176.761 139.65 176.708 139.611 176.663 139.561C176.618 139.512 176.583 139.453 176.559 139.389C176.535 139.324 176.523 139.255 176.523 139.185C176.523 139.115 176.535 139.046 176.559 138.982C176.583 138.917 176.618 138.858 176.663 138.809C176.708 138.759 176.761 138.72 176.819 138.693C176.878 138.667 176.94 138.653 177.003 138.653C177.067 138.653 177.129 138.667 177.188 138.693C177.246 138.72 177.299 138.759 177.344 138.809C177.388 138.858 177.424 138.917 177.448 138.982C177.472 139.046 177.484 139.115 177.484 139.185Z" stroke="#000080" stroke-width="1.93833"/>
<path d="M176.479 167.788C176.479 167.858 176.467 167.927 176.443 167.992C176.419 168.056 176.383 168.115 176.339 168.164C176.294 168.214 176.241 168.253 176.182 168.28C176.124 168.307 176.061 168.32 175.998 168.32C175.935 168.32 175.872 168.307 175.814 168.28C175.756 168.253 175.702 168.214 175.658 168.164C175.613 168.115 175.578 168.056 175.554 167.992C175.53 167.927 175.517 167.858 175.517 167.788C175.517 167.718 175.53 167.649 175.554 167.585C175.578 167.52 175.613 167.461 175.658 167.412C175.702 167.362 175.756 167.323 175.814 167.296C175.872 167.27 175.935 167.256 175.998 167.256C176.061 167.256 176.124 167.27 176.182 167.296C176.241 167.323 176.294 167.362 176.339 167.412C176.383 167.461 176.419 167.52 176.443 167.585C176.467 167.649 176.479 167.718 176.479 167.788Z" stroke="#000080" stroke-width="1.93833"/>
<path d="M125.251 166.582C125.251 166.651 125.239 166.721 125.215 166.785C125.191 166.85 125.155 166.908 125.111 166.958C125.066 167.007 125.013 167.047 124.955 167.073C124.896 167.1 124.834 167.114 124.77 167.114C124.707 167.114 124.644 167.1 124.586 167.073C124.528 167.047 124.475 167.007 124.43 166.958C124.385 166.908 124.35 166.85 124.326 166.785C124.302 166.721 124.289 166.651 124.29 166.582C124.289 166.512 124.302 166.443 124.326 166.378C124.35 166.313 124.385 166.255 124.43 166.205C124.475 166.156 124.528 166.117 124.586 166.09C124.644 166.063 124.707 166.049 124.77 166.049C124.834 166.049 124.896 166.063 124.955 166.09C125.013 166.117 125.066 166.156 125.111 166.205C125.155 166.255 125.191 166.313 125.215 166.378C125.239 166.443 125.251 166.512 125.251 166.582Z" stroke="#000080" stroke-width="1.93833"/>
<path d="M135.061 176.582C135.061 176.651 135.048 176.721 135.024 176.785C135 176.85 134.965 176.908 134.92 176.958C134.876 177.007 134.823 177.047 134.764 177.073C134.706 177.1 134.643 177.114 134.58 177.114C134.517 177.114 134.454 177.1 134.396 177.073C134.337 177.047 134.284 177.007 134.239 176.958C134.195 176.908 134.159 176.85 134.135 176.785C134.111 176.721 134.099 176.651 134.099 176.582C134.099 176.512 134.111 176.443 134.135 176.378C134.159 176.313 134.195 176.255 134.239 176.205C134.284 176.156 134.337 176.117 134.396 176.09C134.454 176.063 134.517 176.049 134.58 176.049C134.643 176.049 134.706 176.063 134.764 176.09C134.823 176.117 134.876 176.156 134.92 176.205C134.965 176.255 135 176.313 135.024 176.378C135.048 176.443 135.061 176.512 135.061 176.582Z" stroke="#000080" stroke-width="1.93833"/>
<path d="M165.897 177.989C165.897 178.059 165.885 178.128 165.861 178.193C165.837 178.257 165.801 178.316 165.757 178.366C165.712 178.415 165.659 178.454 165.601 178.481C165.542 178.508 165.48 178.522 165.416 178.522C165.353 178.522 165.291 178.508 165.232 178.481C165.174 178.454 165.121 178.415 165.076 178.366C165.031 178.316 164.996 178.257 164.972 178.193C164.948 178.128 164.935 178.059 164.936 177.989C164.935 177.919 164.948 177.85 164.972 177.786C164.996 177.721 165.031 177.662 165.076 177.613C165.121 177.564 165.174 177.524 165.232 177.498C165.291 177.471 165.353 177.457 165.416 177.457C165.48 177.457 165.542 177.471 165.601 177.498C165.659 177.524 165.712 177.564 165.757 177.613C165.801 177.662 165.837 177.721 165.861 177.786C165.885 177.85 165.897 177.919 165.897 177.989Z" stroke="#000080" stroke-width="1.93833"/>
<path d="M138.986 117.615C135.481 113.684 134.531 112.822 135.016 108.852C135.589 104.168 145.347 102.941 150.998 103.002C156.649 103.064 164.532 104.666 164.546 110.366C164.552 112.561 162.785 115.979 160.702 117.073" stroke="#000080" stroke-width="2.27398"/>
<path d="M150.786 152.371C150.786 152.514 150.754 152.657 150.692 152.79C150.629 152.923 150.536 153.043 150.42 153.145C150.303 153.247 150.165 153.328 150.013 153.383C149.86 153.438 149.697 153.466 149.532 153.466C149.367 153.466 149.203 153.438 149.051 153.383C148.899 153.328 148.76 153.247 148.644 153.145C148.527 153.043 148.435 152.923 148.372 152.79C148.309 152.657 148.277 152.514 148.277 152.371C148.277 152.227 148.309 152.085 148.372 151.952C148.435 151.819 148.527 151.698 148.644 151.596C148.76 151.495 148.899 151.414 149.051 151.359C149.203 151.304 149.367 151.275 149.532 151.275C149.697 151.275 149.86 151.304 150.013 151.359C150.165 151.414 150.303 151.495 150.42 151.596C150.536 151.698 150.629 151.819 150.692 151.952C150.754 152.085 150.786 152.227 150.786 152.371Z" stroke="#000080" stroke-width="4.49146"/>
<path fill-rule="evenodd" clip-rule="evenodd" d="M148.78 151.783L136.88 144.955L148.78 151.783Z" fill="#000080"/>
<path d="M148.78 151.783L136.88 144.955" stroke="#000080" stroke-width="0.535768" stroke-miterlimit="1.1"/>
<path fill-rule="evenodd" clip-rule="evenodd" d="M149.181 152.629L169.141 142.447L149.181 152.629Z" fill="#000080"/>
<path d="M149.181 152.629L169.141 142.447" stroke="#000080" stroke-width="0.596041" stroke-miterlimit="5.8" stroke-linecap="round"/>
<path d="M150.082 108.005C150.082 108.712 150.082 111.253 150.082 112.839C150.082 113.408 150.082 113.977 150.082 114.546" stroke="#000080" stroke-width="3.95245"/>
<path d="M154.707 108.641H145.457C145.318 108.641 145.206 108.733 145.206 108.846C145.206 108.959 145.318 109.051 145.457 109.051H154.707C154.845 109.051 154.958 108.959 154.958 108.846C154.958 108.733 154.845 108.641 154.707 108.641Z" fill="#000080" stroke="#000080" stroke-width="3.94842" stroke-miterlimit="2.3"/>
<path d="M136.107 186.058L130.377 197.619" stroke="#000080" stroke-width="5"/>
<path d="M160.94 186.259L166.67 197.82" stroke="#000080" stroke-width="5"/>
<path d="M133.896 195.106H128.467C127.578 195.106 126.858 195.826 126.858 196.715V197.318C126.858 198.206 127.578 198.926 128.467 198.926H133.896C134.784 198.926 135.504 198.206 135.504 197.318V196.715C135.504 195.826 134.784 195.106 133.896 195.106Z" fill="#000080" stroke="#000080" stroke-width="0.52125" stroke-miterlimit="5.8" stroke-linecap="round"/>
<path d="M168.196 195.106H162.767C161.879 195.106 161.159 195.826 161.159 196.715V197.318C161.159 198.206 161.879 198.926 162.767 198.926H168.196C169.084 198.926 169.805 198.206 169.805 197.318V196.715C169.805 195.826 169.084 195.106 168.196 195.106Z" fill="#000080" stroke="#000080" stroke-width="0.52125" stroke-miterlimit="5.8" stroke-linecap="round"/>
</g>
<defs>
<clipPath id="clip0_1169_5446">
<rect width="300" height="300" rx="150" fill="white"/>
</clipPath>
</defs>
</svg>
