<svg width="450" height="450" viewBox="0 0 450 450" fill="none" xmlns="http://www.w3.org/2000/svg">
<path d="M0 225C0 100.736 100.736 0 225 0C349.264 0 450 100.736 450 225C450 349.264 349.264 450 225 450C100.736 450 0 349.264 0 225Z" fill="#F72C0C"/>
<path d="M162.824 95.478C164.736 93.6416 166.455 91.5941 168.589 90C169.086 90.9813 169.604 92.0527 169.314 93.1825C168.576 97.7834 168.007 102.409 167.508 107.041C166.468 113.444 165.451 119.853 164.74 126.302C164.745 127.147 164.493 128.372 165.431 128.826C167.249 129.876 169.331 130.337 171.228 131.222C181.494 135.662 192.413 138.538 202.369 143.691C199.945 144.793 197.307 145.27 194.683 145.599C190.752 146.048 186.919 147.148 182.961 147.383C180.718 147.486 178.578 148.173 176.401 148.638C172.283 149.309 168.159 149.941 164.027 150.517C163.022 150.745 161.581 150.782 161.293 152.013C159.999 155.86 160.192 159.989 159.661 163.972C159.255 167.055 159.261 170.185 158.665 173.244C158.062 176.444 157.961 179.713 157.374 182.917C154.637 181.693 153.216 178.945 151.402 176.731C148.315 172.866 145.47 168.81 142.263 165.041C139.784 162.131 137.854 158.798 135.355 155.905C134.712 154.988 133.517 155.07 132.532 155.108C127.155 155.56 121.857 156.734 116.459 156.971C111.112 157.278 105.769 157.95 100.407 157.61C102.335 154.771 105.07 152.667 107.579 150.379C111.942 146.662 115.882 142.487 119.937 138.444C120.474 137.81 121.44 137.03 120.852 136.121C119.519 133.776 117.564 131.87 115.959 129.72C112.36 124.956 108.677 120.256 105 115.552C102.297 111.936 99.1385 108.556 97.3998 104.327C102.58 105.257 107.322 107.683 112.391 109.026C119.919 111.557 127.153 114.867 134.567 117.702C135.835 118.186 137.131 118.696 138.504 118.759C139.526 118.872 140.253 118.011 140.947 117.401C144.615 113.555 148.375 109.796 152.177 106.082C155.907 102.732 159.237 98.9746 162.824 95.478Z" fill="#FEFEFE"/>
<path d="M242.793 120.819C250.43 120.975 257.977 122.23 265.536 123.207C274.398 125.033 283.057 127.898 291.253 131.739C294.4 133.222 297.102 135.449 300.033 137.293C302.733 139.078 305.547 140.708 308.067 142.753C313.186 147.008 318.753 150.817 323.039 155.979C325.091 158.556 327.565 160.769 329.49 163.451C332.056 166.925 334.253 170.659 336.086 174.57C338.169 179.063 340.941 183.274 342.228 188.102C344.075 193.973 345.302 200.013 346.274 206.084C348.226 215.491 347.771 225.134 347.777 234.677C347.697 237.211 347.1 239.689 346.526 242.147C345.89 244.673 345.718 247.291 345.049 249.811C344.51 251.997 343.567 254.049 342.811 256.163C341.298 260.97 339.011 265.505 336.45 269.832C334.331 273.415 331.865 276.848 328.733 279.619C327.67 280.565 326.71 281.618 325.815 282.722C330.338 287.501 335.4 291.727 340.177 296.243C342.925 299.129 345.7 301.996 348.719 304.606C351.674 307.081 353.378 311.059 352.929 314.909C352.191 318.427 350.07 321.528 347.71 324.175C345.303 326.384 342.519 328.63 339.133 328.905C337.186 329.087 335.215 329.237 333.269 329.017C330.922 328.673 329.101 327.006 327.356 325.54C322.971 321.696 318.576 317.832 314.78 313.39C311.371 309.435 307.941 305.493 304.35 301.705C303.372 300.885 302.131 299.313 300.734 300.159C298.025 301.62 295.551 303.504 292.731 304.771C287.666 307.064 282.85 309.951 277.519 311.617C272.584 313.4 267.378 314.182 262.239 315.125C255.629 316.413 248.862 316.238 242.174 316.765C238.591 317.052 235.085 316.159 231.579 315.585C221.055 313.982 210.739 311.04 200.955 306.85C196.843 305.841 193.271 303.545 189.505 301.718C182.279 298.332 176.197 293.091 169.854 288.352C166.032 284.96 162.349 281.392 159.016 277.513C156.804 274.948 154.25 272.659 152.416 269.786C149.384 265.059 145.693 260.783 142.887 255.908C141.895 254.396 141.003 252.541 139.243 251.816C136.301 251.518 133.177 253.53 132.288 256.37C133.387 258.737 135.718 260.3 136.931 262.641C134.059 263.378 130.987 263.721 128.43 265.337C123.316 268.637 119.361 273.363 115.653 278.115C112.401 282.449 109.711 287.174 106.485 291.527C104.462 294.302 101.57 296.232 98.7786 298.152C95.4334 300.415 91.4641 301.955 87.3686 301.692C83.1706 301.744 78.9561 300.258 75.9615 297.267C73.1847 294.887 71.5046 291.399 71.1486 287.78C70.5408 282.945 71.779 277.697 75.212 274.115C79.4749 269.325 85.3109 266.378 91.0961 263.847C93.8068 262.665 95.9388 260.539 98.5536 259.188C104.581 255.928 110.946 252.89 115.707 247.821C117.357 246.098 118.115 243.768 119.565 241.907C119.749 241.867 120.116 241.786 120.3 241.746C121.807 242.739 122.713 244.512 124.371 245.273C125.963 245.292 127.228 244.103 128.466 243.25C132.888 239.755 137.43 236.349 141.281 232.208C142.554 230.852 143.951 229.616 145.459 228.526C148.237 232.729 150.775 237.1 153.853 241.098C156.12 244.002 158.455 246.859 160.934 249.587C164.232 252.973 167.952 255.906 171.666 258.816C173.944 260.938 176.502 262.712 179.079 264.448C184.622 268.495 190.865 271.407 196.738 274.921C201.548 277.83 206.945 279.505 212.125 281.608C215.776 283.112 219.749 283.415 223.544 284.402C231.687 285.953 240.02 285.714 248.271 285.625C252.173 285.667 255.958 284.629 259.75 283.845C263.655 283.004 267.32 281.383 271.073 280.064C273.75 279.017 276.531 277.88 278.618 275.843C279.361 274.954 278.232 273.996 277.701 273.329C273.99 269.654 270.572 265.696 266.764 262.119C263.182 258.32 259.473 254.643 256.003 250.742C253.834 248.57 251.622 246.436 249.67 244.062C247.74 241.809 245.401 239.951 243.49 237.681C241.14 234.846 238.448 232.328 235.922 229.657C232.86 226.65 230.136 223.316 226.94 220.446C221.252 215.44 216.338 209.626 210.67 204.606C209.355 203.436 207.726 204.83 206.658 205.672C203.444 208.597 200.64 211.988 197.08 214.522C193.417 211.466 190.354 207.791 187.049 204.371C182.137 199.219 176.844 194.434 172.064 189.159C175.403 185.45 179.208 182.212 182.793 178.752C185.067 176.531 187.701 174.718 189.963 172.482C192.597 169.894 195.719 167.871 198.351 165.28C199.926 163.841 201.276 162.109 203.138 161.018C204.131 160.409 205.353 160.719 206.418 160.941C208.532 161.5 210.639 162.096 212.778 162.567C218.342 163.944 224.244 163.594 229.747 162.1C232.424 161.414 234.695 159.785 237.041 158.401C240.039 160.539 242.289 163.486 244.865 166.078C246.339 167.549 247.691 169.147 248.788 170.925C243.09 176.132 236.832 180.688 231.031 185.779C229.461 187.143 227.593 188.141 226.132 189.627C225.661 190.055 225.794 190.809 226.211 191.225C227.454 192.73 229.053 193.884 230.439 195.251C233.445 198.194 236.937 200.581 239.909 203.563C245.403 208.459 250.929 213.337 256.034 218.647C259.267 222.08 263.05 224.917 266.536 228.079C269.876 231.101 273.387 233.934 276.53 237.169C283.377 243.024 289.903 249.245 296.609 255.262C297.534 256.052 298.417 256.943 299.539 257.459C300.514 257.816 301.372 256.985 302.051 256.397C305.117 253.468 307.366 249.826 309.576 246.241C311.516 242.806 313.559 239.405 315.086 235.759C316.829 230.829 317.847 225.687 319.058 220.61C319.649 218.119 319.839 215.559 320.035 213.014C320.646 207.11 320.959 201.066 319.672 195.227C318.68 190.608 318.078 185.847 316.123 181.499C314.062 176.011 311.103 170.939 308.546 165.682C306.052 161.278 302.939 157.217 299.445 153.561C295.234 149.552 291.298 145.19 286.521 141.832C283.298 139.82 280.234 137.526 276.803 135.869C273.477 134.309 270.251 132.548 266.929 130.982C260.302 127.887 253.194 125.992 246.015 124.703C244.788 124.368 243.184 124.382 242.433 123.194C242.45 122.39 242.644 121.605 242.793 120.819Z" fill="#FEFEFE"/>
</svg>
