<svg width="76" height="364" viewBox="0 0 76 364" fill="none" xmlns="http://www.w3.org/2000/svg">
<path d="M71.6244 342.535L71.5385 343.517L73.1472 344.158L73.365 349.337L76 353.2L74.5129 353.152L75.8975 355.103L74.6951 355.495L73.7797 357.473L73.9955 361.41L73.1389 362.301L71.7501 361.275L70.6986 364L69.733 363.549L70.2022 361.271L68.9329 360.613L68.6794 357.997L66.9765 356.463L67.1211 354.834L64.8673 352.484L63.5142 352.859L63.2608 348.755L64.0253 348.184L63.1874 347.619L64.528 344.761L66.61 344.883L67.7913 343.682L69.6304 344.257L69.8231 342.834L71.6244 342.535ZM65.7051 333.55L67.5798 337.253L62.8691 342.438L61.6751 339.53L62.1737 336.779L65.7429 335.797L65.7051 333.55ZM51.1017 307.845L52.4003 308.627L52.5135 310.625L53.2925 310.365L54.828 312.039L54.6813 314.593L52.9659 313.049L50.0669 313.86L49.4636 312.534L50.1403 311.525L48.3494 311.881L48.7641 308.831L51.1017 307.845ZM58.437 307.699L59.9932 309.309L59.7628 312.115L56.6795 309.617L57.7875 307.834L58.5899 309.107L58.437 307.699ZM59.8109 303.395L60.4205 307.269L59.0548 303.716L59.8109 303.395ZM57.5257 298.699L58.3511 300.183L56.4994 302.379L58.483 305.031L58.5689 307.341L57.706 306.776L56.7319 307.442L56.4009 309.063L55.7202 306.972L56.6125 307.139L56.8513 305.914L57.1571 306.86L57.6745 305.457L55.7098 306.641L55.9025 304.888L54.5891 303.53L54.3462 301.254L57.5257 298.699ZM44.7572 297.18L44.9394 299.161L44.0932 298.088L44.7572 297.18ZM39.9773 293.181L40.7292 293.597L39.9835 296.701L43.4166 299.395L43.1863 300.356L39.8495 299.163L38.2661 297.011L38.5949 293.923L39.9773 293.181ZM36.3641 287.975L36.961 289.491L35.985 289.071L36.3641 287.975ZM61.449 283.532L62.6093 288.188L61.9182 288.247L61.7506 290.268L61.449 283.532ZM25.135 253.782L26.7374 255.928L28.0612 255.352L26.7919 256.094L27.0117 258.467L25.2104 259.435L22.6781 259.104L22.2005 255.141L24.2113 255.068L24.5276 253.255L25.135 253.782ZM13.2105 180.164L13.8452 181.61L13.9164 180.729L15.0747 181.696L15.1648 184.468L16.3608 185.105L16.7588 189.95L14.2704 192.876L15.5607 194.389L13.087 197.384L9.65187 195.753L7.48396 196.469L9.02972 192.791L7.26401 190.437L7.07966 185.345L8.01809 186.287L10.6237 181.785L12.4921 180.476L12.9759 181.437L13.2105 180.164ZM18.7172 152.792L20.663 156.082L19.0649 157.397L21.0003 158.284L20.8851 159.047L16.985 160.128L16.0759 159.209L16.3335 157.698L17.9066 157.479L17.4981 154.4L18.7172 152.792ZM16.7776 151.382L16.1828 151.704L16.5724 149.784L16.7776 151.382ZM0.19266 149.114L2.46534 149.482L2.42551 152.237L0 151.927L0.19266 149.114ZM14.2599 148.622L15.5628 149.27L13.841 150.823L14.2599 148.622ZM35.3546 137.875L37.6063 138.223L36.6322 139.269L35.1325 138.548L35.3546 137.875ZM33.1049 129.35L33.6725 128.907L34.8539 130.011L36.8081 135.196L36.3117 136.132L34.456 133.089L33.3187 133.169L31.1759 131.046L32.906 128.629L33.1049 129.35ZM33.968 126.245L34.1229 128.903L32.7678 127.621L32.6714 126.102L33.968 126.245ZM35.6583 123.819L36.4354 128.823L34.745 127.459L34.7575 126.049L32.4933 124.481L33.7814 124.215L34.6633 125.425L35.6583 123.819ZM37.4492 121.383L38.6074 124.47L37.713 127.107L36.0709 124.877L37.4492 121.383ZM21.3228 120.293L21.4485 123.442L23.4761 123.113L22.2529 127.432L24.9508 128.755L24.004 129.938L23.0069 129.025L22.8917 130.144L24.3013 130.901L22.1188 132.581L22.3513 137.555L23.3316 133.898L24.9905 133.723L25.1665 135.283L23.7274 144.19L23.1892 143.72L23.0676 144.736L21.3648 143.975L21.6433 145.632L19.8001 146.359L20.1269 147.642L20.7427 146.953L21.0443 147.754L22.5922 146.121L22.2236 144.909L23.7609 145.842L21.7774 154.261L21.2076 152.929L18.9539 152.26L18.9706 150.009L17.6825 150.437L17.2594 147.889L18.4806 148.077L18.845 147.149L18.292 146.496L17.2531 147.229L16.3776 143.497L15.2255 144.546L14.5469 138.246L13.5227 138.676L13.1079 137.671L15.2507 133.257L16.3189 135.898L16.9724 135.468L17.0834 137.214L17.3851 136.628L17.9381 126.251L21.3228 120.293ZM22.8938 121.073L23.6689 121.045L23.4154 122.58L22.3136 122.392L22.8938 121.073ZM30.1306 119.384L30.646 120.849L29.6908 120.369L29.4833 121.305L29.14 120.031L30.1306 119.384ZM37.8492 119.11L38.2409 120.219L39.0871 119.188L38.8588 121.713L37.2188 120.582L37.8492 119.11ZM31.8712 118.265L31.025 120.504L30.1201 117.932L31.2282 118.276L31.5654 116.929L31.8712 118.265ZM24.6449 116.942L27.3218 117.717L28.5806 117.15L29.586 118.931L28.2497 119.835L29.1985 122.11L27.7114 121.994L27.8957 123.787L26.6577 123.442L25.7655 124.993L26.2158 126.062L24.1192 128.02L23.0007 126.61L24.3495 120.238L23.1389 119.848L23.4929 118.579L24.1149 119.028L24.8669 118.073L24.6449 116.942ZM71.2579 116.469L72.8163 117.939L73.055 120.247L70.6861 119.878L70.1666 118.065L71.2579 116.469ZM32.485 112.256L31.4754 114.735L30.9056 114.505L31.3978 112.237L32.485 112.256ZM21.767 93.6431L22.0643 98.594L21.0464 95.0594L21.767 93.6431ZM30.007 89.7396L31.0167 89.8999L30.2773 91.1286L31.2826 91.1813L32.4284 94.6317L31.5529 96.126L33.5846 99.0052L32.6002 102.025L33.0547 108.576L31.4627 109.293L31.4188 109.961L32.596 109.877L30.7255 110.954L30.6899 112.652L26.995 111.67L29.8248 116.503L27.0893 117.29L24.4207 116.52L23.6856 117.599L22.1795 117.391L21.2601 116.124L21.6119 104.072L20.6045 103.57L21.4674 103.6L23.6227 100.755L22.5168 99.7492L23.3065 98.4298L22.3325 93.7297L22.942 94.4842L26.1845 90.4248L27.5521 91.5166L28.8677 91.2047L30.007 89.7396ZM21.0967 86.3167L22.1587 86.9279L22.2299 90.9747L21.3397 93.0971L20.2065 93.3354L20.8034 94.1952L19.888 95.7318L19.0104 92.1972L19.9489 87.674L21.0967 86.3167ZM34.7345 86.0912L33.5428 87.4379L33.6894 88.8987L32.3363 88.6267L32.6776 86.4515L33.2243 87.339L34.7345 86.0912ZM35.7295 60.1242L36.4123 62.2909L35.9599 66.3505L36.4249 67.7647L37.1307 66.989L37.5455 67.6656L36.8626 68.7427L38.4105 70.8272L37.3235 72.3068L35.876 70.4057L34.5838 70.041L33.8401 71.1433L33.1343 69.7312L32.2714 70.4667L34.8539 71.5437L34.9859 73.4976L36.4605 73.2595L36.4458 74.2859L37.3612 73.6852L35.851 77.9027L35.9682 82.3099L34.611 84.6684L32.9415 84.3775L33.3291 85.3745L31.5759 83.212L30.7695 83.5197L30.1286 84.9741L31.7435 87.2461L30.5956 88.3591L30.3589 86.6286L29.276 86.7319L28.055 89.219L28.8677 91.2047L27.5521 91.5166L25.4136 89.805L25.4115 86.6013L26.4693 86.5506L26.7688 85.3829L25.1581 85.1301L25.5225 81.9285L26.6432 81.6166L26.1069 80.2423L27.7512 79.69L26.0943 79.0641L26.8861 75.3018L28.057 74.3766L26.6557 73.4745L27.5208 72.3616L26.618 72.0097L27.3972 69.0799L28.6037 68.5952L27.5564 67.8448H28.6414L29.3599 66.6055L28.811 64.7254L31.3455 63.3597L30.8219 61.7956L32.8934 61.4311L33.9533 62.1814L33.9051 60.139L34.8832 61.5428L35.7295 60.1242ZM35.1325 55.4894L35.6583 57.7089L33.4191 56.4421L35.1325 55.4894ZM62.5633 0L61.2709 3.03716L61.3149 1.30879L62.5633 0Z" fill="#818181"/>
</svg>
