<svg width="457" height="473" viewBox="0 0 457 473" fill="none" xmlns="http://www.w3.org/2000/svg">
<path d="M416.897 163.98L418.577 166.62L419.298 167.34V168.541L417.858 171.421L410.177 172.861L408.496 172.621L408.977 175.741V178.862H409.697L410.417 179.342L410.897 181.502L409.697 181.982L405.376 184.382L404.177 185.342L400.575 187.263L399.615 189.183V192.783L401.296 199.264L402.736 205.504L404.896 210.545L402.736 212.225L396.976 214.865L397.216 217.506L397.695 218.706L399.136 219.186L400.815 222.066L405.856 228.067L406.816 228.547L407.776 231.427L412.098 237.908L414.737 236.468L416.178 236.708L423.618 239.828L425.299 240.788L425.779 242.229L426.259 244.148L428.419 245.588L430.819 246.309L434.42 244.628L436.82 244.148L438.98 244.628L441.381 246.309L444.501 250.148L443.78 250.869L439.7 252.549L437.061 253.029L439.221 256.63L443.061 267.189L445.461 272.23L441.381 275.352L434.9 279.191L429.859 283.032L430.1 284.232V287.354L428.419 288.073L427.219 289.514L429.38 294.554L430.819 295.514L435.38 292.873L441.141 290.232L443.301 290.475L444.262 292.152L441.861 294.794L438.501 297.914L439.94 299.354L441.381 302.715L439.7 306.555L436.34 309.195L437.78 311.835L436.101 314.956L430.819 319.518L429.618 322.637L425.059 327.438L420.019 330.316L414.978 333.197L411.137 335.838L405.615 339.438L401.296 342.559L400.336 345.919L398.655 349.039L391.215 353.359L390.015 355.279L390.494 356.96L391.215 359.602L390.015 360.08L385.453 366.801L381.853 371.842L379.693 374.962L375.853 380.242L373.933 385.283L375.372 387.684L378.492 389.604L376.572 391.764L371.531 393.204L369.132 396.564L372.732 399.925L375.372 398.725L379.452 402.564L384.734 409.285V411.445L380.653 415.286L380.894 416.246L381.372 418.646L379.693 420.087L377.293 417.927L374.412 416.486L369.371 419.848L359.77 427.047L356.891 430.168L354.73 431.607L353.289 434.968L353.05 438.328L352.329 439.769L349.448 441.688L346.089 444.569L343.448 446.729L340.568 448.89L335.528 452.49L332.647 454.17H328.087L325.927 455.13L318.966 459.69L313.686 463.291L308.645 462.331L306.484 461.851L305.283 463.771L298.322 464.251L289.683 463.771L283.201 463.051L281.041 461.851L280.561 461.611L278.161 459.69L274.08 455.851L273.36 454.41L268.56 452.25L249.357 443.369L222.714 428.487L203.512 417.206L197.511 413.126L194.15 410.484L191.27 406.165L187.189 400.645V396.805L185.749 396.564L181.429 396.324L179.989 393.443L178.309 392.725L174.948 392.964L172.788 393.924L168.227 393.684L165.107 394.884H161.026L159.586 395.604L152.865 397.044L150.945 397.766L148.785 398.725L146.624 399.686L146.385 397.284V396.564L145.904 395.364L144.944 392.482L144.224 390.084L142.304 384.083L139.904 384.562L137.503 385.764L136.303 386.482L135.343 383.843L134.383 378.562L131.503 368.961L131.743 366.081L132.463 363.921L130.783 362.961L125.262 365.841L118.781 368.241L114.701 369.441L111.34 369.682L109.9 368.723L111.1 355.52L111.82 349.279L114.221 346.159L111.1 344.719L110.14 341.357L113.261 335.838L113.741 331.997H112.3L110.86 331.758L110.62 325.997L110.86 323.598L109.66 323.116L103.659 321.916L98.8594 321.438L94.0584 320.477L88.2974 319.518L84.6974 318.557L83.7374 317.355L84.4574 307.995L83.9774 305.114L83.7374 303.193L87.3374 300.555L88.2974 298.634L85.8974 293.594L83.0174 288.793L83.2574 286.633L87.5774 285.191L89.4984 283.032L88.5384 280.393L88.0584 275.111V268.391L88.7774 262.87L89.7384 260.23L89.0184 258.79L85.1774 259.75L81.0974 252.309L78.6964 247.989L73.8954 244.389L71.7354 241.268L70.5354 240.788L67.4154 241.268L63.5744 236.948L59.2544 232.627L56.3744 227.106L53.0134 221.346L50.6134 215.826L48.4534 213.425L46.5324 209.825L42.9324 203.824L41.7314 199.504L40.0514 195.903L37.4114 194.223L31.6504 197.583L27.0904 199.024L25.4104 199.744L23.2494 199.984L20.1294 196.863L14.8484 191.823L13.6484 190.143L14.3684 188.943L19.6494 184.622L21.0894 182.462L20.3694 178.622L18.4494 174.541L17.9694 171.421L20.6094 170.941L22.2894 168.061L23.4894 165.18L25.1694 156.06L23.0094 151.259L19.8894 150.299L18.9294 144.538L24.4504 139.498L28.0504 135.897L31.4104 133.497L34.0514 132.537L39.5714 127.256L45.8124 123.416L50.8534 120.536L53.4934 119.335L55.8944 118.375H58.7744L65.4954 120.536L68.3754 118.615L68.8554 116.695L71.2554 114.775L75.0964 114.295L77.9764 109.495L82.0574 109.734L82.5374 112.375L88.5384 115.495L94.2984 116.215L101.019 115.975L106.78 111.895L112.061 110.455L116.621 107.814L121.182 106.134L126.702 103.494L130.783 103.014L136.303 103.254L136.783 99.8941L136.543 97.2531L137.744 94.3731L139.184 92.9331L141.824 89.0921L142.064 85.9721L140.144 83.0921L137.744 80.2111L137.264 79.0111L139.664 76.8511H142.544H145.904L148.065 76.1311L149.745 74.6911L153.345 69.8911L156.226 66.0501L158.626 65.3301L159.106 63.6501L159.586 61.7291V59.3291L159.826 56.6891L160.066 55.0091L157.186 47.8081L158.866 47.5681L160.306 46.8481L163.427 46.1281L166.307 44.6881L170.388 43.7281L174.228 42.2881L180.228 39.8871V37.7271L180.469 35.3271L182.149 34.1271L183.589 32.4461L185.029 30.5261L188.15 29.0861L192.95 25.4861L195.11 24.2861L198.711 21.6461L201.352 20.6861L203.992 19.2451L206.392 18.0451L210.232 16.8451L213.113 18.2851L214.313 17.5651L215.273 16.6051L218.394 14.4451L220.794 13.2451L221.034 15.6451L223.194 22.1251L227.995 28.3661L231.355 30.5261L234.715 32.2071L238.796 32.6871L241.196 33.4071L243.837 34.6071L245.517 34.8471L249.837 35.5671L253.197 36.5271L257.758 44.6881L261.599 54.2891L268.319 72.5311L269.52 73.2511L271.44 73.0111L274.08 72.5311L276.961 71.0901L278.161 70.6101L279.841 71.0901L279.361 73.4911L277.921 75.8911L276.48 77.5711L275.52 81.6511L272.88 81.8921L267.6 81.6511L265.439 82.6121H262.799L262.319 83.3321L261.358 84.0521L260.639 84.2921L259.438 85.9721L257.998 87.8921L256.318 88.8531L254.638 90.2921L253.437 91.9731L252.478 93.4131L251.277 97.9731L253.437 101.094L254.158 100.614L257.278 100.134L260.398 99.8941L264.959 100.134L268.56 99.8941L272.88 100.134L273.84 102.294L276.24 105.414L277.681 107.094L284.642 103.494L288.722 101.813L290.883 101.574L294.723 102.294H297.123L298.563 101.813L298.083 99.8941L297.123 97.0131L300.483 95.8131L304.564 94.1331L304.804 89.5721L306.004 88.3721L307.444 87.8921L310.085 85.9721L313.204 84.5321L314.886 82.3721L315.605 81.6511L318.726 82.1321H320.165L320.886 80.9321L323.046 81.6511L324.967 80.4521L326.167 78.5311L328.807 77.8111L330.487 76.1311L331.687 74.4511L332.406 73.4911H335.528L340.089 73.7311L342.009 73.4911H346.328L349.689 72.2911L351.369 73.9711L352.81 76.6111L354.73 79.2511L355.449 83.5721L357.131 86.2121H358.33L360.971 86.4521H362.651L363.611 88.8531L364.811 91.0131L364.33 94.1331L363.852 96.5331L363.131 97.0131L360.971 98.9341L359.77 99.6531L358.811 100.854L357.61 101.574L356.65 102.294L354.25 103.254L352.329 104.694L350.17 106.374L348.01 107.814L345.849 108.774L343.929 110.214L340.809 111.415L338.648 112.135L335.528 112.855L332.647 115.495L324.007 116.695L317.284 121.976L318.485 123.896L320.886 129.417L324.007 135.417L326.646 140.218L330.728 145.979L334.808 151.019L337.928 155.339L342.728 161.1L343.209 163.74L343.929 163.5L346.328 163.26L348.249 163.5L353.05 165.18L354.25 164.94L355.931 162.78L357.851 162.06L358.811 159.42V157.979L358.33 155.819L358.091 152.939L357.369 150.539L357.131 149.339L355.69 147.418L356.171 140.218L360.251 139.498L362.41 137.817L365.53 137.337L370.092 136.377L373.692 135.897L377.532 134.217L380.894 133.737L383.294 130.137L388.334 134.217L397.216 145.018L406.097 152.699L410.177 157.739L411.857 159.66L416.178 163.5L416.897 163.98Z" fill="#818181"/>
</svg>
