<svg width="785" height="881" viewBox="0 0 785 881" fill="none" xmlns="http://www.w3.org/2000/svg">
<path fill-rule="evenodd" clip-rule="evenodd" d="M196.921 370.465L201.475 370.817H204.627L207.428 370.465L209.879 369.76L211.28 369.408L213.031 369.055L213.381 368.35L213.732 367.293L214.082 366.941H216.533L222.136 367.998L228.441 369.408H230.892H231.592H232.293H232.643V369.055L234.044 364.472L236.845 355.662L237.195 354.253L237.546 353.9L238.246 353.548L243.849 348.967L244.9 347.91L245.95 345.795L249.802 338.746L251.553 334.517L245.248 326.058L241.746 323.591L237.544 319.715L234.391 317.248L231.94 315.486L230.189 314.076L228.788 313.724L222.485 311.61L216.18 309.495L212.678 308.086L209.877 307.733H208.476L206.375 308.79L202.523 310.2L195.517 313.372L185.711 317.249L183.96 318.659L182.909 319.716L180.808 324.65L175.554 332.756L173.453 336.28L173.103 337.338L172.402 339.1L172.052 342.624L172.402 350.026V351.788L172.052 352.492L172.402 353.55L172.753 354.607L175.204 356.721L181.158 362.712L186.061 366.59L189.563 368.704L190.964 369.409L192.715 370.114L196.921 370.465ZM473.952 22.2568L479.556 29.6587V30.3635L479.906 32.4779L479.556 38.8226L486.561 39.175L488.312 44.8134L489.713 47.2802L490.063 47.985L490.762 49.0422L492.513 50.8042L493.213 51.8614L493.564 52.9186L493.912 53.6234V53.9758L493.564 54.6806L493.213 55.3854L492.863 56.0902L491.813 56.795L491.463 57.1474H491.112L491.463 58.9094L492.161 60.6714L493.213 62.081L494.264 63.1382L495.315 64.1954L496.717 64.9002L497.767 65.605L498.118 66.6622V67.7194L497.767 68.4242V69.129V69.4814L498.468 70.891L499.167 72.653V74.0626V75.1198L499.517 76.177L499.167 78.9962L501.968 79.3486L506.172 82.1678L505.471 84.2822L504.071 87.8062L501.619 90.273L500.219 91.6826L499.868 93.0922L498.468 95.2066L497.416 98.7306L496.365 102.959V105.779L496.715 107.541L497.414 109.655V111.065V114.236L496.715 116.351L494.964 119.17L491.813 124.808L487.959 130.447L486.208 132.913L485.508 134.323L484.457 136.437L483.757 137.847L483.408 138.904L483.058 140.666L482.708 143.838V145.6L481.657 148.067L480.257 150.886L478.506 154.41V156.172L477.805 157.581L477.455 159.343L476.405 161.458L476.054 162.163L480.258 169.563L480.957 170.268L485.161 168.153L490.413 164.629L493.567 162.163H497.419V163.925L501.622 165.687L504.774 164.982L513.53 161.105L517.732 163.22L521.936 165.334L524.036 164.982L525.436 167.096L526.137 166.744L527.537 166.039L528.238 166.391H528.937L529.989 166.744L532.44 166.391H533.14L533.491 166.039L533.839 165.334L534.19 164.277L537.691 164.629L538.392 161.105V159.696L537.691 158.286L536.993 156.524L539.092 151.943L540.843 148.067V145.247L541.193 143.485L544.345 136.437L545.045 132.913L548.547 133.266H551.699L553.1 133.618L557.302 135.38L558.703 135.733L564.657 136.085H567.809L569.56 135.733L570.961 134.323L573.763 135.028L577.966 135.38L584.971 136.085H587.772L590.225 137.142L591.626 137.847L593.377 139.961L594.427 141.371L595.478 142.076L597.229 144.19L599.682 145.247L601.082 145.6L603.183 149.829L606.685 154.411L608.786 156.878L611.938 159.697L613.689 161.107L619.992 157.583L621.393 157.23H625.946L627.696 157.583L628.047 162.166L628.397 165.337L628.047 168.509L627.696 170.976L626.646 173.442L625.594 175.909L623.494 180.49L622.093 182.252L621.743 182.957L621.043 184.367L620.693 185.424V187.186V188.243L621.043 189.3L621.393 189.653L621.743 190.358L623.144 193.177L624.545 195.996L624.895 198.463L625.594 201.634L625.944 204.454V205.511V206.216L626.294 206.92L625.944 208.33L625.594 211.149L624.895 214.321V215.73L624.195 217.14L623.496 218.197L623.146 218.902L622.445 220.664L621.746 222.778L620.345 223.131L618.244 223.835L615.093 225.597L610.539 227.007L609.138 227.359H608.439L605.986 227.712L604.586 227.359L602.835 226.655L601.784 225.95L598.981 223.835L598.633 222.778L597.932 221.016L597.232 219.607L595.831 217.845L595.132 216.435L594.782 214.673V213.616L594.082 208.682L593.733 203.395V202.69L593.383 202.338L593.032 201.633H592.682L591.983 201.28L591.283 200.928L590.583 201.28H590.234L586.38 203.747L580.776 206.566L577.974 209.033L576.574 210.09L575.522 211.5L574.471 212.557L574.121 213.967L573.422 217.491L572.37 220.662L571.671 222.424L571.321 223.834L569.92 224.891L568.868 226.301L568.519 227.006L568.169 235.112L567.819 238.284L566.068 240.751L560.464 246.037L559.063 245.684L556.612 245.332L553.809 244.627L551.357 243.57L547.154 241.455L542.601 240.046L542.251 242.513L541.552 244.627L540.151 247.094V252.732L539.801 254.142L539.101 255.551L538.402 256.609L537.35 257.313L536.651 258.018L535.951 261.542L535.252 262.247L534.551 263.657L532.099 269.295L529.647 273.524L528.947 274.229L527.896 274.581H526.846L525.794 274.933H523.343L521.592 275.286H520.54L518.44 276.343L515.637 278.105L514.236 278.457H512.835L511.435 278.81H507.231L502.679 278.457L500.928 278.105L499.877 278.457L499.177 278.81L497.076 281.983L493.575 287.269L492.875 287.974L491.824 288.679L489.021 291.498L487.971 292.555H487.27H486.572L485.871 292.907V293.612L485.521 294.317L485.172 294.669L484.822 295.022L484.472 295.374L483.071 296.079V296.431V296.784V297.489L483.421 298.193V298.546V299.603V301.013L483.071 302.422L482.721 303.479L482.021 304.537L481.672 305.241L480.62 306.651L479.219 308.061L478.52 308.765L478.17 309.118H477.82L477.119 309.47L475.369 309.823L474.318 310.175L473.968 310.527L473.269 310.88L472.217 311.585L471.868 312.289L471.168 312.994L470.467 314.404L469.417 316.166L468.366 317.928L467.314 319.337L466.615 320.042L465.915 321.099H465.565L464.866 321.452L464.516 321.804H464.166H463.115L461.014 322.157L460.664 322.509L460.313 322.861L458.214 325.328L457.864 326.738L457.513 329.205V330.262V330.614V330.967L457.864 331.319V332.024L458.563 332.729L459.263 333.433L459.613 333.786L459.963 334.138V334.843L459.613 335.195L458.913 335.548L458.563 336.253V336.605V337.31L458.913 337.662L459.263 338.015L459.963 338.719H460.312L460.662 339.072L461.363 339.777L461.713 340.481V341.186V341.539L461.363 342.596L461.012 342.948H460.662L459.963 344.71L459.613 345.415L458.561 346.472L458.212 347.177L457.16 347.529L456.461 347.882H455.061H454.36H452.96H451.559H450.858H449.458H448.757L447.707 348.234L445.956 348.587L443.855 348.939L442.804 349.291L441.754 349.644L441.403 350.349L440.351 351.053L439.653 351.406L439.302 351.758H438.602H437.551H435.8H434.05L433.351 351.406H433L432.65 351.053L432.3 350.701L431.601 350.349H431.251L430.551 349.996H429.852L428.8 349.644L428.451 348.939L428.101 348.234L427.751 347.882L427.4 347.177L427.05 345.415V344.358L426.701 343.653L426.001 343.301L424.6 342.243L423.548 341.891L421.797 340.834H421.098L419.698 340.481L417.947 340.129H416.196L414.095 339.424L408.142 338.367L405.689 338.015L403.238 337.662L398.333 336.957H397.283H395.882L394.832 337.31L393.781 337.662L390.628 340.129L389.577 341.186L387.476 342.948L386.075 343.653L384.675 344.358L383.624 344.71H382.223L381.173 345.063L380.122 345.415L379.072 346.12L378.371 346.825L378.021 347.882L377.321 349.996L376.971 350.701V351.758V352.463L376.621 353.52V354.225L376.27 354.93L375.92 355.635H375.22L374.169 355.987L373.119 355.635H371.718L370.667 355.987L370.317 356.339L369.617 357.044L369.267 357.749L368.916 358.806L368.216 360.568L366.815 363.74L366.115 365.854L363.313 372.199L359.812 378.19L358.061 381.009L357.36 381.714V382.418L356.66 385.59L356.31 387V388.409V390.171L355.96 391.933L355.259 394.048L354.209 395.81L353.158 397.924L352.107 399.334L350.707 401.096L350.006 402.153L345.804 406.382L343.703 409.201L343.353 409.553H343.003H342.652L341.952 409.201H341.602L340.902 409.553L340.551 409.906V410.258L340.902 410.963L341.602 413.077L342.652 414.839L344.053 417.306L345.454 419.068L346.855 420.478L348.956 422.944L351.757 425.059L353.508 426.116L355.609 427.173L358.061 427.878L359.812 428.23L361.212 428.583L362.613 428.934H363.664H364.014L364.364 429.286V429.991L365.415 433.867V434.572L366.115 438.096L367.165 443.03V445.143V446.201L367.516 447.259V448.317L367.866 450.43L368.216 451.84L368.566 453.249L368.916 455.718L368.566 460.299V463.47L368.916 466.291V467.348V468.758V469.815V471.226L367.866 474.749L367.165 477.217L366.815 479.684V480.389V482.151V483.208L367.165 484.266L367.516 485.324V487.086L367.165 488.143V488.848L366.465 490.257L365.064 491.667L364.014 493.076L362.963 493.781L362.613 494.485L362.263 495.189L361.913 495.894L361.563 500.475L361.212 506.114V507.876V508.228L361.563 508.581L361.913 509.284L363.664 511.046L366.465 513.514L367.165 513.867L367.866 514.217L368.216 514.57L368.566 515.275L369.267 515.626L369.617 516.33H369.967L370.667 516.683L371.368 517.035L372.068 517.386L372.768 517.739L373.819 518.091L375.57 519.148L378.371 520.91L383.274 524.082L386.075 525.844H387.126L388.177 526.196L388.877 525.844H389.227L389.928 525.491L390.628 525.14L390.978 524.788L391.679 523.378L392.029 523.026V522.674L392.379 521.97V521.266L392.729 520.562V518.448L393.079 516.686L393.429 514.924V514.219L393.78 513.516L394.13 512.457L394.48 512.106L395.18 511.754L395.531 511.049H395.881L396.231 510.345L396.581 509.993L396.931 509.288L397.281 508.585L397.632 507.88L397.982 506.471L398.332 505.413L398.682 502.593V501.535L399.032 500.832V500.48L399.383 499.775L399.733 499.423L400.433 498.719L401.133 498.367L401.484 497.662L401.832 497.311V495.901L402.183 492.378V491.673V491.32L402.533 490.617L402.883 490.265L403.233 489.207L404.984 485.33V484.272L405.683 483.568L406.033 483.215L406.383 482.863L407.082 482.512L407.432 482.863H407.783L408.833 483.215L411.985 484.274L414.438 485.331H415.137L415.487 485.683L416.539 486.036L418.99 487.093L420.741 488.15L422.492 489.56H422.842L423.541 490.265L424.241 490.969L424.592 492.73L425.29 494.844L426.693 498.368L428.444 503.656L429.494 506.123L429.844 506.827V507.531V508.236V508.588V509.291L429.494 509.996L429.144 510.701V511.404V512.109V512.812V513.871L429.494 514.928L429.844 515.632L430.193 515.984L430.543 516.336L431.244 516.689H431.943L432.293 517.041H432.993L433.692 517.392L434.042 517.744L434.392 518.097H435.093L436.494 518.802L439.645 519.859L440.696 520.564H441.396L442.095 521.267L443.147 522.677L444.898 524.086L445.247 524.439H445.947L446.647 524.791L448.398 526.553L449.449 526.905L451.55 527.609L456.102 527.256L460.655 526.553L461.355 526.201H462.406L463.458 525.496H464.157L464.857 525.145L465.908 524.792L466.958 524.44H468.01H469.061L469.761 524.792L470.46 525.145L471.862 525.496L472.561 526.201L474.312 527.61L475.713 529.02L476.063 529.372L476.763 530.077L477.112 530.78L477.813 531.839L478.163 533.249L479.213 535.011L479.914 535.714L480.964 537.476L481.665 538.181L482.013 538.884L483.065 539.236L484.116 539.589H484.816L485.867 539.941H486.567L486.917 539.589L487.266 538.884L487.616 538.181V537.476L487.966 536.773L488.317 536.068L488.665 535.363L489.366 534.306V533.602V532.898L489.716 532.193V531.489L489.366 530.785L489.016 529.728L488.665 529.023L488.317 527.965L487.616 526.908L486.917 525.497V524.794L486.567 524.089V523.386V522.681L486.917 521.271L487.266 520.919L488.318 517.043L488.667 515.984L489.017 515.281L490.069 514.928L490.768 514.223H491.118L491.819 513.872L492.167 513.168L492.517 512.815L492.868 512.112L493.218 511.76L493.568 511.407H494.267H494.967H495.666H496.367H496.717H497.065L497.766 511.055V510.351V509.999V509.647V508.943L497.416 508.591L497.065 507.532L496.717 507.181V506.476V505.773V504.714L497.065 504.011L497.416 502.952V502.6L497.766 501.543L498.466 500.84L499.517 499.781L500.567 498.724L503.719 496.255L505.121 495.904H505.82H506.17L507.221 496.255L507.571 496.608L508.622 496.96H508.972L509.672 496.608L511.073 495.904L515.625 492.027L518.428 489.912H519.127L519.828 489.56H520.178L520.526 489.912L521.578 491.674L521.929 492.027L522.277 493.084L524.379 495.904L526.831 498.371L528.232 499.428L529.633 499.781H529.983H531.034H532.084H533.136H533.835L534.887 499.428L536.288 499.078L536.638 498.725L537.337 498.373H537.687L538.738 497.316L539.438 496.257L539.788 495.906L541.189 493.085V492.382L541.539 491.677L542.238 490.62L542.588 489.915L542.938 489.212L543.289 488.507L543.987 487.45L544.688 487.097L545.387 486.393L546.789 484.983L549.59 483.221L551.692 482.518L552.04 482.165V481.813V481.46L551.692 481.11L549.941 476.879L548.889 474.06L547.838 471.946L547.488 471.242L546.789 470.184L546.439 466.66V465.25V464.547L545.738 463.842L544.338 463.49L539.435 462.786L538.735 462.434L537.334 462.081H536.635L536.285 461.378L535.935 459.967L534.534 453.27L533.483 449.394L532.783 445.87L532.433 444.812V443.401V442.344V440.582L532.783 438.82V436.707V432.829L533.133 427.189V426.838V425.427L533.483 422.961L534.182 419.084L535.234 414.151V412.036L535.583 410.979L535.933 410.627L536.634 410.274L537.332 409.922L538.384 409.569L539.435 409.217L540.486 408.865L544.689 407.455L545.388 407.103L545.738 407.455L546.089 407.807V408.16L546.439 408.512L547.138 411.331V412.036L547.488 412.741V413.093L547.838 413.798L548.538 414.855L549.589 415.56L554.843 418.732L556.244 419.437L557.995 420.141L560.096 420.494L561.497 420.846L561.847 421.199L563.248 421.551L566.399 423.313L568.5 424.37H569.199L570.6 423.665L574.102 421.552L579.356 418.379H579.706H580.057L581.107 419.789L581.457 420.141L581.808 420.846L584.959 426.134L588.461 431.067L589.16 431.772H589.86L590.211 432.123L590.559 431.772L590.909 431.42L591.61 430.715L592.66 429.658L594.411 428.248L596.864 426.134L599.666 423.665L605.27 419.084L608.422 416.265L611.924 413.446L615.075 410.979L615.425 410.274L615.774 409.922L616.124 409.569H616.474H616.825L617.524 410.627L617.874 411.331V412.036V412.741L618.224 413.093V413.798V414.503V415.56L617.874 416.617V418.027L617.524 419.789V421.551V422.608L618.224 425.076L618.574 425.427L618.923 426.132L619.273 426.837L619.623 428.599L619.973 429.656L620.324 430.36L621.023 431.064L621.723 431.769L622.422 432.826V433.179H623.122H623.823H624.521H624.872H625.571L626.973 432.826L629.774 432.122H632.226H632.926L633.626 432.474H634.325H635.026L635.376 432.826L636.075 433.179L636.775 433.53L638.176 434.941L639.577 436.703L640.277 437.76V438.465V438.816V439.52V440.224V440.929V441.633L639.927 442.691L639.577 443.748L638.176 446.216L637.475 448.33L637.127 449.034L637.475 449.386L638.527 450.09H639.226L640.278 450.442H640.977H641.327H641.678H642.028L642.727 450.09L643.077 449.386L643.427 448.681L644.478 446.919L645.178 446.216L645.527 445.864L645.877 445.511H646.929L647.278 445.864H647.628H648.328L648.678 446.216H649.027L649.377 446.568L650.078 446.919H650.428L651.127 446.216L652.878 445.864L653.928 445.159H655.331H656.029L656.73 444.808L657.429 445.159H658.129H659.88L661.281 445.511H661.981H662.68L663.732 445.159H664.431L665.131 444.808L665.482 444.456H665.83L666.531 443.751L667.931 442.341L669.332 439.874L672.135 441.987H672.484L673.184 442.34L673.885 442.692L674.583 443.395L675.284 443.748H675.983H676.333H677.033L677.732 444.1H678.433L679.483 444.805L681.936 445.862L683.337 446.567L684.737 447.624L685.438 447.977L686.137 449.034L687.537 450.091L688.238 450.796L689.288 451.853L689.989 452.912L690.339 453.263L691.038 453.615L691.738 454.674L693.489 457.493L694.54 458.902L695.592 459.607L698.043 461.72L700.144 462.779L700.843 463.13L701.543 463.482L702.244 463.835H702.592H702.943H703.643L703.992 463.482L704.692 463.13L705.042 462.779L706.093 461.369H706.443L707.143 461.72L707.842 462.073L708.543 462.777L710.644 463.835L712.393 464.892L713.094 465.244L713.794 465.597H714.493L716.244 465.949L717.645 466.301L718.697 466.652L720.097 467.005H720.796L721.497 467.357L722.547 467.71L723.248 468.06L724.648 469.119L726.049 469.822L726.399 470.527L727.1 470.88L727.448 471.583V471.935L727.799 473.697L728.149 480.041V480.393V480.745V481.449V481.801L727.799 482.154V482.506L727.448 482.857L727.1 483.562L726.749 483.914V484.617L726.399 485.322L726.049 487.084V487.787L725.699 489.199L724.298 492.37L723.248 494.837L720.795 499.418L719.044 502.942L717.993 504.704L716.593 506.466L713.791 508.934L710.289 511.401L703.985 516.689L699.082 520.567L697.331 521.976L696.28 523.033L695.581 522.681L694.881 522.329L693.831 521.625L690.677 520.92L687.177 519.863L684.374 519.511L681.222 519.158L678.421 519.511L674.919 519.863L671.767 520.216H667.98L663.777 520.568H660.626H660.275H659.925L659.575 520.919L659.225 521.271L658.876 521.976L657.474 525.853L656.423 529.73L655.723 532.197L655.374 534.312L654.674 535.721L653.974 536.78L653.275 537.131L651.874 537.483L650.123 538.893L649.423 539.598L648.724 540.655L648.374 541.36V543.122L647.673 546.646L646.623 553.694L645.922 557.924L645.223 560.743L644.873 561.448V563.21L645.223 565.677V568.848V576.601L645.572 582.946L645.922 586.117L646.974 589.994L648.025 592.814L648.725 594.575V595.634V596.337V597.042L648.375 597.745L648.025 598.45L647.675 599.155V600.564V602.679L648.025 605.146L648.375 606.203L650.826 609.023L652.228 610.433L652.577 610.785L652.927 611.136H653.628H654.327H655.027H655.377H656.076H656.426L657.127 610.785H658.177H659.228H660.63H661.329L664.13 611.489L665.182 611.841L667.284 612.546L669.735 614.306H670.435L671.134 614.659L671.834 615.011L672.185 615.716L672.533 616.067L672.884 616.772V617.124L673.234 618.181L673.584 618.534L673.934 619.237L674.633 619.589L674.983 620.294L675.682 620.647H676.383L676.733 620.998L677.432 621.35V621.702L678.132 622.407L678.832 623.817V624.52L679.181 625.579V626.636L679.881 627.693L680.232 628.752L680.931 629.809L681.983 631.219L682.331 631.571H683.032L683.382 631.924L684.081 632.274L685.483 632.627H686.182L686.532 632.979H686.882H687.581L690.034 632.274L692.835 631.924H694.236H696.337H696.687L698.088 630.865L698.789 630.514H699.137L699.838 630.865H701.238L701.589 630.514L702.639 631.571L703.34 632.274L704.038 632.627L704.739 632.979L705.439 633.332L706.138 633.684L710.342 634.741L711.041 635.094V635.797V636.502L710.342 639.673L709.29 647.78V649.19V650.248L707.19 658.355L705.788 668.575V670.337L705.439 671.395L704.037 675.624L702.636 681.264L702.288 681.967V683.026V684.083L702.636 684.788V685.845V687.255V689.017L702.288 696.066V702.763V703.467L701.587 704.524L701.237 705.582L700.538 706.992L699.486 708.754L697.385 712.983L696.334 715.097L695.635 716.154L693.885 718.269L691.783 720.031L690.731 720.736L690.032 721.439L687.231 725.669L683.377 730.25L682.325 730.954L681.627 731.659L680.576 732.363L679.876 732.714L679.175 733.067H678.125L676.724 733.419H675.323L674.271 733.771H672.87H672.172L671.12 734.122H670.069L669.017 734.475L668.318 734.827L667.618 735.18L666.919 735.883L665.168 737.645L664.467 738.704L664.117 739.055H663.418H662.366H661.316L658.865 738.704L658.164 738.351L657.814 737.646L656.413 736.237L655.363 734.827L654.311 734.475L652.91 734.122L651.859 733.419H650.807H649.056L647.305 733.771H646.255L645.204 734.122V735.181V736.591V738L645.553 741.878V742.935L646.253 745.05V746.107L645.553 746.812L644.854 747.164L643.804 748.221L643.453 748.925L642.753 749.63V750.687L642.403 751.745V752.449V753.507L642.753 754.565L643.103 755.269L643.453 755.62V756.679L642.753 758.441L642.403 759.498L641.352 761.26L641.002 761.965L640.652 763.725V764.43V765.487V766.192L641.002 766.897V767.954L640.652 769.012L640.303 770.07L637.85 777.118L637.5 778.177V778.88L637.85 779.939L638.551 782.406L638.9 783.11L639.25 783.814L639.6 784.166H640.3V784.871L639.95 785.574L640.649 785.927L641.701 785.574H642.4L643.1 785.927H643.801L644.5 786.279L644.85 786.631L645.549 786.982L647.3 789.097L648 789.802L649.051 790.859L649.401 791.562V792.973L649.751 797.554L649.401 798.258V800.726L649.051 801.429L648.702 801.782L648.352 802.486H647.651H646.952L646.602 802.134L646.252 801.782L645.902 801.429L645.552 800.726L645.203 800.374L644.853 800.021L643.452 800.726H642.752L641.351 799.669L640.65 799.316L639.952 798.964H639.251H638.552H637.852L637.153 799.316H636.453H636.102H634.702H634.351L633.301 800.374L632.951 800.726L632.25 801.078H631.551L630.501 800.726L629.449 800.021L628.75 799.67H628.05L627.349 800.021L626.299 800.374L625.248 800.726L624.196 801.078L623.847 801.429L623.147 801.782H622.096H621.746L620.694 802.486H620.345L619.294 803.19L618.943 803.542L618.595 803.895L617.894 804.952L617.195 806.011L616.845 805.658L616.495 805.306V804.602L615.444 801.429L614.744 799.316L614.394 796.848V796.496L614.044 796.145L613.345 795.792L612.644 795.44H611.945H610.194H609.494L608.795 795.792H608.095L607.044 795.44L605.642 795.088L604.241 794.737L602.14 794.032L600.739 793.679L600.041 793.327L598.989 792.976L598.64 792.624L598.29 791.919L597.939 791.216L596.539 788.395L594.788 784.872L594.438 784.52H593.739L593.038 784.872H592.338H591.639L590.587 785.223L589.888 785.576H589.188H588.489L587.788 785.223L587.438 784.166L587.09 783.461L586.389 782.404V782.052V781.348L586.039 780.29L585.689 778.528V777.118L585.34 773.594V773.243V772.538L585.689 771.481L585.34 771.129L584.288 770.424L583.237 769.721L582.537 768.662L581.487 767.605L580.786 767.252H580.437L579.737 766.902L579.037 766.197L578.338 764.787L577.988 764.435L576.937 764.082L575.885 763.73H575.535L573.435 764.789L571.684 765.846H571.334H570.634L569.935 765.493L569.585 765.142L569.234 764.438V763.028V761.618L569.585 761.266L569.935 760.914L570.634 760.21V759.858L570.984 759.153L570.634 758.45L569.583 758.097H569.233H568.182H567.482H567.132L566.783 757.393V756.335L567.132 755.983L566.783 755.28L566.083 754.221L565.733 753.518L565.384 753.165L565.034 752.108V751.403V750.698V750.347L565.384 749.289V748.936V748.233L565.034 747.528L564.683 747.177L563.983 746.825L563.634 746.12L562.934 745.417L562.234 744.358L561.535 742.949L561.185 741.187V740.483L561.535 739.778L561.885 739.074L565.387 735.551L566.437 734.492V733.789L566.087 733.084L565.737 732.732L563.986 731.675L562.935 730.618L562.235 730.265L561.886 729.913L558.384 728.503L555.932 727.094L555.582 726.741L554.883 726.036L554.532 725.685H553.832L553.133 727.095V727.798L552.783 728.503V729.56V730.619L553.133 730.97V733.438V734.495V734.848L552.081 735.553L551.382 735.904L548.929 737.315H547.879H547.179L546.83 736.962L546.129 736.61L544.028 735.2L541.929 733.086L540.526 731.676L540.178 731.324L539.828 730.62L539.477 729.562L539.127 728.858V727.8V727.096V726.038V725.334V724.63L538.777 723.926L538.428 722.868L537.728 721.81L537.378 721.458L536.679 721.106H535.978L535.28 721.458L534.227 722.163L532.827 723.925L531.776 724.628L531.076 724.981L530.025 725.333L529.325 724.981L528.274 724.628L527.574 724.276L526.875 723.572L526.175 722.868L525.474 722.164L525.126 720.755V719.696V718.993V718.288V717.585L525.824 716.88L526.175 716.527L526.525 715.824L526.875 715.119L527.224 714.414L527.574 713.711L527.924 713.006V712.303V711.951L528.274 711.598V710.895V709.836L527.924 709.133V708.78V708.428L527.574 707.371L527.224 707.018L526.875 706.666L526.525 705.963L526.175 705.61L525.124 704.906H524.424L523.725 704.553H523.024H521.974H521.274L520.573 704.906L519.874 705.258L519.174 705.61L518.824 705.963L518.125 707.02L517.775 707.725L516.374 710.192L513.572 714.773V715.125L512.872 715.478L512.172 715.83H511.473H511.123H510.422L509.723 715.478H509.023L508.324 715.125L507.624 714.773L507.273 714.42L506.925 714.069L506.574 713.717L505.522 713.365L504.122 712.661L503.071 711.956H502.371L502.021 711.604H501.322L500.621 711.956L499.922 712.661L499.572 713.012L499.222 713.717V714.42L498.872 714.773L498.523 715.478V716.181L498.173 716.886L497.823 718.295V719V719.703V721.818L497.473 722.523L497.122 722.874L496.423 723.226H496.073H495.373L494.322 722.874L493.972 722.523L493.273 722.17L492.573 721.818L491.172 721.113L489.771 720.41L489.421 720.057H488.721L488.022 719.705H487.322H486.623H486.272L485.572 720.057L485.223 720.41L484.873 721.113V721.465L484.523 722.17L484.873 722.523V722.874V724.636L485.223 727.104V727.456L484.873 728.16V728.512L484.173 729.215H483.474H483.124H482.423H482.073L480.672 728.864L479.622 728.512L478.921 728.16L477.871 727.807L475.069 726.045H474.369H473.319L472.618 726.75L471.919 727.102L471.219 727.455L470.869 728.158L470.17 728.51L469.469 728.863L469.119 729.566L468.769 729.919L467.368 730.271H466.318L465.617 729.919L464.567 729.566L463.166 728.863L462.114 727.804L461.063 727.101L459.663 724.986L458.262 723.577L457.562 722.52L457.211 721.815L455.811 720.053L455.46 718.643L454.762 716.175L454.411 715.118V713.708V713.003L454.762 711.241L455.112 710.538L455.46 710.186L456.161 708.776V708.071L456.511 706.309V704.547V703.49V702.787L456.161 701.728L454.76 699.261L453.009 695.031L450.908 691.859L450.209 691.507L449.509 691.156H448.458H446.707L444.606 690.804H443.205H441.454L437.601 691.507H437.251H436.552H435.151H434.099H432.698L431.648 691.156L428.845 690.451L427.094 689.746L425.693 689.043L423.942 688.338L423.243 687.987L422.543 687.635H421.492H419.391L415.889 686.93H414.139L411.687 686.578L409.586 685.874L405.733 684.817L400.83 682.349L398.729 680.587L395.227 677.768L393.126 676.358L391.725 675.3L389.274 674.242L386.122 673.538L385.072 673.187L384.371 672.834L383.321 672.482H382.27H380.869L376.667 671.777L375.617 671.426L373.866 671.074L372.115 670.721L369.313 670.018L368.613 669.666L368.263 669.313L367.562 668.961L366.862 668.257L365.811 667.199L365.111 666.495L363.71 665.791L361.959 664.733L361.609 664.381L360.559 664.029L359.508 663.676H357.757L353.904 662.973L350.752 662.62L341.297 661.563H340.246L339.896 661.914L339.546 662.973L337.445 667.554L333.943 675.307L333.243 677.069L331.842 680.947V682.004L331.492 682.709V683.766V684.471V685.528L331.842 688.347L332.192 689.052V689.755V690.46V691.517V692.222L331.492 695.041V695.746L331.142 696.449V697.154V697.507V698.564V699.269V700.326V704.204L330.791 706.317V707.375L330.441 708.079V708.431L330.791 709.488L331.142 710.547V710.899V711.603V713.012V714.071L330.791 715.833L329.741 720.062L328.69 727.464L327.64 734.864V735.921V738.389V741.913L327.99 745.085L327.64 745.788L326.939 746.847L326.589 747.55L325.539 747.199L325.188 746.847L324.838 746.142L324.138 745.439L323.437 745.086L323.087 744.734L322.737 744.382H322.037L321.336 744.029L320.986 743.678H319.936L319.585 742.974L317.835 740.507H317.484L317.134 740.154H316.434H316.084H315.383H315.033L313.982 740.858L312.232 742.269H311.881L310.831 742.62L310.13 742.269L309.43 741.916L308.73 741.212L308.029 740.859L307.329 740.508L306.278 740.156L305.578 739.803L304.177 739.099L301.026 738.041L299.275 737.338L298.224 736.633L297.874 736.281L296.473 734.519L295.773 733.462L294.022 730.642L291.921 725.709L289.469 721.831L287.719 718.307L285.267 714.078L283.516 711.964L280.715 707.383L277.563 702.801L275.462 700.333L275.112 699.981L274.411 699.628L274.061 699.277H273.011H272.31L271.96 698.925H271.26L269.859 697.163L268.808 696.811L268.108 696.458L267.408 696.107L266.357 695.049L264.606 692.229L263.906 691.525V691.174V690.469V690.116L264.256 689.413V688.354V688.004L263.556 685.183L261.805 679.544V678.486L261.455 678.135L260.054 676.373L258.653 674.258L256.552 672.144L255.501 671.441L254.801 671.088L253.4 669.326L251.649 667.564L249.898 665.802L248.498 665.099L244.996 662.631L244.646 661.926V661.575V660.516L244.295 660.165L243.945 658.051V656.992L243.595 655.935L243.245 652.764V652.411L242.895 650.298L241.844 646.774L240.794 643.954L238.692 640.077L236.942 637.256L235.191 634.085L233.79 631.972L233.09 631.267L231.689 630.21L230.988 629.151L228.887 627.389L227.487 626.332L226.786 625.629L225.385 624.924L222.234 623.867L219.782 622.808L218.032 622.457L217.331 622.105V621.752L216.631 621.4V619.286L215.93 613.647V610.123L215.58 609.771L214.88 608.714L214.53 607.655L213.479 605.894V605.542L213.129 605.19L212.779 603.78V603.075V602.372V601.667V600.964L213.129 600.611L213.479 599.553V599.202L214.179 597.791L214.88 595.324L215.58 594.971L216.281 594.268L216.981 593.916L217.681 593.563L218.382 592.86L218.732 592.155L219.432 591.45L220.133 591.099L220.833 590.747L221.183 590.395L221.884 590.042L222.584 589.69H223.635H224.335H225.385H226.086H226.786H227.487L228.887 588.633L229.938 587.929L230.638 587.577L231.339 587.224L232.039 586.872L233.09 586.52L234.14 586.169L238.342 584.054L242.194 581.94L242.545 581.588L243.245 580.884L243.945 580.532H244.646V579.475V579.122V578.417L244.295 577.714L243.945 577.362V577.009L243.595 575.952V575.6L244.295 574.895L244.996 574.192V573.839V573.136V572.783L244.646 570.669V570.317V569.613L244.295 568.909V568.205L243.945 567.5L243.595 567.148H243.245L242.545 566.796H241.844H241.144L240.093 567.148H239.743L239.043 567.5L238.692 567.853H237.992H237.642H236.942L236.241 567.148L235.891 566.796L235.541 566.445L234.84 566.092L234.14 565.74L233.44 565.387L233.09 565.035H232.739L232.039 564.684L231.689 564.332L230.988 563.979L230.288 563.627L229.938 563.276L229.237 562.217L228.537 561.514L228.187 561.162L227.837 560.103V559.752L227.487 559.047L227.136 557.99V557.638L226.786 556.933L227.136 555.876V554.818V554.466L226.786 553.761V553.058L226.436 552.353L224.685 551.296L223.635 550.237L222.584 549.534L217.33 546.01L215.229 545.305H214.528L213.828 546.364L213.127 547.421L211.377 550.24L209.275 552.355L208.225 553.764L206.824 555.879L206.474 557.288V558.698L206.124 559.756L206.474 560.814L207.174 561.871L207.875 563.282L208.575 563.985V564.338V565.041V566.1L208.225 568.566V571.035L207.875 571.738L207.174 572.443L206.474 573.5L205.774 575.262L204.373 579.14L204.023 580.549L203.672 581.959L203.322 583.721L202.622 589.009L201.221 595.352L199.82 599.933L198.42 604.514L197.719 606.629L195.968 607.686L194.217 608.391H193.517L192.817 608.038L192.116 607.335L191.766 606.982H191.066L188.614 607.686L183.712 608.038H181.961L179.51 607.686H178.109H176.358L174.607 607.335L173.907 608.392H172.506L170.755 608.744H169.704L167.603 609.097H166.903L165.852 609.448L164.802 610.506L162.701 613.326L161.65 615.088L161.3 615.44H159.549L158.148 614.381L157.448 613.678L156.748 612.973L156.047 612.622L154.296 611.917L153.596 611.565H152.545H151.845L150.794 611.213L150.094 610.509L148.693 608.747L146.592 605.928L145.542 603.107L145.191 601.698L144.841 599.936L144.491 597.821L144.141 591.478L144.491 587.602L144.141 586.192L143.791 585.84L140.639 584.43L140.289 584.078H138.888L137.487 583.725L136.087 583.373L135.386 582.67L134.336 581.611L133.635 579.849L133.285 578.439V577.736V576.327V575.268V574.915L132.935 574.212L131.884 573.155L131.184 572.096L129.783 570.334L129.083 568.572L128.733 567.163L128.382 565.401L127.682 563.639V561.877L127.332 560.467L127.682 558L128.382 554.122L128.733 553.065L129.083 552.36L130.133 551.657L130.834 550.952L132.935 546.371L136.437 540.38L140.989 532.274L145.543 526.635L151.498 517.12L156.752 509.719L161.304 501.612L162.705 498.793L163.055 497.734V496.677V495.973L162.005 494.211L161.655 492.8V491.391L162.005 487.867V485.4V483.99L161.655 482.932V482.581V481.522V480.465V477.997L162.005 471.301L162.355 469.187L163.055 466.015L164.456 462.491L167.257 458.613L172.16 453.326L172.86 451.916L173.211 451.213V450.154L172.86 449.451L171.81 447.689L170.759 447.336L167.958 445.927L167.257 445.574H166.207L165.507 445.927L163.055 446.279H162.005L161.304 445.574L160.254 444.871L157.102 443.46L152.55 441.347L151.499 440.995H150.449H149.748L148.347 441.699L141.692 443.109L139.942 442.757L139.241 442.404L138.541 440.995L137.49 438.88L137.14 436.767L136.79 434.653V429.719V425.489L137.49 423.376L138.891 420.203V418.793V417.736L138.541 417.031L137.84 415.974L137.49 414.565L137.14 412.45L136.089 407.163L135.739 400.82V397.296V392.714V391.305V390.6L136.089 389.895L136.79 389.19L137.84 388.486V387.781V386.371L138.191 384.257L138.891 382.847L139.591 380.028L141.342 376.856L142.393 374.037L143.443 374.39L144.144 372.98L146.245 369.456L147.646 366.637L148.346 364.875L148.696 363.113L148.346 362.056V359.236V358.179L148.696 356.77L149.397 354.655L150.097 352.541L150.797 348.663L151.498 344.787L152.198 340.558V339.5L152.548 338.443V337.034L152.198 336.329L150.447 333.157L146.595 329.281L142.393 325.405L140.292 323.29L139.241 320.823L138.191 318.357L137.84 313.775V313.071L137.49 312.013L136.79 311.661L135.739 310.956L133.288 309.547L131.187 308.842L130.136 308.137L129.086 307.08L128.035 305.318L127.335 304.261L126.634 303.556L125.234 302.851L120.331 300.032L114.377 297.212L112.976 295.803L110.524 294.746L103.169 291.222L93.7126 286.641L91.9617 285.936L91.2613 285.231L89.5104 284.879H88.81H87.4093L85.3082 285.231H84.6078L83.5572 285.583L82.1565 285.936H79.7052H77.6041L74.4524 285.231L74.1022 284.526L74.4524 283.821H73.752V283.117L74.1022 282.412L74.4524 282.059L74.1022 281.355L73.0517 279.945H72.3513L72.0011 280.297H71.6509L70.6004 279.592V276.773L70.2502 273.954L69.9 272.192L68.8494 271.135L66.7483 269.725L66.3981 269.373L65.6977 269.021L65.3476 268.668V267.963V267.611L64.9974 266.906L64.6472 266.554V265.849V265.497L64.297 265.144L63.9468 264.792L63.2464 264.439L62.8963 264.087L62.5461 263.735L62.1959 263.382V263.03V262.677L61.8457 262.325V261.972V261.62L61.4955 261.268V260.915V260.563V259.858V259.506L61.1453 258.801V258.449L60.7951 257.744L60.0948 256.687L58.3438 254.22L57.9937 253.515H57.2933L56.2427 253.163L55.5424 253.867L54.842 253.515L54.4918 253.163L54.1416 252.105L53.4412 251.753L52.3907 251.401H49.5892L49.239 251.048L48.8888 250.696L48.1885 250.343L47.8383 249.991L47.4881 249.639V249.286L47.1379 248.581V248.229L46.7877 247.877V247.172L46.4375 246.819V246.467V246.115L46.7877 245.41V245.057V244.705L47.1379 244V243.295V242.591L46.7877 242.238L46.4375 241.533V241.181L46.0873 240.829V240.476V239.771V239.419V239.067V238.714L45.7372 238.362L45.387 237.657L44.6866 237.305L44.3364 236.952H43.636L43.2859 236.6H42.5855L41.8851 235.895V235.19L41.5349 234.133V233.076V232.371L41.1847 232.019L40.8345 231.666L40.1342 231.314L39.784 231.666V232.019L39.0836 232.371V231.666V231.314V230.961L38.7334 230.609V230.257V229.904L38.3832 229.552V229.199H38.0331L37.6829 228.847V228.495L37.3327 228.142L36.9825 227.79L36.6323 227.437V226.733V226.028L36.9825 224.971V224.618L36.6323 223.913V223.209L35.9319 222.856L35.5818 222.504L34.8814 221.799L34.181 221.447L33.8308 221.094H33.4806L33.8308 216.161L32.7803 215.808L34.181 214.399L34.5312 214.046V213.694L34.8814 213.341L35.2316 212.989V212.284V211.579L34.8814 211.227L34.5312 210.875L35.5818 208.76L39.4338 208.408H39.784H40.4844H40.8345L41.1847 208.76H41.5349H42.2353H42.5855L42.9357 208.408L43.2859 208.055H43.636H43.9862L44.3364 207.703L44.6866 207.351V206.998V206.293L45.0368 205.589L45.387 204.531L45.7372 202.769L47.1379 202.417L47.4881 199.245V196.074H47.8383H48.5386L48.8888 196.426H49.239H49.5892H50.2896H50.6398H50.9899H51.6903H52.3907H52.7409L53.4412 196.074L54.1416 195.721H54.4918L54.842 195.017L55.1922 190.083L57.6435 189.378L58.3438 189.731L58.694 190.083H59.0442L59.3944 190.435L59.7446 190.083H60.445V189.378H60.7951H61.8457L62.5461 189.026H63.5966H64.297L64.9974 188.673L67.7989 187.616L68.8494 187.264L69.1996 185.854L69.9 186.911L71.3007 186.207L72.7015 185.502L73.752 185.149L74.1022 184.445L74.4524 184.092L74.8026 183.74L75.1528 183.387L75.8531 182.33L76.2033 181.273L77.2539 179.511L77.9543 177.749L78.6546 176.339L79.0048 175.282L79.355 174.225L79.7052 173.52L80.0554 172.111L80.4056 171.406L80.7557 170.349V169.644L81.1059 169.291L81.4561 168.939L81.8063 168.234L83.5572 167.177L84.6078 166.472H85.3082H86.7089L88.4598 166.12H89.8606L90.9111 165.767H91.2613H91.6115H92.3119H93.0122H93.7126H94.413H94.7632L95.4636 165.415L95.8137 165.767H96.5141L97.2145 166.12L97.5647 166.472L97.9149 166.825L98.265 167.177L98.6152 167.529H99.3156L100.016 167.882H100.366L100.716 168.234L101.417 168.587L102.817 168.939H104.218L104.919 169.291L105.269 169.644L105.619 169.996V170.701V171.406V171.758L105.969 172.111V172.463L106.319 172.815L106.67 173.168L107.02 173.52L107.37 173.873V174.577V174.93L107.72 175.282L108.07 175.635L108.771 175.987L109.821 176.339L110.171 176.692V177.044L110.522 177.749V178.101L110.872 178.454H111.222L111.572 178.806L111.922 179.511L112.272 180.216V180.568V180.921L112.973 181.273L114.023 181.625H114.724V182.33L115.074 182.683V183.035V183.74L115.424 184.092V184.797H116.125L116.825 185.149L117.175 184.797L117.875 184.445V184.092L118.576 183.74L118.926 183.387H119.276L119.626 183.74L120.327 184.445L120.677 184.797V185.149V185.854V186.207V186.911V187.264V187.616L121.027 187.969H121.727L122.078 188.321L122.428 188.673L122.778 189.026H123.128L123.478 189.378H124.179H124.529L125.229 189.731L125.58 190.083L125.93 190.435L126.28 190.788L126.63 191.14L126.98 191.845V192.197V192.902V193.607L127.681 193.959H128.031H128.731H129.432L129.782 193.607H130.482L130.832 193.255L131.883 193.607H132.933L133.284 193.255H133.984L134.684 192.902L135.035 193.959V194.312L135.385 194.664V195.017L135.035 195.369V195.721V196.074V196.426V196.779V197.131L134.684 198.541L134.334 199.95V201.36V203.122V205.236L134.684 205.589V205.941L135.035 206.293L135.385 206.646V207.351V207.703L135.735 208.408V208.76L136.085 209.113L136.435 209.465H136.785L137.486 209.817L138.186 210.522L138.887 210.875L139.237 211.227H139.937L140.287 210.875V210.522V210.17L140.638 209.817L140.988 209.465H141.338H142.038L142.388 209.817L142.739 210.17V210.522L142.388 210.875V211.579V211.932L143.089 212.284L143.439 212.637L143.789 212.989L144.139 213.694L144.49 214.046V214.751L144.84 215.103L145.19 215.456V216.161L145.54 216.513H145.89H147.641L147.991 216.865H148.342V217.218L148.692 217.923L148.342 218.275V218.627V218.98V219.332V219.685V220.037V220.389V220.742V221.094L148.692 221.447V222.151V222.856V223.209V223.913V224.618V225.323V225.675L149.042 226.38L149.392 226.733L149.742 227.085H150.093L151.493 227.437H151.843H152.194L152.544 227.79H152.894L153.244 228.142L153.594 228.495L153.945 228.847L154.295 229.199V229.552H154.645L154.995 229.904L155.345 230.257L155.696 230.609L156.396 230.961H156.746L157.096 231.314H157.446H157.797L158.147 231.666H158.497H158.847H159.197H160.248L163.75 232.371L168.304 233.428H169.004H169.354L169.704 233.076L170.405 232.723L172.156 232.019L173.206 231.314L173.556 230.961L173.907 230.257L174.607 229.199L174.957 228.847L175.307 228.495L175.658 228.142H176.008L177.409 227.79L179.159 227.085L180.56 226.733L181.961 226.38L183.362 226.028L185.463 225.675L186.513 225.323H188.264L189.665 223.209V222.504L190.015 222.151L190.365 221.799L190.716 221.447L191.066 221.094L191.416 220.742L192.116 220.389H192.466L192.817 220.037L194.918 218.98L194.217 215.808L193.867 215.103V214.046L193.517 213.341V212.284L193.167 211.227V210.522V209.465V208.76V207.703V206.998V206.293V205.589V204.884V204.179V203.474V202.769V202.065V201.36L194.217 196.426L194.918 191.843L195.268 187.615L195.618 185.148L195.968 184.091H196.319L199.47 184.443L199.82 184.795H200.521L200.871 185.148H201.221L201.922 185.5L202.272 185.853L202.622 186.205L202.972 186.557L203.322 186.91L204.723 187.967L205.774 186.557L206.474 185.148L208.225 183.033L208.925 181.976L209.976 181.271L210.676 180.919L212.077 180.567L215.93 179.509L219.432 179.157L222.584 178.452L225.736 178.1H226.086H226.786H227.136L227.837 178.452H228.187L228.537 178.805L229.237 179.157H229.588L229.938 179.509L232.039 180.919L232.389 181.271H232.739L233.44 181.624H233.79H234.49H234.84H235.541H236.241H236.591L240.794 180.214L241.144 179.862V179.509H241.494L242.895 178.805H243.245L243.945 179.157L244.996 179.509L245.696 179.862L246.046 180.214L246.747 180.567L247.097 180.919V181.271L247.447 181.976L247.797 182.329L248.147 182.681L248.848 183.033L249.898 183.738L250.599 184.443L251.299 184.795L251.649 185.148L252 185.5L252.35 185.853L252.7 186.205L253.05 186.557V186.91L255.151 186.205L256.902 185.853L262.155 184.443L263.556 183.738L264.956 182.681L265.307 182.329V181.624L265.657 180.919L266.007 179.862L266.357 179.157L266.707 178.805L267.058 178.452L267.408 177.747L267.758 177.043V176.69V175.985L267.408 174.928L267.058 174.576V173.871V173.519L267.408 173.166V172.461V172.109V171.757V170.347V169.29L267.058 168.937V167.88V166.823V165.766L267.408 165.061V164.709L268.108 163.651L268.458 163.299L268.808 162.947H269.159L269.859 162.594L270.209 161.889V161.185V160.832L270.559 160.127V159.775V159.07V158.365V158.013L270.209 157.661L269.509 158.013H269.159L268.458 157.661L268.108 156.603L267.758 153.784L267.058 150.26L266.357 148.146V147.089V146.031L267.058 140.745V138.279V137.221L266.707 136.517V136.164L266.007 135.459L265.657 134.755L265.307 134.402L264.606 133.697L263.556 133.345L262.505 132.64L261.455 132.288L261.104 131.935L260.754 131.583L260.054 130.526L259.704 129.821L259.353 129.469L259.704 128.764L261.805 129.469H262.855H264.606H265.657L268.458 129.821L269.159 130.173L268.808 130.878H270.209L270.559 131.231L270.91 132.64L272.661 131.935L273.711 132.288L274.061 132.993L273.711 133.345V133.697L273.361 134.05L272.661 134.755L272.31 135.459L271.96 135.812V136.164L272.31 136.517V137.221L273.361 137.574L273.711 137.926H274.411H275.112H275.462H276.162V137.574L276.513 137.221L277.213 136.517L277.563 136.164H277.913H278.263H278.964H279.314H279.664H280.365L281.065 135.812H281.765L282.466 135.459H283.166L283.516 135.812L283.866 136.164H284.217V136.517L284.567 137.221V137.574L284.217 138.279V138.983V139.336L283.866 140.041V140.393L283.166 141.098L282.816 141.803V142.155L283.166 142.507V143.212L282.466 149.555L282.116 151.317L281.765 155.546L280.365 161.185L280.014 164.004L279.664 166.118L278.614 172.461L277.913 175.633V176.338L281.415 177.747H283.516L284.567 178.1L287.02 178.805L289.121 179.157L291.572 179.509L292.623 179.862L293.323 180.567L294.724 183.033L296.124 184.091L297.525 184.795L301.377 185.853L305.579 186.205L310.482 186.91L312.233 186.557L320.639 185.5L322.04 184.795L323.09 184.091L324.841 180.919V178.805L324.491 177.043L324.141 175.633V174.223L326.242 165.413L326.592 162.242L327.643 154.84L327.993 151.316L328.693 148.497L329.394 146.03L330.444 144.268L331.495 140.039L333.246 129.466L333.596 126.294L333.246 122.065L333.596 120.303L333.946 118.541L335.347 115.368L336.397 112.901L337.798 111.139L339.549 108.32L344.101 101.623L346.553 102.328L352.857 104.795L355.309 106.204H356.009L357.76 106.557H359.861L362.663 106.204L368.966 105.147L378.422 101.976L382.275 100.918L388.579 97.7468L391.381 96.6896L392.782 96.3372H393.832L395.233 95.9848H396.283L397.684 95.6324L399.085 95.28L400.137 94.9276H401.188H401.886H402.938L403.637 95.28H403.988L404.338 95.9848L405.038 96.6896L405.737 98.0992L407.138 101.623L407.838 102.328L408.889 103.385L409.589 104.442L409.939 105.147V105.5L409.589 106.557L413.443 108.319L425.349 112.548L427.802 106.909L432.354 103.738L438.657 99.1549L441.46 96.3357L443.561 93.5165L444.612 89.9925L446.713 86.1146L447.062 83.2954L448.114 80.8286L450.915 75.5412L452.666 73.0744V70.6076L456.87 65.674L457.569 64.9692L458.619 64.6168L459.32 57.9197L456.868 54.3957L456.168 50.5193L455.468 48.4049L457.569 44.5285L458.269 42.4141V40.2997L458.968 36.7757L459.318 33.2517L458.618 31.4897L458.269 29.3753L457.919 28.6705L458.269 28.3181V27.6133L459.32 26.5561L462.471 25.1465L464.573 24.7941H465.623H466.324L467.374 25.1465L468.426 25.8513H469.125H470.177L471.228 24.7941L473.952 22.2568ZM166.452 75.4751L173.456 75.8275H174.506L175.207 75.4751H175.907H176.257L178.358 76.1799L181.16 76.8847L182.911 77.2371L184.662 77.5895H185.362L185.712 77.9419H186.062H186.413H187.113H187.463H187.813H188.164H188.864H189.214H189.915H190.265H190.965H191.315H192.016H192.366H193.066H193.416H194.117L195.517 77.5895H197.619V83.9342V88.5154V89.2202L197.969 90.2774V90.9822L198.669 92.0394L199.019 93.0966L199.37 94.1538L199.72 95.9158L200.42 98.3826L201.821 101.907L203.222 105.783V106.135L203.572 106.488V106.84V107.193V107.897V108.25V108.602V108.955V109.307L203.222 110.012V110.717V111.421L202.871 111.774V112.479L202.521 112.831V113.183L202.171 113.536L200.42 114.945L198.669 116.003L196.918 117.412L195.167 118.822L194.467 119.527L194.117 119.879L193.767 120.584L193.066 121.289L192.016 122.698L190.965 124.813L189.915 126.927L189.564 127.984L188.164 128.337L186.763 129.041L185.362 130.099L183.611 130.803L182.561 131.156L181.86 131.861L181.16 132.213L180.81 132.565L180.46 133.27L179.759 134.68L179.409 135.385V135.737V136.794V138.204L179.759 140.318L180.109 141.375V142.08L180.46 142.433L180.109 143.137V143.49L179.759 143.842L179.409 144.195L179.059 144.547L178.709 144.899V145.252L178.358 145.604V145.957L178.008 146.309V146.661L177.658 147.014V147.366L177.308 148.071V148.776V149.128L176.958 150.185V150.89V151.595L176.607 152.3V153.005V153.709L176.257 154.414L175.907 155.119V155.471L175.557 156.176V156.881L175.207 157.586V157.938L174.857 158.643L174.506 158.995L174.156 159.7L173.806 160.405L173.456 160.757V161.11L173.106 161.815V162.167V162.519L172.755 162.872V163.577V163.929V164.281L172.405 164.634L170.654 164.281H170.304L169.954 163.929H169.604L169.254 163.577H168.903L168.553 163.224L168.203 162.872L167.853 162.519L167.503 162.167L167.152 161.815L166.802 161.11L166.452 160.757L166.102 160.053L165.752 159.7L165.402 158.995L165.051 158.643V157.938L164.701 157.586L164.351 156.881L164.001 156.176V155.471L163.651 155.119L163.3 154.414V153.709L162.95 153.005V152.3L162.6 151.595L162.25 150.89V150.185L161.9 149.481L161.549 148.776L161.199 147.719L160.849 147.014L160.499 146.309L160.149 145.604L159.448 144.899L158.748 143.842L158.398 143.137L157.697 142.433L156.647 141.375L154.896 140.318L153.145 138.556L151.394 137.147L148.943 135.385L148.593 135.032L148.242 134.68H147.892L147.192 134.327L146.842 133.975L146.491 133.623H146.141L145.441 133.27H145.091L144.39 132.918L144.04 132.565L143.34 132.213L142.639 131.508L142.289 131.156L141.589 130.803L141.239 130.451L140.538 130.099L140.188 129.394L139.488 128.689L138.787 127.984L138.087 127.279L137.387 126.575L136.686 125.87L136.336 124.813L135.636 124.108L135.286 123.051L134.935 121.993L133.885 119.174L134.935 117.765L137.036 115.65L137.737 114.945L138.087 114.593L138.437 113.888L139.138 113.183L139.488 112.479L139.838 112.126L140.188 111.421L140.888 110.717L141.239 110.012L141.589 109.307L141.939 108.602L142.289 107.897L142.639 106.84L142.99 106.135L143.34 105.431L143.69 104.726V103.669L144.04 102.964V102.259L144.39 101.554V100.497V99.7922L144.741 99.0874V98.3826V97.6778L145.091 96.973V96.2682L147.542 94.5062L148.943 93.0966H149.293L149.643 92.7442L149.993 92.3918L150.344 92.0394L150.694 91.687L151.044 91.3346L151.394 90.9822V90.2774L151.744 89.925L152.094 89.5726V89.2202L152.445 88.5154V88.163L152.795 87.8106V87.4582L153.145 87.1058V86.401V86.0486L153.495 85.6962L153.845 84.9914V84.639L154.196 83.9342L154.546 83.5818V82.877V82.1722L154.896 81.8198V81.115V80.4102L155.246 80.0578V79.353V78.6482L155.596 78.2958V77.591V76.8862V76.5338L155.946 75.829L156.297 74.7718L159.799 75.1242L166.452 75.4751Z" fill="#818181"/>
<path d="M166.452 75.4753L173.456 75.8277H174.506L175.207 75.4753H175.909H176.257L178.36 76.1801L181.161 76.8849L182.912 77.2373L184.663 77.5897H185.364L185.714 77.9421H186.064H186.414H187.114H187.465H187.815H188.165H188.865H189.217H189.917H190.266H190.967H191.318H192.019H192.369H193.069H193.419H194.12L195.52 77.5897H197.622V83.9344V88.5156V89.2204L197.972 90.2776V90.9824L198.672 92.0396L199.022 93.0968L199.372 94.154L199.723 95.916L200.423 98.3828L201.824 101.908L203.226 105.785V106.137L203.576 106.489V106.842V107.194V107.899V108.251V108.604V108.956V109.309L203.226 110.013V110.718V111.423L202.876 111.777V112.48L202.526 112.834V113.185L202.175 113.539L200.423 114.949L198.672 116.006L196.921 117.415L195.17 118.825L194.47 119.53L194.12 119.882L193.769 120.587L193.069 121.292L192.019 122.701L190.967 124.816L189.917 126.93L189.566 127.989L188.165 128.341L186.764 129.046L185.364 130.102L183.613 130.808L182.562 131.16L181.862 131.865L181.161 132.218L180.811 132.57L180.461 133.275L179.761 134.684L179.409 135.389V135.742V136.799V138.208L179.761 140.323L180.109 141.381V142.086L180.461 142.439L180.109 143.143V143.496L179.761 143.848L179.409 144.201L179.06 144.553L178.71 144.905V145.258L178.36 145.61V145.963L178.01 146.315V146.667L177.658 147.02V147.372L177.309 148.077V148.782V149.134L176.958 150.191V150.896V151.601L176.609 152.307V153.012V153.717L176.257 154.42L175.909 155.125V155.479L175.557 156.184V156.889L175.207 157.593V157.946L174.856 158.651L174.506 159.003L174.156 159.708L173.806 160.413L173.456 160.765V161.117L173.106 161.822V162.175V162.527L172.755 162.879V163.584V163.937V164.289L172.405 164.641L170.654 164.289H170.304L169.954 163.937H169.604L169.254 163.584H168.903L168.553 163.232L168.203 162.879L167.853 162.527L167.503 162.175L167.152 161.822L166.801 161.117L166.452 160.765L166.1 160.06L165.752 159.708L165.4 159.003L165.05 158.651V157.946L164.7 157.593L164.349 156.889L163.999 156.184V155.479L163.649 155.125L163.299 154.42V153.717L162.949 153.012V152.307L162.599 151.601L162.248 150.896V150.191L161.898 149.487L161.548 148.782L161.198 147.725L160.848 147.02L160.497 146.315L160.147 145.61L159.447 144.905L158.746 143.848L158.396 143.143L157.696 142.439L156.645 141.381L154.894 140.323L153.144 138.561L151.391 137.151L148.94 135.389L148.59 135.037L148.239 134.684H147.889L147.189 134.332L146.839 133.98L146.489 133.627H146.138L145.438 133.275H145.088L144.387 132.922L144.037 132.57L143.335 132.218L142.635 131.513L142.286 131.16L141.586 130.808L141.234 130.456L140.534 130.102L140.184 129.397L139.483 128.694L138.783 127.989L138.083 127.284L137.382 126.579L136.682 125.874L136.332 124.816L135.631 124.111L135.281 123.054L134.931 121.997L133.88 119.177L134.931 117.768L137.032 115.653L137.732 114.949L138.083 114.595L138.433 113.89L139.133 113.185L139.483 112.48L139.834 112.128L140.184 111.423L140.884 110.718L141.234 110.013L141.586 109.309L141.935 108.604L142.286 107.899L142.635 106.842L142.987 106.137L143.335 105.432L143.687 104.727V103.67L144.037 102.965V102.261L144.387 101.556V100.499V99.7924L144.738 99.0876V98.3828V97.678L145.088 96.9732V96.2684L147.539 94.5064L148.94 93.0968H149.29L149.64 92.7444L149.99 92.392L150.341 92.0396L150.691 91.6872L151.041 91.3348L151.391 90.9824V90.2776L151.741 89.9252L152.091 89.5728V89.2204L152.443 88.5156V88.1632L152.792 87.8108V87.4569L153.144 87.106V86.4012V86.0488L153.492 85.6964L153.844 84.9916V84.6392L154.194 83.9344L154.544 83.5805V82.8757V82.1709L154.894 81.8185V81.1137V80.4089L155.243 80.0565V79.3517V78.6469L155.595 78.2945V77.5897V76.8849V76.5325L155.944 75.8277L156.295 74.7705L159.797 75.1229L166.452 75.4753Z" stroke="#818181" stroke-width="1.2002" stroke-miterlimit="10" stroke-linecap="round" stroke-linejoin="round"/>
<path d="M473.952 22.2568L479.556 29.6587V30.3635L479.906 32.4779L479.556 38.8211L486.561 39.1735L488.312 44.8134L489.713 47.2802L490.063 47.985L490.764 49.0422L492.515 50.8042L493.215 51.8614L493.567 52.9186L493.915 53.6248V53.9758L493.567 54.6806L493.215 55.3868L492.865 56.0916L491.814 56.7964L491.464 57.1474H491.114L491.464 58.9108L492.164 60.6728L493.215 62.0824L494.265 63.1396L495.316 64.1968L496.718 64.9016L497.769 65.6064L498.119 66.6636V67.7208L497.769 68.4271V69.1319V69.4828L498.469 70.8939L499.168 72.6544V74.0655V75.1227L499.52 76.1799L499.168 78.9991L501.97 79.3515L506.173 82.1707L505.473 84.2851L504.072 87.8106L501.621 90.2774L500.22 91.687L499.87 93.0966L498.469 95.211L497.417 98.7364L496.368 102.965V105.784L496.718 107.546L497.417 109.661V111.072V114.244L496.718 116.358L494.967 119.177L491.814 124.816L487.962 130.455L486.211 132.922L485.509 134.332L484.459 136.446L483.758 137.856L483.41 138.913L483.058 140.676L482.708 143.848V145.61L481.657 148.077L480.258 150.896L478.506 154.42V156.184L477.805 157.593L477.455 159.355L476.405 161.47L476.054 162.174L480.258 169.575L480.957 170.281L485.161 168.165L490.412 164.641L493.567 162.174H497.417V163.936L501.621 165.698L504.773 164.994L513.529 161.117L517.731 163.232L521.935 165.346L524.034 164.994L525.435 167.109L526.137 166.756L527.538 166.051L528.238 166.403H528.938L529.99 166.756L532.44 166.403H533.142L533.492 166.051L533.841 165.346L534.191 164.289L537.694 164.641L538.395 161.117V159.708L537.694 158.298L536.994 156.534L539.095 151.953L540.846 148.077V145.258L541.196 143.496L544.348 136.446L545.05 132.922L548.552 133.275H551.703L553.104 133.627L557.306 135.389L558.707 135.741L564.662 136.094H567.813L569.566 135.741L570.966 134.332L573.768 135.037L577.97 135.389L584.975 136.094H587.777L590.23 137.151L591.63 137.856L593.381 139.97L594.432 141.381L595.481 142.086L597.232 144.2L599.685 145.258L601.085 145.61L603.188 149.839L606.69 154.42L608.791 156.888L611.944 159.708L613.695 161.117L619.998 157.593L621.399 157.241H625.951L627.702 157.593L628.054 162.174L628.404 165.346L628.054 168.519L627.702 170.986L626.653 173.453L625.601 175.919L623.5 180.501L622.099 182.263L621.749 182.967L621.049 184.377L620.699 185.436V187.198V188.255L621.049 189.312L621.399 189.664L621.749 190.369L623.15 193.188L624.551 196.008L624.901 198.474L625.601 201.648L625.951 204.467V205.524V206.229L626.302 206.934L625.951 208.343L625.601 211.164L624.901 214.335V215.745L624.2 217.155L623.5 218.212L623.15 218.917L622.45 220.679L621.749 222.793L620.348 223.145L618.247 223.85L615.096 225.612L610.542 227.022L609.141 227.376H608.441L605.988 227.728L604.587 227.376L602.836 226.671L601.787 225.966L598.984 223.85L598.634 222.793L597.934 221.031L597.232 219.621L595.833 217.859L595.132 216.45L594.782 214.688V213.631L594.08 208.696L593.731 203.41V202.705L593.381 202.352L593.031 201.648H592.679L591.98 201.295L591.279 200.943L590.578 201.295H590.23L586.376 203.762L580.772 206.581L577.97 209.048L576.569 210.105L575.519 211.515L574.468 212.572L574.118 213.982L573.418 217.507L572.366 220.679L571.667 222.441L571.317 223.85L569.916 224.907L568.864 226.317L568.515 227.022L568.165 235.128L567.813 238.3L566.062 240.768L560.458 246.054L559.057 245.702L556.607 245.35L553.804 244.645L551.353 243.588L547.149 241.473L542.597 240.064L542.247 242.53L541.546 244.645L540.146 247.112V252.75L539.795 254.161L539.095 255.571L538.395 256.626L537.344 257.333L536.644 258.037L535.943 261.561L535.243 262.266L534.543 263.676L532.09 269.316L529.639 273.544L528.938 274.249L527.888 274.602H526.837L525.787 274.954H523.335L521.584 275.306H520.532L518.433 276.364L515.63 278.126L514.229 278.478H512.828L511.427 278.83H507.224L502.671 278.478L500.92 278.126L499.87 278.478L499.168 278.83L497.067 282.004L493.567 287.29L492.865 287.994L491.814 288.699L489.013 291.518L487.962 292.576H487.26H486.561L485.86 292.928V293.633L485.509 294.338L485.161 294.69L484.81 295.044L484.459 295.395L483.058 296.1V296.452V296.806V297.511L483.41 298.215V298.566V299.625V301.035L483.058 302.444L482.708 303.501L482.008 304.559L481.657 305.263L480.607 306.673L479.206 308.083L478.506 308.787L478.155 309.14H477.805L477.103 309.492L475.353 309.846L474.302 310.197L473.952 310.551L473.253 310.902L472.201 311.608L471.852 312.313L471.15 313.018L470.45 314.427L469.399 316.189L468.349 317.951L467.298 319.361L466.598 320.066L465.898 321.123H465.546L464.847 321.475L464.497 321.828H464.147H463.096L460.993 322.18L460.643 322.532L460.293 322.885L458.192 325.353L457.842 326.763L457.492 329.23V330.287V330.639V330.992L457.842 331.344V332.049L458.542 332.754L459.243 333.458L459.593 333.811L459.944 334.163V334.868L459.593 335.22L458.892 335.573L458.542 336.278V336.63V337.335L458.892 337.687L459.243 338.04L459.944 338.744H460.293L460.643 339.097L461.345 339.802L461.695 340.506V341.211V341.565L461.345 342.622L460.993 342.975H460.643L459.944 344.737L459.593 345.441L458.542 346.499L458.192 347.203L457.141 347.556L456.441 347.908H455.04H454.34H452.939H451.538H450.837H449.436H448.735L447.685 348.261L445.934 348.613L443.833 348.965L442.782 349.318L441.732 349.67L441.382 350.375L440.33 351.08L439.631 351.432L439.28 351.786H438.579H437.528H435.777H434.026L433.326 351.432H432.976L432.625 351.08L432.275 350.727L431.575 350.375H431.225L430.524 350.023H429.824L428.772 349.67L428.423 348.965L428.073 348.261L427.723 347.908L427.371 347.203L427.021 345.441V344.384L426.672 343.679L425.97 343.327L424.57 342.27L423.519 341.917L421.768 340.86H421.068L419.667 340.506L417.916 340.155H416.165L414.063 339.451L408.11 338.392L405.658 338.04L403.207 337.687L398.303 336.982H397.252H395.852L394.801 337.335L393.75 337.687L390.597 340.155L389.548 341.211L387.446 342.975L386.045 343.679L384.644 344.384L383.594 344.737H382.193L381.142 345.089L380.092 345.441L379.04 346.146L378.339 346.851L377.991 347.908L377.289 350.023L376.939 350.727V351.786V352.491L376.588 353.547V354.253L376.238 354.958L375.888 355.662H375.188L374.137 356.013L373.087 355.662H371.686L370.635 356.013L370.285 356.367L369.585 357.072L369.235 357.777L368.883 358.834L368.183 360.596L366.783 363.768L366.083 365.882L363.28 372.227L359.778 378.218L358.027 381.037L357.327 381.742V382.446L356.626 385.619L356.276 387.029V388.439V390.201L355.926 391.963L355.226 394.077L354.174 395.839L353.123 397.953L352.072 399.364L350.672 401.126L349.971 402.184L345.769 406.412L343.668 409.233L343.316 409.584H342.966H342.616L341.917 409.233H341.565L340.865 409.584L340.515 409.938V410.289L340.865 410.994L341.565 413.11L342.616 414.872L344.017 417.338L345.417 419.1L346.82 420.51L348.921 422.977L351.722 425.093L353.473 426.15L355.574 427.206L358.027 427.912L359.778 428.264L361.179 428.617L362.58 428.968H363.63H363.98L364.33 429.321V430.026L365.382 433.903V434.607L366.083 438.133L367.132 443.066V445.181V446.238L367.482 447.295V448.354L367.834 450.467L368.183 451.876L368.534 453.286L368.883 455.754L368.534 460.336V463.507L368.883 466.328V467.385V468.795V469.85V471.261L367.834 474.785L367.132 477.252L366.783 479.719V480.424V482.187V483.243L367.132 484.302L367.482 485.359V487.121L367.132 488.178V488.883L366.432 490.292L365.031 491.702L363.98 493.112L362.93 493.818L362.58 494.521L362.229 495.226L361.879 495.932L361.529 500.514L361.179 506.152V507.914V508.266L361.529 508.62L361.879 509.324L363.63 511.086L366.432 513.554L367.132 513.906L367.834 514.257L368.183 514.611L368.534 515.316L369.235 515.667L369.585 516.373H369.935L370.635 516.725L371.336 517.078L372.036 517.43L372.736 517.783L373.787 518.135L375.538 519.192L378.339 520.954L383.243 524.126L386.045 525.888H387.095L388.146 526.242L388.846 525.888H389.197L389.897 525.535L390.597 525.184L390.949 524.832L391.649 523.422L392 523.069V522.716L392.348 522.013V521.307L392.7 520.603V518.487L393.049 516.725L393.4 514.963V514.257L393.75 513.554L394.101 512.495L394.451 512.144L395.151 511.792L395.501 511.086H395.852L396.202 510.382L396.552 510.03L396.902 509.324L397.252 508.62L397.603 507.914L397.953 506.504L398.303 505.447L398.653 502.628V501.571L399.003 500.866V500.514L399.353 499.809L399.704 499.455L400.404 498.752L401.104 498.399L401.456 497.693L401.805 497.342V495.932L402.155 492.408V491.702V491.35L402.505 490.645L402.857 490.292L403.207 489.235L404.958 485.359V484.302L405.658 483.597L406.008 483.243L406.359 482.891L407.059 482.54L407.409 482.891H407.759L408.81 483.243L411.962 484.302L414.414 485.359H415.113L415.463 485.711L416.515 486.064L418.967 487.121L420.718 488.178L422.469 489.588H422.819L423.519 490.292L424.22 490.999L424.57 492.759L425.27 494.874L426.672 498.399L428.423 503.685L429.474 506.152L429.824 506.857V507.562V508.266V508.62V509.324L429.474 510.03L429.124 510.735V511.438V512.144V512.848V513.906L429.474 514.963L429.824 515.667L430.173 516.021L430.524 516.373L431.225 516.725H431.925L432.275 517.078H432.976L433.676 517.43L434.026 517.783L434.376 518.135H435.078L436.479 518.841L439.631 519.897L440.681 520.603H441.382L442.08 521.307L443.132 522.716L444.883 524.126L445.234 524.478H445.934L446.636 524.832L448.387 526.594L449.436 526.946L451.538 527.651L456.091 527.297L460.643 526.594L461.345 526.242H462.394L463.446 525.535H464.147L464.847 525.184L465.898 524.832L466.947 524.478H467.999H469.049L469.75 524.832L470.45 525.184L471.852 525.535L472.551 526.242L474.302 527.651L475.703 529.059L476.054 529.413L476.755 530.118L477.103 530.823L477.805 531.88L478.155 533.29L479.206 535.053L479.906 535.756L480.957 537.518L481.657 538.225L482.008 538.928L483.058 539.28L484.109 539.634H484.81L485.86 539.987H486.561L486.912 539.634L487.26 538.928L487.612 538.225V537.518L487.962 536.815L488.312 536.109L488.661 535.404L489.363 534.347V533.644V532.937L489.713 532.232V531.528L489.363 530.823L489.013 529.766L488.661 529.059L488.312 528.004L487.612 526.946L486.912 525.535V524.832L486.561 524.126V523.422V522.716L486.912 521.307L487.26 520.954L488.312 517.078L488.661 516.021L489.013 515.316L490.063 514.963L490.764 514.257H491.114L491.814 513.906L492.164 513.201L492.515 512.848L492.865 512.144L493.215 511.792L493.567 511.438H494.265H494.967H495.666H496.368H496.718H497.067L497.769 511.086V510.382V510.03V509.676V508.973L497.417 508.62L497.067 507.562L496.718 507.211V506.504V505.801V504.742L497.067 504.038L497.417 502.98V502.628L497.769 501.571L498.469 500.866L499.52 499.809L500.569 498.752L503.722 496.283L505.124 495.932H505.823H506.173L507.224 496.283L507.574 496.636L508.625 496.99H508.975L509.677 496.636L511.077 495.932L515.63 492.054L518.433 489.94H519.132L519.833 489.588H520.184L520.532 489.94L521.584 491.702L521.935 492.054L522.283 493.112L524.386 495.932L526.837 498.399L528.238 499.455L529.639 499.809H529.99H531.039H532.09H533.142H533.841L534.893 499.455L536.294 499.104L536.644 498.752L537.344 498.399H537.694L538.745 497.342L539.445 496.283L539.795 495.932L541.196 493.112V492.408L541.546 491.702L542.247 490.645L542.597 489.94L542.947 489.235L543.299 488.53L543.998 487.473L544.7 487.121L545.398 486.416L546.801 485.006L549.602 483.243L551.703 482.54L552.053 482.187V481.833V481.481L551.703 481.13L549.952 476.9L548.9 474.081L547.851 471.966L547.5 471.261L546.801 470.203L546.45 466.679V465.269V464.566L545.749 463.86L544.348 463.507L539.445 462.802L538.745 462.45L537.344 462.098H536.644L536.294 461.393L535.943 459.983L534.543 453.286L533.492 449.41L532.79 445.886L532.44 444.828V443.417V442.362V440.598L532.79 438.836V436.723V432.845L533.142 427.206V426.855V425.444L533.492 422.977L534.191 419.1L535.243 414.167V412.051L535.592 410.994L535.943 410.643L536.644 410.289L537.344 409.938L538.395 409.584L539.445 409.233L540.496 408.879L544.7 407.47L545.398 407.117L545.749 407.47L546.1 407.822V408.174L546.45 408.528L547.149 411.348V412.051L547.5 412.756V413.11L547.851 413.814L548.552 414.872L549.602 415.576L554.856 418.748L556.256 419.453L558.008 420.158L560.109 420.51L561.51 420.862L561.86 421.215L563.261 421.567L566.413 423.331L568.515 424.386H569.214L570.615 423.682L574.118 421.567L579.371 418.396H579.721H580.073L581.122 419.805L581.473 420.158L581.824 420.862L584.975 426.15L588.477 431.083L589.178 431.788H589.878L590.23 432.141L590.578 431.788L590.928 431.436L591.63 430.731L592.679 429.674L594.432 428.264L596.883 426.15L599.685 423.682L605.289 419.1L608.441 416.281L611.944 413.46L615.096 410.994L615.446 410.289L615.795 409.938L616.145 409.584H616.496H616.847L617.545 410.643L617.897 411.348V412.051V412.756L618.247 413.11V413.814V414.519V415.576L617.897 416.634V418.043L617.545 419.805V421.567V422.624L618.247 425.093L618.598 425.444L618.946 426.15L619.298 426.855L619.648 428.617L619.998 429.674L620.348 430.377L621.049 431.083L621.749 431.788L622.45 432.845V433.198H623.15H623.852H624.551H624.901H625.601L627.003 432.845L629.805 432.141H632.255H632.957L633.657 432.493H634.357H635.058L635.409 432.845L636.108 433.198L636.81 433.55L638.209 434.961L639.61 436.723L640.312 437.779V438.485V438.836V439.542V440.246V440.952V441.657L639.962 442.714L639.61 443.771L638.209 446.238L637.509 448.354L637.16 449.057L637.509 449.41L638.561 450.114H639.26L640.312 450.467H641.011H641.363H641.713H642.063L642.763 450.114L643.113 449.41L643.464 448.705L644.514 446.943L645.215 446.238L645.565 445.886L645.915 445.533H646.966L647.316 445.886H647.666H648.366L648.718 446.238H649.067L649.417 446.59L650.119 446.943H650.469L651.168 446.238L652.92 445.886L653.969 445.181H655.371H656.072L656.772 444.828L657.473 445.181H658.173H659.924L661.325 445.533H662.026H662.725L663.777 445.181H664.476L665.178 444.828L665.528 444.476H665.877L666.579 443.771L667.98 442.362L669.38 439.895L672.183 442.008H672.532L673.232 442.362L673.934 442.714L674.633 443.417L675.335 443.771H676.034H676.385H677.086L677.786 444.124H678.487L679.537 444.828L681.988 445.886L683.389 446.59L684.79 447.648L685.492 448L686.191 449.057L687.591 450.114L688.293 450.819L689.342 451.876L690.044 452.935L690.394 453.286L691.095 453.638L691.795 454.697L693.546 457.516L694.597 458.926L695.649 459.631L698.098 461.745L700.201 462.802L700.9 463.155L701.602 463.507L702.302 463.86H702.651H703.003H703.703L704.052 463.507L704.753 463.155L705.104 462.802L706.154 461.393H706.504L707.206 461.745L707.905 462.098L708.607 462.802L710.708 463.86L712.458 464.917L713.159 465.269L713.86 465.622H714.56" stroke="#818181" stroke-width="1.2002" stroke-miterlimit="10" stroke-linecap="round" stroke-linejoin="round"/>
<path d="M714.56 465.621L716.311 465.975L717.712 466.327L718.762 466.678L720.163 467.031H720.864L721.564 467.385L722.614 467.737L723.316 468.088L724.717 469.147L726.118 469.85L726.468 470.556L727.168 470.909L727.517 471.612V471.966L727.869 473.728L728.219 480.071V480.423V480.777V481.481V481.833L727.869 482.187V482.539L727.517 482.89L727.168 483.596L726.818 483.949V484.652L726.468 485.358L726.118 487.12V487.824L725.766 489.235L724.365 492.408L723.316 494.873L720.864 499.454L719.113 502.98L718.062 504.742L716.661 506.504L713.86 508.972L710.358 511.438L704.052 516.725L699.149 520.603L697.398 522.012L696.348 523.068L695.649 522.716L694.947 522.363L693.896 521.659L690.743 520.954L687.243 519.897L684.44 519.544L681.288 519.192L678.487 519.544L674.985 519.897L671.832 520.249H667.98L663.777 520.603H660.626H660.276H659.924L659.574 520.954L659.224 521.306L658.875 522.012L657.473 525.887L656.422 529.765L655.72 532.232L655.371 534.346L654.671 535.756L653.969 536.815L653.27 537.166L651.87 537.518L650.119 538.928L649.417 539.634L648.718 540.69L648.366 541.396V543.158L647.666 546.682L646.615 553.73L645.915 557.96L645.215 560.779L644.864 561.484V563.248L645.215 565.713V568.886V576.639L645.565 582.983L645.915 586.155L646.966 590.032L648.016 592.852L648.718 594.613V595.671V596.375V597.081L648.366 597.784L648.016 598.491L647.666 599.195V600.605V602.719L648.016 605.186L648.366 606.243L650.818 609.064L652.22 610.474L652.569 610.826L652.92 611.177H653.621H654.319H655.021H655.371H656.072H656.422L657.122 610.826H658.173H659.224H660.626H661.325L664.126 611.529L665.178 611.883L667.279 612.588L669.731 614.349H670.431L671.131 614.702L671.832 615.055L672.183 615.76L672.532 616.112L672.882 616.817V617.169L673.232 618.226L673.584 618.579L673.934 619.284L674.633 619.636L674.985 620.341L675.684 620.695H676.386L676.736 621.046L677.435 621.398V621.75L678.136 622.457L678.837 623.866V624.57L679.186 625.628V626.685L679.887 627.743L680.238 628.8L680.938 629.857L681.989 631.267L682.339 631.619H683.039L683.389 631.972L684.09 632.324L685.492 632.676H686.191L686.541 633.029H686.893H687.591L690.044 632.324L692.846 631.972H694.246H696.348H696.698L698.098 630.914L698.8 630.562H699.149L699.851 630.914H701.252L701.602 630.562L702.651 631.619L703.353 632.324L704.052 632.676L704.753 633.029L705.454 633.381L706.154 633.735L710.358 634.791L711.057 635.145V635.848V636.553L710.358 639.726L709.306 647.831V649.241V650.299L707.206 658.404L705.804 668.624V670.386L705.454 671.445L704.052 675.674L702.651 681.313L702.302 682.017V683.075V684.133L702.651 684.837V685.895V687.304V689.066L702.302 696.116V702.811V703.516L701.602 704.573L701.252 705.63L700.551 707.04L699.499 708.804L697.398 713.031L696.348 715.147L695.649 716.204L693.896 718.318L691.795 720.08L690.743 720.787L690.044 721.49L687.243 725.72L683.389 730.301L682.339 731.006L681.638 731.711L680.588 732.417L679.887 732.768L679.186 733.121H678.136L676.736 733.473H675.335L674.283 733.827H672.882H672.183L671.131 734.178H670.081L669.03 734.53L668.33 734.883L667.629 735.236L666.929 735.94L665.178 737.702L664.476 738.76L664.126 739.111H663.427H662.375H661.325L658.875 738.76L658.173 738.408L657.823 737.702L656.422 736.292L655.371 734.883L654.319 734.53L652.92 734.178L651.87 733.473H650.818H649.067L647.316 733.827H646.265L645.215 734.178V735.236V736.645V738.054L645.565 741.932V742.989L646.265 745.104V746.161L645.565 746.866L644.864 747.22L643.814 748.275L643.464 748.98L642.763 749.685V750.742L642.412 751.801V752.504V753.563L642.763 754.62L643.113 755.325L643.464 755.676V756.734L642.763 758.496L642.412 759.553L641.363 761.316L641.011 762.022L640.661 763.782V764.487V765.544V766.251L641.011 766.955V768.013L640.661 769.07L640.312 770.127L637.859 777.175L637.509 778.234V778.937L637.859 779.996L638.561 782.463L638.91 783.167L639.26 783.872L639.61 784.224H640.312V784.929L639.962 785.634L640.661 785.986L641.713 785.634H642.412L643.113 785.986H643.814L644.514 786.339L644.864 786.691L645.565 787.044L647.316 789.158L648.016 789.864L649.067 790.92L649.417 791.625V793.036L649.767 797.617L649.417 798.32V800.789L649.067 801.494L648.718 801.846L648.366 802.551H647.666H646.966L646.615 802.198L646.265 801.846L645.915 801.494L645.565 800.789L645.215 800.436L644.864 800.084L643.464 800.789H642.763L641.363 799.732L640.661 799.379L639.962 799.027H639.26H638.561H637.859L637.16 799.379H636.458H636.108H634.708H634.357L633.307 800.436L632.957 800.789L632.255 801.141H631.556L630.505 800.789L629.453 800.084L628.754 799.732H628.054L627.352 800.084L626.302 800.436L625.253 800.789L624.201 801.141L623.852 801.494L623.15 801.846H622.099H621.749L620.699 802.551H620.349L619.298 803.255L618.946 803.608L618.598 803.96L617.897 805.018L617.197 806.076L616.847 805.722L616.496 805.37V804.667L615.446 801.494L614.744 799.379L614.394 796.911V796.558L614.044 796.208L613.343 795.855L612.643 795.501H611.944H610.192H609.491L608.791 795.855H608.091L607.04 795.501L605.638 795.149L604.237 794.798L602.136 794.092L600.735 793.739L600.035 793.387L598.984 793.036L598.634 792.684L598.284 791.977L597.934 791.274L596.533 788.453L594.782 784.929L594.432 784.577H593.731L593.031 784.929H592.329H591.63L590.578 785.282L589.878 785.634H589.178H588.477L587.777 785.282L587.427 784.224L587.078 783.518L586.376 782.463V782.109V781.405L586.026 780.347L585.676 778.585V777.175L585.326 773.651V773.299V772.594L585.676 771.537L585.326 771.184L584.275 770.478L583.224 769.775L582.523 768.716L581.473 767.66L580.772 767.306H580.423L579.721 766.955L579.021 766.251L578.322 764.841L577.97 764.487L576.921 764.135L575.869 763.782H575.519L573.418 764.841L571.667 765.897H571.317H570.615L569.916 765.544L569.566 765.193L569.214 764.487V763.078V761.668L569.566 761.316L569.916 760.963L570.615 760.26V759.906L570.966 759.201L570.615 758.496L569.566 758.144H569.214H568.165H567.463H567.113L566.764 757.439V756.382L567.113 756.03L566.764 755.325L566.062 754.266L565.712 753.563L565.363 753.21L565.012 752.153V751.448V750.742V750.391L565.363 749.332V748.98V748.275L565.012 747.57L564.662 747.22L563.961 746.866L563.611 746.161L562.911 745.456L562.21 744.399L561.51 742.989L561.16 741.227V740.522L561.51 739.818L561.86 739.111L565.363 735.589L566.413 734.53V733.827L566.062 733.121L565.712 732.768L563.961 731.711L562.911 730.654L562.21 730.301L561.86 729.949L558.358 728.539L555.906 727.13L555.555 726.777L554.856 726.071L554.505 725.72H553.804L553.104 727.13V727.835L552.754 728.539V729.597V730.654L553.104 731.006V733.473V734.53V734.883L552.054 735.589L551.353 735.94L548.9 737.351H547.851H547.149L546.801 736.998L546.1 736.645L543.998 735.236L541.898 733.121L540.496 731.711L540.146 731.359L539.796 730.654L539.445 729.597L539.095 728.892V727.835V727.13V726.071V725.368V724.662L538.745 723.958L538.395 722.9L537.694 721.842L537.344 721.49L536.644 721.138H535.943L535.243 721.49L534.191 722.196L532.79 723.958L531.741 724.662L531.039 725.015L529.99 725.368L529.288 725.015L528.238 724.662L527.538 724.309L526.837 723.606L526.137 722.9L525.435 722.196L525.086 720.787V719.728V719.025V718.318V717.615L525.787 716.909L526.137 716.556L526.487 715.852L526.837 715.147L527.187 714.44L527.538 713.737L527.888 713.031V712.328V711.975L528.238 711.621V710.918V709.859L527.888 709.156V708.804V708.45L527.538 707.394L527.187 707.04L526.837 706.688L526.487 705.984L526.137 705.63L525.086 704.926H524.386L523.686 704.573H522.985H521.935H521.234L520.532 704.926L519.833 705.278L519.132 705.63L518.781 705.984L518.081 707.04L517.731 707.746L516.33 710.213L513.529 714.794V715.147L512.828 715.499L512.126 715.852H511.428H511.077H510.376L509.677 715.499H508.975L508.276 715.147L507.574 714.794L507.224 714.44L506.875 714.09L506.523 713.737L505.473 713.385L504.072 712.68L503.022 711.975H502.321L501.97 711.621H501.271L500.569 711.975L499.87 712.68L499.52 713.031L499.168 713.737V714.44L498.818 714.794L498.469 715.499V716.204L498.119 716.909L497.769 718.318V719.025V719.728V721.842L497.417 722.549L497.067 722.9L496.368 723.252H496.016H495.316L494.266 722.9L493.915 722.549L493.215 722.196L492.515 721.842L491.114 721.138L489.713 720.433L489.363 720.08H488.661L487.962 719.728H487.26H486.561H486.211L485.509 720.08L485.161 720.433L484.811 721.138V721.49L484.459 722.196L484.811 722.549V722.9V724.662L485.161 727.13V727.482L484.811 728.187V728.539L484.109 729.243H483.41H483.058H482.358H482.008L480.607 728.892L479.556 728.539L478.856 728.187L477.805 727.835L475.004 726.071H474.302H473.253L472.551 726.777L471.852 727.13L471.15 727.482L470.8 728.187L470.101 728.539L469.399 728.892L469.049 729.597L468.699 729.949L467.298 730.301H466.248L465.546 729.949L464.497 729.597L463.096 728.892L462.044 727.835L460.993 727.13L459.593 725.015L458.192 723.606L457.492 722.549L457.141 721.842L455.741 720.08L455.391 718.671L454.69 716.204L454.34 715.147V713.737V713.031L454.69 711.269L455.04 710.566L455.391 710.213L456.091 708.804V708.097L456.441 706.335V704.573V703.516V702.811L456.091 701.754L454.69 699.287L452.939 695.057L450.837 691.885L450.138 691.533L449.436 691.182H448.387H446.636L444.533 690.828H443.133H441.382L437.528 691.533H437.178H436.479H435.078H434.026H432.626L431.575 691.182L428.772 690.476L427.021 689.771L425.62 689.066L423.869 688.361L423.17 688.009L422.469 687.657H421.418H419.317L415.815 686.952H414.063L411.613 686.598L409.51 685.895L405.658 684.837L400.754 682.371L398.653 680.607L395.151 677.788L393.049 676.38L391.649 675.321L389.197 674.264L386.045 673.559L384.994 673.207L384.294 672.854L383.243 672.502H382.193H380.792L376.588 671.796L375.538 671.445L373.787 671.092L372.036 670.74L369.235 670.035L368.534 669.683L368.183 669.33L367.482 668.978L366.783 668.273L365.731 667.214L365.031 666.511L363.63 665.805L361.879 664.749L361.529 664.395L360.478 664.043L359.428 663.69H357.677L353.823 662.986L350.672 662.633L341.217 661.576H340.165L339.815 661.928L339.464 662.986L337.363 667.568L333.861 675.321L333.161 677.083L331.76 680.961V682.017L331.409 682.723V683.78V684.485V685.542L331.76 688.361L332.109 689.066V689.771V690.476V691.533V692.238L331.409 695.057V695.763L331.06 696.467V697.173V697.525V698.582V699.287V700.344V704.221L330.708 706.335V707.394L330.36 708.097V708.45L330.708 709.507L331.06 710.566V710.918V711.621V713.031V714.09L330.708 715.852L329.658 720.08L328.607 727.482L327.557 734.883V735.94V738.408V741.932L327.907 745.104L327.557 745.808L326.856 746.866L326.506 747.57L325.456 747.22L325.105 746.866L324.755 746.161L324.055 745.456L323.354 745.104L323.004 744.751L322.654 744.399H321.954L321.252 744.046L320.903 743.694H319.851L319.502 742.989L317.751 740.522H317.4L317.05 740.17H316.349H315.999H315.299H314.948L313.898 740.873L312.147 742.284H311.797L310.746 742.637L310.046 742.284L309.346 741.932L308.644 741.227L307.943 740.873L307.243 740.522L306.192 740.17L305.492 739.818L304.091 739.111L300.94 738.054L299.189 737.351L298.138 736.645L297.788 736.292L296.386 734.53L295.685 733.473L293.934 730.654L291.833 725.72L289.382 721.842L287.631 718.318L285.18 714.09L283.429 711.975L280.626 707.394L277.474 702.811L275.373 700.344L275.023 699.992L274.323 699.638L273.972 699.287H272.92H272.22L271.871 698.935H271.169L269.769 697.173L268.718 696.819L268.018 696.467L267.317 696.116L266.267 695.057L264.516 692.238L263.816 691.533V691.182V690.476V690.123L264.166 689.419V688.361V688.009L263.465 685.19L261.714 679.551V678.493L261.363 678.142L259.963 676.38L258.561 674.264L256.46 672.15L255.41 671.445L254.709 671.092L253.308 669.33L251.558 667.568L249.807 665.805L248.406 665.101L244.903 662.633L244.552 661.928V661.576V660.519L244.202 660.168L243.852 658.052V656.993L243.502 655.938L243.152 652.765V652.412L242.801 650.299L241.751 646.774L240.7 643.955L238.598 640.078L236.847 637.258L235.097 634.086L233.695 631.972L232.995 631.267L231.594 630.209L230.894 629.151L228.793 627.389L227.392 626.333L226.691 625.628L225.289 624.924L222.138 623.866L219.686 622.808L217.935 622.457L217.235 622.104V621.75L216.535 621.398V619.284L215.834 613.645V610.121L215.484 609.767L214.784 608.712L214.432 607.653L213.383 605.892V605.539L213.031 605.186L212.681 603.777V603.072V602.367V601.662V600.957L213.031 600.605L213.383 599.546V599.195L214.083 597.784L214.784 595.317L215.484 594.965L216.184 594.262L216.885 593.909L217.585 593.556L218.286 592.852L218.636 592.146L219.336 591.441L220.036 591.09L220.737 590.736L221.087 590.384L221.787 590.032L222.488 589.679H223.538H224.24H225.289H225.991H226.691H227.392L228.793 588.622L229.843 587.917L230.543 587.565L231.244 587.212L231.944 586.86L232.995 586.507L234.045 586.155L238.249 584.041L242.101 581.925L242.451 581.572L243.152 580.869L243.852 580.515H244.552V579.459V579.106V578.401L244.202 577.697L243.852 577.344V576.991L243.502 575.934V575.582L244.202 574.877L244.903 574.172V573.82V573.115V572.762L244.552 570.648V570.294V569.591L244.202 568.886V568.181L243.852 567.476L243.502 567.123H243.152L242.451 566.77H241.751H241.051L240 567.123H239.65L238.949 567.476L238.598 567.829H237.897H237.549H236.847L236.146 567.123L235.798 566.77L235.446 566.419L234.746 566.067L234.045 565.713L233.345 565.361L232.995 565.008H232.645L231.944 564.657L231.594 564.303L230.894 563.951L230.193 563.599L229.843 563.248L229.143 562.189L228.442 561.484L228.092 561.132L227.742 560.075V559.722L227.392 559.017L227.042 557.96V557.608L226.691 556.901L227.042 555.846V554.789V554.436L226.691 553.73V553.027L226.341 552.32L224.589 551.265L223.538 550.206L222.488 549.501L217.235 545.977L215.132 545.271H214.432L213.732 546.33L213.031 547.387L211.28 550.206L209.179 552.32L208.129 553.73L206.728 555.846L206.378 557.255V558.665L206.028 559.722L206.378 560.779L207.078 561.837L207.778 563.248L208.479 563.951V564.303V565.008V566.067L208.129 568.532V571L207.778 571.704L207.078 572.41L206.378 573.467L205.677 575.229L204.277 579.106L203.926 580.515L203.576 581.925L203.226 583.688" stroke="#818181" stroke-width="1.2002" stroke-miterlimit="10" stroke-linecap="round" stroke-linejoin="round"/>
<path d="M203.226 583.689L202.526 588.975L201.123 595.318L199.723 599.901L198.322 604.482L197.622 606.596L195.871 607.654L194.12 608.358H193.419L192.719 608.006L192.019 607.303L191.668 606.949H190.967L188.515 607.654L183.613 608.006H181.862L179.409 607.654H178.01H176.257L174.506 607.303L173.806 608.358H172.405L170.654 608.712H169.604L167.503 609.065H166.801L165.752 609.416L164.7 610.474L162.599 613.293L161.548 615.055L161.198 615.408H159.447L158.046 614.349L157.346 613.646L156.645 612.94L155.944 612.589L154.194 611.884L153.492 611.53H152.443H151.741L150.691 611.178L149.99 610.474L148.59 608.712L146.489 605.893L145.438 603.072L145.088 601.663L144.738 599.901L144.387 597.785L144.037 591.442L144.387 587.565L144.037 586.156L143.687 585.803L140.534 584.394L140.184 584.041H138.783L137.382 583.689L135.982 583.335L135.281 582.632L134.231 581.573L133.53 579.811L133.18 578.401V577.698V576.289V575.23V574.877L132.83 574.173L131.778 573.115L131.077 572.058L129.678 570.295L128.978 568.533L128.626 567.123L128.277 565.361L127.576 563.599V561.837L127.225 560.428L127.576 557.961L128.277 554.083L128.626 553.027L128.978 552.321L130.027 551.618L130.729 550.911L132.83 546.33L136.332 540.339L140.884 532.233L145.438 526.594L151.391 517.078L156.645 509.676L161.198 501.571L162.599 498.752L162.949 497.693V496.636V495.933L161.898 494.171L161.548 492.759V491.35L161.898 487.824V485.359V483.949L161.548 482.891V482.54V481.481V480.424V477.957L161.898 471.262L162.248 469.147L162.949 465.976L164.35 462.45L167.152 458.574L172.055 453.286L172.755 451.877L173.106 451.173V450.115L172.755 449.41L171.705 447.648L170.654 447.295L167.853 445.886L167.152 445.533H166.1L165.4 445.886L162.949 446.238H161.898L161.198 445.533L160.147 444.829L156.996 443.418L152.443 441.305L151.391 440.952H150.341H149.64L148.239 441.657L141.586 443.067L139.834 442.714L139.133 442.362L138.433 440.952L137.382 438.836L137.032 436.723L136.682 434.608V429.674V425.444L137.382 423.331L138.783 420.158V418.748V417.691L138.433 416.986L137.732 415.929L137.382 414.519L137.032 412.405L135.982 407.117L135.631 400.774V397.249V392.668V391.258V390.553L135.982 389.848L136.682 389.144L137.732 388.439V387.734V386.324L138.083 384.21L138.783 382.8L139.483 379.98L141.234 376.808L142.286 373.989L143.335 374.341L144.037 372.932L146.138 369.408L147.539 366.589L148.239 364.825L148.59 363.063L148.239 362.006V359.187V358.129L148.59 356.72L149.29 354.604L149.99 352.491L150.691 348.613L151.391 344.737L152.092 340.507V339.451L152.443 338.392V336.983L152.092 336.278L150.341 333.106L146.489 329.23L142.286 325.353L140.184 323.237L139.133 320.771L138.083 318.304L137.732 313.723V313.018L137.382 311.959L136.682 311.608L135.631 310.902L133.18 309.492L131.077 308.788L130.027 308.083L128.978 307.026L127.926 305.264L127.225 304.206L126.525 303.502L125.124 302.797L120.222 299.978L114.267 297.157L112.866 295.747L110.415 294.69L103.06 291.166L93.6032 286.585L91.8523 285.88L91.1519 285.175L89.401 284.823H88.7006H87.2999L85.1987 285.175H84.4984L83.4464 285.528L82.0456 285.88H79.5943H77.4932L74.3415 285.175L73.9913 284.469L74.3415 283.764H73.6412V283.059L73.9913 282.355L74.3415 282.004L73.9913 281.297L72.9408 279.888H72.2404L71.8902 280.24H71.5386L70.4895 279.535V276.716L70.1378 273.897L69.7891 272.135L68.7371 271.078L66.636 269.668L66.2858 269.316L65.5854 268.963L65.2352 268.611V267.906V267.552L64.8851 266.848L64.5349 266.495V265.79V265.438L64.1847 265.086L63.8345 264.733L63.1341 264.381L62.7839 264.028L62.4338 263.676L62.0836 263.324V262.971V262.619L61.7334 262.266V261.914V261.562L61.3832 261.209V260.857V260.504V259.8V259.447L61.033 258.742V258.39L60.6814 257.685L59.981 256.627L58.2301 254.161L57.8799 253.455H57.1795L56.1289 253.104L55.4286 253.807L54.7282 253.455L54.378 253.104L54.0278 252.045L53.3275 251.693L52.2769 251.341H49.4754L49.1238 250.988L48.775 250.636L48.0747 250.283L47.7245 249.931L47.3728 249.579V249.226L47.0241 248.521V248.169L46.6725 247.817V247.112L46.3237 246.759V246.407V246.055L46.6725 245.35V244.997V244.645L47.0241 243.94V243.235V242.531L46.6725 242.178L46.3237 241.473V241.119L45.9721 240.769V240.415V239.71V239.359V239.005V238.653L45.6234 238.3L45.2717 237.595L44.5714 237.243L44.2212 236.891H43.5208L43.1706 236.538H42.4702L41.7699 235.833V235.129L41.4197 234.071V233.014V232.309L41.0695 231.957L40.7193 231.605L40.0189 231.252L39.6688 231.605V231.957L38.9684 232.309V231.605V231.252V230.9L38.6182 230.547V230.195V229.843L38.268 229.49V229.138H37.9178L37.5676 228.784V228.433L37.2174 228.081L36.8673 227.728L36.5156 227.376V226.671V225.966L36.8673 224.908V224.557L36.5156 223.85V223.146L35.8152 222.793L35.4665 222.441L34.7661 221.736L34.0643 221.384L33.7141 221.031H33.3639L33.7141 216.098L32.6636 215.745L34.0643 214.336L34.4145 213.982V213.631L34.7661 213.277L35.1149 212.926V212.22V211.515L34.7661 211.164L34.4145 210.81L35.4665 208.696L39.3186 208.343H39.6688H40.3691H40.7193L41.0695 208.696H41.4197H42.1201H42.4702L42.8204 208.343L43.1706 207.991H43.5208H43.871L44.2212 207.638L44.5714 207.286V206.934V206.229L44.9215 205.524L45.2717 204.467L45.6234 202.705L47.0241 202.353L47.3728 199.179V196.008H47.7245H48.4249L48.775 196.36H49.1238H49.4754H50.1758H50.526H50.8762H51.5765H52.2769H52.6271L53.3275 196.008L54.0278 195.655H54.378L54.7282 194.952L55.0784 190.017L57.5297 189.312L58.2301 189.665L58.5802 190.017H58.9319L59.2806 190.369L59.6323 190.017H60.3326V189.312H60.6814H61.7334L62.4338 188.96H63.4843H64.1847L64.8851 188.607L67.6865 187.55L68.7371 187.198L69.0873 185.788L69.7891 186.845L71.1899 186.141L72.5906 185.436L73.6412 185.083L73.9913 184.377L74.3415 184.026L74.6917 183.672L75.0419 183.321L75.7423 182.263L76.0925 181.206L77.143 179.444L77.8434 177.682L78.5438 176.272L78.8939 175.215L79.2441 174.158L79.5943 173.453L79.9445 172.043L80.2947 171.337L80.6463 170.281V169.575L80.9951 169.224L81.3452 168.87L81.6954 168.165L83.4464 167.11L84.4984 166.403H85.1987H86.5995L88.3504 166.051H89.7512L90.8017 165.699H91.1519H91.5021H92.2025H92.9028H93.6032H94.3036H94.6552L95.3556 165.346L95.7058 165.699H96.4062L97.1065 166.051L97.4567 166.403L97.8069 166.756L98.1571 167.11L98.5073 167.46H99.2076L99.908 167.814H100.258L100.608 168.165L101.309 168.519L102.709 168.87H104.11L104.812 169.224L105.161 169.575L105.511 169.929V170.632V171.337V171.691L105.861 172.043V172.396L106.211 172.748L106.563 173.1L106.912 173.453L107.263 173.805V174.51V174.862L107.612 175.215L107.964 175.567L108.664 175.92L109.715 176.272L110.065 176.624V176.977L110.415 177.682V178.034L110.765 178.386H111.115L111.466 178.739L111.816 179.444L112.166 180.148V180.501V180.853L112.866 181.206L113.917 181.558H114.617V182.263L114.967 182.617V182.968V183.672L115.318 184.026V184.731H116.018L116.718 185.083L117.069 184.731L117.769 184.377V184.026L118.469 183.672L118.821 183.321H119.17L119.521 183.672L120.222 184.377L120.572 184.731V185.083V185.788V186.141V186.845V187.198V187.55L120.922 187.903H121.622L121.973 188.255L122.323 188.607L122.673 188.96H123.023L123.373 189.312H124.074H124.424L125.124 189.665L125.475 190.017L125.825 190.369L126.175 190.722L126.525 191.074L126.875 191.779V192.131V192.836V193.541L127.576 193.893H127.926H128.626H129.327L129.678 193.541H130.377L130.729 193.189L131.778 193.541H132.83L133.18 193.189H133.88L134.581 192.836L134.931 193.893V194.246L135.281 194.598V194.952L134.931 195.303V195.655V196.008V196.36V196.713V197.065L134.581 198.475L134.231 199.886V201.295V203.057V205.172L134.581 205.524V205.877L134.931 206.229L135.281 206.581V207.286V207.638L135.631 208.343V208.696L135.982 209.048L136.332 209.4H136.682L137.382 209.754L138.083 210.459L138.783 210.81L139.133 211.164H139.834L140.184 210.81V210.459V210.105L140.534 209.754L140.884 209.4H141.234H141.935L142.286 209.754L142.635 210.105V210.459L142.286 210.81V211.515V211.869L142.987 212.22L143.335 212.572L143.687 212.926L144.037 213.631L144.387 213.982V214.688L144.738 215.04L145.088 215.393V216.098L145.438 216.45H145.788H147.539L147.889 216.802H148.239V217.155L148.59 217.86L148.239 218.212V218.564V218.917V219.269V219.622V219.974V220.326V220.679V221.031L148.59 221.384V222.088V222.793V223.146V223.85V224.557V225.261V225.612L148.94 226.317L149.29 226.671L149.64 227.022H149.99L151.391 227.376H151.741H152.092L152.443 227.728H152.792L153.144 228.081L153.492 228.433L153.844 228.784L154.194 229.138V229.49H154.544L154.894 229.843L155.243 230.195L155.595 230.547L156.295 230.9H156.645L156.996 231.252H157.346H157.696L158.046 231.605H158.396H158.747H159.097H160.147L163.649 232.309L168.203 233.367H168.903H169.254L169.604 233.014L170.304 232.662L172.055 231.957L173.106 231.252L173.456 230.9L173.806 230.195L174.506 229.138L174.857 228.784L175.207 228.433L175.557 228.081H175.909L177.309 227.728L179.06 227.022L180.461 226.671L181.862 226.317L183.262 225.966L185.364 225.612L186.414 225.261H188.165L189.566 223.146V222.441L189.917 222.088L190.266 221.736L190.618 221.384L190.967 221.031L191.318 220.679L192.019 220.326H192.369L192.719 219.974L194.82 218.917L194.12 215.745L193.77 215.04V213.982L193.419 213.277V212.22L193.069 211.164V210.459V209.4V208.696V207.638V206.934V206.229V205.524V204.819V204.115V203.41V202.705V202V201.295L194.12 196.36L194.82 191.779L195.17 187.55L195.52 185.083L195.871 184.026H196.221L199.372 184.377L199.723 184.731H200.423L200.775 185.083H201.123L201.824 185.436L202.175 185.788L202.526 186.141L202.876 186.493L203.226 186.845L204.627 187.903L205.677 186.493L206.378 185.083L208.129 182.968L208.829 181.912L209.88 181.206L210.58 180.853L211.981 180.501L215.834 179.444L219.336 179.091L222.488 178.386L225.641 178.034H225.991H226.691H227.042L227.742 178.386H228.092L228.442 178.739L229.143 179.091H229.493L229.843 179.444L231.944 180.853L232.294 181.206H232.644L233.345 181.558H233.695H234.395H234.746H235.446H236.146H236.497L240.7 180.148L241.05 179.796V179.444H241.401L242.801 178.739H243.152L243.852 179.091L244.902 179.444L245.603 179.796L245.953 180.148L246.653 180.501L247.004 180.853V181.206L247.354 181.912L247.705 182.263L248.054 182.617L248.755 182.968L249.807 183.672L250.507 184.377L251.207 184.731L251.557 185.083L251.908 185.436L252.258 185.788L252.608 186.141L252.958 186.493V186.845L255.059 186.141L256.81 185.788L262.063 184.377L263.465 183.672L264.866 182.617L265.216 182.263V181.558L265.566 180.853L265.917 179.796L266.267 179.091L266.617 178.739L266.967 178.386L267.317 177.682L267.667 176.977V176.624V175.92L267.317 174.862L266.967 174.51V173.805V173.453L267.317 173.1V172.396V172.043V171.691V170.281V169.224L266.967 168.87V167.814V166.756V165.699L267.317 164.994V164.641L268.018 163.584L268.368 163.232L268.718 162.879H269.068L269.769 162.527L270.119 161.822V161.117V160.765L270.469 160.06V159.708V159.003V158.298V157.946L270.119 157.593L269.418 157.946H269.068L268.368 157.593L268.018 156.535L267.667 153.717L266.967 150.191L266.267 148.077V147.02V145.963L266.967 140.677V138.208V137.151L266.617 136.446V136.094L265.917 135.389L265.566 134.684L265.216 134.332L264.516 133.627L263.465 133.275L262.415 132.57L261.363 132.218L261.014 131.865L260.664 131.513L259.963 130.456L259.612 129.751L259.263 129.397L259.612 128.694L261.714 129.397H262.763H264.516H265.566L268.368 129.751L269.068 130.102L268.718 130.808H270.119L270.469 131.16L270.819 132.57L272.572 131.865L273.621 132.218L273.972 132.922L273.621 133.275V133.627L273.272 133.98L272.572 134.684L272.22 135.389L271.871 135.742V136.094L272.22 136.446V137.151L273.272 137.504L273.621 137.856H274.322H275.023H275.373H276.073V137.504L276.424 137.151L277.124 136.446L277.474 136.094H277.824H278.175H278.875H279.225H279.575H280.276L280.976 135.742H281.676L282.377 135.389H283.077L283.429 135.742L283.777 136.094H284.129V136.446L284.478 137.151V137.504L284.129 138.208V138.913V139.266L283.777 139.97V140.323L283.077 141.028L282.728 141.732V142.086L283.077 142.439V143.143L282.377 149.487L282.027 151.249L281.676 155.479L280.276 161.117L279.925 163.937L279.575 166.051L278.525 172.396L277.824 175.567V176.272L281.326 177.682H283.429L284.478 178.034L286.931 178.739L289.032 179.091L291.483 179.444L292.534 179.796L293.234 180.501L294.635 182.968L296.037 184.026L297.438 184.731L301.29 185.788L305.492 186.141L310.395 186.845L312.147 186.493L320.551 185.436L321.954 184.731L323.004 184.026L324.755 180.853V178.739L324.405 176.977L324.055 175.567V174.158L326.156 165.346L326.506 162.174L327.557 154.773L327.907 151.249L328.607 148.429L329.307 145.963L330.359 144.201L331.409 139.97L333.161 129.397L333.511 126.225L333.161 121.996L333.511 120.235L333.861 118.472L335.262 115.299L336.313 112.834L337.713 111.072L339.464 108.251L344.017 101.556L346.47 102.261L352.773 104.727L355.226 106.137H355.926L357.677 106.489H359.778L362.58 106.137L368.883 105.08L378.339 101.908L382.193 100.851L388.496 97.678L391.299 96.6208L392.7 96.2684H393.75L395.151 95.916H396.202L397.602 95.5636L399.003 95.2112L400.055 94.8602H401.104H401.805H402.857L403.556 95.2112H403.906L404.257 95.916L404.958 96.6208L405.658 98.0318L407.059 101.556L407.759 102.261L408.81 103.318L409.51 104.375L409.86 105.08V105.432L409.51 106.489L413.364 108.251L425.27 112.48L427.723 106.842L432.275 103.67L438.579 99.0876L441.382 96.2684L443.483 93.4492L444.533 89.9252L446.636 86.0488L446.985 83.2296L448.037 80.7613L450.837 75.4753L452.589 73.0085V70.5417L456.791 65.6066L457.492 64.9018L458.542 64.5494L459.243 57.8524L456.791 54.3284L456.091 50.452L455.39 48.3376L457.492 44.4612L458.192 42.3453V40.2309L458.892 36.7069L459.243 33.1829L458.542 31.4209" stroke="#818181" stroke-width="1.2002" stroke-miterlimit="10" stroke-linecap="round" stroke-linejoin="round"/>
<path d="M458.542 31.4207L458.192 29.3048L457.842 28.6015L458.192 28.2491V27.5428L459.243 26.4871L462.394 25.076L464.497 24.7236H465.546H466.248L467.298 25.076L468.349 25.7823H469.049H470.101L471.15 24.7236L473.952 22.2568" stroke="#818181" stroke-width="1.2002" stroke-miterlimit="10" stroke-linecap="round" stroke-linejoin="round"/>
<path d="M196.921 370.465L201.475 370.816H204.627L207.428 370.465L209.88 369.76L211.28 369.408L213.031 369.055L213.383 368.349L213.732 367.293L214.083 366.94H216.535L222.138 367.998L228.442 369.408H230.894H231.594H232.294H232.645V369.055L234.045 364.473L236.847 355.663L237.197 354.253L237.549 353.899L238.249 353.547L243.852 348.966L244.903 347.908L245.953 345.794L249.807 338.745L251.558 334.516L245.253 326.058L241.751 323.59L237.549 319.714L234.396 317.247L231.944 315.485L230.193 314.074L228.793 313.723L222.488 311.608L216.184 309.492L212.681 308.083L209.88 307.73H208.479L206.378 308.788L202.526 310.197L195.521 313.369L185.714 317.247L183.963 318.656L182.912 319.714L180.811 324.649L175.557 332.754L173.456 336.278L173.106 337.335L172.405 339.097L172.055 342.622L172.405 350.023V351.786L172.055 352.491L172.405 353.547L172.756 354.604L175.207 356.72L181.161 362.711L186.064 366.589L189.566 368.703L190.967 369.408L192.719 370.111L196.921 370.465Z" stroke="#818181" stroke-width="1.2002" stroke-miterlimit="10" stroke-linecap="round" stroke-linejoin="round"/>
</svg>
