<svg width="973" height="200" viewBox="0 0 973 200" fill="none" xmlns="http://www.w3.org/2000/svg">
<path d="M0 67.7396L37.327 44.0803L57.3595 39.7467L112.043 39.2052L142.362 42.4557L208.416 18.621L227.365 0.745036L264.607 0L280 36.9331L249.044 73.24L195.963 87.9574L150.484 90.1243L133.7 92.291L93.6346 105.291L68.7293 108L42.1997 105.291L31.3713 102.583L0 67.7396Z" fill="#818181"/>
<path d="M827.005 189.75L827 189.775L834.591 192.123L849.519 196.864L857.84 198.434L867.628 200L892.296 191.83L902.814 182.045L907.224 166.727L917.747 162.77L935.612 165.949L959.54 156.164L973 140.9L971.531 121.625L961.743 99.7075L945.4 86.7427L946.135 68.2448L957.391 51.3714L962.531 32.8783L951.273 30.5253L922.201 26.567L891.66 16" fill="#818181"/>
</svg>
