<svg width="990" height="987" viewBox="0 0 990 987" fill="none" xmlns="http://www.w3.org/2000/svg">
<path d="M224.335 632.532C224.395 632.255 224.44 631.87 224.441 631.348C221.719 628.811 223.132 631.185 224.335 632.532Z" fill="#FEFEE9" stroke="#646464" stroke-width="1.5" stroke-linecap="round" stroke-linejoin="round"/>
<path d="M610.079 135.506L610.159 135.317C609.351 135.004 608.545 134.685 607.746 134.362C608.529 134.73 609.304 135.116 610.079 135.506Z" fill="#FEFEE9" stroke="#646464" stroke-width="1.5" stroke-linecap="round" stroke-linejoin="round"/>
<path d="M610.159 135.316C613.06 136.441 616.018 137.471 618.958 138.154C618.559 137.33 618.239 136.878 619.84 134.806C620.216 134.32 620.553 133.808 620.889 133.296C616.274 132.387 611.808 131.467 611.808 131.467L610.159 135.316Z" fill="#FEFEE9" stroke="#646464" stroke-width="1.5" stroke-linecap="round" stroke-linejoin="round"/>
<path d="M224.999 633.171C224.81 633.031 224.577 632.802 224.335 632.53C224.232 633.01 224.091 633.181 224.091 633.181C224.406 633.161 224.707 633.162 224.999 633.169V633.171Z" fill="#FEFEE9" stroke="#646464" stroke-width="1.5" stroke-linecap="round" stroke-linejoin="round"/>
<path d="M701.03 51.2403C699.288 52.0245 696.924 51.9308 695.379 52.9713C694.104 53.8257 689.975 55.6632 689.975 57.5007C689.975 59.8181 691.729 60.9768 691.204 63.5985C694.748 60.9768 701.733 52.9479 706.446 54.6918L708.786 50.8412C706.13 47.9281 704.165 49.8358 701.03 51.2403Z" fill="#FEFEE9" stroke="#646464" stroke-width="1.5" stroke-linecap="round" stroke-linejoin="round"/>
<path d="M723.959 42.3809L718.589 41.6201C718.706 42.5108 719.174 43.1428 719.992 43.5162C719.161 44.4759 717.898 44.6058 716.611 44.4525C716.915 45.892 719.126 47.8361 720.623 47.6839C722.181 47.5189 723.268 43.728 723.959 42.3809Z" fill="#FEFEE9" stroke="#646464" stroke-width="1.5" stroke-linecap="round" stroke-linejoin="round"/>
<path d="M749.099 231.165L748.396 230.416L744.828 231.54L745.179 235.39C746.958 234.688 747.169 232.255 749.099 231.165Z" fill="#FEFEE9" stroke="#646464" stroke-width="1.5" stroke-linecap="round" stroke-linejoin="round"/>
<path d="M753.358 241.909C751.977 239.264 748.959 241.629 746.736 241.243C745.063 240.938 743.168 238.773 743.367 242.342L741.027 242.728C741.916 248.393 750.901 244.472 753.358 241.909Z" fill="#FEFEE9" stroke="#646464" stroke-width="1.5" stroke-linecap="round" stroke-linejoin="round"/>
<path d="M791.67 41.8417C794.7 42.8939 797.227 45.4804 799.777 47.401C801.112 48.4064 804.563 46.3828 805.814 45.8444C804.094 38.9859 799.099 39.6413 793.483 40.1446C791.038 40.367 787.962 37.7804 785.856 36.6685C783.503 35.4268 782.311 35.4268 779.586 35.4268C776.205 41.7012 789.225 40.9756 791.67 41.8417Z" fill="#FEFEE9" stroke="#646464" stroke-width="1.5" stroke-linecap="round" stroke-linejoin="round"/>
<path d="M769.888 440.536C772.274 437.576 766.403 437.891 766.039 435.048L765.161 435.235L764.81 437.949L762.997 439.272C763.968 442.116 768.156 442.678 769.888 440.536Z" fill="#FEFEE9" stroke="#646464" stroke-width="1.5" stroke-linecap="round" stroke-linejoin="round"/>
<path d="M659.242 301.95C658.938 304.244 660.611 305.567 661.933 307.192L662.986 306.748C663.653 305.005 660.962 302.161 659.242 301.95Z" fill="#FEFEE9" stroke="#646464" stroke-width="1.5" stroke-linecap="round" stroke-linejoin="round"/>
<path d="M829.597 594.595L826.368 584.739C823.232 585.711 827.55 592.78 828.297 594.781C830.473 600.598 832.65 606.427 834.825 612.243C837.071 618.236 838.908 629.214 844.079 633.042V632.914H847.939C841.12 628.842 839.576 620.976 836.954 613.754C836.393 612.211 836.65 610.315 836.018 608.805C835.328 607.166 833.351 605.996 833.069 604.194C832.533 600.692 831.141 597.732 829.597 594.595Z" fill="#FEFEE9" stroke="#646464" stroke-width="1.5" stroke-linecap="round" stroke-linejoin="round"/>
<path d="M838.652 585.957C837.469 586.811 837.505 588.369 835.844 588.672L834.803 590.826C837.821 592.043 839.962 588.59 838.652 585.957Z" fill="#FEFEE9" stroke="#646464" stroke-width="1.5" stroke-linecap="round" stroke-linejoin="round"/>
<path d="M822.31 555.375C821.186 556.394 819.957 557.318 819.08 558.547L821.595 560.888C823.817 559.251 825.596 558.009 827.081 555.646L826.555 555.072C825.175 555.868 823.221 554.556 822.31 555.375Z" fill="#FEFEE9" stroke="#646464" stroke-width="1.5" stroke-linecap="round" stroke-linejoin="round"/>
<path d="M847.659 643.482C847.016 646.517 851.059 649.601 852.988 651.759L853.205 652.003C853.248 651.888 853.278 651.777 853.308 651.666C853.814 649.65 851.876 648.158 850.691 646.571L847.659 643.482Z" fill="#FEFEE9" stroke="#646464" stroke-width="1.5" stroke-linecap="round" stroke-linejoin="round"/>
<path d="M847.706 641.575C849.24 640.205 850.034 637.654 849.11 635.828C847.039 636.8 847.776 639.55 847.706 641.575Z" fill="#FEFEE9" stroke="#646464" stroke-width="1.5" stroke-linecap="round" stroke-linejoin="round"/>
<path d="M860.037 652.377C860.669 651.685 860.806 650.97 860.691 650.255C860.551 649.409 860.051 648.565 859.511 647.766L857.523 648.152L856.996 648.525C857.448 649.217 857.844 649.925 858.297 650.579C858.771 651.265 859.307 651.892 860.037 652.377Z" fill="#FEFEE9" stroke="#646464" stroke-width="1.5" stroke-linecap="round" stroke-linejoin="round"/>
<path d="M849.988 536.45L849.461 534.683H845.893L845.554 535.818C846.7 537.269 848.455 537.234 849.988 536.45Z" fill="#FEFEE9" stroke="#646464" stroke-width="1.5" stroke-linecap="round" stroke-linejoin="round"/>
<path d="M863.371 271.695C862.002 269.624 855.685 270.08 854.316 272.081C856.246 273.345 858.937 273.767 861.265 273.977L863.371 271.695Z" fill="#FEFEE9" stroke="#646464" stroke-width="1.5" stroke-linecap="round" stroke-linejoin="round"/>
<path d="M886.323 648.713C885.516 647.275 884.194 646.618 882.695 647.322C881.737 648.175 881.936 649.511 882.344 650.798C883.983 650.879 885.317 649.931 886.323 648.713Z" fill="#FEFEE9" stroke="#646464" stroke-width="1.5" stroke-linecap="round" stroke-linejoin="round"/>
<path d="M783.972 499.138C783.212 501.162 787.201 509.882 788.558 507.026C790.056 503.878 794.571 497.382 792.735 493.766C786.922 493.321 786.85 494.117 783.972 499.138Z" fill="#FEFEE9" stroke="#646464" stroke-width="1.5" stroke-linecap="round" stroke-linejoin="round"/>
<path d="M763.757 417.619V417.56H764.635C765.431 415.863 767.15 413.921 765.746 412.188C764.436 413.605 761.698 415.782 763.757 417.619Z" fill="#FEFEE9" stroke="#646464" stroke-width="1.5" stroke-linecap="round" stroke-linejoin="round"/>
<path d="M784.324 518.776C780.276 520.099 776.93 524.792 773.924 527.613C773.28 528.947 773.093 530.504 773.573 531.908C776.556 530.738 778.556 526.478 780.451 523.996C782.007 521.948 785.985 523.364 784.324 518.776Z" fill="#FEFEE9" stroke="#646464" stroke-width="1.5" stroke-linecap="round" stroke-linejoin="round"/>
<path d="M866.108 684.761C867.138 683.813 867.278 682.514 866.576 681.298C865.534 683.005 864.282 683.217 863.592 681.298H862.551C861.873 683.861 863.64 685.09 866.108 684.761Z" fill="#FEFEE9" stroke="#646464" stroke-width="1.5" stroke-linecap="round" stroke-linejoin="round"/>
<path d="M784.265 525.331L784.441 526.092C786.652 526.373 787.131 528.351 788.183 530.13C789.179 528.256 788.113 526.583 787.481 524.769C786.289 524.383 785.213 524.57 784.265 525.331Z" fill="#FEFEE9" stroke="#646464" stroke-width="1.5" stroke-linecap="round" stroke-linejoin="round"/>
<path d="M855.533 654.706C857.1 655.842 860.47 655.853 861.604 654.331C860.129 652.94 857.637 653.572 855.708 653.572L855.533 654.706Z" fill="#FEFEE9" stroke="#646464" stroke-width="1.5" stroke-linecap="round" stroke-linejoin="round"/>
<path d="M849.648 658.357C846.829 661.844 851.742 673.255 853.03 677.201C855.382 684.399 856.563 693.611 861.968 699.087L863.372 698.713C863.3 696.724 861.885 695.588 860.681 694.102C862.903 691.737 863.805 686.694 860.096 685.452L859.921 690.252C858.376 686.904 857.628 683.382 856.165 680.163C854.329 676.102 852.925 673.129 857.639 671.373C857.711 674.311 857.055 678.045 858.692 680.655H860.33C862.284 676.687 858.049 674.487 862.844 671.502C862.085 669.688 861.277 668.272 861.792 666.26H860.74L858.926 669.537C851.59 669.16 851.321 664.748 849.648 658.357Z" fill="#FEFEE9" stroke="#646464" stroke-width="1.5" stroke-linecap="round" stroke-linejoin="round"/>
<path d="M88.271 690.485L98.5967 683.94L104.138 682.742L119.265 682.592L127.653 683.491L145.925 676.898L151.167 671.953L161.469 671.747L165.727 681.963L157.164 692.007L142.48 696.078L129.899 696.677L125.256 697.276L114.173 700.873L107.284 701.622L99.9447 700.873L96.9492 700.123L88.271 690.485Z" fill="#818181"/>
<path d="M790.735 986.122C790.884 985.748 791.035 985.382 791.198 985.053C792.834 981.74 797.572 978.499 801.34 979.388C805.123 980.275 805.871 983.298 807.278 986.122H810.287C808.666 984.521 808.646 982.52 811.037 979.644L811.043 979.643C808.236 978.717 801.52 977.149 802.468 973.171C803.275 969.777 803.451 966.675 801.662 963.609C800.445 961.514 799.217 959.43 798 957.335C797.579 956.61 799.474 953.45 799.474 952.127C799.474 947.411 797.603 942.425 796.561 937.837C795.813 934.525 800.749 933.108 802.832 931.236C805.312 928.989 806.844 924.67 806.973 921.358C807.172 916.021 807.371 910.685 807.558 905.347C807.69 901.893 809.181 898.771 809.571 895.414C809.594 895.22 809.626 895.031 809.641 894.837H809.523C810.167 890.576 809.642 886.469 813.49 884.303C815.338 883.261 815.502 880.114 817.643 879.621C819.655 879.154 822.217 880.465 824.183 881.014V880.265C821.597 878.544 819.468 878.603 816.415 878.391C814.333 878.239 814.473 883.437 811.091 882.793C810.425 878.755 809.747 874.718 809.079 870.678C808.447 866.899 810.471 865.248 811.443 861.76C812.473 858.085 811.595 853.92 812.495 850.208C812.859 848.711 813.676 846.464 814.729 845.328C816.156 843.795 818.169 844.134 819.502 842.893C822.228 840.342 819.362 835.731 820.848 832.793C822.134 830.278 824.04 824.741 827.083 823.91C831.329 822.751 834.908 822.505 837.213 818.515C839.014 815.377 839.858 811.692 840.36 808.134C840.413 807.745 840.502 807.381 840.605 807.028C840.884 806.078 841.293 805.209 841.6 804.213C842.104 802.61 842.313 800.936 842.699 799.31C844.735 790.707 847.917 782.632 851.52 774.672C852.21 773.151 852.643 771.654 853.298 770.144C853.444 769.805 853.612 769.452 853.782 769.104C853.995 768.672 854.218 768.246 854.445 767.85C854.971 766.901 855.767 765.615 856.492 764.795C857.345 763.824 858.679 763.554 859.814 763.04C861.569 762.267 862.002 760.043 863.768 759.622C866.389 759.002 866.459 752.857 864.061 752.038L864.236 756.263L863.183 756.837C862.751 754.122 860.832 749.346 862.482 746.994C863.511 748.012 863.932 749.393 864.061 750.844L865.114 747.753L868.331 747.368C864.646 744.314 863.406 742.991 864.797 738.332C866.085 734.025 868.248 729.53 867.628 724.966C866.411 716.094 861.943 708.428 860.329 699.838L861.206 699.451C863.16 703.009 864.915 706.181 865.979 710.09C866.88 713.402 867.569 717.967 870.786 719.911C871.465 719.559 871.991 719.057 872.366 718.388C870.541 715.895 867.815 713.367 867.161 710.255C866.833 708.71 867.581 707.142 867.161 705.585C866.927 704.719 865.617 703.35 865.231 702.554L865.757 701.605L870.026 701.804C872.061 699.335 868.331 696.503 871.079 694.536C866.376 690.439 868.996 690.615 871.254 686.238C871.873 685.044 872.331 681.931 872.306 680.585C872.259 678.08 872.518 676.747 869.276 676.734L869.102 675.974C870.785 674.816 872.565 673.844 873.722 672.124C873.208 670.708 872.424 669.362 871.441 668.215C869.792 669.28 868.634 670.52 866.597 669.982C866.258 666.003 875.324 664.936 873.546 660.9L871.031 662.035C870.399 659.132 878.706 653.55 881.606 652.812C881.641 653.842 882.051 654.732 882.835 655.328C884.711 654.168 885.662 653.485 886.776 653.32C887.136 653.266 887.516 653.269 887.947 653.332C888.575 653.415 889.316 653.615 890.287 653.942C889.749 652.385 889.621 650.477 889.375 648.769L887.21 650.349L886.508 645.351L880.786 644.977C879.897 646.358 879.359 647.949 877.745 648.453C875.288 645.866 877.078 642.46 877.92 639.547C875.885 640.086 876.224 643.07 874 643.023C874.784 641.701 875.018 640.167 874.526 638.728C873.848 639.407 873.039 640.624 872.187 641.056C870.97 641.676 870.292 640.132 869.145 641.442C867.717 640.776 866.372 639.616 864.875 640.238C864.992 638.529 863.951 636.914 862.243 637.897C861.633 637.193 861.471 636.399 861.892 635.626L860.488 634.491L861.365 632.15C863.261 632.49 866.49 630.078 868.665 629.505C867.67 628.076 865.168 628.755 863.529 628.755L863.003 624.904H860.838C860.838 623.792 860.324 621.452 861.236 620.749C863.119 619.275 863.388 618.959 863.95 616.653C864.463 614.523 866.055 615.261 865.483 612.697C865.12 611.082 867.308 609.747 868.734 609.759C868.968 608.962 868.84 608.19 868.383 607.477C864.698 608.062 863.821 607.536 861.271 610.427C859.364 612.58 856.697 612.827 854.252 614.489C851.491 616.372 850.661 618.128 849.022 621.007C848.239 622.389 846.975 622.06 845.618 621.85C844.132 621.628 844.179 623.5 842.342 622.892C843.687 620.809 844.81 616.959 847.886 617.907C846.975 613.834 850.298 612.359 853.081 610.134L851.092 608.811C852.614 604.504 849.782 605.242 847.524 603.569C844.342 601.216 845.816 600.385 841.452 600.854C842.891 597.635 844.95 594.323 845.547 590.812L850.741 591.761C848.974 589.526 846.143 589.221 843.558 588.471C843.382 586.563 841.194 586.645 841.218 584.808C844.482 583.31 843.931 581.145 846.996 579.787C849.465 578.698 850.939 575.023 853.711 575.527L854.062 573.01C857.384 571.969 860.063 571.044 863.526 571.044C864.099 569.335 864.626 568.259 864.323 566.503C864.101 565.251 861.878 565.027 861.187 563.716C862.462 560.591 866.031 561.715 868.078 559.492C866.932 556.098 864.732 558.708 862.592 559.048C860.474 559.374 858.497 557.958 856.391 558.648C852.929 559.785 845.874 565.378 842.798 562.394C843.394 560.252 845.044 559.351 846.717 558.098L842.798 557.162L840.633 559.491L833.86 557.349C834.28 556.249 834.912 554.949 835.789 554.165C836.586 553.44 838.446 553.311 839.006 552.55C839.72 551.566 838.901 550.713 839.358 549.835C840.036 548.536 841.265 547.459 842.211 546.358C839.977 545.294 836.434 549.835 833.366 549.835C832.185 549.835 831.167 550.971 829.447 550.971C827.634 550.971 826.429 552.878 824.826 552.644C823.504 552.445 823.388 550.176 822.182 550.233C820.077 550.339 819.152 549.964 817.936 551.638C816.252 553.954 813.56 560.334 810.063 559.69C809.127 563.002 812.509 569.112 815.094 571.113C813.187 575.959 816.556 578.873 820.054 581.6C812.017 584.877 807.829 558.802 806.729 554.728C805.687 550.877 805.431 547.389 803.687 543.726C801.511 539.15 801.359 533.697 801.897 528.686L803.125 529.061C803.114 530.499 803.489 531.811 804.706 532.537C803.57 535.684 806.647 539.195 809.502 540.297C813.901 542.005 814.206 537.418 818.066 537.827C823.353 538.389 826.873 529.121 832.174 535.253L830.361 537.594L830.712 538.354L833.753 537.594C833.976 538.74 833.73 539.994 833.228 541.07L834.457 542.018C838.493 537.303 839.335 541.551 844.33 541.013C848.798 540.533 849.758 536.343 853.794 535.957C852.712 534.495 852.009 532.38 850.618 531.353C849.995 530.891 849.233 530.649 848.237 530.784L847.885 529.836C848.564 529.39 849.372 529.274 850.225 529.449C850.25 529.213 851.793 527.359 852.641 525.927C853.346 524.735 853.573 523.836 852.038 524.404C851.053 524.768 850.769 525.714 850.46 526.588C850.252 527.178 850.033 527.735 849.58 528.056C849.013 528.457 848.467 528.574 847.936 528.629C846.896 528.736 845.913 528.607 844.927 529.872C844.86 529.957 844.793 530.041 844.727 530.14C844.668 530.023 844.627 529.907 844.572 529.79C843.839 528.215 843.43 526.662 843.323 524.896L847.066 524.136L846.891 523.375C844.598 523.246 842.656 518.097 841.053 516.365C843.697 513.146 846.072 510.092 849.289 507.459L848.412 505.503C847.394 506.463 846.389 507.434 845.37 508.395C843.931 509.765 843.229 508.875 841.977 509.73C839.181 511.626 840.62 513.217 837.883 508.97L838.234 508.408L840.223 508.595C839.709 506.196 841.919 505.201 843.955 504.991C842.175 502.978 839.685 504.78 837.94 503.095L840.28 500.754L839.929 500.193L836.538 500.38L835.835 495.137L838.701 492.995L836.887 491.029C837.975 489.426 838.935 487.552 840.362 486.229C842 484.719 843.965 485.762 844.538 482.952C835.553 486.136 833.763 492.034 833.144 500.883C830.885 497.593 829.974 495.756 829.224 491.846C827.821 494.07 828.745 495.967 828.346 498.318C827.937 500.799 828.779 504.967 827.821 506.932C823.608 505.856 819.948 506.605 818.59 501.501C816.987 502.999 819.188 510.326 816.133 509.202C815.197 508.851 812.869 500.249 812.401 499.16C810.389 500.437 811.477 503.397 809.244 504.147C809.7 508.981 804.962 506.429 802.645 508.384C799.357 511.145 804.002 511.848 805.277 513.684C802.738 516.166 804.844 517.336 806.506 518.928C805.171 521.081 800.868 519.021 798.948 518.366C796.13 517.407 795.007 514.152 794.842 511.379C794.761 509.835 795.029 509.062 795.545 507.575C796.153 505.844 795.311 505.035 795.1 503.257C794.866 501.314 795.193 496.269 797.38 495.742C797.521 496.937 796.842 498.071 797.38 499.407C798.854 499.5 799.78 498.424 800.423 497.066L799.546 495.111C800.868 493.812 802.937 493.682 804.681 493.215L804.857 491.074C801.194 490.289 797.532 489.517 793.871 488.733C791.625 488.253 785.717 485.794 783.6 486.942C777.658 490.149 777.857 501.455 777.107 507.12C776.896 508.7 775.2 508.629 774.486 509.893C773.609 511.437 773.926 514.843 773.727 516.623C773.247 520.872 767.527 517.056 766.098 515.627C764.216 513.744 764.32 508.944 763.946 506.523C763.373 502.719 762.168 498.61 762.752 494.747C765.209 495.906 765.677 496.854 766.671 499.358C770.462 498.07 771.269 493.213 773.856 490.452L773.153 488.942C770.462 491.236 769.083 493.671 767.256 496.714C766.765 493.928 764.308 492.254 763.653 489.271C763.034 486.462 760.775 480.54 762.413 477.894L764.05 478.28C763.886 476.325 764.016 474.349 763.348 472.475L761.769 474.617C761.137 471.667 763.64 460.654 767.489 467.536C768.823 465.113 772.437 465.57 774.789 465.265L776.778 460.279L779.995 460.654L781.047 463.368L786.767 462.045L784.428 456.803C783.843 457.845 783.376 458.945 783.025 460.08L780.685 458.372C781.597 455.867 779.549 455.024 779.808 452.953L777.642 451.806C778.309 453.387 778.392 454.932 777.117 456.031C773.794 454.193 773.432 452.543 771.923 449.02C770.543 450.67 769.456 453.21 767.068 452.871C765.338 449.547 772.883 445.813 771.573 441.062C772.824 441.026 774.065 440.793 774.615 439.739C773.667 439.423 772.825 438.908 772.101 438.229L774.615 436.449L773.913 433.558C772.718 434.424 771.281 434.554 769.818 434.308C768.976 432.763 768.508 431.008 768.941 429.263L768.064 428.877L766.483 431.405C758.997 432.646 763.805 417.699 767.653 424.324C768.53 421.562 769.07 418.565 772.451 421.233C772.917 418.612 775.456 417.547 776.719 420.227C778.978 417.243 780.382 414.223 781.739 410.759H784.253C784.815 413.989 788.395 411.988 788.336 415.369L790.85 414.62C790.055 413.871 789.635 412.9 789.798 411.905C793.296 412.279 796.806 412.655 800.303 413.028C803.299 413.345 804.093 418.517 807.848 418.027C806.912 415.604 804.795 413.134 802.432 412.093C799.507 410.806 795.951 409.448 796.98 405.597C795.67 405.059 794.477 405.644 793.061 405.972C791.763 404.262 792.277 399.827 794.64 399.02L794.465 397.885L793.062 397.498C792.067 399.418 791.085 403.023 789.155 404.063C788.383 404.484 787.036 404.051 786.463 404.438C785.527 405.081 784.768 406.954 784.123 407.902C782.101 405.421 781.714 395.519 776.532 400.705C779.082 402.625 776.765 405.246 775.772 407.458C774.31 404.404 772.309 401.525 772.976 398.024C773.654 394.501 775.327 390.663 779.504 391.986C776.602 388.45 776.122 387.923 778.368 383.852C779.855 381.16 782.111 377.555 784.346 375.436C788.85 371.166 794.886 365.946 791.294 358.899L787.199 363.885L784.508 362.363C784.251 363.067 783.97 366.87 782.707 366.986C780.099 367.232 777.477 367.478 774.869 367.735L774.694 369.504C772.682 368.999 771.501 367.76 770.027 366.413C771.898 362.282 775.559 361.099 778.099 357.33C780.108 354.34 781.058 350.418 783.479 347.705C783.553 347.623 783.627 347.539 783.703 347.458C783.819 347.337 783.919 347.204 784.04 347.09C786.556 344.714 788.885 342.174 791.387 339.821C797.611 333.945 801.822 329.3 806.233 322.008C809.682 316.297 817.007 316.331 820.388 311.088C823.324 306.512 823.757 306.301 829.092 305.201C832.66 304.464 834.869 301.854 837.327 299.314C842.404 294.047 840.672 287.178 843.058 280.775C845.703 273.659 853.786 277.429 859.004 278.014C863.051 278.459 867.099 278.904 871.148 279.348C874.06 279.666 875.779 285.739 879.103 282.825C880.108 281.935 879.536 279.724 880.752 278.869C882.143 277.897 883.502 277.499 885.115 276.949C887.653 276.083 890.098 275.966 892.625 274.995C898.347 272.793 904.429 269.494 910.407 268.171C913.765 267.421 915.414 267.807 918.467 266.041C920.539 264.836 922.854 260.856 925.568 262.038C928.259 263.209 930.283 262.015 933.244 263.396C935.477 264.438 938.999 261.289 940.672 260.259C941.538 259.733 942.79 260.492 943.644 260.084C944.72 259.569 945.831 258.188 946.721 257.415C950.301 254.396 950.909 254.431 950.511 249.866C947.515 250.02 945.422 246.953 942.649 246.953C940.275 246.953 935.313 247.012 933.548 248.649C928.411 253.424 923.85 257.826 917.135 260.366C914.199 261.477 911.461 262.473 908.396 263.116C905.565 263.713 901.974 263.292 899.33 264.135C893.363 266.031 891.258 274.13 883.664 272.573C876.879 271.18 870.961 270.619 864.328 268.371C858.22 266.299 851.822 269.167 846.768 272.993C844.499 274.703 840.812 274.762 838.227 275.932C834.413 277.663 832.73 278.4 828.401 278.811C824.26 279.197 812.689 276.143 813.111 270.689C811.345 270.514 810.011 269.331 808.958 267.975C807.788 268.488 806.619 268.992 805.449 269.508C804.571 269.894 803.834 268.735 803.062 268.923C800.383 269.601 799.494 271.263 796.557 271.263C794.264 271.263 793.176 270.41 790.649 270.796C787.982 271.194 785.782 271.148 783.068 270.96C779.185 270.703 775.243 272.059 771.137 271.767C766.398 271.427 761.731 270.995 757.027 272.012C749.727 273.604 738.146 285.532 732.144 278.157C729.22 274.565 729.208 268.63 728.459 264.241C727.757 260.145 727.886 254.948 730.682 251.554C732.004 253.134 732.215 255.709 733.243 257.593C733.723 258.471 734.904 259.816 734.658 260.847C734.261 262.484 733.781 263.258 734.951 264.626C735.676 263.28 736.975 262.999 738.343 263.678C737.992 262.155 737.829 260.518 738.518 259.067L739.571 259.266L740.448 262.356C743.513 261.783 748.356 260.039 746.637 255.405C740.53 254.866 740.448 254.129 742.437 248.523C742.835 249.681 743.279 252.958 744.519 253.251C747.372 253.93 748.075 254.808 750.088 256.983C751.842 254.982 756.791 257.734 755.235 253.894C753.293 253.297 751.246 253.098 750.088 251.236C750.894 249.48 751.55 247.42 752.603 245.805C753.467 244.471 755.235 243.476 755.773 241.966C757.259 237.742 756.077 234.43 755.269 230.005C754.532 225.933 753.9 223.369 757.843 221.18C759.983 219.998 766.934 218.336 767.868 216.651C769.797 213.152 772.781 209.418 773.365 205.438C773.565 204.116 774.372 201.201 773.472 200.243C772.7 199.412 770.534 197.538 771.213 196.122C773.167 192.085 775.073 188.409 776.15 184.067C777.589 178.273 781.554 185.179 784.258 184.64C784.479 181.878 780.456 180.708 781.567 177.314C783.521 177.114 784.258 175.639 785.486 174.468C785.475 177.675 787.721 176.306 789.23 177.946C790.365 179.186 789.183 183.598 789.054 185.272C792.634 183.189 794.658 184.09 798.46 182.744L802.204 186.033C802.367 183.962 802.648 181.984 802.309 179.935C801.782 176.741 802.555 176.297 804.543 173.721C802.145 171.029 797.665 168.103 802.331 165.785C807.291 163.317 810.462 162.309 813.304 157.628C814.686 157.556 815.48 158.166 815.644 159.524C817.972 158.178 820.863 159.957 823.47 159.138C824.406 156.972 820.405 152.091 820.171 149.107C819.809 144.578 815.433 144.497 811.902 144.497L811.375 142.974C812.498 141.372 817.657 137.58 819.237 137.79C822.221 138.188 823.261 133.845 822.594 131.225C820.373 134.676 820.301 135.601 816.231 135.987C815.26 136.081 810.838 139.816 809.737 140.423C806.44 142.25 805.855 141.254 803.49 138.457C801.092 135.613 803.479 132.394 801.561 129.468L800.858 129.654C800.379 133.518 800.273 136.677 800.684 140.515L799.28 140.328C798.613 142.528 798.169 144.705 796.648 146.508C794.974 145.513 793.349 144.003 791.337 144.179L790.986 145.314C792.565 146.591 795.513 147.328 793.851 149.868C793.279 148.78 792.377 148.077 791.219 147.913C790.634 149.084 791.453 151.365 790.096 151.845C788.247 152.501 786.798 153.109 786.599 150.5L784.784 150.873L782.971 148.159C780.538 150.042 782.807 151.365 782.445 153.59C780.808 152.934 780.305 154.234 778.702 154.34C777.006 154.457 775.017 153.825 773.332 153.59C772.666 150.43 774.922 147.492 774.467 144.461C773.988 141.289 771.717 139.03 769.589 136.736C769.178 140.176 771.929 142.986 771.929 146.544C771.929 148.287 770.537 149.927 770.525 151.635C770.513 153.672 772.186 154.702 770.876 156.621C769.694 154.081 769.016 151.214 766.208 150.056C765.589 151.6 767.086 152.655 768.023 153.907L766.97 154.667L768.198 156.621C764.76 157.945 763.215 159.149 760.536 161.701C759.471 162.719 758.208 162.426 756.979 163.13C755.517 163.948 754.195 165.634 752.955 166.768C751.083 168.454 748.112 168.945 746.007 170.339C742.638 172.586 739.269 174.822 735.9 177.069C733.5 178.671 732.062 180.112 729.278 178.519C726.88 177.15 724.552 174.224 723.569 171.662C722.902 169.918 723.347 165.541 721.849 164.581C717.533 161.794 720.153 161.595 720 157.394L721.815 158.343C724.727 155.908 722.446 151.741 721.603 148.792C720.527 145.035 720.374 141.688 720.187 137.754C719.919 131.915 724.703 126.273 725.57 120.526C726.74 112.802 727.791 105.264 729.781 97.7153C730.787 93.8999 731.665 91.5006 730.939 87.6863C730.413 84.9124 732.998 79.5743 733.793 76.9772C735.9 70.1421 739.876 64.6295 744.1 58.9543C747.154 54.8451 754.465 49.322 759.601 48.6888C766.48 47.8356 772.575 48.5132 779.231 50.3391C785.22 51.9764 790.31 60.848 796.603 60.848C802.043 60.848 804.371 63.1771 809.226 64.8859C811.367 65.6349 818.105 61.1406 818.632 59.0585L818.55 59.0819L818.576 59.0327L818.971 58.2884L819.252 57.7593C819.209 57.764 819.169 57.7675 819.127 57.7722C818.79 57.8062 818.47 57.8354 818.159 57.8588C817.506 57.9091 816.868 57.9396 816.093 57.9466C815.426 56.2261 816.62 54.5408 817.263 52.8905C817.825 51.4392 815.287 50.0465 815.918 48.3494C813.531 48.2909 812.175 46.7459 811.66 44.4988C808.361 45.1191 804.43 41.0696 801.844 39.3257C800.441 38.3776 799.13 36.8327 797.386 36.7625C795.14 36.6572 791.806 37.1733 789.688 36.4243C785.547 34.9484 784.845 31.7076 780.202 32.0107C775.441 32.315 770.504 33.0875 765.731 32.5842C764.396 30.5828 766.176 28.3357 763.976 27.0248L760.933 28.3591L760.231 27.5983C765.344 21.8283 770.257 32.0587 774.375 28.8038C770.479 22.5657 764.15 24.4968 758.594 26.1588C755.844 26.9897 753.389 26.0066 750.732 27.1887C748.615 28.125 745.294 29.6945 743.175 28.4878C746.709 25.3395 750.276 24.1796 754.698 22.4369C757.823 21.208 761.777 22.3784 765.134 22.2965L764.959 21.1612C759.168 18.7139 750.406 22.424 745.024 24.3669C739.421 26.3811 735.092 33.8822 731.431 38.1436L730.379 36.4348C728.156 37.7105 727.571 41.21 725.242 41.7952L724.365 39.0799C719.007 38.4596 712.748 40.4141 710.059 45.4585L711.461 46.98C703.086 49.0165 714.75 32.1512 714.504 28.8624C709.66 34.3878 708.303 42.1358 703.648 47.5652C700.84 50.8423 696.769 51.8137 692.756 53.2299C688.602 54.6929 687.703 49.2272 684.648 49.391C683.619 52.9022 686.941 52.3884 687.947 54.5653C688.778 56.3549 684.473 58.5435 683.771 60.3459C681.887 65.1913 682.121 70.0953 682.016 75.2216C680.835 75.0928 680.027 74.4491 679.559 73.3256C677.255 73.5374 673.99 73.033 672.61 75.2801C670.588 73.6895 672.635 69.64 672.271 67.2161C671.78 63.9975 675.161 61.528 674.599 58.6605L671.558 60.1821C671.873 61.4929 671.335 62.6282 670.154 63.2824L668.34 62.7101C665.836 65.8467 668.269 74.05 667.111 78.3699C665.883 73.267 664.386 69.393 665.72 64.2784C666.214 62.38 667.244 60.9978 668.555 59.8485C670.14 58.4569 672.138 57.4047 674.116 56.2156C674.533 55.9651 674.949 55.7088 675.36 55.442L675.335 55.4186L674.307 54.4928C672.848 55.5087 670.698 57.7207 668.803 58.2942C668.318 58.4417 667.85 58.4815 667.414 58.3656C667.394 58.3609 667.375 58.3609 667.357 58.3551V58.3434C667.704 57.6353 668.027 56.9518 668.34 56.2741C669.57 53.6103 670.54 51.1139 671.334 48.2476C671.47 47.7583 671.602 47.2586 671.727 46.7448C671.753 46.6359 671.762 46.5294 671.787 46.4229C672.38 43.7287 672.076 41.1409 671.395 38.6024C669.964 33.263 666.91 28.1367 667.2 22.671C667.599 15.1442 673.261 7.52612 679.086 3.29983C676.29 0.925107 675.857 0.105834 672.546 1.68469C670.3 2.76145 667.317 3.53391 665.645 5.24268C661.198 9.7838 659.245 14.7708 658.215 20.9845C657.749 23.8168 657.759 26.7545 657.584 29.6219C657.363 33.2736 653.688 29.6571 653.618 27.4099C653.524 24.2967 656.822 21.7569 655.254 18.7256C654.459 17.1807 653.758 16.6774 654.482 15.1325C655.196 13.611 656.331 12.4172 655.431 10.8606C654.46 11.9724 650.869 15.4146 651.723 17.0765C653.782 21.0547 652.998 21.8751 651.43 26.0885C650.81 27.7622 653.126 31.1212 654.086 32.4906C655.841 35.0057 656.158 37.6169 656.836 40.6014C655.233 41.6196 654.764 43.552 655.608 45.2127L657.421 44.4403L658.123 45.2127C656.228 47.3194 653.468 52.2 650.472 52.5394L649.244 50.5848L647.255 53.4862C648.59 53.2873 649.653 53.9322 650.121 55.195C648.541 56.905 646.085 61.3162 643.465 60.4384C642.998 59.2329 642.553 58.0274 642.236 56.775L640.657 56.3888C640.949 54.2353 641.429 52.0818 641.265 49.9048C641.101 47.6109 642.553 43.8305 641.71 42.1217C633.626 49.7761 639.698 64.8051 644.893 73.0201C648.566 78.8369 649.327 82.2077 645.652 88.6448C643.874 91.7581 642.108 94.8713 640.329 97.9845C638.411 101.344 636.644 99.0262 634.001 100.091V102.058L632.187 103.007L634.527 105.908L636.516 102.432L638.329 102.631C639.265 106.926 631.883 114.838 629.099 118.314C625.11 123.312 623.669 129.843 619.821 134.817C618.219 136.89 618.54 137.341 618.939 138.165C619.187 138.678 619.464 139.332 619.329 140.61C619.329 140.649 619.318 140.687 619.316 140.727C618.935 144.329 618.541 147.942 618.159 151.542C617.539 157.3 619.201 162.978 620.277 168.618L619.575 169.179L619.4 168.992C618.921 173.475 623.413 176.565 623.94 180.93C624.478 185.425 624.652 189.543 624.512 194.062C624.219 203.168 625.658 216.417 617.235 222.655C614.428 221.203 611.936 216.498 609.41 214.194L605.316 218.418C609.024 222.889 613.679 227.806 615.773 233.223C617.036 236.477 615.714 238.338 615.714 241.416C615.714 245.395 616.756 247.724 619.505 250.511C620.382 251.401 620.51 253.344 620.838 254.514C621.377 256.433 622.546 255.964 623.716 257.38C625.927 260.073 625.739 262.495 628.817 264.556C632.454 266.989 633.683 268.042 635.169 272.28C636.468 275.991 637.123 278.367 639.381 281.597C647.909 293.827 633.848 304.899 628.793 314.894C625.822 320.78 626.021 328.647 625.26 335.071C624.828 338.711 622.136 350.871 618.275 351.702C618.135 356.419 617.772 358.327 615.562 362.447C613.925 365.526 611.443 368.206 609.959 371.319C608.216 374.958 606.729 377.897 603.406 380.33C600.025 382.823 596.715 384.825 594.259 388.23C590.14 393.965 588.385 400.753 583.579 406.114C577.636 412.726 572.921 418.344 568.616 426.082L567.212 422.792L565.223 423.365L563.059 420.65L562.533 422.417C559.772 422.383 557.034 420.053 554.708 418.767C555.41 421.225 558.323 422.405 560.404 423.554C563.049 425.005 563.692 427.158 566.054 428.995C568.652 431.02 565.821 433.77 564.616 435.796C562.815 438.827 560.253 432.823 559.14 432.589C559.538 435.035 559.644 435.843 561.293 437.622C562.23 438.64 563.4 440.056 563.4 441.485C563.4 443.896 557.901 449.011 555.338 447.476C556.929 450.357 557.912 456.08 560.579 458.058C563.902 460.516 568.382 463.056 566.779 467.993C561.024 469.491 556.59 473.87 551.045 476.163C545.582 478.422 541.686 483.677 536.351 486.098C533.614 487.34 530.362 488.838 528.701 491.518C526.361 495.275 525.437 494.572 521.214 495.58C517.645 496.433 516.417 497.476 513.973 500.121C512.464 501.748 506.182 501.572 503.948 501.923C501.304 502.344 499.42 504.767 496.449 505.048C493.524 505.329 490.412 504.205 487.523 504.767C481.089 506.009 482.118 514.259 475.696 514.715C471.228 515.033 470.513 515.827 467.144 518.905C465.553 520.368 460.628 521.094 458.44 521.972C455.926 522.978 453.68 522.475 451.351 524.055C448.694 525.858 447.058 528.817 445.619 531.569C447.958 532.225 449.188 534.425 450.65 536.18C447.047 536.413 443.654 535.489 439.956 535.794L440.132 539.27C436.88 540.78 433.745 542.887 430.13 543.003C426.293 543.131 423.169 543.237 419.332 543.121C415.039 542.98 412.313 545.437 408.78 547.485C404.639 549.885 402.977 547.368 402.977 553.536C400.954 554.999 398.544 553.22 396.483 552.437C395.098 551.921 392.049 553.376 390.412 553.904C390.307 553.938 390.19 553.98 390.096 554.006L390.121 554.158C390.059 554.159 390.007 554.169 389.949 554.172C384.116 554.416 383.981 559.194 386.554 562.867C384.587 563.392 382.68 563.651 381.171 565.136L378.13 562.795C377.556 563.65 376.468 566.236 375.404 566.283C373.146 566.4 372.28 566.258 370.584 567.721C369.367 568.764 367.156 568.764 365.624 569.079C364.208 569.372 363.951 570.647 362.699 570.998C361.822 571.244 359.704 572.72 359.026 572.779C357.751 572.884 356.382 571.643 355.025 571.643C353.083 571.643 349.176 575.272 347.104 576.253C346.706 575.154 346.917 574.24 347.807 573.539C345.678 568.74 339.406 574.1 337.489 576.571C335.02 579.742 331.862 586.613 327.428 587.044C332.014 589.831 328.281 592.791 326.796 595.976C324.843 600.131 319.496 602.201 315.063 602.201C313.483 602.201 312.524 604.928 311.027 605.385C309.658 605.806 308.278 606.216 306.909 606.637C305.235 607.151 304.908 606.356 303.819 606.496C301.585 606.789 300.229 608.311 298.169 607.117C296.636 606.227 294.156 608.767 293.069 609.585C293.982 605.513 289.139 604.097 286.998 607.257C289.701 608.533 288.777 610.663 288.46 613.062C284.997 613.472 281.535 613.893 278.072 614.303C275.393 614.62 272.983 616.023 270.257 616.152C264.314 616.433 260.173 624.801 254.685 624.485C252.872 624.38 251.07 624.286 249.257 624.181C248.684 624.146 247.14 625.843 246.005 626.03C243.01 626.522 240.495 628.956 237.465 629.647C236.085 629.951 234.915 631.133 233.78 631.941C232.389 632.924 231.323 631.835 230.096 632.607C228.745 633.459 227.61 633.4 226.363 633.284C225.922 633.245 225.465 633.199 224.979 633.181C224.687 633.17 224.387 633.17 224.071 633.193C222.281 637.057 221.392 640.919 217.124 642.475C212.631 644.113 207.845 643.084 203.483 644.348C198.779 645.717 200.886 653.208 195.973 653.688C194.112 653.874 191.387 654.87 189.608 654.787C187.082 654.658 185.128 653.628 182.39 653.769C180.098 653.887 177.898 654.576 175.664 655.091C173.827 655.512 174.003 660.371 172.482 661.354C170.961 662.337 168.142 661.249 166.516 661.014C164.654 660.745 163.332 663.835 161.051 663.168C155.905 661.658 150.955 661.553 145.622 661.436C143.692 661.389 142.358 661.822 140.814 662.934C138.848 664.35 139.328 667.791 136.134 667.171L137.012 669.886C138.965 669.746 140.78 670.343 141.633 672.227C138.685 674.367 138.392 674.555 134.859 673.807C133.338 678.36 130.964 674.544 127.969 674.181C124.237 673.737 122.785 676.217 119.148 673.583C116.434 671.617 113.193 672.752 110.678 674.882C109.544 675.842 110.83 677.223 108.608 677.223H103.203C102.688 673.654 96.2774 672.881 93.6218 674.578L93.9728 675.901C87.3865 673.806 83.8184 673.735 78.0861 677.797L80.4258 681.273C79.07 681.273 76.8227 681.741 75.5826 681.273C73.9799 680.664 74.2841 679.365 72.2953 679.178C70.9032 679.037 70.0726 677.329 68.7975 676.778C66.914 675.959 65.1943 675.07 63.4044 674.051C60.5266 672.413 57.6838 670.622 54.6656 669.288C53.449 668.75 51.9632 667.907 50.6296 668.012C48.8631 668.153 47.354 669.475 45.7396 669.475C42.9893 669.475 40.5104 667.486 38.1238 666.222C33.7369 663.894 29.3499 661.575 24.963 659.246C22.7402 658.064 19.0201 656.156 17.8151 654.073C15.9902 650.901 18.7744 647.216 20.1549 644.546L19.6284 644.16C16.4698 645.997 16.5634 650.456 12.9731 651.861C10.2473 652.926 6.12829 650.562 3.97692 648.571L7.01854 647.049L6.84423 646.289L1.98934 645.915L0.760986 648.057M882.697 647.321C884.194 646.617 885.516 647.274 886.324 648.712C885.318 649.93 883.985 650.879 882.347 650.796C881.936 649.509 881.737 648.175 882.697 647.321ZM863.593 681.299C864.283 683.218 865.535 683.006 866.577 681.299C867.279 682.515 867.138 683.814 866.109 684.762C863.641 685.089 861.874 683.861 862.553 681.299H863.593ZM857.521 648.152L859.51 647.766C860.049 648.565 860.55 649.409 860.689 650.255C860.806 650.969 860.668 651.685 860.035 652.377C859.305 651.892 858.77 651.266 858.296 650.58C857.842 649.926 857.445 649.218 856.995 648.526L857.521 648.152ZM855.708 653.571C857.637 653.571 860.129 652.939 861.604 654.33C860.468 655.853 857.099 655.841 855.533 654.705L855.708 653.571ZM858.925 669.535L860.738 666.258H861.791C861.277 668.271 862.084 669.687 862.843 671.5C858.047 674.486 862.283 676.686 860.329 680.652H858.691C857.053 678.044 857.709 674.309 857.638 671.371C852.925 673.127 854.328 676.1 856.164 680.161C857.627 683.38 858.375 686.902 859.92 690.25L860.095 685.45C863.803 686.692 862.901 691.735 860.68 694.1C861.884 695.587 863.299 696.722 863.371 698.71L861.967 699.085C856.562 693.608 855.381 684.397 853.029 677.199C851.741 673.254 846.828 661.843 849.647 658.355C851.321 664.748 851.59 669.16 858.925 669.535ZM853.308 651.665C853.279 651.777 853.248 651.888 853.205 652.002C853.138 651.924 853.062 651.84 852.988 651.759C851.06 649.6 847.017 646.517 847.659 643.482L850.689 646.572C851.876 648.158 853.813 649.65 853.308 651.665ZM849.11 635.828C850.034 637.655 849.239 640.205 847.706 641.574C847.776 639.55 847.039 636.799 849.11 635.828ZM835.844 588.673C837.505 588.368 837.47 586.812 838.652 585.957C839.962 588.591 837.821 592.043 834.803 590.826L835.844 588.673ZM829.597 594.595C831.141 597.731 832.533 600.691 833.071 604.191C833.352 605.993 835.33 607.164 836.021 608.802C836.652 610.312 836.394 612.208 836.956 613.752C839.577 620.973 841.122 628.839 847.941 632.911H844.081V633.04C838.91 629.211 837.073 618.234 834.827 612.241C832.653 606.424 830.475 600.595 828.3 594.778C827.551 592.777 823.234 585.708 826.37 584.736L829.597 594.595ZM819.08 558.547C819.957 557.318 821.186 556.393 822.31 555.375C823.221 554.557 825.175 555.868 826.556 555.071L827.082 555.644C825.596 558.008 823.818 559.249 821.596 560.886L819.08 558.547ZM845.893 534.682H849.461L849.988 536.45C848.455 537.234 846.7 537.269 845.554 535.818L845.893 534.682ZM764.81 437.949L765.161 435.235L766.039 435.048C766.402 437.892 772.274 437.576 769.887 440.536C768.157 442.678 763.968 442.117 762.997 439.272L764.81 437.949ZM863.371 271.695L861.265 273.978C858.937 273.767 856.246 273.346 854.316 272.082C855.685 270.08 862.002 269.624 863.371 271.695ZM748.397 230.416L749.1 231.165C747.17 232.254 746.959 234.687 745.18 235.39L744.829 231.539L748.397 230.416ZM746.736 241.242C748.959 241.628 751.977 239.264 753.357 241.908C750.901 244.471 741.916 248.392 741.027 242.727L743.367 242.341C743.168 238.772 745.063 240.939 746.736 241.242ZM779.586 35.4283C782.311 35.4283 783.505 35.4283 785.856 36.67C787.962 37.7819 791.038 40.3685 793.483 40.1461C799.099 39.6428 804.094 38.9874 805.814 45.8459C804.563 46.3843 801.111 48.4079 799.777 47.4025C797.227 45.4819 794.7 42.8954 791.67 41.8432C789.225 40.9759 776.205 41.7016 779.586 35.4283ZM662.986 306.749L661.933 307.193C660.611 305.566 658.938 304.244 659.242 301.951C660.962 302.161 663.653 305.005 662.986 306.749ZM661.582 65.9287L660.178 65.5541L662.87 59.749C664.331 61.844 662.506 63.9741 661.582 65.9287ZM706.446 54.6929C701.733 52.9502 694.748 60.9779 691.204 63.5996C691.729 60.9779 689.975 59.8204 689.975 57.5019C689.975 55.6643 694.104 53.8268 695.379 52.9724C696.924 51.9308 699.288 52.0244 701.03 51.2414C704.166 49.837 706.13 47.9292 708.786 50.8423L706.446 54.6929ZM716.612 44.452C717.899 44.6053 719.162 44.4766 719.993 43.5157C719.175 43.1423 718.706 42.5103 718.59 41.6196L723.96 42.3804C723.27 43.7263 722.181 47.5184 720.625 47.6823C719.127 47.8344 716.916 45.8916 716.612 44.452ZM764.635 417.561H763.757V417.621C761.698 415.783 764.436 413.605 765.746 412.189C767.15 413.921 765.43 415.863 764.635 417.561ZM762.295 297.327C764.916 295.337 767.525 297.561 769.772 298.907C770.169 293.734 769.607 291.018 775.21 289.626C779.457 288.572 781.657 289.38 785.493 291.393C788.431 289.124 790.84 286.291 794.573 285.927C799.205 285.471 803.194 285.307 807.453 283.505C807.347 286.841 808.411 288.42 811.617 288.199C812.859 288.117 813.758 286.957 814.928 286.654C816.227 286.326 817.888 287.146 819.058 286.408C823.901 283.365 829.118 285.156 834.792 286.268C835.19 288.222 834.382 289.72 833.75 291.535C832.522 293.103 831.539 294.226 829.936 295.397C828.601 296.368 826.321 295.011 824.906 295.783C823.736 296.415 821.56 298.264 820.226 298.136C817.979 297.914 815.733 297.504 813.475 297.738C811.779 297.913 809.872 299.658 808.421 300.523C807.03 301.354 803.556 300.945 801.906 301.038C799.859 301.144 797.401 303.11 795.613 304.023C793.004 305.357 792.769 305.17 789.927 304.163C787.985 306.738 786.663 307.791 783.857 309.406C785.259 310.611 786.862 311.29 788.536 312.052C786.114 313.608 783.493 316.123 780.593 316.416C778.007 316.685 776.358 311.793 773.585 314.695C774.311 316.299 773.713 317.68 772.123 318.417L769.959 315.317L767.97 318.23C767.596 317.552 767.245 316.849 766.917 316.148L764.227 316.897C764.039 313.234 764.882 311.994 766.742 308.822C765.572 306.926 764.588 304.678 762.822 303.263L759.955 304.211C759.441 302.266 760.704 298.532 762.295 297.327ZM780.451 523.997C778.556 526.478 776.556 530.738 773.573 531.909C773.093 530.504 773.28 528.947 773.923 527.613C776.929 524.793 780.276 520.099 784.323 518.777C785.985 523.365 782.007 521.948 780.451 523.997ZM788.184 530.129C787.132 528.349 786.651 526.373 784.442 526.092L784.266 525.331C785.214 524.571 786.289 524.383 787.483 524.77C788.114 526.583 789.178 528.257 788.184 530.129ZM788.558 507.026C787.201 509.881 783.212 501.162 783.972 499.138C786.85 494.117 786.922 493.321 792.735 493.765C794.571 497.382 790.056 503.878 788.558 507.026Z" stroke="#818181" stroke-miterlimit="3.8637"/>
<path d="M986.615 924.856L988.245 901.659L981.505 891.77L971.471 886.825L965.33 887.425L953.648 893.568L944.512 895.666L935.226 894.617L926.09 888.324L923.993 882.18L926.239 879.483L936.574 876.636L941.217 872.291L950.053 867.795L956.493 860.453L965.63 853.561L973.118 844.72L972.669 841.723L967.277 837.378L961.885 837.677L956.643 841.573L951.251 840.075L947.956 836.778L919.799 833.032L909.914 837.228L902.725 845.169L895.087 843.971L886.999 850.564L883.554 850.714L872.321 859.404L873.07 862.401L878.204 868.889" fill="#A30000"/>
<path d="M986.615 924.856C982.567 926.717 981.164 937.051 977.913 940.656C975.256 943.594 971.759 947.361 968.062 945.619C965.265 944.295 962.798 940.855 960.633 938.643C958.212 936.174 954.327 937.507 951.379 936.781C947.717 935.88 944.852 936.747 941.236 936.196C937.516 935.635 935.469 932.159 932.884 929.466C924.835 921.063 926.566 934.124 926.368 938.842C926.251 941.534 919.489 940.258 918.155 939.287C915.64 937.449 914.95 933.107 912.259 931.211C909.334 929.14 905.977 928.942 902.97 926.541C900.525 924.587 898.853 922.493 896.665 920.327C890.874 914.627 891.178 907.815 890.57 900.009C890.231 895.748 889.914 891.523 889.833 887.252C889.739 881.997 886.44 867.343 878.205 868.889" fill="#A30000"/>
<path d="M779.585 35.4287C782.311 35.4287 783.504 35.4287 785.856 36.6705C787.962 37.7824 791.038 40.3689 793.483 40.1466C799.099 39.6433 804.094 38.9879 805.814 45.8464C804.563 46.3848 801.111 48.4084 799.777 47.403C797.227 45.4824 794.7 42.8958 791.67 41.8436C789.225 40.9764 776.204 41.702 779.585 35.4287ZM661.582 65.9291L660.178 65.5546L662.87 59.7495C664.331 61.8445 662.506 63.9746 661.582 65.9291ZM706.446 54.6934C701.733 52.9507 694.747 60.9784 691.204 63.6C691.729 60.9784 689.974 59.8209 689.974 57.5023C689.974 55.6648 694.104 53.8273 695.379 52.9729C696.923 51.9312 699.288 52.0249 701.03 51.2419C704.166 49.8374 706.13 47.9297 708.786 50.8428L706.446 54.6934ZM716.612 44.4524C717.899 44.6058 719.162 44.477 719.993 43.5161C719.175 43.1428 718.706 42.5108 718.59 41.6201L723.96 42.3808C723.27 43.7268 722.181 47.5189 720.625 47.6827C719.127 47.8349 716.916 45.892 716.612 44.4524Z" stroke="#0978AB" stroke-linejoin="round"/>
<path d="M840.605 807.026L840.604 807.032L842.418 807.594L845.987 808.728L847.975 809.104L850.315 809.478L856.211 807.524L858.725 805.183L859.779 801.519L862.294 800.572L866.564 801.332L872.284 798.992L875.501 795.34L875.15 790.729L872.81 785.485L868.904 782.384L869.08 777.959L871.77 773.922L872.999 769.498L870.308 768.935L863.359 767.988L856.059 765.46" fill="#818181"/>
<path d="M986.615 924.856L988.245 901.659L981.505 891.77L971.471 886.825L965.33 887.425L953.648 893.568L944.512 895.666L935.226 894.617L926.09 888.324L923.993 882.18L926.239 879.483L936.574 876.636L941.217 872.291L950.053 867.795L956.493 860.453L965.63 853.561L973.118 844.72L972.669 841.723L967.277 837.378L961.885 837.677L956.643 841.573L951.251 840.075L947.956 836.778L919.799 833.032L909.914 837.228L902.725 845.169L895.087 843.971L886.999 850.564L883.554 850.714L872.321 859.404L873.07 862.401L878.204 868.889" fill="#818181"/>
<path d="M986.615 924.856C982.567 926.717 981.164 937.051 977.913 940.656C975.256 943.594 971.759 947.361 968.062 945.619C965.265 944.295 962.798 940.855 960.633 938.643C958.212 936.174 954.327 937.507 951.379 936.781C947.717 935.88 944.852 936.747 941.236 936.196C937.516 935.635 935.469 932.159 932.884 929.466C924.835 921.063 926.566 934.124 926.368 938.842C926.251 941.534 919.489 940.258 918.155 939.287C915.64 937.449 914.95 933.107 912.259 931.211C909.334 929.14 905.977 928.942 902.97 926.541C900.525 924.587 898.853 922.493 896.665 920.327C890.874 914.627 891.178 907.815 890.57 900.009C890.231 895.748 889.914 891.523 889.833 887.252C889.739 881.997 886.44 867.343 878.205 868.889" fill="#818181"/>
</svg>
