<svg width="729" height="718" viewBox="0 0 729 718" fill="none" xmlns="http://www.w3.org/2000/svg">
<g clip-path="url(#clip0_1402_2254)">
<path d="M231.724 0C227.258 0.808 222.085 2.85987 218.204 5.17187C216.345 6.27887 214.608 8.3775 212.699 9.3125C208.536 11.3505 203.535 12.8184 199.179 14.4844L195.064 11.4277L188.806 17.1777L179.986 18.2363C178.385 16.9993 176.729 15.5081 175.04 14.4141C172.414 12.7131 171.013 12.9848 168.466 9.84179L159.599 9.3125L156.312 7.02539L154.925 3.8789C150.152 5.0879 147.146 6.85634 143.849 10.2773C141.503 12.7033 139.552 16.8052 141.046 20.2402C142.25 23.0062 146.507 26.0275 146.363 29.3106L146.861 29.5469C144.39 34.4349 141.982 33.8016 139.691 36.6816C138.603 39.5016 140.326 43.8483 138.804 47.0273C136.803 51.2093 132.745 54.1658 130.005 57.8008C126.911 61.9048 127.196 67.5072 122.622 70.9082C120.274 72.6532 116.825 72.5676 114.472 74.0976C114.337 74.1856 113.924 74.8635 113.765 75.0195C111.53 77.2075 109.57 79.9903 106.208 80.4043C101.605 80.9703 96.5623 78.8289 92.5053 79.8379C90.2923 80.3879 88.3201 84.491 85.1811 85.791C82.673 86.829 79.2258 85.5225 76.8588 86.8535C74.3708 88.2505 69.4726 92.2542 68.4096 95.0742C67.8756 96.4892 66.8957 101.067 66.4057 103.012C65.9487 104.825 64.1854 106.028 63.6264 107.689C62.3464 108.22 61.3701 109.377 60.2611 110.168C58.1431 111.681 55.5618 113.163 55.7748 116.264C56.1748 118.327 58.2882 119.775 58.5482 122.146C59.0942 127.089 57.6345 129.916 56.2865 134.5C55.4075 137.491 53.8565 146.468 49.4525 146.949C44.9465 147.442 43.0551 140.855 38.8861 140.855C34.3761 140.855 28.7956 144.774 25.6576 144.75C20.6946 144.712 9.95 142.799 9.058 150.49C8.36 156.521 7.87069 162.525 7.11269 168.562C6.95469 169.813 5.99899 172.375 5.51699 173.521C3.56099 178.182 0.477492 183.858 0.204492 189.043C-0.316508 198.992 -0.369828 206.78 6.75918 214.412C8.21817 215.974 10.0299 217.071 11.6029 218.451C12.4379 219.182 12.9699 219.965 14.0229 220.578L14.0834 224.758C16.2574 231.014 18.1532 237.026 18.9232 243.611C19.5052 248.59 17.8757 253.903 18.9837 258.848C19.2517 260.04 19.8654 261.201 20.1634 262.389C20.4104 263.37 20.386 264.458 20.638 265.437C20.931 266.578 21.5626 267.695 21.8216 268.838C22.2606 270.772 22.6235 273.1 22.8255 275.072C23.0215 276.985 22.9118 278.964 23.0618 280.885C23.2498 283.308 23.9543 285.586 24.4993 287.937C24.6823 288.723 24.7291 289.783 25.0111 290.521C25.7731 292.521 26.9829 294.402 27.7278 296.406C28.4778 298.42 28.7487 301.364 29.7337 303.207C30.9027 305.394 33.3498 307.59 34.8138 309.658C35.5348 310.677 39.0121 316.678 39.3021 317.734C39.4121 318.137 39.3858 318.384 39.4407 318.799C40.0597 323.593 38.8572 326.734 37.5892 331.342C37.1162 333.061 36.9783 334.798 36.5853 336.514C35.9743 339.193 35.1245 341.835 35.7005 344.662C36.0875 346.564 37.3196 348.614 38.2376 350.215C42.3606 357.407 43.0522 359.44 42.5482 367.695C42.2142 373.145 39.9827 372.717 37.2357 376.412C36.8287 377.925 37.0604 380.378 37.7064 381.799C36.9464 383.241 36.3962 385.076 36.1712 386.687C44.9022 390.383 40.9956 391.942 45.0286 396.469C46.3566 397.96 47.6691 398.824 48.5111 400.789C45.986 406.064 49.4719 407.348 49.5189 411.633C48.0009 412.035 45.8704 413.653 45.2064 415.105L44.5579 420.42C45.5029 423.36 48.2274 425.545 48.4544 428.641L47.5677 430.98C45.7477 431.604 43.6826 432.646 42.1966 433.887C41.5576 435.342 41.5107 437.828 41.9017 439.342C39.6787 441.738 35.5637 447.291 36.5267 450.963C36.8217 452.089 37.1386 452.678 37.5306 453.775L39.5403 459.396L42.5501 459.256L44.3216 460.885L42.9544 463.158L46.0736 481.557C46.3416 483.136 46.0576 484.797 46.4466 486.395L48.3958 488.311C47.9838 488.911 47.7862 490.083 47.9212 490.789L48.7474 491.994C49.3844 492.18 50.4709 491.788 50.9349 491.355L52.2357 491.709C53.1337 492.476 55.2885 495.056 55.6595 496.103C55.8055 496.518 55.9984 505.435 55.9544 505.812C55.9374 505.954 55.1121 507.96 55.0111 508.221C53.042 508.9 51.3952 510.302 49.5462 511.24C49.4322 511.45 48.4784 513.144 48.4544 513.256C48.3624 513.679 48.4429 513.931 48.4349 514.363C48.4139 515.536 47.9128 518.083 47.9798 518.924C47.9968 519.125 48.709 521.418 48.808 521.758C53.541 525.779 57.6175 525.357 63.1595 527.357C67.0385 528.756 70.9426 530.741 74.7376 532.389C76.5246 533.165 79.0759 538.312 79.7689 539.969C81.7049 540.244 85.0603 542.533 86.5443 543.654C87.4683 543.586 89.2582 543.351 90.0892 542.875C92.5352 541.47 95.1027 540.231 97.5287 538.838C97.6977 538.741 98.0907 538.242 98.2357 538.197C101.725 537.122 104.902 535.822 108.533 536.639L111.052 537.205C112.497 537.899 114.195 539.39 115.538 540.324C116.59 541.055 122.003 551.729 122.392 552.373C123.064 553.487 124.509 554.521 124.931 555.701C126.433 556.198 128.454 558.27 130.15 559.15C134.838 561.581 139.286 562.943 144.363 564.346C145.724 564.723 147.218 565.886 148.396 566.592C149.412 567.201 150.396 568.201 151.384 568.74C152.698 569.458 154.225 569.931 155.579 570.584C158.338 571.912 160.841 573.725 163.611 575.049C167.769 577.035 172.171 578.984 176.072 581.426C178.316 582.831 180.561 584.379 182.865 585.68C183.869 586.247 185.076 586.574 186.111 587.096C188.726 588.413 191.449 589.899 193.906 591.535C194.34 591.823 196.666 593.075 197.154 593.049L223.113 591.65C222.952 591.341 222.797 590.992 222.634 590.646C222.796 590.99 222.953 591.339 223.113 591.646C223.954 592.768 223.918 594.382 224.394 595.65C224.48 595.879 224.967 596.29 225.087 596.537C225.851 598.1 226.33 600.048 226.908 601.695C228.926 602.656 229.182 603.491 230.41 604.311C234.056 606.747 237.406 609.341 240.826 612.062L248.39 608.363C249.203 607.965 250.279 608.523 250.96 608.852C253.632 607.928 255.722 607.871 258.507 607.74C260.642 605.277 263.03 602.092 264.212 599.01C263.857 597.134 262.401 592.617 264.312 591.102C268.19 589.857 268.973 589.461 272.568 587.197C272.656 587.141 275.638 586.859 276.011 586.807C278.566 591.47 272.083 601.359 269.74 605.467L269.851 606.279C268.489 607.71 266.218 616.097 266.042 617.754C266.026 617.908 266.811 623.667 266.88 624.203C267.186 626.552 271.362 629.572 271.464 631.182C271.829 636.987 267.526 637.146 265.853 641.365C265.699 641.753 264.386 644.953 264.355 645.143C263.933 647.689 265.644 655.303 266.486 658.02C266.786 658.986 272.023 663.326 272.497 663.732C272.559 663.985 273.037 665.779 273.035 665.922C273.027 667.075 272.22 668.394 272.214 669.549C272.2 672.403 273.711 676.01 276.308 677.316C279.307 678.061 282.826 678.394 285.911 678.195L286.638 678.799C287.412 678.691 288.202 678.658 288.982 678.592L289.697 678.025L297.663 677.545L301.855 674.482C304.586 674.123 307.251 674.812 309.9 675.348C310.028 675.374 310.816 676.113 310.982 676.162C312.771 676.705 314.029 677.011 315.521 678.119C315.609 678.184 317.166 680.967 317.251 681.115L319.093 682.113C320.812 681.842 324.58 681.357 326.318 681.754C327.604 682.824 328.766 683.651 329.56 685.191C331.811 685.475 332.654 685.536 334.708 686.764C337.989 686.853 338.032 686.173 340.425 683.908L340.55 683.492C340.749 682.838 341.004 682.453 341.396 681.861C342.936 679.527 344.577 677.288 346.837 675.582C348.427 675.086 352.045 677.371 353.476 678.07C354.713 677.636 356.866 677.941 357.993 678.564C359.858 680.362 361.895 682.639 363.12 684.949L363.765 685.205C365.187 687.13 365.774 687.89 366.167 688.74C366.603 689.679 366.801 690.732 367.618 693.59C371.307 697.064 374.896 695.005 378.599 692.498L380.505 692.746C381.446 693.481 381.915 696.566 381.982 697.637C382.826 699.143 387.959 698.56 389.648 699.195C391.193 699.775 393.009 703.012 394.277 704.092C395.849 705.432 398.288 706.133 400.023 707.346C400.742 707.848 401.221 709.185 401.876 709.812C403.08 710.965 405.116 712.053 406.701 713.133C414.944 712.151 422.753 712.425 430.935 712.918C431.359 712.943 431.771 712.958 432.199 712.984C433.161 713.044 433.918 713.047 434.675 713.068L445.49 712.328L468.728 710.738C469.637 709.888 470.563 709.059 471.615 708.459L471.933 708.322L473.103 707.806L476.579 706.285L480.046 704.781L481.201 704.283C482.67 703.655 486.166 703.094 489.48 702.636C492.886 702.166 496.101 701.802 496.732 701.111C499.817 697.733 500.951 696.469 501.794 695.412C502.888 694.04 503.243 692.812 504.146 687.97C508.916 685.658 522.278 678.921 524.714 676.798C524.714 676.798 525.352 675.946 525.757 675.306L528.728 670.582L529.245 669.748C531.021 666.856 531.662 662.85 533.019 659.736C534.147 657.151 535.655 654.573 536.986 652.048L543.214 649.494L544.046 647.005L544.201 644.023L544.542 638.052C544.308 636.731 541.056 630.63 540.949 629.601C540.522 625.471 542.569 619.865 542.232 615.677C542.226 615.605 538.866 602.909 538.786 602.718C537.612 599.921 534.448 596.154 532.867 593.361L529.441 586.576C528.773 585.254 528.672 584.324 527.726 583.183C526.073 581.187 518.501 575.219 516.156 573.195L515.579 570.742L515.556 570.648L515.228 569.249C515.919 568.876 516.708 568.529 517.568 568.21C520.919 566.97 525.327 566.162 529.142 565.781C528.523 565.196 528.225 564.908 527.435 564.173C524.293 564.173 519.669 564.669 515.535 565.64C519.67 564.668 524.294 564.173 527.437 564.171C528.235 564.913 528.523 565.191 529.146 565.781C530.791 565.616 532.336 565.522 533.62 565.521C542.898 574.149 539.095 571.62 551.669 576.902C555.048 574.169 558.394 571.243 561.874 568.648C564.649 566.58 567.8 564.928 570.546 562.827L576.294 557.886C577.414 556.922 578.232 556.561 579.167 555.415C579.568 554.923 583.909 546.794 584.501 545.718C589.449 544.195 594.599 543.444 599.693 542.616C601.254 542.362 602.203 542.489 603.695 541.966C603.746 541.947 613.765 536.247 613.974 536.095L617.466 532.429C618.147 531.713 618.795 531.49 619.214 530.595C620.226 528.433 622.268 519.52 623.031 516.751C627.119 514.055 631.377 510.765 635.652 508.425L644.644 504.448C646.398 503.672 647.257 502.817 649.142 502.458L659.874 502.667C668.96 502.845 678.001 503.725 687.025 504.771L701.56 506.454L710.652 505.654L715.199 505.253L724.626 497.818L725.183 497.863L724.976 496.99L718.441 496.472H718.443L724.98 496.99L725.187 497.865L726.07 497.935L728.855 490.864C728.855 490.864 726.105 487.114 724.605 486.114C723.105 485.114 719.855 481.114 719.855 479.364C719.855 477.614 715.605 474.114 713.605 474.114C711.605 474.114 709.855 473.614 708.605 473.364C707.355 473.114 705.105 468.864 704.355 465.114C703.605 461.364 698.355 464.114 696.105 465.864C693.855 467.614 689.605 467.614 687.105 467.864C684.605 468.114 676.855 463.864 676.855 463.864C676.855 463.864 678.855 456.364 680.605 453.364C682.355 450.364 681.355 443.114 678.355 439.864C675.355 436.614 674.855 429.364 674.855 429.364C674.855 429.364 673.855 428.364 671.355 426.864C668.855 425.364 665.355 420.864 663.355 418.864C661.355 416.864 662.105 410.364 662.105 410.364C662.105 410.364 655.605 407.614 653.605 406.364C651.605 405.114 648.605 405.614 647.105 405.864C645.605 406.114 639.105 406.114 639.105 406.114C639.105 406.114 633.105 399.114 631.855 397.114C630.605 395.114 623.355 388.614 623.355 388.614L618.855 390.864C618.855 390.864 617.605 395.864 617.605 397.864C617.605 399.864 609.355 401.364 609.355 401.364C609.355 401.364 606.855 408.114 602.105 408.364C597.355 408.614 588.355 409.364 588.355 409.364L588.855 401.614L581.105 393.614L590.605 382.614C590.605 382.614 589.855 367.614 590.355 366.614C590.855 365.614 589.605 361.614 588.605 359.114C587.605 356.614 587.355 350.614 587.355 349.614C587.355 348.614 584.855 338.614 584.855 338.614L573.855 331.114C573.855 331.114 559.105 317.364 557.355 315.864C555.605 314.364 558.105 310.614 558.605 309.364C559.105 308.114 560.355 306.614 559.605 305.614C558.855 304.614 555.105 299.114 555.105 299.114H551.105C549.355 299.114 549.355 300.864 545.855 302.364C542.355 303.864 539.855 302.864 535.855 300.364C531.855 297.864 532.105 299.864 529.855 300.114C527.605 300.364 517.605 298.864 517.605 298.864L520.605 290.114C520.605 290.114 518.355 288.864 515.855 287.114C513.355 285.364 508.105 281.614 505.105 280.114C502.105 278.614 500.355 275.614 499.605 274.614C498.855 273.614 496.105 266.114 496.105 266.114C496.105 266.114 492.105 262.614 488.355 258.864C484.605 255.114 486.355 251.614 487.105 250.614C487.855 249.614 489.105 244.864 489.105 244.864C489.105 244.864 482.105 240.364 479.605 239.114C477.105 237.864 475.105 238.864 474.105 240.864C473.105 242.864 472.105 244.614 472.105 244.614L465.605 244.114C465.605 244.114 465.105 241.864 465.355 239.614C465.605 237.364 462.355 236.864 460.605 236.864C458.855 236.864 456.605 236.114 454.855 234.614C453.105 233.114 448.355 233.364 448.355 233.364C448.355 233.364 446.355 229.614 445.105 227.864C443.855 226.114 443.605 225.364 443.355 221.864C443.105 218.364 437.855 217.364 436.355 217.364C434.855 217.364 432.855 217.614 429.855 217.614C426.855 217.614 425.855 215.864 425.855 214.614V207.864C425.855 207.864 425.355 206.364 423.855 204.364C422.355 202.364 423.105 200.364 423.105 198.364C423.105 196.364 422.605 195.364 420.355 192.864C418.105 190.364 422.105 188.364 422.105 188.364L419.605 185.614C419.605 185.614 417.105 183.364 414.605 181.364C412.105 179.364 413.105 179.114 413.105 176.614C413.105 174.114 414.105 172.114 416.605 170.614C419.105 169.114 417.605 165.114 416.605 162.114C415.605 159.114 417.355 158.114 419.605 156.864C421.855 155.614 419.355 150.114 419.355 150.114L419.214 149.333C419.04 149.267 418.871 149.195 418.699 149.126C418.533 149.061 418.368 148.997 418.205 148.929C417.98 148.835 417.76 148.738 417.54 148.64C417.381 148.57 417.219 148.501 417.062 148.429C416.833 148.325 416.612 148.217 416.39 148.108C416.251 148.041 416.11 147.975 415.974 147.907C415.622 147.729 415.281 147.55 414.953 147.368C413.815 146.737 412.785 145.582 411.687 144.853C406.565 141.453 401.288 138.256 396.097 134.958L395.29 133.243L397.175 128.927L396.986 127.644C396.802 127.418 396.604 127.221 396.4 127.038C396.347 126.99 396.294 126.943 396.238 126.898C396.053 126.745 395.863 126.604 395.664 126.48C395.638 126.463 395.612 126.444 395.585 126.427C395.36 126.292 395.126 126.176 394.886 126.073C394.826 126.048 394.766 126.024 394.706 126.001C394.501 125.921 394.293 125.852 394.081 125.792C394.036 125.78 393.993 125.765 393.947 125.753C393.694 125.688 393.435 125.638 393.173 125.597C393.117 125.588 393.059 125.58 393.003 125.573C392.78 125.543 392.557 125.521 392.33 125.507C392.275 125.503 392.22 125.498 392.165 125.495C391.895 125.481 391.627 125.476 391.355 125.478C391.311 125.479 391.265 125.481 391.22 125.482C390.982 125.487 390.742 125.496 390.505 125.509C390.447 125.513 390.39 125.517 390.333 125.521C390.06 125.54 389.786 125.562 389.517 125.589C389.506 125.59 389.495 125.592 389.484 125.593C389.212 125.62 388.942 125.653 388.677 125.685C388.634 125.69 388.591 125.695 388.548 125.7C388.284 125.733 388.068 125.755 387.814 125.788L387.802 125.794C388.061 125.761 388.281 125.738 388.55 125.704C388.289 125.736 388.032 125.77 387.781 125.804L387.802 125.794C386.425 125.973 385.175 126.135 384.373 125.935C382.582 125.487 380.098 123.955 378.373 123.157C373.898 121.085 368.656 122.16 364.07 122.942C363.814 122.986 363.101 123.511 362.865 123.538C361.492 123.701 359.763 123.328 358.437 123.61C356.385 124.046 354.015 125.151 352.011 125.849C351.84 125.909 351.419 126.441 351.226 126.536C349.959 127.155 345.736 127.473 344.412 127.153C344.255 127.115 341.422 125.924 341.205 125.814C340.987 125.703 340.107 124.762 339.958 124.708C336.465 123.455 332.443 122.372 329.101 120.812C328.505 120.534 328.28 120.19 327.757 119.794C325.081 117.766 323.133 116.664 319.785 116.36C318.781 116.268 317.984 116.159 317 116.347C305.003 118.617 307.47 117.849 295.052 116.636C293.796 116.513 291.763 117.052 290.759 116.005L290.064 116.226C286.525 115.71 273.553 113.707 270.544 112.052C269.847 111.668 269.236 111.153 268.677 110.56C267.004 108.785 265.816 106.301 264.328 104.47C265.815 106.302 267.003 108.786 268.677 110.56C269.236 111.151 269.848 111.665 270.544 112.048C273.553 113.703 286.523 115.706 290.062 116.222L290.759 116.001C291.763 117.048 293.796 116.509 295.052 116.632C307.47 117.845 305.001 118.614 316.998 116.343C317.983 116.156 318.781 116.265 319.785 116.357C323.133 116.661 325.081 117.763 327.757 119.79C328.281 120.186 328.503 120.531 329.099 120.808C332.44 122.367 336.465 123.45 339.958 124.704C340.107 124.757 340.987 125.699 341.205 125.81C341.422 125.921 344.255 127.112 344.412 127.15C345.736 127.471 349.958 127.152 351.226 126.532C351.419 126.437 351.838 125.905 352.009 125.845C354.013 125.147 356.385 124.044 358.437 123.607C359.763 123.325 361.492 123.697 362.865 123.534C363.101 123.506 363.814 122.983 364.07 122.939C368.656 122.157 373.898 121.081 378.373 123.153C380.098 123.951 382.582 125.483 384.373 125.931C385.177 126.133 386.43 125.968 387.814 125.788L388.193 125.614L388.324 121.687L397.019 116.655L397.171 112.942L397.48 105.517C397.106 100.031 394.208 90.1047 392.025 85.0167C386.728 82.2447 381.47 79.2044 376.458 75.9444C376.305 75.2904 374.688 68.2249 374.605 68.0519C374.556 67.9499 370.768 63.7733 370.441 63.4073L364.863 65.1651C362.767 69.7521 361.026 75.3596 360.503 80.3956L353.322 82.1983C351.445 80.2073 349.08 78.2231 346.716 76.8331C341.115 82.7131 338.153 85.3812 331.863 90.7882C328.964 89.3372 325.871 87.4712 322.873 86.2882C319.766 85.0622 316.235 84.6255 313.128 83.3995C308.658 81.6365 304.195 78.9242 299.791 76.9112L291.087 72.9327C288.224 70.9677 284.846 65.972 281.953 63.669C281.887 63.6171 273.901 59.1966 273.765 59.1456C271.012 58.0966 263.216 57.31 260.029 57.171L257.546 54.8624L256.009 39.8077L255.228 31.8839C255.189 31.7429 251.293 24.6626 250.966 24.0616C249.026 20.5026 247.197 16.4984 244.998 13.1144L240.533 7.421C239.662 6.311 239.302 5.56534 238.298 4.57334L233.916 1.52452L231.724 0ZM430.935 712.918C422.763 712.432 415.047 712.22 406.806 713.201C406.776 713.18 406.737 713.159 406.706 713.139C409.198 715.098 409.944 715.537 410.976 717.073L413.003 714.551C416.314 714.157 419.536 713.956 422.736 713.885H422.738L434.621 713.073C433.879 713.052 433.138 713.046 432.195 712.987C431.77 712.96 431.358 712.943 430.935 712.918ZM207.314 85.8145C207.436 85.8105 207.555 85.8164 207.669 85.8339L228.591 89.1015C231.168 89.5035 233.306 91.841 235.525 92.955C236.875 93.632 243.952 92.3124 247.195 93.2304C247.644 93.9224 250.562 94.7869 251.169 94.3359C252.29 95.3259 258.545 101.211 259.65 101.621C260.417 101.906 261.372 102.159 262.093 102.529C262.943 102.965 263.664 103.65 264.326 104.465C263.665 103.652 262.942 102.968 262.093 102.533C261.373 102.163 260.42 101.91 259.652 101.625C258.547 101.215 252.292 95.3298 251.171 94.3398C250.563 94.7918 247.643 93.9263 247.195 93.2343C243.952 92.3163 236.877 93.6369 235.527 92.9589C233.308 91.8449 231.167 89.5074 228.591 89.1054L207.669 85.8379C205.845 85.5529 202.871 88.1781 201.435 89.1601C200.902 89.5242 199.97 89.3396 198.966 88.9394C197.293 88.2722 195.414 87.004 194.816 86.6523L193.16 86.6386C191.65 86.9706 189.268 94.5574 185.206 96.2324C182.459 97.3644 179.204 99.2462 176.189 99.4492L175.824 100.117C168.441 104.37 165.637 107.116 159.499 113.432C157.264 115.731 151.186 114.316 148.486 114.041C148.416 114.033 147.735 113.675 147.63 113.623C146.727 113.669 145.949 113.943 145.12 114.262C136.458 117.598 137.72 116.424 130.568 109.711C126.878 109.908 122.89 111.855 119.3 113.17C115.482 117.944 115.655 117.379 113.386 123.369L112.376 126.027L113.384 123.365C115.653 117.375 115.482 117.94 119.3 113.166C122.89 111.851 126.877 109.904 130.566 109.707C137.719 116.42 136.457 117.594 145.119 114.258C145.947 113.938 146.726 113.665 147.628 113.619C147.733 113.671 148.414 114.029 148.484 114.037C151.185 114.313 157.263 115.728 159.497 113.428C165.634 107.112 168.439 104.367 175.822 100.113L176.187 99.4453C179.202 99.2422 182.458 97.3604 185.204 96.2284C189.266 94.5534 191.65 86.9667 193.16 86.6347L194.814 86.6484C195.412 87.0009 197.293 88.2726 198.966 88.9394C199.97 89.3395 200.9 89.5207 201.433 89.1562C202.778 88.2356 205.479 85.8717 207.314 85.8145ZM116.783 144.602C116.783 144.602 116.785 144.602 116.785 144.602L105.574 151.342L116.783 144.602ZM103.738 159.424L106.294 164.322C95.8663 169.847 88.4285 176.448 80.4115 184.598C79.6273 187.948 78.3574 191.837 77.7846 195.496C78.3571 191.836 79.6251 187.945 80.4096 184.594C88.4262 176.444 95.8652 169.843 106.292 164.318L103.738 159.424ZM77.7846 195.504C77.5939 196.723 77.4802 197.916 77.4877 199.055L79.6498 201.576L86.8822 199.797L94.183 204.494C97.843 202.401 102.276 199.955 106.441 199.012C107.7 200.302 109.824 202.017 110.798 203.477C109.822 202.017 107.7 200.305 106.443 199.016C102.278 199.959 97.843 202.406 94.183 204.498L86.8842 199.801L79.6498 201.58L77.4877 199.059C77.4877 199.059 77.4877 199.059 77.4877 199.059C77.4797 197.92 77.5941 196.726 77.7846 195.508V195.504ZM122.203 222.35C122.437 222.689 122.632 222.991 122.771 223.246C122.771 223.246 122.771 223.246 122.771 223.246C122.632 222.99 122.438 222.687 122.203 222.346V222.35ZM123.234 225.715C123.574 227.531 123.947 229.502 124.005 229.812C124.019 229.886 123.86 230.669 123.839 230.791C123.757 231.284 122.909 236.636 122.849 236.768C122.849 236.768 122.849 236.768 122.849 236.768C121.77 239.076 117.659 245.171 116.085 247.383C113.61 250.864 108.761 255.404 107.435 259.613C107.435 259.613 107.435 259.613 107.435 259.613C108.761 255.404 113.609 250.864 116.085 247.383C117.66 245.171 121.77 239.077 122.849 236.768C122.907 236.643 123.755 231.28 123.837 230.787C123.857 230.664 124.017 229.882 124.003 229.809C123.945 229.499 123.574 227.53 123.234 225.715ZM107.453 262.633C107.472 264.085 107.496 265.629 107.499 266.088L103.513 271.645L102.999 278.062H102.997L103.511 271.643L107.497 266.086C107.494 265.627 107.471 264.085 107.453 262.635V262.633ZM153.591 276.85C156.689 276.564 158.693 280.29 162.142 280.889C165.155 281.411 169.732 279.941 173.462 280.967C174.793 281.333 177.83 283.815 179.54 285.695C177.83 283.816 174.792 281.337 173.462 280.971C169.732 279.945 165.154 281.414 162.142 280.893C157.897 280.156 155.841 274.681 151.242 277.779C150.209 278.474 148.712 279.259 148.218 280.518C145.747 281.379 143.411 281.588 140.808 281.949L139.872 282.836C136.194 283.372 132.752 284.194 129.119 285.08H129.117L127.826 283.107C120.609 282.919 113.393 282.66 106.177 282.434H106.175C113.392 282.66 120.61 282.919 127.826 283.107L129.117 285.084C132.749 284.198 136.192 283.374 139.87 282.838L140.806 281.953C143.41 281.593 145.745 281.383 148.216 280.521C148.71 279.262 150.207 278.478 151.24 277.783C152.102 277.202 152.876 276.923 153.591 276.857L153.591 276.85ZM180.273 286.576C180.468 286.842 180.616 287.078 180.697 287.273C180.893 287.746 181.103 288.353 181.312 288.949C181.103 288.354 180.892 287.749 180.697 287.277C180.615 287.081 180.47 286.843 180.273 286.576ZM183.562 309.105C183.499 309.412 183.425 309.706 183.335 309.99C181.606 315.466 178.308 320.429 174.525 324.695C173.013 326.4 166.1 330.334 163.87 331.703C155.788 335.241 156.141 334.773 146.956 335.127C146.822 335.137 142.651 336.445 142.298 336.553C142.206 336.58 141.866 336.647 141.802 336.699C141.602 336.862 138.301 339.503 138.253 339.576C137.522 340.697 136.592 341.892 135.974 343.07C134.822 345.262 134.466 347.459 132.656 349.223C129.763 352.042 128.662 353.172 127.369 353.998C126.054 354.839 124.537 355.366 120.691 357.066L118.525 362.168C118.524 362.168 118.524 362.168 118.523 362.168L120.691 357.066C124.537 355.366 126.055 354.84 127.369 353.998C128.662 353.172 129.76 352.042 132.654 349.223C134.463 347.46 134.822 345.262 135.974 343.07C136.592 341.892 137.52 340.697 138.251 339.576C138.299 339.503 141.6 336.862 141.8 336.699C141.864 336.648 142.206 336.58 142.298 336.553C142.65 336.444 146.822 335.127 146.956 335.127C156.141 334.773 155.788 335.241 163.87 331.703C166.098 330.334 173.01 326.4 174.523 324.695C178.307 320.429 181.604 315.467 183.333 309.99C183.423 309.708 183.499 309.414 183.562 309.109L183.562 309.105ZM130.742 393.107C131.794 395.196 132.883 397.27 133.87 399.312C137.385 402.291 139.43 402.174 143.64 400.645C139.43 402.174 137.385 402.29 133.87 399.312C132.882 397.268 131.794 395.193 130.742 393.103V393.107ZM146.611 399.687L148.175 400.402C148.223 400.423 148.399 400.665 148.441 400.715C149.359 401.796 150.351 402.878 151.32 403.977C150.352 402.88 149.358 401.799 148.441 400.719C148.399 400.669 148.223 400.428 148.175 400.406L146.613 399.691L143.658 400.883L146.611 399.687ZM151.322 403.98C152.29 405.078 153.236 406.191 154.058 407.336C154.421 407.841 154.772 408.36 155.119 408.887C154.773 408.36 154.42 407.844 154.058 407.34C153.235 406.194 152.291 405.079 151.322 403.98ZM155.119 408.889C156.157 410.469 157.138 412.119 158.15 413.689C157.138 412.119 156.156 410.468 155.119 408.889ZM167.206 426.455C167.24 426.611 167.283 426.769 167.298 426.918C167.374 427.637 167.401 428.133 167.415 428.59C167.401 428.133 167.372 427.635 167.296 426.914C167.281 426.766 167.24 426.609 167.206 426.455ZM167.091 431.336C166.982 431.807 166.853 432.382 166.712 433.17C166.713 433.17 166.712 433.17 166.712 433.16C166.853 432.374 166.982 431.803 167.091 431.332V431.336ZM166.538 435.389C166.518 435.635 166.491 435.878 166.447 436.117C166.403 436.352 165.934 437.152 165.939 437.322C165.991 439.187 165.892 441.26 166.085 443.121C165.892 441.259 165.989 439.184 165.937 437.318C165.932 437.148 166.401 436.348 166.445 436.113C166.489 435.876 166.519 435.634 166.538 435.389ZM167.048 446.801C167.048 446.801 167.05 446.801 167.05 446.801L167.14 447.744L167.048 446.801ZM167.171 448.086L164.126 457.48C163.96 457.612 163.365 458.031 163.298 458.127L152.833 473.064C152.796 473.117 152.762 473.205 152.73 473.307C152.762 473.203 152.794 473.114 152.831 473.061L163.298 458.123C163.365 458.027 163.958 457.609 164.124 457.477L167.171 448.086ZM152.546 473.971C152.514 474.071 152.482 474.153 152.445 474.199C150.314 476.824 147.784 478.426 144.66 479.521C141.392 480.666 138.204 477.091 133.009 478.969C132.565 479.354 132.192 479.753 131.876 480.172C132.192 479.752 132.565 479.351 133.009 478.965C138.204 477.087 141.391 480.664 144.66 479.518C147.784 478.424 150.312 476.82 152.443 474.195C152.48 474.149 152.514 474.069 152.546 473.971ZM130.576 482.937C130.44 483.443 130.337 483.972 130.251 484.529C130.225 484.7 130.166 484.899 130.167 485.072C130.165 484.898 130.222 484.697 130.249 484.525C130.334 483.969 130.44 483.442 130.576 482.937ZM130.847 494.785C131.333 496.119 132.125 497.209 133.404 497.807C147.92 498.891 148.839 501.082 158.62 511.406C158.688 511.478 158.877 511.537 159.068 511.598C159.217 511.645 159.355 511.695 159.429 511.75C159.434 511.75 159.449 511.76 159.452 511.76C159.453 511.76 159.453 511.76 159.454 511.76C159.984 512.252 161.299 513.672 162.548 515.098C161.299 513.671 159.983 512.25 159.454 511.76C159.449 511.76 159.435 511.75 159.429 511.746C159.358 511.691 159.217 511.641 159.068 511.594C158.88 511.534 158.687 511.476 158.62 511.406C148.839 501.083 147.922 498.891 133.406 497.807C132.125 497.209 131.333 496.117 130.847 494.781V494.785ZM642.958 501.109L653.691 501.318C662.777 501.496 671.817 502.376 680.841 503.422L695.376 505.105L704.468 504.305L709.015 503.904H709.013L704.466 504.305L695.374 505.105L680.839 503.422C671.815 502.376 662.773 501.496 653.687 501.318L642.954 501.109C642.955 501.109 642.956 501.109 642.958 501.109ZM642.292 501.27C642.085 501.329 641.891 501.393 641.704 501.465H641.706C641.892 501.394 642.087 501.33 642.292 501.272L642.292 501.27ZM616.849 515.402C616.181 517.825 614.53 524.954 613.451 528.146C613.297 528.601 613.157 528.976 613.031 529.246C612.926 529.47 612.805 529.651 612.675 529.809C612.805 529.651 612.922 529.471 613.027 529.248C613.153 528.978 613.296 528.602 613.451 528.146C614.53 524.954 616.177 517.827 616.845 515.404C616.846 515.404 616.848 515.404 616.849 515.404L616.849 515.402ZM164.386 517.281C164.864 517.881 165.205 518.354 165.292 518.576C165.203 518.352 164.864 517.881 164.386 517.281ZM611.281 531.082L607.79 534.746C607.79 534.746 607.786 534.746 607.786 534.746L611.281 531.082ZM182.031 533.473C188.76 534.28 188.6 536.075 193.281 538.127C195.837 539.248 196.854 536.566 201.509 541.1C201.645 541.232 201.911 541.491 202.146 541.77C201.912 541.492 201.644 541.235 201.509 541.103C196.855 536.57 195.839 539.252 193.283 538.131C188.602 536.078 188.762 534.283 182.033 533.477C181.775 533.446 175.259 534.408 174.679 534.488C174.617 534.498 173.938 534.897 173.839 534.951L171.46 534.873L170.185 533.967C170.185 533.967 170.185 533.967 170.185 533.967L171.458 534.873L173.839 534.951C173.938 534.897 174.614 534.497 174.677 534.488C175.256 534.408 181.773 533.446 182.031 533.477V533.473ZM596.476 540.904C595.505 541.102 594.678 541.079 593.505 541.27C590.958 541.684 588.398 542.079 585.855 542.561C588.399 542.078 590.961 541.682 593.509 541.268C594.68 541.077 595.506 541.101 596.476 540.904ZM202.148 541.773C202.323 541.982 202.481 542.201 202.552 542.389C202.48 542.201 202.323 541.981 202.148 541.773ZM578.314 544.371C578.315 544.371 578.317 544.372 578.318 544.371C577.725 545.449 573.385 553.574 572.984 554.066C573.388 553.569 577.722 545.447 578.314 544.371ZM202.847 549.146C202.75 550.279 202.494 551.509 201.945 553.213C201.757 553.796 201.794 554.192 201.462 554.707C199.683 557.454 195.441 560.212 195.031 563.787C195.438 560.21 199.68 557.451 201.46 554.703C201.792 554.188 201.755 553.792 201.943 553.209C202.491 551.507 202.75 550.278 202.847 549.146ZM195.439 566.404C199.263 571.82 211.626 567.291 215.818 570.422C215.946 570.518 216.079 570.649 216.214 570.797C216.617 571.238 217.033 571.843 217.353 572.219C217.736 572.667 218.035 573.097 218.267 573.516C218.035 573.098 217.735 572.67 217.353 572.223C217.032 571.846 216.617 571.238 216.214 570.797C216.08 570.65 215.945 570.521 215.818 570.426C211.626 567.295 199.263 571.824 195.439 566.408C195.438 566.408 195.439 566.408 195.439 566.408V566.404ZM509.044 567.9L509.972 571.846C512.317 573.87 519.889 579.838 521.542 581.834C522.488 582.975 522.589 583.905 523.257 585.227L526.683 592.012C528.265 594.805 531.431 598.572 532.605 601.369C532.685 601.56 536.042 614.256 536.048 614.328C536.385 618.516 534.34 624.122 534.767 628.252C534.874 629.281 538.125 635.382 538.359 636.703L538.017 642.674L537.847 645.656H537.843L538.015 642.674L538.357 636.703C538.123 635.382 534.87 629.281 534.763 628.252C534.336 624.122 536.383 618.516 536.046 614.328C536.04 614.256 532.681 601.56 532.601 601.369C531.427 598.572 528.263 594.805 526.681 592.012L523.253 585.227C522.585 583.905 522.486 582.975 521.54 581.834C519.887 579.838 512.313 573.87 509.968 571.846L509.04 567.9C509.041 567.9 509.043 567.9 509.044 567.9ZM218.462 580.801C218.435 581.25 218.433 581.715 218.47 582.203C218.499 582.58 218.551 582.942 218.623 583.289C218.55 582.94 218.497 582.577 218.468 582.199C218.431 581.713 218.436 581.248 218.462 580.801ZM529.378 649.139C528.664 650.523 527.883 651.924 527.126 653.336C527.883 651.925 528.661 650.524 529.374 649.141L529.378 649.139ZM527.124 653.338C526.368 654.749 525.637 656.17 525.017 657.592C524.688 658.345 524.397 659.125 524.124 659.916C524.397 659.126 524.685 658.346 525.013 657.594C525.633 656.171 526.367 654.75 527.124 653.338ZM496.193 685.463H496.195L494.988 691.957L489.083 698.422H489.081H489.079C485.874 698.976 481.67 699.455 478.062 700.143C481.671 699.455 485.875 698.974 489.081 698.42L494.984 691.957L496.193 685.463Z" fill="#818181"/>
</g>
<defs>
<clipPath id="clip0_1402_2254">
<rect width="728.855" height="717.073" fill="white"/>
</clipPath>
</defs>
</svg>
