<svg width="1663" height="1216" viewBox="0 0 1663 1216" fill="none" xmlns="http://www.w3.org/2000/svg">
<g clip-path="url(#clip0_1402_2240)">
<path fill-rule="evenodd" clip-rule="evenodd" d="M1416.07 998.327C1417.54 1001.06 1417.81 1004.06 1418.22 1007.07C1418.38 1008.25 1417.2 1013.28 1416.7 1014.1C1414.64 1017.5 1411.97 1020.83 1409.67 1024.09C1409.61 1024.18 1408.29 1028.02 1408.29 1028.03C1408.26 1032.44 1407.76 1039.88 1411.11 1043.36C1413.51 1044.37 1416.09 1045.71 1418.55 1046.5L1420.05 1046.48C1422 1046.45 1423.61 1046.71 1425.55 1047.07C1425.64 1047.08 1425.74 1047.15 1425.82 1047.19C1427.45 1047.89 1431.01 1049.29 1431.91 1051.02C1436.27 1059.43 1437.95 1065.12 1436.28 1074.79C1435.23 1080.88 1433.1 1081.32 1430.89 1085.83C1430.36 1086.9 1430.07 1088.75 1429.74 1089.94C1429.72 1090.01 1430.08 1092.18 1430.12 1092.38C1431.39 1094.41 1433.93 1094.52 1435.47 1095.94C1436.87 1097.24 1438.49 1100.4 1438.5 1102.5C1438.51 1104.43 1438.72 1106.68 1438.52 1108.58C1438.5 1108.82 1437.76 1109.91 1437.68 1110.23C1436.15 1116.21 1433.49 1124.11 1432.89 1130.23L1433.71 1131.91C1435.08 1131.58 1436.07 1131.2 1437.14 1130.17L1438.41 1130.74L1439.07 1131.96C1439.03 1132.35 1438.77 1135.35 1438.71 1135.52C1436.75 1140.88 1434.47 1146.31 1432.77 1151.74C1432.38 1152.98 1432.37 1154.98 1432.21 1156.31C1431.9 1158.81 1431.97 1161.5 1431.85 1164.03C1431.84 1164.31 1432.24 1165.15 1432.22 1165.42C1432.16 1166.44 1431.77 1167.69 1431.58 1168.7C1433.99 1169.25 1438.61 1175.66 1439.85 1177.6C1445.96 1180.83 1447.74 1168.52 1453.64 1165.09C1456.28 1163.56 1460.57 1161.6 1462.79 1159.69C1465.57 1157.29 1471.58 1151.88 1475.31 1151.04C1475.51 1150.99 1479.29 1150.93 1479.74 1150.92C1479.99 1150.91 1480.25 1150.97 1480.5 1150.99C1481.8 1151.09 1483.52 1151.42 1484.8 1151.33C1486.62 1151.21 1491.42 1148.38 1492.58 1147.28C1492.65 1147.22 1494.04 1144.53 1494.17 1144.27L1494.41 1143.74C1495.63 1140.14 1496.93 1132.81 1496.25 1129.22C1495.21 1123.82 1494.28 1119.84 1492.6 1114.54C1490.23 1107.05 1488.87 1105.95 1482.15 1102.19C1479.94 1100.95 1478.19 1099.66 1476.82 1097.41C1474.61 1093.81 1474.29 1084.24 1473.79 1079.91C1473.18 1074.68 1469.09 1073.78 1468.49 1071.32C1465.02 1069.92 1459.55 1064.98 1457.37 1062.16C1455.01 1059.09 1452.9 1056.15 1451.57 1052.46L1451.36 1050.7C1450.6 1044.23 1452.11 1037.88 1454.48 1031.85C1454.74 1031.18 1455.49 1030.56 1455.79 1029.9C1455.92 1029.6 1455.92 1028.65 1456.06 1028.38L1459.67 1020.91C1459.78 1020.67 1461.02 1019.38 1461.09 1019.2C1461.21 1018.89 1461.24 1018.11 1461.37 1017.84C1462.96 1014.56 1466.33 1008.54 1465.25 1004.59L1464.26 1002.53C1462.07 997.981 1458.16 998.632 1453.81 998.727C1450.46 998.8 1446.97 999.09 1443.64 998.945C1436.37 998.627 1429.05 997.932 1421.79 997.428C1420.13 997.312 1417.73 998.066 1416.07 998.327Z" fill="#F5F5F5"/>
<path fill-rule="evenodd" clip-rule="evenodd" d="M1133.04 413.699C1133.67 415.733 1133.89 418.081 1134.84 419.883L1137.22 423.682C1138.01 424.952 1139.05 426.582 1140.36 427.459C1141.3 427.567 1142.5 427.855 1143.41 427.792C1149.72 427.36 1151.65 416.15 1155.9 414.405C1163.59 411.248 1172.8 411.623 1180.91 411.308C1183.76 411.198 1188.36 413.893 1187.32 417.15C1187.19 417.556 1187.08 418.217 1186.78 418.522C1185 420.362 1182.04 422.85 1179.31 422.88C1179.17 424.082 1172.04 428.136 1170.78 428.947C1170.66 429.687 1169.29 430.683 1168.54 430.52L1168.18 430.938C1163.37 436.396 1162.03 436.852 1161.91 443.757C1161.89 445.124 1162.16 446.589 1162.31 447.952C1162.32 448.108 1162.81 448.714 1162.83 448.881C1163.38 453.159 1163.9 457.44 1164.47 461.714C1164.92 462.139 1165.35 462.637 1165.49 463.238C1168.24 475.004 1169.63 480.277 1176.27 489.742C1177.43 491.385 1179.49 491.992 1180.69 492.909C1182.73 494.463 1184.67 496.325 1186.62 497.997C1190.33 501.178 1192.08 503.026 1189.45 507.522C1188.16 509.717 1185.4 511.717 1182.96 512.426C1182.18 512.997 1181.47 515.115 1181.65 515.834C1182.35 518.499 1183.84 521.397 1184.86 523.988C1187.22 529.968 1189.45 535.918 1191.59 541.976L1191.74 542.402C1193.18 546.492 1195.34 550.399 1197.22 554.309C1197.9 555.745 1198.72 557.889 1199.61 559.288C1199.94 559.808 1200.66 560.246 1200.95 560.776C1201.86 562.451 1202.44 564.782 1203.11 566.602C1203.17 566.754 1203.27 566.938 1203.3 567.099L1206.45 586.367C1206.9 589.12 1207.24 594.094 1208.12 596.544C1209.76 601.166 1211.14 605.754 1213.78 609.93C1214.76 611.485 1215.69 613.512 1216.95 614.847C1220 618.111 1223.37 621.945 1227.89 623.118C1229.68 623.584 1231.15 623.614 1232.82 624.486C1235.59 625.936 1247.66 624.094 1250.05 627.717C1250.99 629.636 1250.05 631.727 1250.54 633.556C1251.53 637.257 1252.85 637.923 1256.61 638.191C1257.7 638.269 1258.7 638.292 1259.8 638.261C1261.94 638.2 1264.44 638.356 1266.56 638.071C1270.46 637.543 1274.32 635.873 1278.23 635.307C1279.38 635.14 1280.77 635.224 1281.94 635.186C1282.79 635.159 1284.4 635.477 1285.08 635.873C1286.29 636.58 1295.26 644.217 1296.06 645.483C1297.9 648.395 1301.98 654.35 1304.36 656.849C1305.57 658.12 1307.36 659.321 1308.73 660.45C1311.74 662.929 1315.88 663.582 1319.25 665.29C1321.45 666.402 1324 672.376 1326.26 674.523C1328.16 676.329 1340.16 687.368 1342.22 688.278C1345.87 689.891 1349.84 691.168 1353.58 692.587C1354.33 692.87 1355.13 693.442 1355.84 693.834C1362.19 697.338 1362.61 698.468 1368.29 703.692C1369.51 704.809 1370.63 705.294 1371.69 706.796L1372.7 707.072C1373.8 709.016 1375.5 713.051 1375.38 715.435C1375.21 718.693 1374.49 720.553 1373.45 723.669C1372.78 725.654 1372.22 728.169 1371.32 730.033C1368.16 736.617 1362.82 741.138 1357.58 745.943C1355.21 748.108 1352.05 750.398 1349.25 751.881L1328.64 762.781C1327.8 763.223 1326.28 763.173 1325.5 763.652C1321.26 766.241 1316.4 768.801 1314.21 773.581L1314.16 777.032L1315.43 779.115C1317.19 779.961 1318.86 780.933 1320.75 781.439C1323.12 782.078 1325.02 782.185 1326.87 783.7L1327.81 786.96L1326.38 791.602C1322.88 794.49 1319.48 797.059 1316.57 800.609C1315.6 801.789 1315.89 803.636 1316.29 805.017L1316.52 805.01C1316.54 806.431 1316.36 807.687 1316.01 809.042C1314.91 813.313 1315.72 814.501 1316.38 818.984C1316.41 819.208 1316.45 819.741 1316.52 819.934C1317.35 822.211 1320.54 831.08 1321.74 832.761L1325.95 838.686C1326.86 839.965 1328.04 841.342 1328.81 842.697C1329.58 844.053 1330.85 849.219 1330.71 850.556C1330.7 850.645 1328.92 856.575 1328.85 856.735C1328.28 857.986 1326.92 859.544 1326.12 860.704C1324.4 863.203 1321.47 865.061 1319.6 867.493L1315.43 872.943C1315.3 873.125 1314.86 873.597 1314.82 873.794C1314.77 874.061 1314.29 876.185 1314.3 876.316C1314.6 881.349 1323.31 897.608 1326.04 902.983C1327.44 905.737 1329.02 908.654 1330.68 911.225C1331.12 911.896 1331.8 912.452 1332.24 913.123C1334.46 916.57 1336.3 920.684 1339.06 923.76L1349.08 934.936C1349.29 935.166 1349.97 935.438 1350.2 935.673L1359.9 945.396C1360 945.5 1363.71 947.384 1364.11 947.593C1364.14 947.447 1364.29 946.651 1364.27 946.551C1363.85 944.221 1363.18 941.659 1362.98 939.315C1362.57 934.488 1362.58 929.494 1362.39 924.646C1362.33 923.177 1364.65 919.477 1365.47 918.395C1365.1 912.646 1362.5 913.949 1361.5 909.509C1360.27 904.078 1359.89 903.137 1354.8 899.801C1354.36 898.803 1354.7 896.922 1355.14 895.988C1356.52 893.803 1359.63 892.903 1362.06 893.054C1362.68 893.093 1369.42 893.551 1369.59 893.522C1373.6 892.859 1377.62 890.532 1381.64 889.823C1382.56 889.66 1383.1 889.884 1384.04 889.922C1389.02 890.127 1390.61 890.605 1394.17 887.463C1394.79 886.478 1395.19 884.58 1395 883.474C1393.88 876.909 1390.07 875.418 1386.33 870.441C1383.03 866.059 1381.06 859.477 1379.59 854.17C1379.27 853.007 1379.13 851.762 1378.78 850.613C1378.57 849.924 1378.07 849.269 1377.87 848.579C1377.35 846.813 1377.16 844.828 1376.55 843.101C1376.17 842.027 1375.28 840.965 1374.8 839.912C1374.6 839.471 1374.64 838.834 1374.43 838.402C1373.27 836 1371.72 833.398 1370.86 830.891C1370.17 828.878 1370.04 829.141 1369.23 827.659L1356.56 804.649C1354.84 801.514 1354.91 799.113 1355.63 795.727L1356.24 792.836C1356.3 792.676 1358.08 790.126 1358.29 789.816C1359.37 788.224 1362.8 788.002 1364.39 787.429C1366.45 786.689 1368.7 785.063 1370.65 783.992C1372.03 783.873 1375.83 784.458 1377.05 785.197C1380.6 787.332 1384.4 790.072 1388.1 791.85C1390.5 792.998 1399.54 794.853 1402.46 794.203C1402.82 794.124 1402.98 793.958 1403.31 793.802L1407.87 791.631C1411.21 790.043 1414.2 788.393 1417.93 788.017C1419.16 787.893 1421.1 787.89 1422.33 788.017C1423.07 788.094 1426.46 788.96 1426.9 788.946C1428.32 788.898 1430 787.807 1431.44 787.713C1431.63 787.7 1435.43 788.294 1435.87 788.357C1444.25 789.57 1452.62 791.471 1461.1 791.376C1462.55 790.752 1465.4 788.298 1466.14 786.997C1468.16 783.461 1468.16 779.21 1469.62 775.481L1471.48 771.598C1471.96 770.602 1472.72 769.211 1472.87 768.012C1475.6 765.518 1482.86 759.74 1484.91 756.645L1484.95 756.007C1485.16 752.804 1485.18 749.8 1486.07 746.717L1489.31 735.541L1489.65 734.656C1492.65 731.94 1494.14 730.59 1495.18 728.95C1496.33 727.138 1496.91 724.971 1498.33 720.216C1499.07 717.752 1500.12 714.362 1500.2 711.732C1500.31 707.867 1496.81 702.812 1495.65 698.968C1494.93 696.579 1494.36 694.105 1493.73 691.691C1492.46 686.912 1483.96 679.605 1486.44 674.371L1488.13 673.004C1488.7 673.011 1491.03 672.999 1491.13 673.032C1495.65 674.453 1499.71 677.466 1503.91 679.573L1509.9 682.285C1511.06 682.814 1511.67 683.256 1512.89 683.641C1513.04 683.69 1517.73 684.035 1518.2 684.073C1523.67 684.518 1531.07 682.548 1534.42 678.127C1535.07 675.261 1530.84 672.585 1531.22 669.262C1531.93 666.995 1534.37 665.876 1536.3 664.833L1537.05 663.125C1536.71 660.564 1535.89 657.523 1534.62 655.252L1534.96 654.309C1535.23 654.111 1537.27 652.538 1537.43 652.474C1538.72 651.93 1540.43 651.907 1541.77 651.447C1545.44 650.197 1549.08 648.651 1552.7 647.265C1556.75 645.715 1559.94 639.908 1561.44 636.26C1561.42 636.149 1561.24 635.327 1561.25 635.268C1561.86 633.018 1562.22 629.802 1564.09 628.167C1566.74 625.843 1581.33 625.243 1585.11 624.872C1585.3 624.853 1585.89 624.39 1586.11 624.341C1589.14 623.679 1592.56 623.582 1595.65 623.221C1596.59 623.111 1597.49 622.986 1598.43 623.164L1599.55 622.569C1599.72 621.754 1601.22 620.393 1601.83 619.925L1602.41 617.813C1602.31 617.421 1601.12 613.096 1601.14 613.023C1602.49 608.038 1604.87 603.347 1606.91 598.601C1607.02 598.34 1607.75 597.712 1607.9 597.426C1608.26 596.707 1608.32 595.719 1608.71 595.023C1610.31 592.149 1614.96 586.714 1617.58 584.627L1617.87 583.571C1620.17 581.964 1624.6 577.342 1625.92 575.109C1627.6 572.258 1628.75 566.007 1628.78 562.53C1628.85 553.945 1628.72 545.457 1628.42 536.876C1628.28 532.889 1628.92 528.915 1629.36 524.95L1629.83 524.362C1629.95 523.361 1630.46 521.504 1629.88 520.563C1630.75 517.92 1632.13 512.388 1633.26 510.31C1636.68 504.032 1646.29 488.072 1647.51 482.176C1648.5 477.452 1647.43 472.772 1647.23 468.073C1647.07 464.519 1647.33 461.101 1647.6 457.554C1647.79 455.153 1648.11 452.559 1649 450.279C1652.04 442.539 1657.43 436.798 1660.64 429.295C1664.18 420.998 1661.58 417.465 1656.56 410.884C1656.39 410.657 1656.22 410.375 1656.01 410.176C1650.4 404.692 1647.98 401.505 1640.59 398.809C1639.44 398.39 1638.07 398.293 1636.95 397.824C1635.11 397.051 1633.24 395.899 1631.46 394.975C1630.7 395.795 1628.87 397.409 1628.67 398.553C1628.53 399.375 1628.77 400.824 1628.02 401.423C1627.98 402.822 1628.14 408.865 1627.34 409.793C1626.44 410.871 1619.12 414.182 1617.48 414.987C1615.48 418.466 1616.92 422.826 1615.22 426.524C1612.82 428.566 1599.29 432.918 1596.85 432.115C1592.48 429.094 1592.31 427.661 1589.9 423.111C1588.9 421.219 1587.66 419.263 1586.82 417.305C1585.49 414.185 1584.81 410.695 1583.42 407.61C1583.03 406.759 1582.21 405.909 1581.91 405.045C1581.8 404.742 1581.82 403.239 1581.72 402.82C1581.16 400.458 1580.36 398.085 1579.69 395.747C1578.78 392.579 1576.47 386.834 1573.78 385.195C1572.91 384.667 1571.57 384.979 1570.66 385.139C1567.93 386.099 1560.78 389.249 1558.06 388.696C1557.86 388.657 1554.83 387.288 1554.45 387.122C1554.39 387.096 1554.27 387.074 1554.22 387.031C1552.51 385.482 1551.21 383.891 1550.36 381.674C1549.94 380.57 1550 379.15 1549.56 378.053C1549.5 377.906 1547.41 374.154 1547.31 374.028C1547.02 373.637 1543.76 370.705 1543.23 370.669C1539.95 370.444 1530.54 369.999 1527.32 368.806C1525.54 368.145 1523.39 366.392 1521.71 365.355C1520.88 363.15 1519.71 362.329 1518.95 360.869C1516.87 356.888 1516.52 351.649 1515.76 347.32C1515.62 346.529 1515.29 345.692 1515.06 344.91C1511.35 332.198 1506.97 329.208 1497.41 319.753C1494.86 317.234 1489.49 309.561 1485.32 311.511C1483.56 312.334 1481.62 313.065 1480.23 314.487C1478.24 315.039 1474.83 314.715 1473.27 313.219L1471.88 311.325C1471.52 310.82 1470.61 309.157 1470.75 308.393C1470.79 308.173 1471.16 306.387 1471.15 306.281C1470.81 302.91 1470.67 299.324 1470.12 295.991C1469.69 293.43 1468.79 290.711 1468.16 288.181C1468.14 288.125 1468.13 287.975 1468.1 287.933L1466.82 286.431L1464.77 285.751C1462.06 286.744 1457.48 287.833 1454.5 287.054C1448.91 285.591 1445.11 285.52 1439.47 285.644C1435.49 287.842 1435.97 290.082 1434.06 293.56C1433.32 294.914 1429.19 298.86 1427.5 299.378C1423.52 299.045 1419.78 297.262 1415.95 296.302C1410.99 295.058 1405.14 295.999 1400.09 296.189C1399.96 296.194 1399.8 296.257 1399.68 296.288C1397.14 296.917 1394.38 297.898 1391.83 298.244C1391.35 298.309 1390.74 298.119 1390.27 298.209C1386.77 298.87 1383.12 300.309 1379.7 301.313C1376.24 302.326 1372.44 302.83 1368.91 303.567C1364.49 304.488 1355.83 301.382 1351.96 300.392C1351.9 300.303 1351.46 299.613 1351.4 299.584C1343.11 294.857 1343.14 295.05 1334.08 296.019C1333.99 296.029 1333.86 296.111 1333.77 296.146C1327.84 298.573 1321.73 300.091 1315.56 301.83C1311.05 303.104 1310.76 304.456 1307.4 308.038C1307.33 308.106 1307.22 308.19 1307.18 308.271C1303.53 314.944 1301.42 316.808 1295.57 321.666C1291.84 324.764 1287.46 327.203 1283.4 329.872C1282.36 330.559 1281.24 330.795 1280.13 331.339C1274.58 334.072 1272.65 335.609 1266.13 336.774C1261.87 337.536 1262.55 336.214 1257.38 338.659C1254.88 339.845 1255.38 340.861 1253.91 342.097C1251.46 344.14 1248.5 345.935 1245.69 347.398C1245.06 347.72 1244.39 347.696 1243.75 348.106C1241.14 349.771 1238.56 351.53 1235.9 353.116C1233.58 354.5 1230.89 355.418 1228.49 356.716C1222.56 359.928 1216.74 363.127 1210.58 365.872C1210.46 365.923 1209.83 366.535 1209.7 366.652C1204 366.213 1203.23 369.104 1200.63 373.427C1198.9 376.292 1197.48 384.744 1196.64 388.21C1196.6 388.386 1196.83 388.988 1196.78 389.145C1196.05 391.435 1195.48 394.729 1193.09 395.962C1189.96 397.264 1184.68 395.41 1182.04 393.545L1176.76 389.81C1173.8 387.72 1167.61 386.807 1164.09 387.323C1160.15 387.902 1154.31 390.641 1153.57 395.147C1153.15 397.71 1154.28 402.014 1154.74 404.601C1154.57 405.936 1153.49 407.331 1152.61 408.21C1147.46 413.354 1145.88 413.803 1138.62 414.572C1137.12 414.728 1134.41 414.258 1133.04 413.699Z" fill="#818181"/>
<path d="M902.363 363.934C901.746 364.445 894.857 377.26 903.536 393.85C910.84 407.81 935.693 426.657 946.662 444.248C954.296 456.491 952.238 467.824 957.987 478.905C961.962 486.567 975.535 494.431 979.305 500.566C987.824 514.44 985.13 522.732 984.606 522.996C981.473 524.577 977.83 525.453 974.614 526.917C972.74 527.776 967.961 531.133 965.827 530.792L961.351 529.394C959.954 528.952 957.731 528.112 957.014 526.531C955.197 526.773 953.721 527.99 953.639 529.912C953.401 534.571 953.619 539.229 953.699 543.908C953.777 547.407 953.177 549.607 950.779 552.464C950.541 552.586 948.984 553.464 948.904 553.464C945.949 553.746 943.547 552.906 940.753 552.004C937.835 550.287 934.88 548.205 931.862 546.705C931.236 546.409 930.419 546.39 929.738 546.046C924.865 543.686 922.663 542.57 919.204 547.427C919.146 547.505 919.102 547.607 919.044 547.665C917.024 549.407 912.687 553.684 909.755 553.684C908.714 552.946 902.499 553.888 901.204 554.004C901.124 554.004 901.066 554.023 900.986 554.043C897.831 554.523 895.832 559.182 895.832 561.963C895.832 565.904 896.832 572.019 897.069 576.538C897.229 579.721 890.315 585.297 888.896 587.637C887.577 589.796 886.715 594.417 884.857 597.334C883.802 599.014 879.123 598.994 877.487 599.034C872.491 599.194 867.075 599.596 862.099 599.296C861.817 599.276 860.542 598.636 860.158 598.558C859.819 598.496 858.456 598.656 858.218 598.578C851.905 596.476 849.429 590.92 840.274 589.478L839.637 589.4C838.456 589.798 832.904 595.837 831.701 597.034C829.123 597.034 822.73 602.635 820.869 604.294C819.131 604.376 816.169 604.396 813.249 604.512L809.312 623.289L814.011 626.35L816.613 626.87L817.132 628.39C817.132 628.39 820.392 633.849 820.392 636.848C820.392 639.847 820.891 648.345 825.388 648.845C829.884 649.344 835.38 649.344 837.378 648.345C839.377 647.345 844.872 644.346 847.37 648.345C849.869 652.344 855.364 655.343 857.363 655.343C859.361 655.343 864.357 658.842 864.357 658.842V668.839L863.857 680.336C863.857 680.336 862.858 689.334 867.355 690.334C871.851 691.333 877.347 692.333 879.345 694.333C881.344 696.332 888.338 697.332 886.34 701.331C884.341 705.33 882.843 716.327 882.843 716.327C882.843 716.327 883.842 722.825 882.343 725.824C880.844 728.824 879.345 730.823 881.843 733.322C884.341 735.822 882.843 740.82 882.843 740.82C882.843 740.82 880.344 748.818 883.842 751.318C887.339 753.817 892.835 759.815 891.336 762.315C889.837 764.814 888.838 770.311 885.84 768.813C882.843 767.313 884.341 762.815 883.342 760.315C882.343 757.816 879.345 752.817 876.348 754.817C873.35 756.816 871.851 760.315 874.349 762.815C876.847 765.314 878.846 770.81 876.847 772.31C874.849 773.81 871.851 775.309 869.353 773.81C866.855 772.31 859.361 770.311 856.363 771.81C853.366 773.31 849.369 777.809 849.369 780.308C849.369 782.807 848.869 789.306 854.365 792.305C859.861 795.304 863.358 797.303 863.358 797.303C863.358 797.303 869.353 801.302 869.353 804.302C869.353 807.301 871.352 813.799 871.352 813.799C871.352 813.799 873.85 819.298 876.348 820.297C878.846 821.297 883.842 822.297 885.84 823.297C887.839 824.296 887.839 824.796 889.837 827.292C891.835 829.791 897.331 831.79 897.331 831.79C897.331 831.79 907.823 832.29 910.321 833.79C912.819 835.29 919.314 835.789 920.813 839.788C922.311 843.787 930.805 853.285 930.805 853.285C930.805 853.285 938.299 859.783 940.797 860.783C943.295 861.783 950.789 864.282 950.789 864.282C950.789 864.282 955.285 865.782 957.783 862.782C960.281 859.783 962.28 857.784 964.778 859.783C967.276 861.783 969.274 863.782 969.274 863.782C969.274 863.782 972.772 862.282 974.77 862.282C976.768 862.282 980.266 863.282 981.764 866.281C983.263 869.281 989.259 874.779 989.259 874.779L996.753 878.778C996.753 878.778 1005.25 880.778 1005.75 886.776C1006.25 892.774 1009.24 895.774 1012.74 895.774C1016.24 895.774 1018.24 895.774 1019.23 898.773C1020.23 901.772 1022.23 902.772 1024.73 901.772C1027.23 900.772 1033.22 900.772 1035.72 904.771C1038.22 908.77 1039.72 911.769 1044.71 913.269C1049.71 914.769 1059.7 916.268 1059.7 922.267C1059.7 928.265 1060.7 933.264 1062.7 934.763C1064.7 936.263 1070.19 940.262 1066.7 946.76C1063.2 953.258 1058.2 956.758 1058.2 956.758L1048.71 963.256C1048.71 963.256 1043.72 968.255 1041.72 971.754C1039.72 975.253 1036.72 982.251 1034.72 984.25C1032.72 986.25 1027.23 993.248 1027.23 1001.25C1027.23 1009.24 1030.23 1019.74 1030.23 1019.74L1021.73 1026.24C1021.73 1026.24 1017.74 1029.24 1017.24 1032.74C1016.74 1036.24 1013.74 1050.73 1013.74 1050.73C1013.74 1050.73 1013.24 1061.73 1015.24 1065.73C1017.24 1069.73 1020.73 1076.73 1020.73 1076.73L1020.26 1086.41H1020.28C1022.67 1087.57 1028.77 1089.01 1031.75 1090.03C1032.93 1087.47 1034.01 1084.81 1034.88 1082.15C1036.78 1082.13 1045.67 1082.21 1046.33 1082.05L1050.89 1079.88C1054.92 1077.93 1062.78 1074.42 1067.33 1075.42C1069.91 1073.71 1072.61 1072.07 1075.08 1070.28C1078.48 1067.82 1081.54 1064.56 1085.1 1062.34C1087.2 1061.04 1090.02 1060.07 1091.96 1058.57C1093.45 1057.44 1094.59 1055.24 1096.03 1053.94C1098.51 1051.65 1102.32 1049.52 1105.6 1048.79C1106.42 1050.8 1107.26 1053.88 1108.4 1055.68C1108.46 1055.78 1113.77 1061.96 1113.94 1062.12C1115.22 1063.34 1117.15 1064.2 1118.56 1065.32C1120.35 1066.8 1122.45 1068.69 1124.07 1070.38C1127.57 1074.04 1127.67 1074.36 1128.41 1078.98C1128.53 1079.76 1128.41 1080.26 1128.73 1080.98C1129.09 1081.8 1129.57 1082.1 1130.13 1082.82C1131.68 1084.89 1136.02 1089.76 1137.04 1091.53C1138.26 1093.65 1139.4 1098.73 1138.94 1101.25L1142.18 1104.91L1147.69 1106.72L1148.32 1108.56L1149.55 1112.27C1150.05 1115.93 1147.64 1122.68 1146.92 1126.62C1152.75 1129.36 1158.57 1136.02 1162.12 1141.3L1162.18 1149.62C1165.08 1153.46 1168.28 1154.08 1172.75 1155.1C1176.69 1153.8 1177.93 1149.97 1178.65 1146.26L1181.38 1146.24L1184.58 1143.44L1185.46 1139.74L1187.28 1137.86C1188.72 1137.46 1191.2 1138.34 1192.32 1139.22L1195.52 1137.8L1197.33 1133.62L1200.97 1131.76C1204.59 1131.98 1208.84 1133.7 1211.98 1135.36L1218.38 1131.16L1219.72 1126.98C1223.37 1126.32 1227.37 1124.93 1230.66 1123.2C1230.72 1120.18 1231.48 1116.78 1232.45 1113.94C1235.5 1112.72 1240.52 1111.48 1243.88 1112C1244.34 1115.18 1245.02 1118.5 1245.32 1121.7C1245.52 1123.96 1245.28 1126.36 1245.36 1128.63C1245.4 1129.45 1245.92 1137.67 1245.9 1137.87C1245.64 1139.17 1245.06 1139.75 1244.54 1140.98C1241.75 1147.39 1240.41 1150.01 1235.49 1155.08C1233.65 1156.95 1229.48 1161.35 1228.68 1163.91C1227.96 1166.25 1228.38 1169.35 1227.82 1171.77C1227.4 1173.65 1226 1175.49 1225.58 1177.35L1225.3 1181.35L1225.16 1183.37L1228.86 1188.43L1232.98 1188.85C1235.9 1185.27 1242.49 1174.59 1244.77 1172.57C1244.9 1172.45 1250.6 1169.75 1251.12 1169.47C1250.6 1168.93 1250.15 1168.47 1249.83 1168.12C1249.61 1164.15 1249.77 1164.35 1251.33 1160.27C1254.22 1159.07 1257.95 1156.83 1259.92 1154.29C1261.64 1153.73 1264.56 1154.45 1265.64 1155.93L1266.92 1155.89C1269.47 1152.65 1272.37 1149.99 1275.57 1147.41C1276.13 1146.97 1276.89 1146.91 1277.55 1146.67C1281.15 1145.31 1284.72 1146.09 1288.44 1146.91C1289.57 1147.15 1290.75 1147.77 1291.89 1147.95C1292.76 1148.08 1297.57 1147.32 1298.07 1146.25C1299.35 1143.59 1301.91 1136.27 1304.86 1134.66C1309.65 1132.02 1316.83 1129.1 1320.19 1124.6L1322.21 1124.56C1328.02 1129.47 1326.52 1132.69 1327.45 1140C1327.82 1143.11 1329.34 1146.39 1329.52 1149.49C1329.66 1152.31 1325.92 1154.33 1325.98 1157.27C1326.03 1159.79 1327.46 1161.07 1327.88 1163.25C1328.72 1167.71 1328.5 1172.46 1328.48 1176.99C1328.46 1180.64 1331.04 1181.69 1333.26 1183.96C1334.72 1185.49 1335.98 1187.96 1337.18 1189.72C1337.26 1189.85 1337.38 1190.08 1337.5 1190.18C1341.12 1193.42 1342.97 1195.26 1348.03 1195.2C1350.05 1195.82 1351.29 1200.4 1352.39 1202.01C1352.45 1202.1 1354.38 1203.67 1354.59 1203.85C1354.69 1203.94 1354.87 1204.04 1354.95 1204.14C1356.93 1206.9 1357.05 1207.98 1360.05 1209.43C1363.5 1211.11 1367.62 1213.75 1371.34 1214.67C1372.57 1214.41 1374.46 1210.21 1374.86 1209.17L1381.49 1208.49C1383.86 1206.55 1386.96 1202.87 1390.54 1203.92C1391.4 1204.6 1395.66 1208.26 1396.49 1208.26L1398.37 1207.3C1399.44 1204.96 1399.21 1202.58 1399.92 1200.26C1400.36 1198.8 1401.42 1197.39 1401.92 1195.96C1402.36 1194.68 1401.46 1189.02 1401.26 1187.33C1401.94 1184.79 1405.84 1180.12 1407.8 1178.69C1410.58 1176.67 1416.19 1173.43 1419.29 1171.81C1420.52 1171.18 1429.57 1168.61 1431.07 1168.61C1431.28 1167.59 1431.65 1166.35 1431.71 1165.33C1431.73 1165.05 1431.34 1164.2 1431.34 1163.93C1431.46 1161.41 1432.52 1171.47 1432.82 1168.97C1433.01 1167.65 1442.69 1177.33 1443.07 1176.1C1444.77 1170.65 1450.22 1173.2 1452.18 1167.85C1452.24 1167.67 1464.26 1159.48 1464.3 1159.1L1464.93 1158.1L1465.68 1157.47C1464.6 1158.49 1469.66 1156.65 1468.3 1156.97L1470.55 1154.6C1471.15 1148.48 1473.01 1157.45 1474.54 1151.47C1474.62 1151.16 1482.14 1151.09 1482.16 1150.85C1482.37 1148.95 1496.78 1143.77 1496.78 1141.85C1496.75 1139.75 1499.57 1137.28 1498.15 1135.98C1496.61 1134.56 1500.29 1131.37 1499.03 1129.35C1498.99 1129.15 1497.9 1121.41 1497.9 1121.23C1498.24 1120.03 1492.64 1110.93 1493.16 1109.86C1495.37 1105.36 1481.01 1103.7 1482.04 1097.61C1483.7 1087.95 1481.76 1097.01 1477.42 1088.61C1476.5 1086.87 1471.3 1070.82 1469.67 1070.12C1469.59 1070.1 1464.78 1064.89 1464.68 1064.87C1462.74 1064.51 1460.78 1060.05 1458.82 1060.09L1453.93 1053C1451.45 1052.2 1456.93 1042.15 1454.55 1041.13C1451.19 1037.63 1458.78 1030.68 1458.8 1026.26C1458.8 1026.26 1466.99 1008.73 1467.04 1008.64C1469.34 1005.37 1458.61 1001.41 1460.67 998.013C1461.17 997.193 1438.73 998.193 1438.56 997.013C1438.17 994.014 1424.05 1000.13 1422.58 997.389C1422.48 997.311 1414.51 997.425 1414.45 997.425C1411.74 996.967 1408.85 996.647 1406.16 996.031C1403.71 995.449 1394.19 989.907 1392.05 988.747C1390.13 984.088 1389.42 979.409 1391.65 974.731C1391.21 970.19 1385.89 969.834 1383.3 967.073C1382.22 965.933 1381.17 964.016 1380.28 962.696C1375.96 961.618 1372.24 957.139 1370.33 953.382C1369.99 953.222 1366.61 951.699 1366.51 951.621C1366.41 951.519 1363.88 947.918 1363.62 947.58C1363.22 947.362 1359.49 945.482 1359.4 945.38L1349.71 935.665C1349.47 935.423 1348.79 935.145 1348.58 934.923L1338.57 923.746C1335.81 920.669 1333.97 916.548 1331.75 913.109C1331.32 912.429 1330.63 911.901 1330.2 911.211C1328.54 908.662 1326.96 905.745 1325.57 902.984C1322.85 897.607 1314.13 881.349 1313.84 876.331C1313.84 876.191 1314.29 874.069 1314.36 873.799C1314.4 873.599 1314.84 873.12 1314.98 872.94L1319.14 867.503C1321 865.062 1323.93 863.204 1325.65 860.705C1326.45 859.545 1327.81 857.995 1328.37 856.748C1328.45 856.588 1330.23 850.647 1330.24 850.565C1330.38 849.226 1329.11 844.067 1328.35 842.707C1327.56 841.348 1326.39 839.966 1325.49 838.689L1321.27 832.768C1320.07 831.089 1316.88 822.213 1316.06 819.951C1316 819.747 1315.96 819.214 1315.92 818.994C1315.26 814.515 1314.47 813.311 1315.55 809.05C1315.91 807.691 1316.09 806.429 1316.07 805.011L1315.85 805.031C1315.45 803.656 1315.15 801.79 1316.14 800.611C1319.03 797.07 1322.43 794.486 1325.92 791.613L1327.36 786.978L1326.42 783.717C1324.56 782.197 1322.66 782.095 1320.29 781.456C1318.42 780.956 1316.74 779.98 1315 779.14L1313.72 777.039L1313.78 773.598C1315.95 768.815 1320.81 766.258 1325.05 763.656C1325.83 763.198 1327.34 763.234 1328.18 762.795L1348.77 751.895C1351.59 750.418 1354.74 748.118 1357.1 745.959C1362.34 741.162 1367.67 736.641 1370.83 730.041C1371.73 728.18 1372.29 725.68 1372.95 723.681C1373.99 720.58 1374.73 718.704 1374.89 715.467C1375.02 713.066 1373.32 709.047 1372.21 707.089L1371.21 706.831C1370.16 705.332 1369.02 704.832 1367.82 703.708C1362.12 698.491 1361.72 697.37 1355.37 693.871C1354.65 693.473 1353.85 692.891 1353.11 692.611C1349.38 691.189 1345.42 689.906 1341.76 688.314C1339.7 687.392 1327.71 676.359 1325.81 674.556C1323.56 672.416 1321 666.434 1318.82 665.32C1315.45 663.619 1311.3 662.961 1308.31 660.481C1306.93 659.358 1305.15 658.162 1303.93 656.88C1301.56 654.381 1297.48 648.439 1295.64 645.521C1294.85 644.258 1285.87 636.626 1284.67 635.9C1283.99 635.524 1282.38 635.198 1281.54 635.22C1280.36 635.26 1278.98 635.178 1277.82 635.342C1273.93 635.9 1270.07 637.579 1266.17 638.101C1264.05 638.399 1261.55 638.239 1259.42 638.307C1258.31 638.327 1257.32 638.307 1256.24 638.225C1252.48 637.967 1251.16 637.307 1250.16 633.602C1249.69 631.761 1250.61 629.685 1249.69 627.764C1247.29 624.143 1235.22 625.982 1232.46 624.527C1230.8 623.663 1229.33 623.625 1227.52 623.163C1223 621.984 1219.65 618.145 1216.59 614.887C1215.35 613.548 1214.41 611.528 1213.43 609.967C1210.8 605.808 1209.41 601.211 1207.77 596.592C1206.9 594.151 1206.56 589.172 1206.12 586.415L1202.96 567.158C1202.94 566.998 1202.84 566.818 1202.78 566.658C1202.1 564.839 1201.52 562.499 1200.6 560.84C1200.32 560.3 1199.6 559.86 1199.26 559.34C1198.39 557.942 1197.56 555.801 1196.89 554.361C1195.01 550.464 1192.85 546.547 1191.41 542.466L1191.27 542.045C1189.12 535.988 1186.9 530.028 1184.54 524.049C1183.52 521.472 1182.02 518.575 1181.34 515.915C1181.14 515.194 1181.86 513.076 1182.64 512.494C1185.08 511.794 1187.84 509.795 1189.11 507.598C1191.75 503.099 1189.99 501.259 1186.29 498.08C1184.35 496.397 1182.42 494.539 1180.38 492.979C1179.16 492.058 1177.1 491.46 1175.96 489.82C1169.33 480.363 1167.92 475.086 1165.19 463.327C1165.05 462.725 1164.61 462.226 1164.16 461.808C1163.59 457.527 1163.06 453.252 1162.53 448.971C1162.51 448.811 1162.01 448.189 1161.99 448.029C1161.85 446.69 1161.59 445.252 1161.61 443.912C1161.61 443.888 1161.61 443.87 1161.61 443.85C1161.71 436.934 1163.05 436.492 1167.86 431.034L1168.23 430.616C1168.97 430.776 1170.35 429.776 1170.46 429.034C1171.72 428.234 1178.86 424.176 1179 422.978C1181.71 422.938 1184.67 420.458 1186.45 418.619C1186.75 418.319 1186.87 417.659 1186.99 417.237C1188.03 414 1183.44 411.301 1180.6 411.399C1172.48 411.719 1163.29 411.341 1155.6 414.5C1151.36 416.238 1149.75 424.867 1143.46 425.285C1142.54 425.367 1142.06 425.981 1141.12 425.879C1139.8 425.001 1140.08 424.605 1139.28 423.348L1136 419.287C1134.82 417.045 1134.31 414.57 1133.19 412.289C1132.53 410.969 1130.76 409.581 1129.94 408.34C1129.72 408.528 1127.42 401.336 1121.7 402.623C1117.98 403.457 1111.9 411.733 1106.54 410.663C1096.83 408.724 1083.55 412.635 1069.87 409.787C1059.92 407.72 1046.25 416.905 1035.27 414.598C1029.52 413.39 1026.3 402.971 1020.03 399.914C1014.85 397.393 1006.6 402.175 1001.79 401.164C988.675 398.404 973.124 385.268 961.075 382.752C953.857 381.245 952.752 384.614 945.422 380.669C938.091 376.724 931.624 367.912 926.313 366.839C910.423 363.629 905.777 362.726 905.371 363.048" fill="#818181"/>
<path d="M902.363 363.934C901.746 364.445 894.857 377.26 903.536 393.85C910.84 407.81 935.693 426.657 946.662 444.248C954.296 456.491 952.238 467.824 957.987 478.905C961.962 486.567 975.535 494.431 979.305 500.566C987.824 514.44 985.13 522.732 984.606 522.996C981.473 524.577 977.83 525.453 974.614 526.917C972.74 527.776 967.961 531.134 965.827 530.792L961.351 529.394C959.954 528.952 957.731 528.112 957.014 526.531C955.197 526.773 953.721 527.99 953.639 529.912C953.401 534.571 953.619 539.229 953.699 543.908C953.777 547.407 953.177 549.607 950.779 552.464C950.541 552.586 948.984 553.464 948.904 553.464C945.949 553.746 943.547 552.906 940.753 552.004C937.835 550.287 934.879 548.205 931.862 546.705C931.236 546.409 930.419 546.39 929.738 546.046C924.865 543.686 922.663 542.57 919.204 547.427C919.146 547.505 919.102 547.607 919.044 547.665C917.024 549.407 912.687 553.684 909.755 553.684C908.714 552.946 902.499 553.888 901.204 554.004C901.124 554.004 901.066 554.023 900.986 554.043C897.831 554.523 895.832 559.182 895.832 561.963C895.832 565.904 896.832 572.019 897.069 576.538C897.229 579.721 890.315 585.297 888.896 587.637C887.577 589.796 886.715 594.417 884.857 597.334C883.802 599.014 879.123 598.994 877.487 599.034C872.491 599.194 867.075 599.596 862.099 599.296C861.817 599.276 860.542 598.636 860.158 598.558C859.819 598.496 858.456 598.656 858.218 598.578C851.905 596.476 849.429 590.92 840.274 589.478L839.637 589.4C838.456 589.798 832.904 595.837 831.701 597.034C829.123 597.034 822.73 602.635 820.869 604.294C819.131 604.376 816.169 604.396 813.249 604.512L809.312 623.289L814.011 626.35L816.613 626.87L817.132 628.39C817.132 628.39 820.392 633.849 820.392 636.848C820.392 639.847 820.891 648.345 825.388 648.845C829.884 649.344 835.38 649.344 837.378 648.345C839.377 647.345 844.872 644.346 847.37 648.345C849.869 652.344 855.364 655.343 857.363 655.343C859.361 655.343 864.357 658.842 864.357 658.842V668.839L863.857 680.336C863.857 680.336 862.858 689.334 867.355 690.334C871.851 691.333 877.347 692.333 879.345 694.333C881.344 696.332 888.338 697.332 886.34 701.331C884.341 705.33 882.843 716.327 882.843 716.327C882.843 716.327 883.842 722.825 882.343 725.824C880.844 728.824 879.345 730.823 881.843 733.322C884.341 735.822 882.843 740.82 882.843 740.82C882.843 740.82 880.344 748.818 883.842 751.318C887.339 753.817 892.835 759.815 891.336 762.315C889.837 764.814 888.838 770.311 885.84 768.813C882.843 767.313 884.341 762.815 883.342 760.315C882.343 757.816 879.345 752.817 876.348 754.817C873.35 756.816 871.851 760.315 874.349 762.815C876.847 765.314 878.846 770.81 876.847 772.31C874.849 773.81 871.851 775.309 869.353 773.81C866.855 772.31 859.361 770.311 856.363 771.81C853.366 773.31 849.369 777.809 849.369 780.308C849.369 782.807 848.869 789.306 854.365 792.305C859.861 795.304 863.358 797.303 863.358 797.303C863.358 797.303 869.353 801.302 869.353 804.302C869.353 807.301 871.352 813.799 871.352 813.799C871.352 813.799 873.85 819.298 876.348 820.297C878.846 821.297 883.842 822.297 885.84 823.297C887.839 824.296 887.839 824.796 889.837 827.292C891.835 829.791 897.331 831.79 897.331 831.79C897.331 831.79 907.823 832.29 910.321 833.79C912.819 835.29 919.314 835.789 920.813 839.788C922.311 843.787 930.805 853.285 930.805 853.285C930.805 853.285 938.299 859.783 940.797 860.783C943.295 861.783 950.789 864.282 950.789 864.282C950.789 864.282 955.285 865.782 957.783 862.782C960.281 859.783 962.28 857.784 964.778 859.783C967.276 861.783 969.274 863.782 969.274 863.782C969.274 863.782 972.772 862.282 974.77 862.282C976.768 862.282 980.266 863.282 981.764 866.281C983.263 869.281 989.259 874.779 989.259 874.779L996.753 878.778C996.753 878.778 1005.25 880.778 1005.75 886.776C1006.25 892.774 1009.24 895.774 1012.74 895.774C1016.24 895.774 1018.24 895.774 1019.23 898.773C1020.23 901.772 1022.23 902.772 1024.73 901.772C1027.23 900.772 1033.22 900.772 1035.72 904.771C1038.22 908.77 1039.72 911.769 1044.71 913.269C1049.71 914.769 1059.7 916.268 1059.7 922.267C1059.7 928.265 1060.7 933.264 1062.7 934.763C1064.7 936.263 1070.19 940.262 1066.7 946.76C1063.2 953.258 1058.2 956.758 1058.2 956.758L1048.71 963.256C1048.71 963.256 1043.72 968.255 1041.72 971.754C1039.72 975.253 1036.72 982.251 1034.72 984.25C1032.72 986.25 1027.23 993.248 1027.23 1001.25C1027.23 1009.24 1030.23 1019.74 1030.23 1019.74L1021.73 1026.24C1021.73 1026.24 1017.74 1029.24 1017.24 1032.74C1016.74 1036.24 1013.74 1050.73 1013.74 1050.73C1013.74 1050.73 1013.24 1061.73 1015.24 1065.73C1017.24 1069.73 1020.73 1076.73 1020.73 1076.73L1020.26 1086.41H1020.28C1022.67 1087.57 1028.77 1089.01 1031.75 1090.03C1032.93 1087.47 1034.01 1084.81 1034.88 1082.15C1036.78 1082.13 1045.67 1082.21 1046.33 1082.05L1050.89 1079.88C1054.92 1077.93 1062.78 1074.42 1067.33 1075.42C1069.91 1073.71 1072.61 1072.07 1075.08 1070.28C1078.48 1067.82 1081.54 1064.56 1085.1 1062.34C1087.2 1061.04 1090.02 1060.07 1091.96 1058.57C1093.45 1057.44 1094.59 1055.24 1096.03 1053.94C1098.51 1051.65 1102.32 1049.52 1105.6 1048.79C1106.42 1050.8 1107.26 1053.88 1108.4 1055.68C1108.46 1055.78 1113.77 1061.96 1113.94 1062.12C1115.22 1063.34 1117.15 1064.2 1118.56 1065.32C1120.35 1066.8 1122.45 1068.69 1124.07 1070.38C1127.57 1074.04 1127.67 1074.36 1128.41 1078.98C1128.53 1079.76 1128.41 1080.26 1128.73 1080.98C1129.09 1081.8 1129.57 1082.1 1130.13 1082.82C1131.68 1084.89 1136.02 1089.76 1137.04 1091.53C1138.26 1093.65 1139.4 1098.73 1138.94 1101.25L1142.18 1104.91L1147.69 1106.72L1148.32 1108.56L1149.55 1112.27C1150.05 1115.93 1147.64 1122.68 1146.92 1126.62C1152.75 1129.36 1158.57 1136.02 1162.12 1141.3L1162.18 1149.62C1165.08 1153.46 1168.28 1154.08 1172.75 1155.1C1176.69 1153.8 1177.93 1149.97 1178.65 1146.26L1181.38 1146.24L1184.58 1143.44L1185.46 1139.74L1187.28 1137.86C1188.72 1137.46 1191.2 1138.34 1192.32 1139.22L1195.52 1137.8L1197.33 1133.62L1200.97 1131.76C1204.59 1131.98 1208.84 1133.7 1211.98 1135.36L1218.38 1131.16L1219.72 1126.98C1223.37 1126.32 1227.37 1124.93 1230.66 1123.2C1230.72 1120.18 1231.48 1116.78 1232.45 1113.94C1235.5 1112.72 1240.52 1111.48 1243.88 1112C1244.34 1115.18 1245.02 1118.5 1245.32 1121.7C1245.52 1123.96 1245.28 1126.36 1245.36 1128.63C1245.4 1129.45 1245.92 1137.67 1245.9 1137.87C1245.64 1139.17 1245.06 1139.75 1244.54 1140.98C1241.75 1147.39 1240.41 1150.01 1235.49 1155.08C1233.65 1156.95 1229.48 1161.35 1228.68 1163.91C1227.96 1166.25 1228.38 1169.35 1227.82 1171.77C1227.4 1173.65 1226 1175.49 1225.58 1177.35L1225.3 1181.35L1225.16 1183.37L1228.86 1188.43L1232.98 1188.85C1235.9 1185.27 1242.49 1174.59 1244.77 1172.57C1244.9 1172.45 1250.6 1169.75 1251.12 1169.47C1250.6 1168.93 1250.15 1168.47 1249.83 1168.12C1249.61 1164.15 1249.77 1164.35 1251.33 1160.27C1254.22 1159.07 1257.95 1156.83 1259.92 1154.29C1261.64 1153.73 1264.56 1154.45 1265.64 1155.93L1266.92 1155.89C1269.47 1152.65 1272.37 1149.99 1275.57 1147.41C1276.13 1146.97 1276.89 1146.91 1277.55 1146.67C1281.15 1145.31 1284.72 1146.09 1288.44 1146.91C1289.57 1147.15 1290.75 1147.77 1291.89 1147.95C1292.76 1148.08 1297.57 1147.32 1298.07 1146.25C1299.35 1143.59 1301.91 1136.27 1304.86 1134.66C1309.65 1132.02 1316.83 1129.1 1320.19 1124.6L1322.21 1124.56C1328.02 1129.47 1326.52 1132.69 1327.45 1140C1327.82 1143.11 1329.34 1146.39 1329.52 1149.49C1329.66 1152.31 1325.92 1154.33 1325.98 1157.27C1326.03 1159.79 1327.46 1161.07 1327.88 1163.25C1328.72 1167.71 1328.5 1172.46 1328.48 1176.99C1328.46 1180.64 1331.04 1181.69 1333.26 1183.96C1334.72 1185.49 1335.98 1187.96 1337.18 1189.72C1337.26 1189.85 1337.38 1190.08 1337.5 1190.18C1341.12 1193.42 1342.97 1195.26 1348.03 1195.2C1350.05 1195.82 1351.29 1200.4 1352.39 1202.01C1352.45 1202.1 1354.38 1203.67 1354.59 1203.85C1354.69 1203.94 1354.87 1204.04 1354.95 1204.14C1356.93 1206.9 1357.05 1207.98 1360.05 1209.43C1363.5 1211.11 1367.62 1213.75 1371.34 1214.67C1372.57 1214.41 1374.46 1210.21 1374.86 1209.17L1381.49 1208.49C1383.86 1206.55 1386.96 1202.87 1390.54 1203.92C1391.4 1204.6 1395.66 1208.26 1396.49 1208.26L1398.37 1207.3C1399.44 1204.96 1399.21 1202.58 1399.92 1200.26C1400.36 1198.8 1401.42 1197.39 1401.92 1195.96C1402.36 1194.68 1401.46 1189.02 1401.26 1187.33C1401.94 1184.79 1405.84 1180.12 1407.8 1178.69C1410.58 1176.67 1416.19 1173.43 1419.29 1171.81C1420.52 1171.18 1429.57 1168.61 1431.07 1168.61C1431.28 1167.59 1431.65 1166.35 1431.71 1165.33C1431.73 1165.05 1431.34 1164.2 1431.34 1163.93C1431.46 1161.41 1432.52 1171.47 1432.82 1168.97C1433.01 1167.65 1442.69 1177.33 1443.07 1176.1C1444.77 1170.65 1450.22 1173.2 1452.18 1167.85C1452.24 1167.67 1464.26 1159.48 1464.3 1159.1L1464.93 1158.1L1465.68 1157.47C1464.6 1158.49 1469.66 1156.65 1468.3 1156.97L1470.55 1154.6C1471.15 1148.48 1473.01 1157.45 1474.54 1151.47C1474.62 1151.16 1482.14 1151.09 1482.16 1150.85C1482.37 1148.95 1496.78 1143.77 1496.78 1141.85C1496.75 1139.75 1499.57 1137.28 1498.15 1135.98C1496.61 1134.56 1500.29 1131.37 1499.03 1129.35C1498.99 1129.15 1497.9 1121.41 1497.9 1121.23C1498.24 1120.03 1492.64 1110.93 1493.16 1109.86C1495.37 1105.36 1481.01 1103.7 1482.04 1097.61C1483.7 1087.95 1481.76 1097.01 1477.42 1088.61C1476.5 1086.87 1471.3 1070.82 1469.67 1070.12C1469.59 1070.1 1464.78 1064.89 1464.68 1064.87C1462.74 1064.51 1460.78 1060.05 1458.82 1060.09L1453.93 1053C1451.45 1052.2 1456.93 1042.15 1454.55 1041.13C1451.19 1037.63 1458.78 1030.68 1458.8 1026.26C1458.8 1026.26 1466.99 1008.73 1467.04 1008.64C1469.34 1005.37 1458.61 1001.41 1460.67 998.013C1461.17 997.193 1438.73 998.193 1438.56 997.013C1438.17 994.014 1424.05 1000.13 1422.58 997.389C1422.48 997.311 1414.51 997.425 1414.45 997.425C1411.74 996.967 1408.85 996.647 1406.16 996.031C1403.71 995.449 1394.19 989.907 1392.05 988.747C1390.13 984.088 1389.42 979.409 1391.65 974.731C1391.21 970.19 1385.89 969.834 1383.3 967.073C1382.22 965.933 1381.17 964.016 1380.28 962.696C1375.96 961.618 1372.24 957.139 1370.33 953.382C1369.99 953.222 1366.61 951.699 1366.51 951.621C1366.41 951.519 1363.88 947.918 1363.62 947.58C1363.22 947.362 1359.49 945.482 1359.4 945.38L1349.71 935.665C1349.47 935.423 1348.79 935.145 1348.58 934.923L1338.57 923.746C1335.81 920.669 1333.97 916.548 1331.75 913.109C1331.32 912.429 1330.63 911.901 1330.2 911.211C1328.54 908.662 1326.96 905.745 1325.57 902.984C1322.85 897.607 1314.13 881.349 1313.84 876.331C1313.84 876.191 1314.29 874.069 1314.36 873.799C1314.4 873.599 1314.84 873.119 1314.98 872.94L1319.14 867.503C1321 865.062 1323.93 863.204 1325.65 860.705C1326.45 859.545 1327.81 857.995 1328.37 856.748C1328.45 856.588 1330.23 850.647 1330.24 850.565C1330.38 849.226 1329.11 844.067 1328.35 842.707C1327.56 841.348 1326.39 839.966 1325.49 838.689L1321.27 832.768C1320.07 831.089 1316.88 822.213 1316.06 819.951C1316 819.747 1315.96 819.214 1315.92 818.994C1315.26 814.515 1314.47 813.311 1315.55 809.05C1315.91 807.691 1316.09 806.429 1316.07 805.011L1315.85 805.031C1315.45 803.656 1315.15 801.79 1316.14 800.611C1319.03 797.07 1322.43 794.486 1325.92 791.613L1327.36 786.978L1326.42 783.717C1324.56 782.197 1322.66 782.095 1320.29 781.456C1318.42 780.956 1316.74 779.98 1315 779.14L1313.72 777.039L1313.78 773.598C1315.95 768.815 1320.81 766.258 1325.05 763.656C1325.83 763.198 1327.34 763.234 1328.18 762.795L1348.77 751.895C1351.59 750.418 1354.74 748.118 1357.1 745.959C1362.34 741.162 1367.67 736.641 1370.83 730.041C1371.73 728.18 1372.29 725.68 1372.95 723.681C1373.99 720.58 1374.73 718.704 1374.89 715.467C1375.02 713.066 1373.32 709.047 1372.21 707.089L1371.21 706.831C1370.16 705.332 1369.02 704.832 1367.82 703.708C1362.12 698.491 1361.72 697.37 1355.37 693.871C1354.65 693.473 1353.85 692.891 1353.11 692.611C1349.38 691.189 1345.42 689.906 1341.76 688.314C1339.7 687.392 1327.71 676.359 1325.81 674.556C1323.56 672.416 1321 666.434 1318.82 665.32C1315.45 663.619 1311.3 662.961 1308.31 660.481C1306.93 659.358 1305.15 658.162 1303.93 656.88C1301.56 654.381 1297.48 648.439 1295.64 645.521C1294.85 644.258 1285.87 636.626 1284.67 635.9C1283.99 635.524 1282.38 635.198 1281.54 635.22C1280.36 635.26 1278.98 635.178 1277.82 635.342C1273.93 635.9 1270.07 637.579 1266.17 638.101C1264.05 638.399 1261.55 638.239 1259.42 638.307C1258.31 638.327 1257.32 638.307 1256.24 638.225C1252.48 637.967 1251.16 637.307 1250.16 633.602C1249.69 631.761 1250.61 629.685 1249.69 627.764C1247.29 624.143 1235.22 625.982 1232.46 624.527C1230.8 623.663 1229.33 623.625 1227.52 623.163C1223 621.984 1219.65 618.145 1216.59 614.887C1215.35 613.548 1214.41 611.528 1213.43 609.967C1210.8 605.808 1209.41 601.211 1207.77 596.592C1206.9 594.151 1206.56 589.172 1206.12 586.415L1202.96 567.158C1202.94 566.998 1202.84 566.818 1202.78 566.658C1202.1 564.839 1201.52 562.499 1200.6 560.84C1200.32 560.3 1199.6 559.86 1199.26 559.34C1198.39 557.942 1197.56 555.801 1196.89 554.361C1195.01 550.464 1192.85 546.547 1191.41 542.466L1191.27 542.045C1189.12 535.988 1186.9 530.028 1184.54 524.049C1183.52 521.472 1182.02 518.575 1181.34 515.915C1181.14 515.194 1181.86 513.076 1182.64 512.494C1185.08 511.794 1187.84 509.795 1189.11 507.598C1191.75 503.099 1189.99 501.259 1186.29 498.08C1184.35 496.397 1182.42 494.539 1180.38 492.979C1179.16 492.058 1177.1 491.46 1175.96 489.82C1169.33 480.363 1167.92 475.086 1165.19 463.327C1165.05 462.725 1164.61 462.226 1164.16 461.808C1163.59 457.527 1163.06 453.252 1162.53 448.971C1162.51 448.811 1162.01 448.189 1161.99 448.029C1161.85 446.69 1161.59 445.252 1161.61 443.912C1161.61 443.888 1161.61 443.87 1161.61 443.85C1161.71 436.934 1163.05 436.492 1167.86 431.034L1168.23 430.616C1168.97 430.776 1170.35 429.776 1170.46 429.034C1171.72 428.234 1178.86 424.176 1179 422.978C1181.71 422.938 1184.67 420.458 1186.45 418.619C1186.75 418.319 1186.87 417.659 1186.99 417.237C1188.03 414 1183.44 411.301 1180.6 411.399C1172.48 411.719 1163.29 411.341 1155.6 414.5C1151.36 416.238 1149.75 424.867 1143.46 425.285C1142.54 425.367 1142.06 425.981 1141.12 425.879C1139.8 425.001 1140.08 424.605 1139.28 423.348L1136 419.287C1134.82 417.045 1134.31 414.57 1133.19 412.289C1132.53 410.969 1130.76 409.581 1129.94 408.34C1129.72 408.528 1127.42 401.336 1121.7 402.623C1117.98 403.457 1111.9 411.733 1106.54 410.663C1096.83 408.724 1083.55 412.635 1069.87 409.787C1059.92 407.72 1046.25 416.905 1035.27 414.598C1029.52 413.39 1026.3 402.971 1020.03 399.914C1014.85 397.393 1006.6 402.175 1001.79 401.164C988.675 398.404 973.124 385.268 961.075 382.752C953.857 381.245 952.752 384.614 945.422 380.669C938.091 376.724 931.624 367.912 926.313 366.839C910.423 363.629 905.777 362.726 905.371 363.048" stroke="#818181" stroke-width="2" stroke-linejoin="round"/>
<path d="M1062.04 935.8C1064.04 937.3 1069.54 941.299 1066.04 947.797C1062.54 954.295 1057.55 957.794 1057.55 957.794L1048.06 964.293C1048.06 964.293 1043.06 969.291 1041.06 972.791C1039.06 976.29 1036.07 983.288 1034.07 985.287C1032.07 987.287 1026.57 994.285 1026.57 1002.28C1026.57 1010.28 1029.57 1020.78 1029.57 1020.78L1021.08 1027.28C1021.08 1027.28 1017.08 1030.28 1016.58 1033.77C1016.08 1037.27 1013.08 1051.77 1013.08 1051.77C1013.08 1051.77 1012.58 1062.77 1014.58 1066.77C1016.58 1070.76 1020.08 1077.76 1020.08 1077.76L1019.6 1087.44C1017.06 1086.22 1014.7 1084.26 1012.24 1082.88C1008.54 1080.79 1002.57 1077.92 998.471 1076.97C994.61 1076.07 990.435 1076.03 986.56 1075.23L981.664 1073.71C980.707 1073.42 980.123 1073.39 979.208 1072.97C979.048 1072.89 972.793 1068.87 972.773 1068.84C969.316 1065.18 966.934 1060.15 963.54 1056.43L959.863 1053.99C955.786 1051.29 951.086 1049.83 946.993 1047.31L942.997 1043.95L940.998 1042.27L938.64 1034.41C936.358 1032.45 934.102 1030.31 931.745 1028.45C927.229 1024.92 921.094 1021.99 917.916 1016.99C916.973 1015.5 916.459 1013.52 915.598 1011.94C914.319 1009.6 912.804 1007.3 911.421 1005.02L910.546 1001.3L910.67 1001.28L913.905 993.021C913.905 993.021 911.17 989.284 909.671 988.284C908.172 987.285 904.912 983.286 904.912 981.524C904.912 979.787 900.678 976.288 898.679 976.288C896.681 976.288 894.92 975.788 893.683 975.526C892.422 975.288 890.186 971.027 889.425 967.29C888.687 963.529 883.429 966.29 881.193 968.028C878.933 969.789 874.698 969.789 872.2 970.027C869.702 970.289 861.946 966.028 861.946 966.028C861.946 966.028 863.945 958.53 865.705 955.531C867.442 952.532 866.443 945.296 863.445 942.035C860.448 938.797 859.948 931.537 859.948 931.537C859.948 931.537 858.949 930.538 856.451 929.038C853.953 927.538 850.455 923.04 848.457 921.04C846.459 919.041 847.22 912.542 847.22 912.542C847.22 912.542 840.725 909.805 838.727 908.543C836.728 907.306 833.731 907.806 832.232 908.044C830.733 908.306 824.238 908.305 824.238 908.305C824.238 908.305 818.243 901.307 816.982 899.308C815.745 897.308 808.489 890.81 808.489 890.81L803.992 893.048C803.992 893.048 802.755 898.046 802.755 900.046C802.755 902.045 794.5 903.545 794.5 903.545C794.5 903.545 792.002 910.305 787.267 910.543C782.509 910.805 773.516 911.543 773.516 911.543L774.016 903.807L766.284 895.809L775.776 884.812C775.776 884.812 775.015 869.816 775.515 868.816C776.014 867.816 774.777 863.817 773.778 861.318C772.779 858.819 772.517 852.82 772.517 851.82C772.517 850.821 770.019 840.823 770.019 840.823L759.028 833.325C759.028 833.325 744.301 819.567 742.541 818.067C740.804 816.568 743.302 812.831 743.802 811.569C744.301 810.331 745.538 808.832 744.801 807.832C744.039 806.832 740.304 801.334 740.304 801.334C740.304 801.334 738.044 801.334 736.307 801.334C734.547 801.334 734.547 803.071 731.05 804.571C727.552 806.07 725.054 805.071 721.057 802.571C717.061 800.072 717.322 802.071 715.062 802.333C712.826 802.571 702.834 801.072 702.834 801.072L705.831 792.336C705.831 792.336 703.571 791.074 701.073 789.337C698.575 787.575 693.341 783.838 690.344 782.339C687.346 780.839 685.585 777.84 684.848 776.84C684.087 775.84 681.351 768.342 681.351 768.342C681.351 768.342 677.354 764.843 673.595 761.082C669.86 757.345 671.596 753.846 672.358 752.846C673.095 751.847 674.356 747.086 674.356 747.086C674.356 747.086 667.362 742.587 664.864 741.349C662.366 740.088 660.367 741.088 659.368 743.087C658.369 745.086 657.37 746.848 657.37 746.848L650.875 746.348C650.875 746.348 650.375 744.087 650.613 741.849C650.875 739.588 647.615 739.088 645.879 739.088C644.118 739.088 641.882 738.35 640.121 736.851C638.385 735.351 633.626 735.589 633.626 735.589C633.626 735.589 631.628 731.852 630.391 730.09C629.13 728.353 628.892 727.591 628.63 724.092C628.393 720.593 623.135 719.593 621.636 719.593C620.137 719.593 618.139 719.855 615.141 719.855C612.143 719.855 611.144 718.094 611.144 716.856C611.144 715.594 611.144 710.096 611.144 710.096C611.144 710.096 610.645 708.596 609.146 706.597C607.647 704.597 608.408 702.598 608.408 700.598C608.408 698.599 607.909 697.599 605.648 695.1C603.412 692.6 607.409 690.601 607.409 690.601L604.911 687.863C604.911 687.863 602.413 685.602 599.915 683.603C597.417 681.603 598.416 681.365 598.416 678.866C598.416 676.367 599.415 674.367 601.913 672.867C604.411 671.368 602.913 667.369 601.913 664.37C600.914 661.37 602.651 660.371 604.911 659.109C607.147 657.871 604.649 652.373 604.649 652.373L604.851 651.713C606.472 652.315 608.146 652.791 609.709 653.053C614.569 653.872 619.679 653.712 624.576 654.43C625.517 654.59 626.494 655.29 627.449 655.472C629.246 655.766 631.47 655.894 633.309 655.972C633.93 656.014 634.987 655.972 635.603 655.848C635.783 655.828 636.362 655.406 636.502 655.406C638.638 655.53 640.877 655.766 643.017 655.766C647.593 655.766 651.93 655.086 656.548 655.668C663.942 656.606 678.233 662.686 684.946 661.46C686.924 661.098 692.7 658.021 694.259 656.838C696.619 655.08 698.096 652.463 700.13 650.463C701.427 649.184 703.048 648.024 704.467 646.84C704.606 646.72 704.764 646.546 704.924 646.464C707.626 645.089 710.32 643.651 713.042 642.341C715.142 641.342 717.436 640.722 719.513 639.708C722.716 638.105 722.47 633.288 726.807 632.028C728.146 631.652 729.825 631.606 731.261 631.406C732.077 631.302 734.519 633.004 736.473 632.344C740.928 630.067 739.675 624.41 748.588 621.091C752.505 619.631 754.979 620.549 757.956 623.009C760.534 625.148 764.247 629.371 768.048 629.147C773.464 628.807 774.044 627.987 779.18 625.89C779.395 625.788 779.997 625.026 780.235 624.91L786.514 621.591C786.754 621.469 787.753 621.469 787.991 621.349C790.806 619.869 796.846 617.092 798.504 613.893C799.482 611.991 800.639 609.69 802.261 608.254L805.383 606.415C807.006 605.895 809.78 605.653 812.593 605.533L808.656 624.31L813.355 627.371L815.955 627.891L816.478 629.411C816.478 629.411 819.736 634.869 819.736 637.869C819.736 640.868 820.235 649.366 824.732 649.865C829.228 650.365 834.724 650.365 836.722 649.366C838.721 648.366 844.216 645.367 846.714 649.366C849.212 653.365 854.708 656.364 856.707 656.364C858.705 656.364 863.701 659.863 863.701 659.863V669.86L863.201 681.357C863.201 681.357 862.202 690.355 866.699 691.355C871.195 692.354 876.691 693.354 878.689 695.354C880.688 697.353 887.682 698.353 885.684 702.352C883.685 706.351 882.186 717.348 882.186 717.348C882.186 717.348 883.186 723.846 881.687 726.845C880.188 729.844 878.689 731.844 881.187 734.343C883.685 736.843 882.186 741.841 882.186 741.841C882.186 741.841 879.688 749.839 883.186 752.339C886.683 754.838 892.178 760.836 890.68 763.336C889.181 765.835 888.182 771.332 885.184 769.834C882.186 768.334 883.685 763.835 882.686 761.336C881.687 758.837 878.689 753.838 875.692 755.838C872.694 757.837 871.195 761.336 873.693 763.836C876.191 766.335 878.19 771.831 876.191 773.331C874.193 774.831 871.195 776.33 868.697 774.831C866.199 773.331 858.705 771.332 855.707 772.831C852.71 774.331 848.713 778.83 848.713 781.329C848.713 783.828 848.213 790.327 853.709 793.326C859.205 796.325 862.702 798.324 862.702 798.324C862.702 798.324 868.697 802.323 868.697 805.323C868.697 808.322 870.695 814.82 870.695 814.82C870.695 814.82 873.194 820.319 875.692 821.318C878.19 822.318 883.186 823.318 885.184 824.318C887.182 825.317 887.182 825.817 889.181 828.312C891.179 830.812 896.675 832.811 896.675 832.811C896.675 832.811 907.167 833.311 909.665 834.811C912.163 836.31 918.658 836.81 920.156 840.809C921.655 844.808 930.149 854.306 930.149 854.306C930.149 854.306 937.643 860.804 940.141 861.804C942.639 862.803 950.133 865.303 950.133 865.303C950.133 865.303 954.629 866.802 957.127 863.803C959.625 860.804 961.624 858.804 964.122 860.804C966.62 862.803 968.618 864.803 968.618 864.803C968.618 864.803 972.115 863.303 974.114 863.303C976.112 863.303 979.609 864.303 981.108 867.302C982.607 870.301 988.602 875.8 988.602 875.8L996.096 879.799C996.096 879.799 1004.59 881.798 1005.09 887.797C1005.59 893.795 1008.59 896.794 1012.08 896.794C1015.58 896.794 1017.58 896.794 1018.58 899.794C1019.58 902.793 1021.58 903.793 1024.07 902.793C1026.57 901.793 1032.57 901.793 1035.07 905.792C1037.56 909.791 1039.06 912.79 1044.06 914.29C1049.05 915.79 1059.05 917.289 1059.05 923.288C1059.05 929.286 1060.05 934.301 1062.04 935.8Z" fill="#818181" stroke="#818181" stroke-width="2" stroke-linejoin="round"/>
<path d="M1372.41 860.68L1383.17 857.802" stroke="#0978AB" stroke-width="1.4173" stroke-miterlimit="3.8637" stroke-linejoin="round"/>
<path d="M1364.12 947.594C1364.37 947.95 1366.92 951.55 1367.03 951.647C1367.11 951.72 1370.51 953.248 1370.83 953.398C1372.76 957.162 1376.48 961.64 1380.79 962.716C1381.71 964.039 1382.74 965.965 1383.82 967.11C1386.43 969.855 1391.73 970.227 1392.18 974.756C1389.93 979.442 1390.66 984.128 1392.58 988.788C1394.71 989.948 1404.24 995.489 1406.71 996.059C1409.4 996.679 1412.28 997.001 1415.01 997.463C1415.06 997.473 1415.97 998.247 1416.07 998.327" stroke="#646464" stroke-width="3.9685" stroke-miterlimit="3.8637" stroke-linejoin="round"/>
<path d="M454.799 5.41797C449.185 5.41797 444.981 7.23058 446.162 9.14258C447.797 11.7866 445.184 17.5075 441.861 18.5625C439.726 19.2405 438.228 22.4601 437.104 28.7871C435.638 37.0361 434.952 38.0812 430.678 38.5742C426.796 39.0212 425.68 38.2714 424.76 34.6074C423.751 30.5884 422.742 30.0918 415.615 30.0918C407.153 30.0918 391.174 36.5123 386.941 41.6133C385.627 43.1953 381.158 46.8237 377.008 49.6797C369.965 54.5257 368.71 54.7947 358.223 53.7207L346.986 52.5703L344.984 60.5195C342.959 68.5615 339.842 71.3591 334.981 69.4941C333.515 68.9311 331.285 69.3261 330.027 70.3691C328.77 71.4121 323.139 72.2096 317.514 72.1426C308.444 72.0346 306.535 71.3431 300.662 66.0371C297.02 62.7461 292.509 60.0527 290.639 60.0527C288.77 60.0527 286.357 59.1699 285.277 58.0899C284.197 57.0098 279.083 55.8441 273.91 55.4981C260.27 54.5851 252.741 53.5821 247.906 52.0371C244.186 50.8471 243.819 51.103 245.022 54.043C245.78 55.895 246.764 58.6652 247.209 60.1992C247.681 61.8282 252.55 64.329 258.906 66.209C264.893 67.981 270.426 70.492 271.201 71.791C271.977 73.09 273.491 74.1543 274.568 74.1543C275.645 74.1543 278.779 76.6748 281.531 79.7578C286.391 85.2008 288.328 94.6878 285.215 97.8008C284.488 98.5278 283.893 100.047 283.893 101.178C283.893 104.276 276.586 104.686 271.006 101.902C267.409 100.108 264.987 99.9265 262.063 101.23C259.297 102.464 256.457 102.418 252.908 101.078C248.888 99.5611 247.762 99.6285 247.762 101.395C247.762 104.23 235.499 106.372 232.676 104.029C231.526 103.075 229.18 102.833 227.463 103.492C225.573 104.217 223.573 103.664 222.393 102.09C219.835 98.6759 214.475 96.7357 211.939 98.3027C208.936 100.159 197.795 98.9035 195.77 96.4805C194.8 95.3215 191.233 94.1385 187.84 93.8535C184.447 93.5675 180.282 92.9305 178.586 92.4375C176.89 91.9445 175.502 92.4277 175.502 93.5117C175.502 96.0637 163.589 101.061 161.129 99.541C160.094 98.901 158.578 99.4593 157.762 100.779C156.022 103.597 142.202 103.746 140.484 100.967C139.738 99.7598 137.261 100.098 133.195 101.963C129.807 103.517 126.242 104.91 125.273 105.059C120.569 105.78 114.185 109.432 113.217 111.953C112.589 113.59 113.596 116.233 115.619 118.256C119.726 122.363 120.226 130.233 116.471 131.674C115.023 132.23 114.224 133.311 114.697 134.076C116.219 136.539 110.336 148.178 107.57 148.178C106.098 148.178 104.449 149.337 103.906 150.754C103.362 152.171 101.404 153.811 99.5547 154.398C97.7057 154.985 96.1934 156.466 96.1934 157.691C96.1934 158.916 94.4076 160.748 92.2266 161.76C82.9346 166.074 78.2029 167.547 76.6739 166.602C75.7769 166.047 75.045 168.385 75.045 171.795C75.045 181.285 69.9096 189.706 61.5586 193.914C57.5356 195.942 53.853 198.618 53.375 199.863C52.898 201.108 49.2762 203.193 45.3282 204.496C41.3802 205.799 38.5615 207.533 39.0665 208.35C40.3265 210.389 31.782 218.678 28.42 218.678C26.922 218.678 25.6954 217.832 25.6954 216.797C25.6954 214.844 21.5729 215.632 13.0079 219.225C7.77886 221.419 5.58226 228.918 6.07427 242.896C6.27127 248.479 5.35584 251.355 2.46684 254.244C-0.0211568 256.732 -0.654548 258.362 0.691452 258.811C1.84245 259.195 2.7852 260.534 2.7852 261.789C2.7852 263.044 3.97378 265.057 5.42778 266.264C6.88178 267.471 8.07231 269.948 8.07231 271.768C8.07231 273.588 8.86503 275.076 9.83403 275.076C13.369 275.076 10.6661 287.62 6.41606 290.938C5.79506 291.422 4.39855 294.804 3.31255 298.451C1.46355 304.66 1.66384 305.411 6.46684 310.213C9.28784 313.035 11.5957 316.519 11.5957 317.957C11.5957 319.569 12.7777 320.27 14.6797 319.789C16.3757 319.36 20.797 320.569 24.504 322.475C30.646 325.634 31.8634 325.721 38.2754 323.459C42.1434 322.094 45.8526 321.123 46.5176 321.301C47.1816 321.479 50.2652 320.272 53.3672 318.619C59.1782 315.522 66.2253 314.601 66.2403 316.936C66.2443 317.662 69.9782 318.474 74.5352 318.74C79.0912 319.006 83.3605 320.1 84.0215 321.17C84.6835 322.24 86.0136 322.626 86.9786 322.029C87.9446 321.432 92.3971 320.806 96.8711 320.637C101.345 320.468 105.006 319.791 105.006 319.135C105.006 317.452 113.34 313.85 117.236 313.85C119.026 313.85 120.991 315.153 121.602 316.746C122.213 318.339 123.215 319.138 123.83 318.523C124.445 317.908 126.012 318.289 127.313 319.369C130.063 321.652 130.54 333.238 127.883 333.238C126.895 333.238 126.507 335.022 127.023 337.203C127.538 339.384 128.22 343.765 128.537 346.939C128.949 351.066 130.794 353.952 135.014 357.066C138.261 359.461 141.531 362.415 142.283 363.631C143.034 364.847 144.272 365.853 145.035 365.867C147.562 365.911 157.754 374.309 156.92 375.66C156.468 376.389 159.29 377.525 163.191 378.184C167.092 378.842 171.452 380.55 172.879 381.977C174.306 383.404 176.251 384.093 177.199 383.506C178.148 382.92 181.48 383.763 184.606 385.379C187.732 386.995 194.582 388.509 199.83 388.742C205.453 388.992 209.965 390.127 210.818 391.506C211.783 393.067 215.24 393.687 221.201 393.371C226.117 393.11 230.139 393.596 230.139 394.449C230.139 395.933 257.758 401.971 264.545 401.971C317.974 416.349 252.29 372.346 264.541 423.682C264.519 424.478 261.725 427.253 258.332 429.85L252.164 434.572L252.728 447.791C253.038 455.061 253.417 463.388 253.568 466.295C253.719 469.203 254.796 472.575 255.961 473.787C258.487 476.413 265.383 476.735 265.383 474.227C265.383 473.257 266.648 472.463 268.195 472.463C272.297 472.463 281.478 479.472 280.164 481.6C279.423 482.797 280.468 482.92 283.228 481.961C288.573 480.105 297.141 480.324 298.615 482.354C300.522 484.984 307.442 488.326 310.978 488.326C312.893 488.326 314.734 489.909 315.289 492.029C315.822 494.065 317.051 495.241 318.018 494.643C318.986 494.045 320.267 494.349 320.867 495.32C321.467 496.29 323.703 497.02 325.836 496.943C332.993 496.681 338.498 498.782 342.406 503.264C344.541 505.711 347.913 507.713 349.898 507.713C351.931 507.713 353.506 508.868 353.506 510.357C353.506 510.591 353.392 510.767 353.328 510.969L354.283 511.025C354.732 511.579 355.113 511.924 355.504 512.295C355.751 511.678 356.243 511.238 357.199 511.238C360.426 511.238 368.152 516.468 369.045 519.031L372.895 518.568C372.895 518.565 372.892 518.564 372.892 518.56C372.892 515.13 378.055 509.474 381.187 509.474C382.204 509.474 383.882 510.494 384.914 511.738C385.814 512.823 385.819 514.253 385.473 515.498C386.554 515.091 387.701 514.692 388.832 514.295C388.824 514.16 388.754 514.113 388.754 513.965C388.754 510.937 400.089 505.123 402.766 506.777C402.932 506.88 402.951 506.98 403.094 507.082C403.404 506.847 403.706 506.545 404.021 506.357C404.453 506.1 405.016 505.905 405.477 505.656C404.861 504.632 404.801 503.299 405.891 502.209C406.812 501.289 410.47 500.064 414.021 499.488C419.087 498.666 420.478 499.018 420.478 501.123C420.478 501.652 420.17 502.196 419.748 502.719L423.043 505.012C423.076 504.873 423.054 504.692 423.103 504.566C424.114 502.004 425.079 502.476 429.453 507.666C432.289 511.033 434.355 514.551 434.043 515.486C433.696 516.526 433.154 517.105 432.514 517.416C433.055 518.391 433.59 519.341 434.107 520.342C434.411 520.227 434.641 520.049 435.08 520.049C437.416 520.049 443.391 528.798 443.391 532.219C443.391 533.856 442.388 534.232 441.137 533.992L441.5 537.681C444.66 537.698 445.152 538.769 445.152 545.605C445.152 550.793 444.562 552.897 443.088 553.344L443.363 556.047L444.273 556.892C444.562 556.633 444.838 556.374 445.267 556.109C448.432 554.154 459.252 556.998 459.252 559.785C459.252 559.958 459.159 560.083 459.123 560.238C459.229 560.273 459.489 560.294 459.584 560.33C459.628 560.347 461.087 561.163 462.256 561.806C462.681 561.05 463.641 560.588 465.219 560.588C467.973 560.588 475.115 567.981 475.115 570.834C475.115 571.36 474.856 571.591 474.668 571.904C475.416 572.665 476.197 573.627 476.898 574.109C476.925 570.443 477.48 570.5 485.701 574.693C490.43 577.106 492.302 579.059 491.611 580.861C491.577 580.949 491.544 580.975 491.512 581.058C491.759 581.187 492.004 581.303 492.252 581.431C493.002 581.819 493.758 582.121 494.51 582.494C494.508 582.173 494.502 581.9 494.502 581.617C494.502 579.792 497.256 580.271 506.365 583.678C508.875 584.617 509.88 586.048 509.273 587.763C510.266 588.182 511.241 588.736 512.24 589.248C512.163 587.919 512.758 586.958 514.33 587.527C515.541 587.966 517.939 587.099 519.658 585.601C522.075 583.495 523.26 583.352 524.881 584.974C525.006 585.1 525.002 585.273 525.093 585.412C525.172 585.339 525.286 585.245 525.365 585.172C525.893 584.679 526.536 583.985 527.064 583.476C525.467 581.196 526.562 578.154 529.965 576.334C533.059 574.678 534.341 574.966 537.388 578.013C539.948 580.572 540.408 581.932 539.297 583.342L542.504 582.535C542.73 581.167 543.193 579.336 544.129 576.213C545.251 572.465 547.267 569.398 548.611 569.398C549.039 569.398 549.392 569.221 549.701 568.976C549.952 568.344 550.152 567.657 550.418 567.053C550.432 566.788 550.583 566.603 550.535 566.314C549.798 561.932 557.913 561.032 560.933 565.162C562.2 566.893 563.236 569.348 563.236 570.617C563.236 572.007 562.322 572.604 561.242 572.72C561.576 574.154 561.748 574.858 561.966 575.806C565.118 575.19 572.734 578.565 574.781 581.877C575.56 583.137 575.603 584.046 575.205 584.658C575.92 585.046 576.597 585.51 577.314 585.888C577.729 585.481 578.291 585.262 579.031 585.262C580.613 585.262 584.386 594.759 584.386 598.742C584.386 600.842 583.53 601.483 582.414 601.14C582.466 601.385 582.547 601.656 582.595 601.896C582.799 602.908 582.87 603.723 582.996 604.623C584.548 603.816 586.148 606.54 586.148 612.58C586.148 618.31 585.444 620.51 583.609 620.51C582.073 620.51 581.181 620.074 580.638 619.109L578.086 620.586C578.565 621.316 578.808 622.249 578.316 623.531C577.623 625.338 578.107 625.88 579.83 625.219C582.713 624.112 586.519 627.894 586.045 631.394C585.378 636.314 586.296 637.791 590.705 638.898C593.212 639.527 597.261 642.041 599.703 644.484C658.681 700.333 840.271 661.935 947.96 579.92C1016.02 528.084 1034.62 434.509 1037.34 413.404C1037.34 409.587 1043.96 401.969 1047.28 401.969C1051.63 401.969 1056.67 387.183 1053.29 384.344C1050.81 382.266 1046.15 373.672 1046.15 371.187C1046.15 369.698 1045.35 368.48 1044.37 368.48C1043.39 368.48 1039.23 366.972 1035.12 365.127C1025.64 360.872 1016.24 359.232 1003.41 359.597C997.147 359.775 993.277 359.158 993.277 357.98C993.277 356.84 991.548 356.509 988.978 357.154C984.062 358.388 973.89 353.221 973.89 349.49C973.89 348.188 973.168 347.569 972.287 348.113C970.769 349.052 961.561 339.578 961.547 337.062C961.543 336.409 958.038 334.436 953.759 332.676C949.481 330.916 945.524 328.289 944.966 326.836C944.409 325.384 943.139 324.699 942.144 325.314C939.772 326.78 928.066 322.891 928.066 320.638C928.066 319.671 926.426 319.415 924.388 320.062C918.921 321.797 908.679 319.416 908.679 316.41C908.679 315 907.611 313.845 906.308 313.845C905.003 313.845 902.657 312.432 901.093 310.703C898.174 307.477 898.13 299.011 900.886 270.224C901.681 261.922 901.39 259.209 899.697 259.209C896.668 259.209 889.293 252.121 889.293 249.209C889.293 247.924 888.168 246.873 886.793 246.873C883.935 246.873 873.459 241.227 873.441 239.678C873.435 239.114 869.067 239.013 863.736 239.455C857.172 239.999 854.045 239.608 854.045 238.244C854.045 237 852.432 236.636 849.828 237.289C845.675 238.332 834.656 234.019 834.656 231.351C834.656 230.619 832.395 229.167 829.629 228.123C826.724 227.026 823.565 223.885 822.148 220.685C820.8 217.639 818.639 215.148 817.347 215.148C816.055 215.148 812.738 212.889 809.976 210.127C807.214 207.365 801.328 204.088 796.894 202.847C792.46 201.605 788.834 199.817 788.834 198.869C788.834 197.921 787.594 197.621 786.078 198.203C783.558 199.17 773.299 195.119 771.209 192.33C766.228 188.785 759.509 187.546 755.853 182.217C754.342 179.912 752.692 178.44 752.185 178.947C751.678 179.453 750.052 178.882 748.57 177.679C746.338 175.867 746.056 175.974 746.924 178.295C748.208 181.727 745.813 186.037 743.439 184.57C742.489 183.982 741.202 180.317 740.58 176.424C739.957 172.531 737.874 166.762 735.949 163.605C734.025 160.448 732.446 156.135 732.441 154.019C732.437 151.707 731.011 149.722 728.865 149.041C723.498 147.338 719.167 139.964 721.724 136.883C723.315 134.966 722.799 132.731 719.388 126.758C716.982 122.542 714.285 119.255 713.394 119.453C712.503 119.651 709.145 116.677 705.929 112.844C702.714 109.011 699.211 105.875 698.146 105.875C697.081 105.875 693.594 103.485 690.398 100.566C687.202 97.6472 681.358 94.5333 677.412 93.6463C673.466 92.7593 669.755 91.2527 669.164 90.2967C667.619 87.7957 651.367 87.4459 645.523 89.7869C641.819 91.2709 640.707 92.776 641.119 95.74C641.625 99.376 641.01 99.6865 633.74 99.4705C629.378 99.3415 624.618 99.1364 623.164 99.0154C620.314 98.7784 611.806 84.7244 614.513 84.7244C615.41 84.7244 615.235 83.27 614.123 81.49C612.706 79.22 612.61 76.1943 613.802 71.3553C615.339 65.1183 614.997 63.739 610.211 56.949C605.058 49.64 605.006 49.3719 608.312 46.8709C611.63 44.3609 611.623 44.3009 607.959 44.2459C605.897 44.2139 603.229 43.0072 602.031 41.5642C600.834 40.1212 599.199 39.3427 598.402 39.8357C597.604 40.3287 593.549 39.9689 589.392 39.0349C584.016 37.8269 581.477 37.9109 580.601 39.3279C579.723 40.7479 577.307 40.3899 572.185 38.0799C568.233 36.2989 565.002 34.2615 565.002 33.5525C565.002 32.8435 563.416 31.8486 561.478 31.3416C559.54 30.8356 557.953 29.1561 557.953 27.6111C557.953 24.2591 555.745 24.0975 548.031 26.8865C543.757 28.4325 541.155 28.4664 537.976 27.0174C534.229 25.3104 533.064 25.7165 528.748 30.2205C526.031 33.0565 522.766 35.3787 521.494 35.3787C520.222 35.3787 519.179 36.5483 519.179 37.9803C519.179 41.8063 511.188 46.4514 506.929 45.0994C504.943 44.4694 503.318 43.2124 503.318 42.3084C503.318 41.4044 502.327 40.6611 501.115 40.6541C498.116 40.6381 490.371 28.9782 491.81 26.6482C492.446 25.6202 491.668 24.2807 490.08 23.6717C488.061 22.8967 487.509 21.3103 488.24 18.3963C489.39 13.8133 486.696 12.5981 485.027 16.9471C484.454 18.4421 481.395 20.7575 478.23 22.0935C473.203 24.2155 472.084 24.1709 469.39 21.7459C467.694 20.2189 466.306 19.5866 466.306 20.3396C466.306 24.1446 460.96 16.587 459.988 11.408C459.097 6.65099 458.028 5.41797 454.799 5.41797Z" fill="#818181"/>
</g>
<defs>
<clipPath id="clip0_1402_2240">
<rect width="1662.27" height="1215.67" fill="white"/>
</clipPath>
</defs>
</svg>
