<svg width="120" height="19" viewBox="0 0 120 19" fill="none" xmlns="http://www.w3.org/2000/svg">
<path d="M9.53711 11.582C9.53711 11.3828 9.50586 11.207 9.44336 11.0547C9.38477 10.8984 9.2793 10.7578 9.12695 10.6328C8.97852 10.5078 8.77148 10.3887 8.50586 10.2754C8.24414 10.1621 7.91211 10.0469 7.50977 9.92969C7.08789 9.80469 6.70703 9.66602 6.36719 9.51367C6.02734 9.35742 5.73633 9.17969 5.49414 8.98047C5.25195 8.78125 5.06641 8.55273 4.9375 8.29492C4.80859 8.03711 4.74414 7.74219 4.74414 7.41016C4.74414 7.07812 4.8125 6.77148 4.94922 6.49023C5.08594 6.20898 5.28125 5.96484 5.53516 5.75781C5.79297 5.54688 6.09961 5.38281 6.45508 5.26562C6.81055 5.14844 7.20703 5.08984 7.64453 5.08984C8.28516 5.08984 8.82812 5.21289 9.27344 5.45898C9.72266 5.70117 10.0645 6.01953 10.2988 6.41406C10.5332 6.80469 10.6504 7.22266 10.6504 7.66797H9.52539C9.52539 7.34766 9.45703 7.06445 9.32031 6.81836C9.18359 6.56836 8.97656 6.37305 8.69922 6.23242C8.42188 6.08789 8.07031 6.01562 7.64453 6.01562C7.24219 6.01562 6.91016 6.07617 6.64844 6.19727C6.38672 6.31836 6.19141 6.48242 6.0625 6.68945C5.9375 6.89648 5.875 7.13281 5.875 7.39844C5.875 7.57812 5.91211 7.74219 5.98633 7.89062C6.06445 8.03516 6.18359 8.16992 6.34375 8.29492C6.50781 8.41992 6.71484 8.53516 6.96484 8.64062C7.21875 8.74609 7.52148 8.84766 7.87305 8.94531C8.35742 9.08203 8.77539 9.23438 9.12695 9.40234C9.47852 9.57031 9.76758 9.75977 9.99414 9.9707C10.2246 10.1777 10.3945 10.4141 10.5039 10.6797C10.6172 10.9414 10.6738 11.2383 10.6738 11.5703C10.6738 11.918 10.6035 12.2324 10.4629 12.5137C10.3223 12.7949 10.1211 13.0352 9.85938 13.2344C9.59766 13.4336 9.2832 13.5879 8.91602 13.6973C8.55273 13.8027 8.14648 13.8555 7.69727 13.8555C7.30273 13.8555 6.91406 13.8008 6.53125 13.6914C6.15234 13.582 5.80664 13.418 5.49414 13.1992C5.18555 12.9805 4.9375 12.7109 4.75 12.3906C4.56641 12.0664 4.47461 11.6914 4.47461 11.2656H5.59961C5.59961 11.5586 5.65625 11.8105 5.76953 12.0215C5.88281 12.2285 6.03711 12.4004 6.23242 12.5371C6.43164 12.6738 6.65625 12.7754 6.90625 12.8418C7.16016 12.9043 7.42383 12.9355 7.69727 12.9355C8.0918 12.9355 8.42578 12.8809 8.69922 12.7715C8.97266 12.6621 9.17969 12.5059 9.32031 12.3027C9.46484 12.0996 9.53711 11.8594 9.53711 11.582ZM14.732 13.8555C14.2906 13.8555 13.8902 13.7812 13.5309 13.6328C13.1754 13.4805 12.8688 13.2676 12.6109 12.9941C12.357 12.7207 12.1617 12.3965 12.025 12.0215C11.8883 11.6465 11.8199 11.2363 11.8199 10.791V10.5449C11.8199 10.0293 11.8961 9.57031 12.0484 9.16797C12.2008 8.76172 12.4078 8.41797 12.6695 8.13672C12.9313 7.85547 13.2281 7.64258 13.5602 7.49805C13.8922 7.35352 14.2359 7.28125 14.5914 7.28125C15.0445 7.28125 15.4352 7.35938 15.7633 7.51562C16.0953 7.67188 16.3668 7.89062 16.5777 8.17188C16.7887 8.44922 16.9449 8.77734 17.0465 9.15625C17.148 9.53125 17.1988 9.94141 17.1988 10.3867V10.873H12.4645V9.98828H16.1148V9.90625C16.0992 9.625 16.0406 9.35156 15.9391 9.08594C15.8414 8.82031 15.6852 8.60156 15.4703 8.42969C15.2555 8.25781 14.9625 8.17188 14.5914 8.17188C14.3453 8.17188 14.1188 8.22461 13.9117 8.33008C13.7047 8.43164 13.527 8.58398 13.3785 8.78711C13.2301 8.99023 13.1148 9.23828 13.0328 9.53125C12.9508 9.82422 12.9098 10.1621 12.9098 10.5449V10.791C12.9098 11.0918 12.9508 11.375 13.0328 11.6406C13.1188 11.9023 13.2418 12.1328 13.402 12.332C13.566 12.5312 13.7633 12.6875 13.9938 12.8008C14.2281 12.9141 14.4938 12.9707 14.7906 12.9707C15.1734 12.9707 15.4977 12.8926 15.7633 12.7363C16.0289 12.5801 16.2613 12.3711 16.4605 12.1094L17.1168 12.6309C16.9801 12.8379 16.8063 13.0352 16.5953 13.2227C16.3844 13.4102 16.1246 13.5625 15.816 13.6797C15.5113 13.7969 15.15 13.8555 14.732 13.8555ZM22.3527 12.6543V9.39062C22.3527 9.14062 22.302 8.92383 22.2004 8.74023C22.1027 8.55273 21.9543 8.4082 21.7551 8.30664C21.5559 8.20508 21.3098 8.1543 21.0168 8.1543C20.7434 8.1543 20.5031 8.20117 20.2961 8.29492C20.093 8.38867 19.9328 8.51172 19.8156 8.66406C19.7023 8.81641 19.6457 8.98047 19.6457 9.15625H18.5617C18.5617 8.92969 18.6203 8.70508 18.7375 8.48242C18.8547 8.25977 19.0227 8.05859 19.2414 7.87891C19.4641 7.69531 19.7297 7.55078 20.0383 7.44531C20.3508 7.33594 20.6984 7.28125 21.0813 7.28125C21.5422 7.28125 21.9484 7.35938 22.3 7.51562C22.6555 7.67188 22.9328 7.9082 23.132 8.22461C23.3352 8.53711 23.4367 8.92969 23.4367 9.40234V12.3555C23.4367 12.5664 23.4543 12.791 23.4895 13.0293C23.5285 13.2676 23.5852 13.4727 23.6594 13.6445V13.7383H22.5285C22.4738 13.6133 22.4309 13.4473 22.3996 13.2402C22.3684 13.0293 22.3527 12.834 22.3527 12.6543ZM22.5402 9.89453L22.552 10.6562H21.4563C21.1477 10.6562 20.8723 10.6816 20.6301 10.7324C20.3879 10.7793 20.1848 10.8516 20.0207 10.9492C19.8566 11.0469 19.7316 11.1699 19.6457 11.3184C19.5598 11.4629 19.5168 11.6328 19.5168 11.8281C19.5168 12.0273 19.5617 12.209 19.6516 12.373C19.7414 12.5371 19.8762 12.668 20.0559 12.7656C20.2395 12.8594 20.4641 12.9062 20.7297 12.9062C21.0617 12.9062 21.3547 12.8359 21.6086 12.6953C21.8625 12.5547 22.0637 12.3828 22.2121 12.1797C22.3645 11.9766 22.4465 11.7793 22.4582 11.5879L22.9211 12.1094C22.8938 12.2734 22.8195 12.4551 22.6984 12.6543C22.5773 12.8535 22.4152 13.0449 22.2121 13.2285C22.0129 13.4082 21.7746 13.5586 21.4973 13.6797C21.2238 13.7969 20.9152 13.8555 20.5715 13.8555C20.1418 13.8555 19.7648 13.7715 19.4406 13.6035C19.1203 13.4355 18.8703 13.2109 18.6906 12.9297C18.5148 12.6445 18.427 12.3262 18.427 11.9746C18.427 11.6348 18.4934 11.3359 18.6262 11.0781C18.759 10.8164 18.9504 10.5996 19.2004 10.4277C19.4504 10.252 19.7512 10.1191 20.1027 10.0293C20.4543 9.93945 20.8469 9.89453 21.2805 9.89453H22.5402ZM26.3758 8.39453V13.7383H25.2918V7.39844H26.3465L26.3758 8.39453ZM28.3563 7.36328L28.3504 8.37109C28.2605 8.35156 28.1746 8.33984 28.0926 8.33594C28.0145 8.32812 27.9246 8.32422 27.823 8.32422C27.573 8.32422 27.3523 8.36328 27.1609 8.44141C26.9695 8.51953 26.8074 8.62891 26.6746 8.76953C26.5418 8.91016 26.4363 9.07812 26.3582 9.27344C26.284 9.46484 26.2352 9.67578 26.2117 9.90625L25.907 10.082C25.907 9.69922 25.9441 9.33984 26.0184 9.00391C26.0965 8.66797 26.2156 8.37109 26.3758 8.11328C26.5359 7.85156 26.7391 7.64844 26.9852 7.50391C27.2352 7.35547 27.532 7.28125 27.8758 7.28125C27.9539 7.28125 28.0438 7.29102 28.1453 7.31055C28.2469 7.32617 28.3172 7.34375 28.3563 7.36328ZM31.9281 12.9648C32.1859 12.9648 32.4242 12.9121 32.643 12.8066C32.8617 12.7012 33.0414 12.5566 33.182 12.373C33.3227 12.1855 33.4027 11.9727 33.4223 11.7344H34.4535C34.434 12.1094 34.307 12.459 34.0727 12.7832C33.8422 13.1035 33.5395 13.3633 33.1645 13.5625C32.7895 13.7578 32.3773 13.8555 31.9281 13.8555C31.4516 13.8555 31.0355 13.7715 30.6801 13.6035C30.3285 13.4355 30.0355 13.2051 29.8012 12.9121C29.5707 12.6191 29.3969 12.2832 29.2797 11.9043C29.1664 11.5215 29.1098 11.1172 29.1098 10.6914V10.4453C29.1098 10.0195 29.1664 9.61719 29.2797 9.23828C29.3969 8.85547 29.5707 8.51758 29.8012 8.22461C30.0355 7.93164 30.3285 7.70117 30.6801 7.5332C31.0355 7.36523 31.4516 7.28125 31.9281 7.28125C32.4242 7.28125 32.8578 7.38281 33.2289 7.58594C33.6 7.78516 33.891 8.05859 34.102 8.40625C34.3168 8.75 34.434 9.14062 34.4535 9.57812H33.4223C33.4027 9.31641 33.3285 9.08008 33.1996 8.86914C33.0746 8.6582 32.9027 8.49023 32.684 8.36523C32.4691 8.23633 32.2172 8.17188 31.9281 8.17188C31.5961 8.17188 31.3168 8.23828 31.0902 8.37109C30.8676 8.5 30.6898 8.67578 30.557 8.89844C30.4281 9.11719 30.3344 9.36133 30.2758 9.63086C30.2211 9.89648 30.1938 10.168 30.1938 10.4453V10.6914C30.1938 10.9688 30.2211 11.2422 30.2758 11.5117C30.3305 11.7812 30.4223 12.0254 30.5512 12.2441C30.684 12.4629 30.8617 12.6387 31.0844 12.7715C31.3109 12.9004 31.5922 12.9648 31.9281 12.9648ZM36.9062 4.73828V13.7383H35.8223V4.73828H36.9062ZM36.6484 10.3281L36.1973 10.3105C36.2012 9.87695 36.2656 9.47656 36.3906 9.10938C36.5156 8.73828 36.6914 8.41602 36.918 8.14258C37.1445 7.86914 37.4141 7.6582 37.7266 7.50977C38.043 7.35742 38.3926 7.28125 38.7754 7.28125C39.0879 7.28125 39.3691 7.32422 39.6191 7.41016C39.8691 7.49219 40.082 7.625 40.2578 7.80859C40.4375 7.99219 40.5742 8.23047 40.668 8.52344C40.7617 8.8125 40.8086 9.16602 40.8086 9.58398V13.7383H39.7188V9.57227C39.7188 9.24023 39.6699 8.97461 39.5723 8.77539C39.4746 8.57227 39.332 8.42578 39.1445 8.33594C38.957 8.24219 38.7266 8.19531 38.4531 8.19531C38.1836 8.19531 37.9375 8.25195 37.7148 8.36523C37.4961 8.47852 37.3066 8.63477 37.1465 8.83398C36.9902 9.0332 36.8672 9.26172 36.7773 9.51953C36.6914 9.77344 36.6484 10.043 36.6484 10.3281Z" fill="black" fill-opacity="0.6"/>
<path d="M108.5 8.48828L111 10.9883L113.5 8.48828" stroke="#344054" stroke-width="1.2" stroke-linecap="round" stroke-linejoin="round"/>
<line y1="18.2383" x2="120" y2="18.2383" stroke="#98A2B3"/>
</svg>
