<svg width="20" height="21" viewBox="0 0 20 21" fill="none" xmlns="http://www.w3.org/2000/svg">
<path d="M7.15833 11.3778L12.85 14.6945M12.8417 5.54447L7.15833 8.86113M17.5 4.28613C17.5 5.66684 16.3807 6.78613 15 6.78613C13.6193 6.78613 12.5 5.66684 12.5 4.28613C12.5 2.90542 13.6193 1.78613 15 1.78613C16.3807 1.78613 17.5 2.90542 17.5 4.28613ZM7.5 10.1195C7.5 11.5002 6.38071 12.6195 5 12.6195C3.61929 12.6195 2.5 11.5002 2.5 10.1195C2.5 8.73875 3.61929 7.61947 5 7.61947C6.38071 7.61947 7.5 8.73875 7.5 10.1195ZM17.5 15.9528C17.5 17.3335 16.3807 18.4528 15 18.4528C13.6193 18.4528 12.5 17.3335 12.5 15.9528C12.5 14.5721 13.6193 13.4528 15 13.4528C16.3807 13.4528 17.5 14.5721 17.5 15.9528Z" stroke="#333333" stroke-width="1.4" stroke-linecap="round" stroke-linejoin="round"/>
</svg>
