<svg width="779" height="779" viewBox="0 0 779 779" fill="none" xmlns="http://www.w3.org/2000/svg">
<rect x="3" y="3" width="773" height="773" rx="386.5" fill="white"/>
<rect x="3" y="3" width="773" height="773" rx="386.5" stroke="black" stroke-width="6"/>
<path d="M573.5 217.275C571.85 217.875 569 220.65 569 221.55C568.925 222 568.325 223.725 567.5 225.375C565.925 228.675 565.55 235.125 566.825 237.9C567.2 238.875 568.925 240.6 570.575 241.725C572.225 242.925 573.5 244.5 573.5 245.25C573.5 247.05 569.45 251.775 567.275 252.45C566.375 252.75 564.575 254.175 563.225 255.675C559.925 259.575 553.625 261.975 540.125 264.375C530.225 266.175 522.2 268.275 517.475 270.375C515.225 271.425 512.75 272.25 512.075 272.25C511.4 272.25 509.675 273.075 508.25 274.05C506.825 275.025 503.225 276.75 500.375 277.875C490.325 281.85 478.25 288.6 478.25 290.25C478.25 290.625 477.5 291.15 476.6 291.45C470.3 293.4 444.2 317.625 410.975 352.125C408.125 355.05 401 361.35 395 366.15C389 370.95 382.85 376.5 381.35 378.45C377.375 383.7 341.3 420.075 332.375 427.725C328.25 431.325 320 438.675 314 444.075C305.6 451.65 299.6 456.225 287.75 464.025C279.275 469.65 270.5 475.425 268.25 477C254.45 486.3 224.225 503.25 221.45 503.25C220.925 503.25 219.575 503.925 218.525 504.75C217.475 505.575 209.3 509.925 200.3 514.5C173.675 527.85 178.85 523.575 126.275 575.775C123.05 579 120.05 582.225 119.675 582.9C118.775 584.55 118.85 592.2 119.825 595.725C121.325 601.275 128.9 603.225 154.025 604.5C162.65 604.95 171.35 605.625 173.375 606.075C203.75 611.925 204.05 612 224.375 612C244.925 612 256.775 611.1 263.75 609.15C292.925 600.75 339.275 584.85 348.875 579.9C354.425 577.125 394.175 550.875 399.425 546.6C413.225 535.35 462.5 489.15 470.975 479.55C473.075 477.075 480.725 469.05 487.925 461.625C495.125 454.2 502.325 446.4 503.9 444.375C507.125 440.25 509.375 437.475 512.75 433.5C513.95 432.075 517.325 427.8 520.175 424.125C523.025 420.375 526.4 416.325 527.675 415.125C528.95 413.85 530 412.575 530 412.125C530 411.75 530.825 410.55 531.875 409.5C534.725 406.575 538.925 401.325 544.25 393.75C546.95 390 550.025 385.875 551.15 384.6C555.35 379.875 560.525 363.6 567.8 332.25C571.325 317.025 572.375 309.975 573.125 295.5C573.95 281.025 575.825 274.275 581.075 267.675C586.55 260.7 597.425 260.475 607.1 267.15C609.05 268.425 612.35 270.675 614.375 272.1C617.975 274.575 618.35 274.65 623.225 274.275C628.925 273.75 635.75 271.05 638.75 268.05C640.85 265.875 647.375 261.375 649.7 260.325C650.6 259.95 652.025 258.45 652.925 257.025C654.275 254.775 654.5 253.275 654.5 245.85C654.5 235.8 654.5 235.8 645.875 231.525C640.175 228.675 635.3 227.325 622.25 225C615.65 223.8 612.125 222.675 607.25 220.275L600.95 217.125L587.75 216.975C580.55 216.9 574.1 216.975 573.5 217.275ZM610.625 229.5C617.225 230.775 625.025 232.575 627.875 233.625C630.8 234.6 634.325 235.575 635.75 235.8C639.5 236.4 644 240.3 644 242.925C644 244.05 643.55 245.475 643.1 246.15C641.975 247.5 633.5 251.325 627.5 253.125C625.25 253.8 622.625 255.075 621.725 255.9C620.3 257.175 619.85 257.325 618.875 256.5C617.3 255.225 617.45 253.05 619.325 251.325C622.7 248.25 618.5 244.8 611 244.35L606.875 244.125L607.1 247.95L607.25 251.85L603.875 252.3C599.15 253.05 597.95 252.45 596.375 248.775C593.825 242.7 593.3 241.95 587.975 237.15C582.05 231.825 581.225 229.8 584.225 227.625C586.55 225.9 595.325 226.5 610.625 229.5ZM550.25 270.75C548.3 273.525 545.15 275.775 542.3 276.45C539.225 277.2 520.475 287.1 517.7 289.5C516.425 290.55 511.7 294.15 507.2 297.45C502.7 300.675 497.45 305.175 495.575 307.35C493.7 309.6 485.375 318.675 477.2 327.6C469.025 336.6 458.45 348.3 453.8 353.775C449.15 359.175 444.95 363.825 444.5 364.125C444.05 364.425 442.925 365.85 441.95 367.35C440.15 370.125 433.85 377.625 429.2 382.5C427.85 383.925 426.275 385.875 425.825 386.85C424.925 388.5 417.875 397.425 414.125 401.475C413.075 402.6 412.25 403.875 412.25 404.25C412.25 404.625 411.275 405.45 410 406.125C408.8 406.8 407.75 407.7 407.75 408.225C407.75 409.875 401.225 417.45 386.6 432.9C378.65 441.3 369.95 450.6 367.25 453.675C359.6 462.45 332.825 487.575 329.825 488.775C328.4 489.375 326.3 490.575 325.25 491.4C324.2 492.15 318.8 495.6 313.175 498.975C302.075 505.65 295.325 510.525 285.65 518.85C282.275 521.85 279.2 524.25 278.825 524.25C278.525 524.25 274.85 526.725 270.725 529.8C261.725 536.4 249.95 544.35 248.15 545.025C247.475 545.325 245.675 546.375 244.175 547.5C241.775 549.225 229.55 555.15 198.125 569.925C191.975 572.775 184.7 575.7 182 576.3C166.775 579.825 161.375 582.225 159.2 586.425C157.625 589.35 151.55 591.9 144.8 592.35C141.275 592.575 139.25 592.425 138.95 591.825C138.65 591.375 137.3 587.775 135.875 583.8L133.4 576.6L148.1 561.525C176.675 532.2 173.375 534.675 206.75 517.5C251.075 494.625 251.825 494.175 286.25 471.45C302.3 460.8 312.05 453.15 325.625 440.625C341.9 425.475 364.475 403.5 378.725 388.875C387.05 380.325 396.5 371.475 400.625 368.25C410.45 360.75 416.3 355.125 420.875 349.05C422.975 346.275 426.275 342.45 428.375 340.575C430.4 338.7 438.35 331.2 446 324C467.225 303.975 468.725 302.625 478.1 296.475C496.925 284.25 515.15 276.225 532.625 272.625C539.225 271.275 545.825 269.775 547.25 269.4C551.6 268.125 551.975 268.275 550.25 270.75ZM566.9 276.525C568.625 278.1 568.625 280.95 566.75 285.15C565.7 287.55 565.1 291.525 564.5 298.95C563.375 314.475 562.925 318.075 561.725 321C561.125 322.425 560.15 327.975 559.55 333.375C558.8 340.875 558.125 343.95 556.625 346.8C555.575 348.825 554.75 351 554.75 351.525C554.75 352.725 551.9 359.25 548.975 364.875C547.925 366.9 546.425 369.975 545.6 371.625C543.35 376.35 542.375 377.925 532.625 392.775C530.6 396 527.9 400.275 526.625 402.45C517.85 417.75 508.925 430.725 501.575 438.75C499.85 440.55 498.35 442.65 498.125 443.325C497.9 444.075 497.225 444.825 496.625 445.05C496.025 445.275 494.9 446.4 494.225 447.6C493.475 448.8 487.475 454.65 480.875 460.65C474.275 466.65 467.45 473.55 465.725 475.95C462.425 480.675 451.25 491.925 448.4 493.425C447.5 493.875 446.3 495.45 445.7 496.8C445.025 498.375 442.55 500.925 438.8 503.85C435.5 506.325 431.525 510.075 429.875 512.25C426.5 516.6 415.775 525.45 410.825 528C408.95 528.9 405.425 531.75 402.875 534.3C398.375 538.725 387.875 546.975 382.4 550.275C380.9 551.175 379.325 552.45 378.8 553.05C377.6 554.7 371.15 559.05 367.25 560.775C365.375 561.6 361.175 564.075 357.8 566.325C354.5 568.575 350.75 570.975 349.55 571.65C348.35 572.4 345.5 574.125 343.25 575.55C341 576.975 338.15 578.4 336.95 578.7C335.75 578.925 332.45 580.125 329.675 581.325C320.525 585.225 316.625 583.65 321.95 578.175C325.1 574.95 335.975 568.8 342.125 566.7C344.225 566.025 347.375 564.3 349.25 562.875C355.85 557.85 360.95 554.475 368.075 550.575C372.05 548.4 377.9 544.275 381.2 541.35C384.425 538.5 389.45 534.525 392.375 532.65C395.225 530.7 399.275 527.325 401.375 525.075C404.975 521.175 406.475 519.75 418.775 508.125C421.85 505.275 425.45 501.225 426.875 499.05C428.3 496.95 432.425 491.925 436.025 487.875C439.625 483.825 443.825 479.025 445.25 477.225C446.675 475.425 450.275 471.15 453.125 467.7C456.05 464.25 459.725 459 461.375 456C463.1 452.775 466.85 447.825 470.3 444.225C473.525 440.775 477.275 436.275 478.55 434.25C482 428.925 489.05 419.7 494.225 414.075C496.7 411.375 499.25 407.925 499.85 406.5C500.45 405.075 502.025 402.45 503.45 400.725C504.875 399 506.675 396.15 507.425 394.275C508.25 392.475 510.05 389.25 511.55 387.15C513.05 385.125 514.925 381.45 515.75 379.125C516.575 376.725 517.55 374.4 517.925 373.95C518.225 373.5 521 367.05 524 359.625C527 352.2 530.45 344.175 531.575 341.85C533.075 338.85 533.75 336.45 533.75 333.825C533.75 330.825 534.125 329.7 535.55 328.35C536.525 327.375 538.175 324.525 539.225 321.9C540.275 319.275 542.825 314.175 544.925 310.575C547.025 306.9 548.75 303.525 548.75 303C548.75 302.475 549.575 300.975 550.55 299.7C552.8 296.7 556.25 289.725 558.8 282.9C561.725 275.25 563.75 273.675 566.9 276.525ZM551.75 280.875C551.75 282.525 536.6 313.35 533.6 317.7C531.05 321.375 530.075 323.925 524.9 339.375C521.375 349.95 515.15 366.75 514.4 367.725C514.025 368.25 512.3 371.85 510.5 375.75C508.775 379.65 506.525 383.85 505.625 385.125C504.725 386.325 503.15 389.1 502.1 391.2C498.5 398.325 479.825 425.7 477.5 427.125C476.6 427.725 461.975 444.15 459.5 447.45C458.45 448.8 455.15 453.075 452.075 456.9C449 460.725 444.425 467.1 441.875 471C437.9 477.075 425.45 492 418.475 498.975C409.55 507.975 388.475 527.325 383.825 530.775C380.675 533.175 376.25 536.625 373.925 538.5C370.025 541.65 365 545.1 353.375 552.825C350.9 554.475 347.225 556.95 345.2 558.375C343.175 559.875 340.7 561 339.5 561C338.375 561 336.2 561.825 334.7 562.875C333.2 563.925 330.875 565.275 329.525 565.95C326.3 567.675 314.075 575.625 311.75 577.65C309.5 579.6 303.725 582.15 296.975 584.325C291.05 586.2 289.175 586.95 279.5 591.525C270.05 596.025 264.95 598.275 255.5 602.4C253.25 603.375 250.925 603.45 241.775 603C230.525 602.4 228.5 601.875 228.5 599.175C228.5 597.6 229.4 597.3 236.075 596.325C238.85 595.95 242.075 595.125 243.35 594.45C244.625 593.775 246.2 593.25 246.875 593.25C248.3 593.25 256.775 589.35 258.875 587.775C261.2 585.975 259.55 585.3 256.55 586.8C255.05 587.475 247.85 589.5 240.575 591.3C229.025 594.15 225.875 594.6 215.75 595.05C208.175 595.425 203 596.025 200.975 596.775C197.3 598.125 182.6 597.9 180.125 596.4C179.3 595.95 177.275 595.2 175.625 594.75C170.975 593.625 167.75 591.3 167.75 589.2C167.75 586.8 170.675 584.55 174.65 583.875C176.3 583.575 180.65 582.375 184.175 581.1C187.7 579.9 193.55 578.1 197.225 577.125C200.825 576.15 205.7 574.2 208.1 572.775C210.425 571.425 218.3 567.3 225.5 563.625C232.7 560.025 240.95 555.675 243.8 553.95C246.575 552.225 250.475 550.05 252.425 549.15C254.3 548.175 256.7 546.6 257.75 545.7C258.8 544.725 262.325 542.325 265.55 540.3C272.75 535.875 284.6 527.4 289.25 523.35C296.9 516.675 309.425 507.6 314.45 505.2C317.375 503.775 321.2 501.375 323.075 499.8C324.875 498.3 329.6 494.7 333.5 491.775C337.4 488.85 343.7 483.525 347.375 480C351.125 476.4 356 472.275 358.25 470.775C360.5 469.35 364.625 465.825 367.325 462.975C372.425 457.725 381.5 447.3 382.7 445.425C383.075 444.825 384.275 443.775 385.4 443.025C386.525 442.35 388.475 440.25 389.75 438.375C391.1 436.425 393.65 433.5 395.525 431.775C397.4 430.05 400.325 426.825 401.9 424.65C403.55 422.4 408.125 416.85 412.175 412.275C416.15 407.625 423.575 398.7 428.675 392.4C433.775 386.1 440.825 377.775 444.35 373.8C447.95 369.825 452.375 364.575 454.25 362.025C456.125 359.55 460.325 354.6 463.625 351.075C466.925 347.55 476 337.35 483.875 328.5C499.55 310.65 506.3 303.75 507.95 303.75C508.55 303.75 509.225 303.225 509.45 302.625C510.275 300.6 523.325 292.5 536.225 286.05C548.825 279.75 551.75 278.775 551.75 280.875Z" fill="black"/>
</svg>
