<svg width="484" height="484" viewBox="0 0 484 484" fill="none" xmlns="http://www.w3.org/2000/svg">
<g clip-path="url(#clip0_1179_1609)">
<path d="M484 0H0V161.049H484V0Z" fill="#FF6600"/>
<path d="M484 161.475H0V322.524H484V161.475Z" fill="white"/>
<path d="M484 322.949H0V483.999H484V322.949Z" fill="#006600"/>
<path fill-rule="evenodd" clip-rule="evenodd" d="M302.795 308.959L307.608 304.292L234.225 266.989C267.708 242.037 338.61 203.38 359.475 188.113C371.409 179.38 369.035 186.083 369.429 170C337.303 184.115 251.115 250.151 221.552 257.451L209.391 244.113C187.423 215.185 150.815 153.011 123 177.948C127.458 206.574 148.948 161.371 166.312 221.536C170.085 234.6 174.073 247.903 177.852 260.546C181.371 272.315 180.537 268.897 181.379 278.422C182.692 293.281 179.484 288.463 184.037 293.05L302.795 308.959Z" fill="#010101"/>
</g>
<defs>
<clipPath id="clip0_1179_1609">
<rect width="484" height="484" rx="242" fill="white"/>
</clipPath>
</defs>
</svg>
