<svg width="600" height="600" viewBox="0 0 600 600" fill="none" xmlns="http://www.w3.org/2000/svg">
<rect width="600" height="600" rx="300" fill="#22409A"/>
<g clip-path="url(#clip0_1179_1513)">
<path d="M117.287 284.416C121.22 286.07 125.22 287.572 129.305 288.805C129.17 291.066 129.018 293.328 128.85 295.608C125.22 312.267 124.381 329.503 126.402 346.348C127.552 355.93 132.715 364.494 136.935 373.07C139.518 378.995 143.722 384.366 149.359 387.3C156.778 391.162 164.086 391.027 173.931 389.68C174.918 389.545 177.087 388.218 177.953 387.722C184.246 384.112 190.174 378.826 192.42 371.533C193.129 369.828 193.854 368.14 194.597 366.469C195.728 358.604 194.597 350.737 193.044 343.023C191.93 344.222 190.833 345.436 189.719 346.635C187.086 348.964 183.811 349.201 180.705 347.598C179.422 347.497 178.139 347.411 176.873 347.328C176.772 350.974 177.895 354.879 176.536 358.283C175.313 361.347 172.912 364.365 169.835 365.643C165.734 367.346 162.171 366.293 160.45 364.68C148.798 353.764 157.193 334.819 158.12 319.998C158.475 319.981 159.167 319.915 159.521 319.881C159.436 314.53 158.779 308.926 160.922 303.862C162.543 299.896 163.369 295.692 163.674 291.421C167.657 290.341 171.709 289.446 175.726 288.467C176.974 288.198 179.457 287.641 180.689 287.354C183.727 286.492 186.85 285.953 189.973 285.445C190.023 287.219 190.074 289.008 190.125 290.78C196.033 290.021 199.426 284.821 204.186 281.901C209.013 278.929 214.516 277.377 219.547 274.794C222.702 274.558 225.859 274.372 229.016 274.219C231.211 278.103 233.759 281.849 235.127 286.121C234.148 295.725 231.665 305.228 227.75 314.057C226.872 317.095 225.978 320.133 225.167 323.189C223.834 326.295 222.501 329.417 221.149 332.523C220.525 334.903 219.917 337.284 219.174 339.631C218.567 350.89 217.486 362.098 217.284 373.374C217.437 381.679 213.233 389.089 210.886 396.853C210.296 400.837 209.468 404.803 208.254 408.652C205.788 410.239 203.156 411.69 201.08 413.816C199.392 417.092 198.936 420.855 198.007 424.401C204.725 426.089 211.612 427.135 218.162 429.465C226.4 429.87 234.687 430.309 242.908 429.43C247.009 428.908 249.828 425.684 252.63 422.965C252.732 418.171 252.682 413.394 252.9 408.6C253.559 398.169 257.745 388.479 259.754 378.318C260.834 373.339 263.062 368.713 265.307 364.171C270.473 375.532 269.898 388.159 269.342 400.33C268.733 408.854 261.981 416.653 265.003 425.43C275.89 432.739 289.884 431.322 302.36 430.949C308.079 429.481 314.376 426.392 315.929 420.145C318.31 410.93 311.439 402.708 311.861 393.577C311.996 385.711 311.406 377.793 312.586 369.996C315.053 356.677 317.839 343.324 316.691 329.685C321.026 331.103 325.348 332.59 329.671 334.057C331.781 334.851 333.891 335.645 336.017 336.437C343.814 339.899 352.41 341.704 359.449 346.735C361.219 346.903 362.976 347.073 364.746 347.257C369.236 349.654 373.845 351.916 377.66 355.362C377.459 363.615 378.287 371.937 376.935 380.124C374.756 389.644 369.847 398.219 364.882 406.524C362.014 410.509 358.822 414.307 356.814 418.862C363.886 433.97 383.872 436.216 398.17 431.86C401.681 429.92 404.431 426.88 407.385 424.229C408.552 418.018 409.9 411.791 409.547 405.426C409.039 394.554 411.723 383.887 414.898 373.573C416.147 373.725 417.397 373.895 418.663 374.081C421.667 377.49 425.481 380.19 428.198 383.853C433.127 394.657 430.832 407.485 425.432 417.648C423.863 422.02 424.502 426.797 424.453 431.354C429.972 437.598 438.784 435.964 446.058 438.004C451.122 438.106 456.103 437.177 461.082 436.299C465.487 434.611 469.726 432.434 473.353 429.363C476.9 417.512 473.676 405.477 473.336 393.458C471.681 382.756 469.505 372.155 467.563 361.521C466.702 352.981 465.083 344.506 464.879 335.896C463.9 330.496 463.883 324.994 464.948 319.592C465.218 313.666 465.37 307.724 466.043 301.833C471.074 308.823 473.675 317.447 473.405 326.039C473.319 329.972 474.081 333.856 475.024 337.67C473.033 342.177 473.319 347.157 473.336 351.951C474.991 352.83 476.646 353.706 478.301 354.583C479.211 359.715 479.699 365.825 484.529 368.966C489.593 369.775 492.244 364.611 495.112 361.454C497.525 352.119 492.985 343.021 489.441 334.631C485.963 327.407 484.258 319.558 482.063 311.912C479.735 304.247 479.735 296.044 476.847 288.516C472.037 279.856 471.783 269.695 469.099 260.343C467.546 252.798 463.715 246.046 459.663 239.598C455.41 232.693 448.203 228.54 442.447 223.072C430.512 212.033 416.231 204.1 402.743 195.186C390.844 188.316 377.881 183.354 364.746 179.353C361.997 178.61 359.227 177.918 356.495 177.158C340.811 174.997 324.997 172.533 309.129 174.035C299.963 175.048 290.661 174.271 281.596 176.078C276.026 176.837 270.304 176.922 264.734 175.993C258.184 174.575 251.298 174.879 244.968 172.398C242.723 171.655 240.46 170.963 238.198 170.22C229.809 168.262 221.301 168.616 213.013 170.929C202.75 170.406 192.504 166.27 182.275 168.768C172.129 172.161 168.719 183.606 166.12 192.856C157.663 205.6 154.001 220.623 148.565 234.752C145.696 242.399 142.437 249.911 138.91 257.271C137.02 258.992 135.675 261.434 133.447 262.565C128.401 264.118 123.357 264.908 117.474 264.956C115.821 264.97 113.507 265.196 112.022 265.938C112.883 267.256 113.704 267.658 115.035 268.495C116.995 269.728 119.413 269.761 121.709 270.098C125.473 270.841 129.305 271.01 133.119 271.196C132.984 273.373 132.638 276.581 132.52 278.741C127.541 279.551 122.815 279.66 117.775 280.04C116.521 280.135 111.333 279.531 111.256 280.211C111.17 280.988 116.231 283.754 117.287 284.416Z" fill="white"/>
<path d="M88 88V512H512V88H88ZM117.917 280.954C122.981 280.571 127.728 280.462 132.732 279.648C132.851 277.477 133.198 274.255 133.334 272.068C129.501 271.88 125.651 271.711 121.869 270.964C119.562 270.626 117.133 270.593 115.164 269.354C113.827 268.513 113.001 268.108 112.137 266.785C113.629 266.039 115.953 265.812 117.615 265.798C123.525 265.75 128.592 264.956 133.663 263.396C135.902 262.259 137.252 259.806 139.152 258.077C142.697 250.681 145.97 243.134 148.852 235.451C154.313 221.256 157.994 206.161 166.491 193.356C169.103 184.062 172.528 172.563 182.722 169.154C193 166.644 203.295 170.799 213.606 171.325C221.934 169.002 230.481 168.646 238.911 170.613C241.183 171.359 243.456 172.055 245.712 172.801C252.072 175.293 258.991 174.989 265.573 176.413C271.169 177.347 276.919 177.261 282.515 176.499C291.622 174.683 300.968 175.464 310.177 174.446C326.12 172.937 342.01 175.414 357.768 177.584C360.514 178.347 363.297 179.043 366.059 179.789C379.255 183.809 392.28 188.795 404.236 195.698C417.787 204.653 432.136 212.624 444.128 223.716C449.911 229.21 457.152 233.382 461.425 240.319C465.497 246.798 469.346 253.582 470.906 261.163C473.603 270.559 473.857 280.769 478.691 289.47C481.592 297.034 481.592 305.275 483.931 312.977C486.138 320.659 487.85 328.545 491.344 335.803C494.905 344.233 499.467 353.375 497.042 362.754C494.161 365.925 491.497 371.114 486.409 370.301C481.556 367.145 481.066 361.006 480.152 355.85C478.489 354.969 476.826 354.088 475.163 353.205C475.146 348.389 474.859 343.385 476.859 338.857C475.912 335.024 475.146 331.122 475.233 327.171C475.504 318.538 472.89 309.873 467.835 302.85C467.16 308.769 467.007 314.739 466.736 320.693C465.665 326.12 465.682 331.649 466.666 337.075C466.871 345.725 468.498 354.24 469.363 362.821C471.314 373.505 473.5 384.156 475.163 394.909C475.504 406.985 478.744 419.077 475.18 430.984C471.536 434.07 467.277 436.257 462.851 437.953C457.849 438.835 452.844 439.769 447.756 439.666C440.448 437.616 431.594 439.259 426.049 432.985C426.099 428.406 425.456 423.605 427.032 419.214C432.458 409.003 434.763 396.114 429.811 385.259C427.081 381.578 423.249 378.866 420.231 375.441C418.959 375.253 417.704 375.083 416.448 374.93C413.258 385.294 410.562 396.011 411.072 406.934C411.427 413.328 410.071 419.586 408.9 425.826C405.932 428.49 403.169 431.543 399.641 433.493C385.275 437.869 365.195 435.613 358.089 420.434C360.107 415.856 363.313 412.04 366.195 408.037C371.184 399.693 376.116 391.077 378.305 381.512C379.664 373.286 378.832 364.925 379.034 356.632C375.201 353.17 370.571 350.898 366.059 348.489C364.28 348.304 362.514 348.133 360.736 347.965C353.663 342.91 345.028 341.096 337.194 337.618C335.057 336.822 332.937 336.025 330.817 335.227C326.474 333.753 322.131 332.259 317.775 330.834C318.928 344.538 316.129 357.953 313.652 371.336C312.466 379.17 313.059 387.125 312.923 395.029C312.499 404.202 319.403 412.464 317.01 421.723C315.45 427.998 309.123 431.102 303.376 432.578C290.842 432.952 276.782 434.377 265.842 427.033C262.806 418.214 269.59 410.377 270.202 401.813C270.761 389.585 271.338 376.898 266.148 365.483C263.893 370.046 261.654 374.694 260.569 379.698C258.55 389.907 254.344 399.643 253.683 410.123C253.462 414.94 253.513 419.739 253.411 424.556C250.597 427.287 247.765 430.527 243.642 431.052C235.383 431.934 227.056 431.493 218.779 431.086C212.199 428.746 205.279 427.694 198.529 425.998C199.463 422.436 199.921 418.655 201.617 415.364C203.703 413.227 206.347 411.77 208.824 410.175C210.045 406.307 210.877 402.322 211.469 398.32C213.827 390.519 218.051 383.073 217.897 374.73C218.101 363.4 219.187 352.138 219.797 340.827C220.543 338.469 221.154 336.076 221.781 333.685C223.139 330.564 224.479 327.428 225.818 324.307C226.632 321.236 227.531 318.184 228.413 315.132C232.348 306.261 234.841 296.713 235.825 287.063C234.451 282.771 231.889 279.007 229.685 275.105C226.514 275.259 223.342 275.444 220.171 275.683C215.117 278.278 209.588 279.837 204.737 282.823C199.954 285.757 196.545 290.981 190.609 291.744C190.559 289.963 190.508 288.165 190.457 286.385C187.319 286.894 184.182 287.436 181.129 288.302C179.891 288.59 177.398 289.15 176.143 289.42C172.105 290.404 168.035 291.304 164.033 292.388C163.728 296.68 162.897 300.903 161.269 304.888C159.115 309.976 159.775 315.607 159.861 320.983C159.505 321.018 158.81 321.084 158.453 321.101C157.521 335.993 149.086 355.028 160.794 365.995C162.523 367.614 166.103 368.673 170.224 366.962C173.315 365.678 175.727 362.646 176.957 359.567C178.322 356.147 177.193 352.223 177.295 348.56C178.567 348.645 179.857 348.73 181.145 348.831C184.266 350.442 187.557 350.204 190.202 347.864C191.321 346.659 192.423 345.439 193.543 344.235C195.103 351.987 196.239 359.89 195.103 367.792C194.357 369.471 193.628 371.167 192.915 372.88C190.66 380.207 187.31 382.254 182.352 386.755C180.7 388.256 177.11 390.45 174.34 391.113C164.629 393.435 157.105 392.602 149.651 388.722C143.987 385.774 139.764 380.378 137.169 374.424C132.929 365.808 127.741 357.202 126.586 347.576C124.555 330.651 125.398 313.333 129.045 296.595C129.214 294.306 129.367 292.032 129.503 289.76C125.398 288.521 121.379 287.012 117.427 285.35C116.366 284.685 111.282 281.906 111.369 281.129C111.445 280.443 116.657 281.049 117.917 280.954Z" fill="#22409A"/>
<path d="M157.022 278.44C163.707 276.77 169.918 273.781 176.416 271.554C181.599 270.963 186.781 272.735 191.98 272.988C191.879 274.456 191.777 275.925 191.693 277.394C186.155 277.275 180.788 278.575 175.538 280.213C175.099 280.787 174.221 281.952 173.782 282.526C170.305 282.779 166.811 283.201 163.688 284.838C157.662 288.653 150.454 288.281 143.652 287.792C141.457 286.897 139.169 286.469 136.889 285.81C135.354 285.367 132.342 284.213 130.789 283.892C136.697 282.272 142.926 282.188 148.8 280.364C151.552 279.723 154.304 279.115 157.022 278.44Z" fill="#22409A" stroke="#22409A" stroke-width="0.1875"/>
<path d="M131.027 337.757C130.301 321.603 132.057 305.533 134.454 289.598C138.471 290.323 142.472 291.083 146.506 291.775C147.619 292.67 148.734 293.582 149.864 294.475C148.581 302.055 147.467 309.651 147.18 317.349C149.746 317.095 152.295 316.842 154.861 316.605C154.692 318.631 154.506 320.673 154.337 322.716C153.206 321.804 150.961 319.981 149.848 319.071C147.147 322.835 145.172 327.02 143.805 331.443C146.725 331.629 149.662 331.813 152.582 331.984C150.017 342.466 148.982 354.443 155.283 363.312C155.546 363.683 156.295 364.215 156.566 364.578C160.393 369.687 166.283 371.178 171.353 369.525C177.363 367.565 179.035 359.801 180.536 353.724C183.625 356.476 187.019 358.247 190.596 354.871C190.428 358.906 192.659 363.791 190.158 366.957C188.291 369.32 183.644 367.282 181.414 369.321C179.849 370.752 183.518 374.624 181.966 376.085C176.762 380.979 178.449 385.227 164.242 384.805C161.222 384.717 153.551 383.961 150.738 381.711C139.39 372.636 129.406 353.844 131.027 337.757Z" fill="#22409A" stroke="#22409A" stroke-width="0.1875"/>
<path d="M239.43 293.514C242.469 298.713 245.372 304.012 248.748 309.026C252.394 313.668 256.884 317.535 261.02 321.72C261.577 331.629 263.096 341.454 264.008 351.295C260.598 362.537 256.26 373.526 253.373 384.936C252.107 388.802 250.892 392.7 249.609 396.565C246.199 405.141 248.292 414.525 245.828 423.305C244.933 423.253 243.144 423.135 242.249 423.084C238.959 417.581 233.996 413.497 228.054 411.133C225.859 412.179 223.665 413.21 221.488 414.289C220.897 414.357 219.715 414.476 219.125 414.525C217.216 413.345 215.309 412.179 213.402 411.014C214.381 406.306 215.411 401.613 216.458 396.92C217.622 389.443 221.235 382.572 221.994 375.011C222.991 361.388 222.957 347.563 225.927 334.194C232.138 321.282 235.649 307.272 239.43 293.514Z" fill="#22409A" stroke="#22409A" stroke-width="0.1875"/>
<path d="M391.906 303C393.258 305.515 395.334 306.966 398.12 307.338C397.19 309.33 396.277 311.305 395.4 313.315C392.733 313.348 390.066 313.399 387.415 313.45C387.534 312.774 387.771 311.457 387.889 310.783C389.39 308.268 390.709 305.668 391.906 303Z" fill="#22409A" stroke="#22409A" stroke-width="0.1875"/>
<path d="M477.1 319.61C477.809 319.762 479.21 320.084 479.902 320.235C480.947 331.864 489.489 341.302 489.575 353.049C490.924 356.24 489.895 359.498 488.85 362.587C487.212 362.485 485.573 362.384 483.938 362.284C483.938 359.531 483.919 356.781 483.938 354.045C482.062 352.189 480.19 350.349 478.3 348.526C479.362 342.382 480.78 336.203 478.755 330.077L477.133 330.177C477.133 326.649 477.133 323.138 477.1 319.61Z" fill="#22409A" stroke="#22409A" stroke-width="0.1875"/>
<path d="M191.373 351.834C192.166 352.611 192.166 352.611 191.373 351.834Z" fill="#22409A" stroke="#22409A" stroke-width="0.1875"/>
<path d="M205.485 414.932C207.341 414.78 209.215 414.629 211.072 414.493C213.216 416.349 215.207 418.477 217.772 419.776C222.448 419.135 227.023 417.734 231.8 417.92C233.589 419.354 235.412 420.79 237.252 422.192C237.184 423.475 237.134 424.757 237.066 426.04C234.619 426.04 232.188 426.04 229.74 426.023C221.351 424.892 213.231 422.63 204.96 420.907C205.13 418.915 205.299 416.923 205.485 414.932Z" fill="#22409A" stroke="#22409A" stroke-width="0.1875"/>
<path d="M362.571 415.826C366.504 415.742 370.302 416.705 373.813 418.443C373.895 420.62 373.965 422.798 374.067 424.994C375.333 424.908 377.898 424.757 379.18 424.689C379.332 422.647 379.483 420.621 379.652 418.579C381.122 418.427 382.589 418.276 384.06 418.124C385.039 418.765 386.995 420.031 387.974 420.673C387.216 423.795 386.81 427.373 384.328 429.703C380.853 430.006 377.493 428.793 374.167 428.015V427.121C369.828 425.786 366.066 423.237 362.519 420.504C362.538 419.337 362.554 416.992 362.571 415.826Z" fill="#22409A" stroke="#22409A" stroke-width="0.1875"/>
<path d="M304.047 184.891C306.546 184.909 309.042 184.959 311.541 185.026C311.541 186.647 311.541 188.25 311.541 189.871C310.074 189.819 308.604 189.77 307.153 189.718C306.105 188.115 305.076 186.495 304.047 184.891Z" fill="#F6F8FB" stroke="#F6F8FB" stroke-width="0.1875"/>
<path d="M320.101 185.229C320.978 185.128 322.715 184.925 323.596 184.824L323.477 187.001C324.71 186.967 327.172 186.917 328.406 186.9C328.455 187.71 328.541 189.332 328.59 190.141C325.89 189.939 323.19 189.754 320.49 189.585C320.354 188.132 320.236 186.681 320.101 185.229Z" fill="#F6F8FB" stroke="#F6F8FB" stroke-width="0.1875"/>
<path d="M255.939 191.019C258.488 189.551 261.036 188.116 263.568 186.631C268.733 186.631 273.865 187.389 278.879 188.572C283.824 191.104 288.686 193.805 293.261 196.944C293.159 199.729 293.024 202.532 292.889 205.317C291.539 205.368 288.856 205.486 287.522 205.553C284.18 201.519 280.229 197.838 275.402 195.678C269.781 194.463 263.958 195.273 258.252 195.155C257.492 193.77 256.715 192.403 255.939 191.019Z" fill="#F6F8FB" stroke="#F6F8FB" stroke-width="0.1875"/>
<path d="M246.976 220.07C249.524 218.786 252.056 217.503 254.605 216.22C254.504 219.495 254.403 222.787 254.301 226.062C252.225 226.028 250.166 225.977 248.107 225.926C243.076 228.391 238.637 231.868 234.957 236.088C233.251 235.396 228.187 237.017 230.45 233.337C230.416 229.961 234.636 229.708 236.78 228.12C238.536 225.369 238.941 220.289 243.228 220.592C244.156 220.474 246.046 220.204 246.976 220.07Z" fill="#F6F8FB" stroke="#F6F8FB" stroke-width="0.1875"/>
<path d="M417.311 219.732C417.7 219.411 418.491 218.753 418.88 218.432C419.487 219.175 420.687 220.643 421.293 221.386C421.243 222.095 421.158 223.53 421.108 224.255C419.74 225.824 418.375 227.411 417.04 229.016C413.443 228.425 409.883 227.682 406.322 226.956C406.372 228.274 406.507 230.907 406.559 232.241C404.601 231.397 402.626 230.585 400.651 229.776C401.021 229.506 401.798 228.965 402.184 228.678C403.011 227.361 403.72 224.728 405.814 225.877C410.457 226.551 413.48 221.605 417.311 219.732Z" fill="#F6F8FB" stroke="#F6F8FB" stroke-width="0.1875"/>
<path d="M392.868 241.22C395.011 238.198 397.563 235.396 401.377 234.654C401.14 236.291 400.903 237.928 400.652 239.55C396.719 245.458 397.461 252.851 395.974 259.502C394.187 259.45 390.623 259.367 388.853 259.316C389.02 255.5 390.336 251.956 392.344 248.731C392.548 246.234 392.717 243.718 392.868 241.22Z" fill="#F6F8FB" stroke="#F6F8FB" stroke-width="0.1875"/>
<path d="M329.925 251.23C329.888 245.524 325.57 236.24 333.756 234.283C333.977 239.262 333.485 244.445 335.579 249.12C338.381 255.839 336.795 263.198 337.029 270.237C335.833 269.934 333.42 269.343 332.219 269.039C331.83 266.439 331.732 263.84 331.613 261.223C329.486 260.498 327.393 259.771 325.283 259.046C325.84 255.282 322.005 248.243 328.778 248.26C328.811 249.357 328.843 251.551 328.86 252.648C330.347 252.294 331.847 251.939 333.35 251.585C332.49 251.483 330.786 251.314 329.925 251.23Z" fill="#F6F8FB" stroke="#F6F8FB" stroke-width="0.1875"/>
<path d="M273.578 244.072C274.963 240.933 278.66 242.536 281.242 242.199C281.141 242.89 280.972 244.309 280.887 245C280.364 245.963 279.318 247.903 278.794 248.866C276.651 249.169 274.508 249.474 272.38 249.761C272.532 247.854 272.684 245.929 272.853 244.022L273.578 244.072Z" fill="#F6F8FB" stroke="#F6F8FB" stroke-width="0.1875"/>
<path d="M279.418 252.648C282.98 251.415 285.901 252.816 287.909 255.922C287.858 256.8 287.79 258.589 287.757 259.484C285.951 259.384 284.145 259.281 282.338 259.181C281.377 257.003 280.398 254.825 279.418 252.648Z" fill="#F6F8FB" stroke="#F6F8FB" stroke-width="0.1875"/>
<path d="M392.262 268.447C394.389 265.662 396.449 262.522 400.128 261.747C399.94 264.043 399.772 266.371 399.587 268.685C403.909 275.487 399.251 284.872 393.138 288.941C393.019 287.826 392.786 285.581 392.667 284.467C391.249 284.501 388.394 284.569 386.959 284.601C387.279 282.003 387.738 279.437 388.344 276.905C390.757 276.213 393.257 275.842 395.74 275.437C395.805 274.761 395.924 273.394 395.99 272.719C394.745 271.3 393.511 269.866 392.262 268.447Z" fill="#F6F8FB" stroke="#F6F8FB" stroke-width="0.1875"/>
<path d="M375.599 269.342C378.201 271.671 381.257 273.747 382.995 276.886C381.745 281.14 379.856 285.158 378.25 289.277C375.112 283.065 375.636 276.077 375.599 269.342Z" fill="#F6F8FB" stroke="#F6F8FB" stroke-width="0.1875"/>
<path d="M336.911 274.119C341.605 274.592 346.264 275.352 350.923 276.144L350.973 279.115C347.986 280.416 345.015 281.8 342.094 283.235C341.438 286.104 340.778 288.99 340.172 291.878L336.661 291.54C336.878 285.732 336.811 279.926 336.911 274.119Z" fill="#F6F8FB" stroke="#F6F8FB" stroke-width="0.1875"/>
<path d="M316.941 282.12C319.829 282.998 322.648 284.028 325.5 285.04C325.315 286.441 325.13 287.876 324.943 289.294C323.898 289.346 321.821 289.446 320.792 289.497C320.858 293.699 318.31 296.738 315.204 299.185C315.221 301.516 315.237 303.862 315.237 306.191C312.975 304.857 310.766 303.491 308.554 302.073C307.743 301.819 306.088 301.295 305.28 301.027C305.194 299.574 305.109 298.105 305.026 296.654C307.169 295.963 309.296 295.254 311.455 294.578C312.131 292.383 312.84 290.19 313.532 287.994C314.326 287.961 315.896 287.91 316.674 287.876C316.74 286.441 316.875 283.555 316.941 282.12Z" fill="#F6F8FB" stroke="#F6F8FB" stroke-width="0.1875"/>
<path d="M369.863 295.135C372.293 295.438 374.673 296.114 377.07 296.654C378.132 300.199 380.09 303.744 379.45 307.559C378.25 311.576 376.328 315.307 374.689 319.138C373.964 324.083 372.493 328.844 370.654 333.469C369.018 333.553 365.778 333.739 364.156 333.823C362.89 332.457 361.607 331.105 360.325 329.755C359.379 322.329 360.358 314.799 365.152 308.79C366.048 304.064 366.991 299.135 369.863 295.135Z" fill="#F6F8FB" stroke="#F6F8FB" stroke-width="0.1875"/>
<path d="M300.181 325.502C301.566 325.349 302.95 325.216 304.351 325.063C304.859 325.857 305.854 327.443 306.342 328.238C306.428 329.166 306.579 330.989 306.645 331.901C305.396 331.901 302.916 331.901 301.667 331.901C301.262 332.475 300.467 333.639 300.08 334.23C300.081 331.309 300.13 328.405 300.181 325.502Z" fill="#F6F8FB" stroke="#F6F8FB" stroke-width="0.1875"/>
<path d="M426.14 358.739C427.067 358.722 428.89 358.705 429.803 358.687C429.177 360.984 429.213 363.196 429.902 365.322C432.081 366.52 434.445 367.347 436.789 368.175C436.875 371.449 436.977 374.723 437.043 377.999C435.338 377.812 433.634 377.628 431.946 377.442C431.643 374.033 431.86 370.556 431.036 367.213C430.242 367.365 428.672 367.703 427.894 367.871L428.619 365.439L426.492 365.609C426.375 363.312 426.259 361.018 426.14 358.739Z" fill="#F6F8FB" stroke="#F6F8FB" stroke-width="0.1875"/>
<path d="M298.408 381.56C300.753 382.961 303.474 384.092 305.092 386.456C304.096 390.32 302.511 394.017 301.192 397.799C298.762 396.379 296.349 394.945 293.919 393.579C290.846 392.481 288.163 390.725 287.115 387.401C290.829 387.316 294.542 387.452 298.239 387.653C298.291 386.135 298.358 383.08 298.408 381.56Z" fill="#F6F8FB" stroke="#F6F8FB" stroke-width="0.1875"/>
<path d="M455.324 410.003C456.607 410.038 457.909 410.089 459.208 410.138C460.355 411.623 461.519 413.109 462.686 414.612C460.405 415.759 457.889 416.249 455.377 416.554C455.324 414.358 455.324 412.18 455.324 410.003Z" fill="#F6F8FB" stroke="#F6F8FB" stroke-width="0.1875"/>
<path d="M474.331 305.33C474.72 305.382 475.478 305.498 475.867 305.549C475.514 302.798 475.158 300.063 474.72 297.346C469.438 286.07 466.448 273.984 464.829 261.678C462.667 255.602 460.457 249.474 457.266 243.853C452.674 236.645 445.147 232.138 439.103 226.315C425.177 213.672 408.65 204.708 392.581 195.188C377.036 187.187 359.751 183.424 342.702 180.199C332.673 179.303 322.512 177.346 312.47 179.118C307.607 179.945 302.678 180.03 297.766 180.131C298.577 183.203 299.42 186.242 300.196 189.314C303.539 191.424 306.78 193.703 310.037 195.914C309.922 197.061 309.803 198.21 309.684 199.357C299.134 206.582 292.804 217.892 284.448 227.26C278.371 233.809 275.317 243.431 266.234 246.74C266.184 245.102 266.133 243.448 266.083 241.811C270.049 237.337 274.252 233.05 277.73 228.172C279.384 224.103 277.139 219.833 276.093 215.9C274.726 215.663 271.975 215.157 270.607 214.921C271.468 212.946 272.447 211.038 273.578 209.215C276.819 207.864 280.128 209.637 283.233 210.532C282.474 214.178 281.63 217.807 281.106 221.487C284.364 219.9 286.558 217.048 288.735 214.295C293.124 208.624 298.171 203.51 303.186 198.378C303.084 197.804 302.916 196.657 302.814 196.083C299.252 193.921 295.741 191.676 292.179 189.532C289.309 188.452 286.457 187.372 283.604 186.309C275.198 180.637 264.833 180.957 255.499 183.878C253.153 185.869 250.722 187.743 248.325 189.667C243.48 190.444 238.585 190.241 233.724 190.072C233.842 188.671 233.977 187.286 234.094 185.886C235.091 185.176 237.066 183.776 238.045 183.066C241.268 183.742 244.409 184.67 247.598 185.48C247.464 184.349 247.176 182.071 247.042 180.923C248.139 181.244 250.35 181.852 251.448 182.156C251.127 181.547 250.502 180.333 250.182 179.708C242.889 177.699 235.766 174.256 228.035 174.543C217.367 175.218 206.463 173.648 196.166 177.294C195.27 175.421 194.275 173.598 193.194 171.826C183.876 170.526 173.378 177.886 172.938 187.592C173.917 191.12 176.685 194.192 176.332 198.041C173.901 198.548 171.47 198.935 169.023 199.222C162.592 208.236 158.27 218.702 157.544 229.826C153.375 240.983 147.079 251.145 142.251 261.999C141.643 263.586 141.036 265.173 140.428 266.759C139.077 270.422 138.048 274.203 137.356 278.052C141.221 277.157 145.086 276.246 148.834 274.946C150.927 274.727 153.021 274.507 155.131 274.321C156.363 272.853 157.612 271.385 158.827 269.899C164.026 268.565 169.192 267.147 174.407 265.899C175.927 263.771 177.48 261.661 179.016 259.551C180.467 259.316 181.936 259.096 183.421 258.859C183.388 259.856 183.337 261.848 183.303 262.844C182.477 262.826 180.805 262.826 179.979 262.826C179.961 264.43 179.961 266.05 179.945 267.671C183.794 267.84 187.659 268.178 191.406 269.106C195.406 267.08 199.373 264.953 203.424 263.012C203.07 267.688 199.525 270.574 197.01 274.068C196.773 276.313 196.672 278.558 196.723 280.82C199.576 278.339 201.905 275.317 202.968 271.638C209.72 270.253 216.169 267.62 223.055 266.911C224.288 268.143 225.536 269.376 226.768 270.608C226.937 269.072 227.275 265.983 227.46 264.43C228.456 264.448 230.482 264.48 231.494 264.48C232.76 262.76 234.044 261.037 235.359 259.332C235.275 257.138 235.191 254.943 235.106 252.749C236.98 251.989 238.853 251.263 240.727 250.521C240.778 249.321 240.896 246.908 240.963 245.71C243.309 245.676 245.656 245.658 248.018 245.658C247.851 243.279 247.682 240.898 247.478 238.518C246.432 236.374 245.453 234.18 244.474 232.002C246.566 232.087 248.642 232.188 250.736 232.289C252.61 237.488 253.082 243.008 252.863 248.511C254.652 253.66 256.679 258.707 258.45 263.872C256.813 263.382 253.504 262.42 251.85 261.931C250.466 259.449 249.774 256.664 248.829 253.997C247.985 254.15 246.28 254.453 245.419 254.606C245.723 258.572 247.496 262.083 249.859 265.206C253.015 266.068 254.366 268.481 254.535 271.604C253.809 273.022 252.357 275.858 251.632 277.275C249.302 276.651 247.007 275.925 244.745 275.115C243.884 274.929 242.179 274.558 241.318 274.372C238.989 271.822 236.575 269.342 234.093 266.928C232.102 269.848 232.81 272.819 235.038 275.368C236.979 278.609 238.701 281.968 240.169 285.445C245.824 294.999 250.821 305.178 258.72 313.145C259.047 313.127 259.375 313.118 259.703 313.1C259.703 313.1 259.65 311.88 259.632 311.879C259.176 301.903 259.666 291.893 258.889 281.917C258.314 284.179 257.791 286.457 257.234 288.736C255.901 291.302 254.72 293.952 253.537 296.585C252.474 296.062 251.411 295.522 250.348 294.999C250.567 290.965 251.698 287.1 253.741 283.605C253.943 282.71 254.348 280.921 254.551 280.026C256.02 277.579 257.454 275.097 258.839 272.583C258.923 267.079 262.029 262.489 264.595 257.847C267.599 256.412 270.57 254.96 273.625 253.66C272.933 256.985 271.954 260.26 270.907 263.485C269.911 265.679 268.95 267.873 267.987 270.068C267.801 271.401 267.598 272.735 267.413 274.068C266.467 278.374 265.978 282.745 265.421 287.116C263.834 295.421 266.106 303.893 265.972 312.3C265.942 312.296 265.895 312.826 265.927 312.824C265.117 328.692 269.15 344.206 269.674 359.987C270.771 366.774 274.569 372.952 274.603 379.906C274.839 389.511 274.469 399.117 274.266 408.721C276.562 406.391 278.52 403.489 282.031 402.83C281.388 406.931 280.106 410.899 279.127 414.933C282.048 414.781 285.137 414.848 287.669 413.126C290.234 412.992 292.8 412.958 295.383 412.974C296.802 414.326 297.847 416.993 300.312 416.367C303.081 414.325 305.208 411.236 308.871 410.646C308.179 414.544 306.187 417.988 304.077 421.279C301.799 421.365 299.519 421.465 297.24 421.549C295.501 420.217 293.83 418.781 291.939 417.666C289.087 417.988 286.825 419.911 284.429 421.278C283.736 421.312 282.335 421.364 281.643 421.397C278.216 418.951 274.723 415.54 270.114 416.501C269.625 418.494 269.338 420.536 269.034 422.562C272.258 423.777 275.499 424.959 278.723 426.207C286.758 426.563 294.81 426.477 302.861 426.444C305.967 424.266 309.056 422.056 311.96 419.608C312.029 410.592 306.728 402.593 306.846 393.561C305.781 377.863 308.686 362.368 310.39 346.838C308.026 347.057 305.662 347.293 303.299 347.547C302.913 351.767 303.183 355.987 303.418 360.207C294.893 357.827 298.456 348.036 298.202 341.725C300.381 340.408 302.643 339.243 304.987 338.214C306.794 340.441 309.157 342.045 311.758 343.26C311.808 338.585 311.402 333.909 311.841 329.25C312.771 325.267 315.741 322.195 317.126 318.397C320.232 313.383 324.283 309.078 327.742 304.319C330.139 300.74 332.572 297.162 335.542 294.038C338.631 297.954 342.175 296.435 345.265 293.734C350.161 291.422 355.156 288.502 354.852 282.29C357.856 278.271 360.002 273.748 361.334 268.921C362.801 269.934 364.255 270.945 365.673 272.044C365.436 275.014 364.407 277.816 363.612 280.669C362.686 282.526 361.097 284.214 360.913 286.357C361.806 288.366 362.99 290.24 364.121 292.147C364.104 293.514 364.088 296.282 364.088 297.65C362.4 299.676 360.712 301.701 359.004 303.71C358.938 306.158 358.873 308.605 358.803 311.054C356.152 316.168 351.851 320.877 352.252 327.004C351.645 327.055 350.433 327.156 349.822 327.206C345.385 330.988 340.895 327.342 337.654 324.083C331.07 320.944 324.031 318.699 316.722 320.876C316.922 322.159 317.312 324.742 317.516 326.025L318.647 325.181C325.145 328.827 332.606 329.738 339.542 332.254C345.18 334.786 351.239 336.239 356.894 338.771C365.928 343.126 376.375 345.708 382.705 354.148C383.447 366.825 382.537 379.603 378.198 391.621C375.65 398.138 370.652 404.095 370.5 411.303C373.643 414.104 377.928 416.148 381.558 412.889C384.832 412.889 387.921 413.903 390.925 415.134C391.231 419.743 391.314 424.367 391.281 428.993C394.268 428.166 397.697 427.71 399.721 425.076C404.904 419.895 404.211 412.08 404.261 405.377C404.126 395.823 406.506 386.522 408.481 377.255C407.132 377.154 404.449 376.952 403.114 376.851C403.183 382.994 399.349 387.991 395.957 392.735C394.404 392.752 391.298 392.768 389.746 392.786C388.144 390.844 386.591 388.869 385.071 386.86C387.636 381.645 392.954 382.05 397.866 382.454C397.78 381.661 397.612 380.092 397.527 379.299C395.097 379.434 392.684 379.569 390.254 379.721C390.541 377.83 390.828 375.923 391.115 374.048C392.902 374.014 394.692 373.981 396.482 373.964C396.347 373.221 396.06 371.752 395.925 371.01C394.54 370.908 391.771 370.689 390.389 370.571C390.656 369.541 391.197 367.482 391.467 366.452C394.945 367.92 398.236 369.71 401.612 371.398C401.394 367.953 400.55 364.612 399.215 361.438C398.776 361.151 397.866 360.577 397.408 360.291C397.612 357.573 397.78 354.855 397.932 352.12C399.284 352.255 400.632 352.39 401.984 352.525C404.45 356.931 407.368 361.049 410.17 365.236C412.939 365.878 415.91 368.561 418.56 366.265C421.227 363.245 416.298 361.336 414.828 359.025C414.693 358.012 414.406 355.969 414.271 354.94C412.23 353.657 410.222 352.374 408.195 351.09C407.958 347.361 407.756 343.629 407.621 339.917C403.52 340.102 399.435 340.407 395.35 340.339C393.998 341.724 392.716 343.191 391.433 344.66C390.843 344.795 389.659 345.049 389.069 345.182C389.069 340.626 392.277 336.557 396.108 334.329C396.091 333.149 396.075 330.801 396.058 329.637C392.732 328.034 392.834 324.1 391.888 321.128C386.824 325.45 387.315 332.1 387.147 338.094C385.591 338.449 384.022 338.803 382.469 339.158C381.355 336.947 380.089 334.819 379.261 332.506C380.105 322.243 382.571 312.2 384.866 302.173C387.415 300.586 389.947 298.984 392.462 297.38C392.716 299.152 393.207 302.696 393.458 304.469C394.81 302.695 397.526 299.168 398.878 297.413C399.063 299.946 399.25 302.46 399.419 305.01L401.09 304.654C401.324 308.132 399.35 313.229 404.229 314.124C404.262 317.552 404.348 320.977 404.565 324.404C406.052 325.553 407.555 326.734 409.039 327.899C409.174 330.921 409.342 333.942 409.53 336.981C410.288 336.929 411.808 336.846 412.567 336.813C413.833 340.628 414.525 344.594 414.222 348.629C417.295 349.338 420.351 350.147 423.404 350.94C423.068 353.371 422.695 355.786 422.224 358.2C421.397 361.981 420.602 365.779 419.811 369.559C424.875 373.222 430.173 377.088 433.279 382.641C435.138 387.654 434.95 393.107 435.643 398.34C435.188 401.818 434.835 405.278 434.529 408.755C433.045 412.401 431.627 416.064 430.276 419.761C433.299 419.778 436.303 419.796 439.342 419.846C442.481 422.193 446.127 422.175 449.45 420.149C450.888 419.997 453.773 419.71 455.223 419.559C457.284 422.074 462.332 425.164 459.074 428.658C456.222 431.477 455.563 426.783 454.145 425.028C452.711 424.876 451.257 424.706 449.823 424.573C448.471 426.564 447.123 428.539 445.807 430.564C441.94 430.244 439.207 427.831 437.077 424.809C434.631 424.791 432.184 424.826 429.735 424.894C429.752 426.936 429.787 428.979 429.837 431.021C441.923 432.574 455.022 434.87 466.465 429.316C467.75 427.528 469.033 425.738 470.349 423.965C470.415 417.752 471.193 411.322 469.1 405.33C468.711 400.366 468.424 395.403 468.153 390.441C465.064 391.487 461.975 392.518 458.754 393.024C459.578 385.918 458.161 379.08 456.186 372.295C457.926 372.295 459.664 372.312 461.401 372.328C462.012 376.752 463.057 381.089 464.695 385.258C465.892 380.802 465.572 376.211 464.929 371.704C460.119 348.511 457.656 324.27 462.027 300.791C463.494 293.734 459.983 287.133 457.975 280.585C455.611 272.786 449.485 266.861 447.224 259.012C451.174 259.789 455.09 260.768 459.057 261.459C459.865 262.472 461.487 264.48 462.298 265.477C461.421 268.127 459.865 270.659 459.865 273.529C462.838 284.922 469.033 294.949 474.331 305.33ZM201.889 225.471C201.112 226.011 199.543 227.108 198.766 227.648C198.681 230.366 200.387 233.894 198.429 235.784C194.832 239.255 188.452 235.583 183.456 235.38C185.297 231.7 185.549 227.666 185.127 223.632C187.153 222.332 189.161 221.032 191.204 219.766C191.592 219.344 192.369 218.517 192.757 218.095C193.854 219.936 194.968 221.741 196.065 223.581C193.415 224.932 189.685 225.055 188.115 227.582C187.687 228.269 188.097 229.995 188.097 230.789C189.768 230.603 191.924 231.406 193.11 230.215C193.781 229.541 193.397 227.345 193.499 226.383C194.917 225.083 196.318 223.767 197.685 222.416C199.154 222.281 200.639 222.129 202.124 221.994C202.057 222.854 201.94 224.593 201.889 225.471ZM254.301 226.062C252.225 226.028 250.166 225.977 248.106 225.927C243.076 228.391 238.637 231.868 234.957 236.088C233.251 235.396 228.187 237.018 230.45 233.337C230.416 229.961 234.636 229.708 236.78 228.12C238.535 225.369 238.94 220.289 243.228 220.592C244.156 220.473 246.047 220.203 246.975 220.069C249.524 218.785 252.056 217.503 254.605 216.22C254.504 219.495 254.402 222.787 254.301 226.062ZM258.25 195.154C257.492 193.77 256.715 192.403 255.939 191.02C258.487 189.551 261.035 188.116 263.567 186.631C268.733 186.631 273.864 187.389 278.878 188.572C283.823 191.104 288.686 193.805 293.26 196.944C293.159 199.73 293.024 202.532 292.889 205.317C291.538 205.368 288.855 205.486 287.522 205.553C284.18 201.519 280.229 197.838 275.402 195.678C269.78 194.462 263.957 195.272 258.25 195.154ZM272.38 249.761C272.532 247.854 272.683 245.929 272.852 244.022L273.578 244.073C274.962 240.933 278.66 242.536 281.242 242.199C281.14 242.89 280.972 244.309 280.887 245C280.364 245.963 279.317 247.903 278.794 248.866C276.649 249.17 274.507 249.474 272.38 249.761ZM279.418 252.648C282.979 251.415 285.9 252.816 287.909 255.922C287.858 256.8 287.79 258.589 287.756 259.484C285.95 259.384 284.145 259.281 282.338 259.181C281.377 257.003 280.398 254.825 279.418 252.648ZM298.239 387.653C298.29 386.135 298.358 383.08 298.408 381.56C300.753 382.961 303.473 384.092 305.092 386.456C304.096 390.32 302.51 394.018 301.192 397.799C298.762 396.379 296.349 394.945 293.918 393.579C290.845 392.481 288.162 390.725 287.115 387.401C290.829 387.317 294.542 387.452 298.239 387.653ZM323.594 184.824L323.475 187.001C324.708 186.967 327.171 186.917 328.404 186.9C328.454 187.71 328.539 189.332 328.589 190.141C325.889 189.939 323.189 189.754 320.488 189.585C320.353 188.132 320.234 186.681 320.099 185.23C320.977 185.128 322.714 184.925 323.594 184.824ZM307.153 189.719C306.105 188.116 305.076 186.496 304.047 184.891C306.546 184.909 309.042 184.959 311.541 185.026C311.541 186.647 311.541 188.25 311.541 189.871C310.074 189.82 308.604 189.77 307.153 189.719ZM301.667 331.9C301.262 332.474 300.467 333.638 300.081 334.229C300.081 331.31 300.13 328.406 300.18 325.502C301.565 325.349 302.949 325.216 304.35 325.063C304.858 325.857 305.853 327.443 306.341 328.238C306.427 329.166 306.578 330.989 306.644 331.901C305.396 331.9 302.916 331.9 301.667 331.9ZM324.943 289.294C323.898 289.346 321.821 289.446 320.792 289.497C320.858 293.699 318.31 296.738 315.204 299.185C315.221 301.516 315.237 303.861 315.237 306.191C312.975 304.857 310.766 303.491 308.554 302.073C307.743 301.819 306.088 301.295 305.28 301.026C305.194 299.574 305.109 298.105 305.026 296.654C307.169 295.962 309.296 295.253 311.455 294.577C312.131 292.383 312.84 290.19 313.532 287.994C314.326 287.961 315.896 287.91 316.674 287.876C316.74 286.441 316.875 283.555 316.941 282.12C319.829 282.998 322.648 284.027 325.5 285.04C325.315 286.441 325.131 287.876 324.943 289.294ZM332.219 269.038C331.83 266.439 331.731 263.839 331.612 261.223C329.485 260.497 327.392 259.77 325.282 259.045C325.839 255.281 322.005 248.242 328.777 248.259C328.81 249.356 328.843 251.55 328.86 252.648C330.347 252.293 331.847 251.939 333.35 251.584C332.489 251.483 330.785 251.314 329.924 251.23C329.888 245.523 325.569 236.239 333.755 234.282C333.976 239.261 333.485 244.444 335.578 249.12C338.38 255.838 336.794 263.198 337.029 270.237C335.832 269.934 333.419 269.342 332.219 269.038ZM342.093 283.234C341.437 286.103 340.777 288.989 340.171 291.877L336.66 291.539C336.878 285.732 336.812 279.926 336.911 274.118C341.605 274.592 346.264 275.351 350.923 276.144L350.973 279.115C347.985 280.416 345.014 281.799 342.093 283.234ZM379.45 307.559C378.25 311.576 376.328 315.307 374.689 319.138C373.964 324.083 372.493 328.844 370.654 333.469C369.018 333.553 365.778 333.739 364.156 333.823C362.89 332.457 361.607 331.105 360.325 329.755C359.379 322.329 360.358 314.799 365.152 308.79C366.048 304.064 366.992 299.136 369.863 295.134C372.293 295.438 374.673 296.114 377.07 296.654C378.131 300.199 380.09 303.744 379.45 307.559ZM378.25 289.278C375.111 283.066 375.635 276.077 375.599 269.343C378.2 271.672 381.256 273.748 382.994 276.887C381.745 281.141 379.855 285.158 378.25 289.278ZM393.139 288.94C393.02 287.825 392.786 285.58 392.667 284.466C391.249 284.5 388.395 284.568 386.96 284.601C387.28 282.002 387.738 279.436 388.345 276.904C390.758 276.212 393.257 275.841 395.74 275.436C395.806 274.76 395.925 273.393 395.991 272.718C394.744 271.299 393.511 269.865 392.262 268.446C394.389 265.661 396.449 262.522 400.128 261.746C399.94 264.042 399.772 266.37 399.587 268.684C403.909 275.486 399.251 284.871 393.139 288.94ZM400.652 239.55C396.719 245.458 397.461 252.851 395.974 259.502C394.187 259.45 390.623 259.367 388.852 259.316C389.02 255.5 390.336 251.955 392.344 248.731C392.548 246.234 392.716 243.719 392.868 241.221C395.011 238.199 397.562 235.397 401.377 234.654C401.14 236.291 400.903 237.928 400.652 239.55ZM421.109 224.255C419.741 225.825 418.376 227.412 417.041 229.016C413.444 228.426 409.884 227.683 406.323 226.957C406.373 228.275 406.508 230.908 406.56 232.241C404.602 231.397 402.627 230.586 400.652 229.777C401.022 229.507 401.799 228.966 402.185 228.679C403.012 227.362 403.721 224.729 405.815 225.878C410.457 226.553 413.48 221.606 417.311 219.733C417.7 219.413 418.491 218.754 418.88 218.433C419.487 219.176 420.687 220.645 421.293 221.387C421.244 222.095 421.159 223.53 421.109 224.255ZM431.946 377.441C431.643 374.032 431.86 370.556 431.036 367.213C430.242 367.365 428.672 367.702 427.894 367.87L428.619 365.439L426.492 365.608C426.373 363.312 426.258 361.018 426.139 358.739C427.066 358.721 428.889 358.705 429.802 358.687C429.176 360.983 429.212 363.196 429.901 365.322C432.08 366.52 434.444 367.347 436.788 368.175C436.874 371.449 436.976 374.723 437.042 377.998C435.339 377.812 433.634 377.627 431.946 377.441ZM459.208 410.138C460.355 411.623 461.519 413.109 462.686 414.612C460.405 415.759 457.889 416.248 455.377 416.554C455.325 414.358 455.325 412.18 455.325 410.003C456.607 410.037 457.909 410.088 459.208 410.138Z" fill="#22409A"/>
</g>
<defs>
<clipPath id="clip0_1179_1513">
<rect x="88" y="88" width="422" height="422" rx="211" fill="white"/>
</clipPath>
</defs>
</svg>
