<svg width="450" height="450" viewBox="0 0 450 450" fill="none" xmlns="http://www.w3.org/2000/svg">
<path d="M0 225C0 100.736 100.736 0 225 0C349.264 0 450 100.736 450 225C450 349.264 349.264 450 225 450C100.736 450 0 349.264 0 225Z" fill="#ED020F"/>
<path d="M119 336.891C121.215 343.159 125.386 348.721 130.784 352.603C137.333 357.312 145.661 359.48 153.675 358.562L181.035 308.582L177.649 294.224L184.557 284.337L170.064 274.991L160.583 288.265L148.528 289.89L119 336.891Z" fill="white"/>
<path d="M252.281 298.423C268.652 295.485 284.821 288.869 296.444 276.973C308.398 264.738 314.666 247.734 316.213 230.699C317.896 212.167 314.322 193.35 307.207 176.156C300.093 158.962 289.515 143.337 277.204 129.384C264.635 115.139 250.207 102.538 234.402 92C250.725 106.551 264.381 124.083 274.495 143.47C287.132 167.698 294.227 195.544 290.093 222.555C288.766 231.221 286.21 239.905 280.996 246.953C277.289 251.964 272.344 255.986 266.918 259.056C261.493 262.125 255.586 264.272 249.572 265.915C222.148 273.411 191.958 270.253 166.678 257.247L156.384 273.501C168.888 283.886 183.6 291.602 199.253 295.985C216.437 300.796 234.716 301.575 252.281 298.423Z" fill="white"/>
<path d="M185.786 160.604L193.113 154.498H198.573L330.552 310.398C331.235 313.353 331.135 316.484 330.267 319.39C329.399 322.295 327.764 324.968 325.572 327.063C323.126 329.403 319.991 331.012 316.664 331.637C313.338 332.262 309.832 331.899 306.704 330.607L185.786 165.345V160.604Z" fill="white"/>
<path d="M262.36 174.204L190.91 226.115H181.141L161.794 201.596L164.476 189.337L219.643 147.77L243.779 149.494L262.36 174.204Z" fill="white"/>
</svg>
