<svg width="717" height="191" viewBox="0 0 717 191" fill="none" xmlns="http://www.w3.org/2000/svg">
<rect width="145" height="144" transform="translate(25 2)" fill="white"/>
<path fill-rule="evenodd" clip-rule="evenodd" d="M191 0H0V84.2647C0 126.551 26.0886 164.459 65.5897 179.567L95.5 191L125.41 179.567C164.911 164.459 191 126.551 191 84.2647V0ZM134.824 67.4118C134.824 89.1253 117.218 106.735 95.5 106.735C73.7824 106.735 56.1765 89.1253 56.1765 67.4118C56.1765 45.6982 73.7824 28.0882 95.5 28.0882H134.824V67.4118ZM95.5 84.2647C104.808 84.2647 112.353 76.716 112.353 67.4118C112.353 58.1075 104.808 50.5588 95.5 50.5588C86.1923 50.5588 78.6471 58.1075 78.6471 67.4118C78.6471 76.716 86.1923 84.2647 95.5 84.2647ZM56.1765 140.441C56.1765 128.032 66.2371 117.971 78.6471 117.971H134.824C134.824 130.38 124.763 140.441 112.353 140.441H56.1765Z" fill="#F55533"/>
<path d="M259.391 60.7529C267.983 60.7529 275.143 62.8675 280.871 67.0966C286.599 71.3257 290.383 77.0895 292.224 84.3881H279.95C278.382 80.5001 275.791 77.3965 272.176 75.0773C268.631 72.7581 264.403 71.5985 259.493 71.5985C254.992 71.5985 250.935 72.6558 247.321 74.7703C243.775 76.8849 240.979 79.8862 238.934 83.7742C236.956 87.6622 235.967 92.2324 235.967 97.4847C235.967 103.01 236.99 107.75 239.036 111.707C241.082 115.663 243.946 118.698 247.628 120.813C251.378 122.859 255.708 123.882 260.618 123.882C266.619 123.882 271.767 122.041 276.063 118.357C280.359 114.606 282.951 109.49 283.837 103.01H257.345V94.4152H293.656V105.568C292.838 110.888 290.929 115.731 287.928 120.097C284.996 124.394 281.075 127.839 276.166 130.431C271.324 133.023 265.767 134.319 259.493 134.319C252.469 134.319 246.264 132.75 240.877 129.612C235.49 126.474 231.33 122.143 228.398 116.618C225.466 111.025 224 104.647 224 97.4847C224 90.3225 225.466 83.9788 228.398 78.4537C231.33 72.8604 235.456 68.529 240.775 65.4595C246.162 62.3218 252.367 60.7529 259.391 60.7529Z" fill="white"/>
<path d="M321.774 88.2761C323.683 84.5927 326.411 81.6938 329.957 79.5792C333.503 77.3965 337.594 76.3051 342.231 76.3051V88.9924H338.753C333.639 88.9924 329.513 90.2543 326.377 92.7781C323.308 95.2337 321.774 99.3264 321.774 105.056V133.603H310.113V77.2259H321.774V88.2761Z" fill="white"/>
<path d="M378.222 76.5097C383.336 76.5097 387.7 77.7716 391.314 80.2954C394.929 82.8192 397.486 86.1616 398.986 90.3225V77.2259H410.646V133.603H398.986V120.506C397.486 124.667 394.929 128.009 391.314 130.533C387.7 133.057 383.336 134.319 378.222 134.319C373.312 134.319 368.914 133.159 365.027 130.84C361.208 128.521 358.208 125.178 356.026 120.813C353.844 116.447 352.753 111.297 352.753 105.363C352.753 99.4969 353.844 94.3811 356.026 90.0155C358.208 85.65 361.208 82.3077 365.027 79.9885C368.914 77.6693 373.312 76.5097 378.222 76.5097ZM381.802 86.7414C376.619 86.7414 372.46 88.4126 369.323 91.7549C366.255 95.0291 364.72 99.5651 364.72 105.363C364.72 111.161 366.255 115.731 369.323 119.074C372.46 122.348 376.619 123.985 381.802 123.985C385.075 123.985 388.007 123.234 390.598 121.734C393.19 120.165 395.235 117.982 396.736 115.185C398.236 112.389 398.986 109.115 398.986 105.363C398.986 101.68 398.236 98.4396 396.736 95.643C395.235 92.7781 393.19 90.5953 390.598 89.0947C388.007 87.5258 385.075 86.7414 381.802 86.7414Z" fill="white"/>
<path d="M451.894 76.5097C457.008 76.5097 461.372 77.7716 464.987 80.2954C468.601 82.8192 471.124 86.1616 472.556 90.3225V57.888H484.318V133.603H472.556V120.506C471.124 124.667 468.601 128.009 464.987 130.533C461.372 133.057 457.008 134.319 451.894 134.319C446.984 134.319 442.586 133.159 438.699 130.84C434.881 128.521 431.88 125.178 429.698 120.813C427.516 116.447 426.425 111.297 426.425 105.363C426.425 99.4969 427.516 94.3811 429.698 90.0155C431.88 85.65 434.881 82.3077 438.699 79.9885C442.586 77.6693 446.984 76.5097 451.894 76.5097ZM455.474 86.7414C450.292 86.7414 446.132 88.4126 442.995 91.7549C439.927 95.0291 438.392 99.5651 438.392 105.363C438.392 111.161 439.927 115.731 442.995 119.074C446.132 122.348 450.292 123.985 455.474 123.985C458.747 123.985 461.679 123.234 464.271 121.734C466.862 120.165 468.907 117.982 470.408 115.185C471.908 112.389 472.658 109.115 472.658 105.363C472.658 101.68 471.908 98.4396 470.408 95.643C468.907 92.7781 466.862 90.5953 464.271 89.0947C461.679 87.5258 458.747 86.7414 455.474 86.7414Z" fill="white"/>
<path d="M501.324 60.8552C501.324 58.8771 502.006 57.24 503.37 55.944C504.734 54.648 506.541 54 508.791 54C511.041 54 512.849 54.648 514.212 55.944C515.644 57.24 516.36 58.8771 516.36 60.8552C516.36 62.8334 515.644 64.4363 514.212 65.6641C512.849 66.8919 511.041 67.5058 508.791 67.5058C506.541 67.5058 504.734 66.8919 503.37 65.6641C502.006 64.4363 501.324 62.8334 501.324 60.8552ZM514.621 77.2259V133.603H502.961V77.2259H514.621Z" fill="white"/>
<path d="M559.157 76.5097C564.613 76.5097 569.522 77.6693 573.886 79.9885C578.251 82.3077 581.66 85.65 584.115 90.0155C586.57 94.3811 587.797 99.4969 587.797 105.363C587.797 111.297 586.57 116.447 584.115 120.813C581.66 125.178 578.251 128.521 573.886 130.84C569.522 133.159 564.613 134.319 559.157 134.319C553.702 134.319 548.792 133.159 544.428 130.84C540.132 128.521 536.723 125.178 534.2 120.813C531.745 116.379 530.517 111.229 530.517 105.363C530.517 99.4969 531.745 94.3811 534.2 90.0155C536.723 85.65 540.132 82.3077 544.428 79.9885C548.792 77.6693 553.702 76.5097 559.157 76.5097ZM559.157 86.6391C556.157 86.6391 553.395 87.3212 550.872 88.6854C548.349 90.0496 546.303 92.1642 544.735 95.0291C543.235 97.8257 542.485 101.27 542.485 105.363C542.485 109.524 543.235 113.003 544.735 115.799C546.303 118.596 548.349 120.676 550.872 122.041C553.395 123.405 556.157 124.087 559.157 124.087C562.158 124.087 564.919 123.405 567.442 122.041C569.966 120.676 571.977 118.596 573.477 115.799C575.046 113.003 575.83 109.524 575.83 105.363C575.83 101.27 575.046 97.8257 573.477 95.0291C571.977 92.1642 569.966 90.0496 567.442 88.6854C564.919 87.3212 562.158 86.6391 559.157 86.6391Z" fill="white"/>
<path d="M655.618 77.2259V133.603H643.855V121.324C642.423 125.485 639.934 128.725 636.389 131.045C632.843 133.296 628.717 134.421 624.012 134.421C617.466 134.421 612.215 132.307 608.26 128.077C604.305 123.848 602.328 117.812 602.328 109.967V77.2259H613.988V108.74C613.988 113.855 615.284 117.812 617.875 120.608C620.466 123.337 624.012 124.701 628.513 124.701C633.15 124.701 636.866 123.2 639.662 120.199C642.458 117.198 643.855 112.832 643.855 107.102V77.2259H655.618Z" fill="white"/>
<path d="M692.746 76.5097C699.361 76.5097 704.646 78.215 708.601 81.6256C712.624 84.9679 715.079 89.4698 715.965 95.1314H704.918C704.441 92.0619 703.111 89.6063 700.929 87.7646C698.815 85.8547 695.985 84.8997 692.44 84.8997C689.507 84.8997 687.223 85.6159 685.586 87.0483C684.018 88.4126 683.234 90.2884 683.234 92.6758C683.234 94.4493 683.814 95.8817 684.973 96.9731C686.132 98.0645 687.564 98.9171 689.269 99.531C691.042 100.145 693.531 100.827 696.736 101.577C700.963 102.532 704.373 103.521 706.964 104.545C709.624 105.568 711.874 107.205 713.715 109.456C715.624 111.639 716.579 114.64 716.579 118.46C716.579 123.166 714.772 126.986 711.158 129.919C707.612 132.852 702.805 134.319 696.736 134.319C689.712 134.319 684.018 132.682 679.654 129.408C675.358 126.133 672.767 121.563 671.88 115.697H683.234C683.575 118.767 684.939 121.256 687.325 123.166C689.712 125.076 692.849 126.031 696.736 126.031C699.531 126.031 701.713 125.315 703.282 123.882C704.918 122.382 705.737 120.506 705.737 118.255C705.737 116.277 705.123 114.708 703.896 113.548C702.668 112.389 701.134 111.502 699.293 110.888C697.452 110.206 694.929 109.524 691.724 108.842C687.632 107.887 684.291 106.932 681.7 105.977C679.177 105.022 676.994 103.487 675.153 101.373C673.38 99.1899 672.494 96.2569 672.494 92.5735C672.494 87.7987 674.267 83.9447 677.813 81.0117C681.427 78.0104 686.405 76.5097 692.746 76.5097Z" fill="white"/>
</svg>
