<svg width="28" height="28" viewBox="0 0 28 28" fill="none" xmlns="http://www.w3.org/2000/svg">
<path d="M28 0H0V12.5926C0.296296 23.6296 10.2222 26.963 14 28C26.7407 24.4444 27.5556 16.8889 28 12.5926V0Z" fill="#F55533"/>
<path d="M8.14795 9.62934C8.14795 6.43836 10.7347 3.85156 13.9257 3.85156H19.7035V9.62934C19.7035 12.8203 17.1167 15.4071 13.9257 15.4071C10.7347 15.4071 8.14795 12.8203 8.14795 9.62934Z" fill="white"/>
<path d="M16.4443 9.62985C16.4443 11.0208 15.3167 12.1484 13.9257 12.1484C12.5348 12.1484 11.4072 11.0208 11.4072 9.62985C11.4072 8.23891 12.5348 7.11133 13.9257 7.11133C15.3167 7.11133 16.4443 8.23891 16.4443 9.62985Z" fill="#F55533"/>
<path d="M8.14795 20.4445C8.14795 18.5627 9.6735 17.0371 11.5554 17.0371H19.8517C19.8517 18.919 18.3261 20.4445 16.4442 20.4445H8.14795Z" fill="white"/>
</svg>
