<svg width="600" height="600" viewBox="0 0 600 600" fill="none" xmlns="http://www.w3.org/2000/svg">
<rect width="600" height="600" rx="300" fill="#22409A"/>
<path d="M84.7 282.72C89.36 284.68 94.099 286.46 98.94 287.92C98.78 290.6 98.599 293.28 98.4 295.981C94.099 315.719 93.105 336.141 95.5 356.1C96.862 367.452 102.98 377.6 107.98 387.76C111.04 394.781 116.021 401.145 122.7 404.621C131.49 409.197 140.149 409.037 151.814 407.441C152.984 407.281 155.554 405.709 156.58 405.121C164.036 400.844 171.059 394.58 173.72 385.939C174.56 383.919 175.42 381.919 176.3 379.939C177.64 370.621 176.3 361.3 174.46 352.16C173.14 353.58 171.84 355.019 170.52 356.439C167.401 359.199 163.52 359.48 159.84 357.58C158.32 357.461 156.8 357.359 155.3 357.26C155.18 361.58 156.511 366.207 154.901 370.24C153.451 373.871 150.607 377.447 146.961 378.961C142.102 380.979 137.88 379.731 135.841 377.82C122.035 364.886 131.982 342.439 133.081 324.879C133.501 324.859 134.321 324.781 134.741 324.74C134.64 318.4 133.861 311.76 136.401 305.76C138.321 301.061 139.3 296.08 139.661 291.02C144.381 289.741 149.181 288.68 153.941 287.52C155.42 287.201 158.361 286.541 159.821 286.201C163.421 285.18 167.121 284.541 170.821 283.94C170.881 286.041 170.941 288.161 171.001 290.26C178.001 289.361 182.021 283.2 187.661 279.74C193.381 276.219 199.901 274.38 205.861 271.32C209.6 271.04 213.34 270.82 217.081 270.639C219.681 275.24 222.701 279.679 224.321 284.74C223.161 296.12 220.22 307.379 215.581 317.84C214.541 321.44 213.481 325.039 212.52 328.66C210.941 332.34 209.361 336.039 207.76 339.719C207.02 342.539 206.3 345.36 205.42 348.141C204.7 361.481 203.42 374.76 203.18 388.121C203.361 397.961 198.38 406.74 195.6 415.939C194.901 420.66 193.92 425.359 192.481 429.919C189.56 431.8 186.441 433.519 183.981 436.038C181.981 439.919 181.441 444.378 180.34 448.579C188.3 450.579 196.46 451.819 204.22 454.579C213.981 455.059 223.8 455.579 233.54 454.538C238.4 453.919 241.74 450.099 245.06 446.878C245.18 441.198 245.121 435.538 245.38 429.858C246.16 417.499 251.12 406.018 253.5 393.979C254.78 388.079 257.42 382.598 260.08 377.217C266.2 390.678 265.519 405.639 264.86 420.059C264.139 430.159 256.139 439.399 259.719 449.799C272.619 458.459 289.199 456.779 303.981 456.338C310.758 454.598 318.219 450.938 320.059 443.537C322.879 432.619 314.739 422.877 315.239 412.058C315.399 402.738 314.7 393.357 316.098 384.119C319.02 368.338 322.321 352.517 320.961 336.357C326.098 338.037 331.219 339.798 336.34 341.537C338.84 342.478 341.34 343.418 343.86 344.357C353.098 348.459 363.282 350.597 371.622 356.558C373.72 356.757 375.802 356.958 377.899 357.177C383.219 360.017 388.68 362.697 393.2 366.779C392.962 376.558 393.942 386.418 392.341 396.119C389.759 407.398 383.943 417.558 378.06 427.398C374.662 432.119 370.88 436.619 368.501 442.017C376.88 459.917 400.56 462.578 417.501 457.417C421.661 455.118 424.919 451.517 428.419 448.376C429.802 441.017 431.399 433.638 430.981 426.097C430.379 413.216 433.559 400.577 437.321 388.357C438.801 388.537 440.282 388.738 441.782 388.959C445.341 392.998 449.86 396.197 453.079 400.537C458.919 413.338 456.2 428.537 449.802 440.578C447.943 445.758 448.7 451.418 448.642 456.818C455.181 464.216 465.622 462.279 474.24 464.697C480.24 464.818 486.142 463.717 492.041 462.677C497.26 460.677 502.283 458.097 506.58 454.458C510.783 440.417 506.963 426.157 506.56 411.917C504.599 399.237 502.021 386.677 499.72 374.077C498.7 363.958 496.782 353.917 496.54 343.716C495.38 337.318 495.36 330.798 496.622 324.398C496.942 317.377 497.122 310.337 497.919 303.357C503.88 311.638 506.962 321.857 506.642 332.037C506.54 336.697 507.443 341.299 508.56 345.818C506.201 351.158 506.54 357.058 506.56 362.738C508.521 363.779 510.482 364.818 512.443 365.857C513.521 371.937 514.099 379.177 519.822 382.898C525.822 383.857 528.963 377.738 532.361 373.998C535.22 362.937 529.841 352.158 525.642 342.217C521.521 333.658 519.501 324.358 516.9 315.299C514.142 306.217 514.142 296.498 510.72 287.578C505.021 277.318 504.72 265.278 501.54 254.198C499.7 245.258 495.161 237.258 490.36 229.618C485.321 221.437 476.782 216.517 469.962 210.038C455.821 196.958 438.9 187.559 422.919 176.998C408.821 168.858 393.462 162.978 377.899 158.238C374.641 157.358 371.36 156.538 368.122 155.637C349.54 153.077 330.802 150.158 312.001 151.937C301.141 153.137 290.12 152.217 279.38 154.358C272.78 155.257 266 155.358 259.401 154.257C251.64 152.577 243.481 152.937 235.981 149.997C233.321 149.117 230.64 148.297 227.96 147.417C218.02 145.097 207.94 145.517 198.12 148.257C185.96 147.637 173.82 142.737 161.7 145.697C149.679 149.717 145.639 163.277 142.559 174.237C132.539 189.337 128.2 207.136 121.759 223.877C118.36 232.937 114.499 241.837 110.32 250.558C108.08 252.597 106.487 255.491 103.847 256.831C97.868 258.671 91.892 259.607 84.922 259.664C82.963 259.68 80.222 259.948 78.462 260.827C79.482 262.388 80.455 262.865 82.032 263.857C84.354 265.318 87.219 265.357 89.939 265.756C94.399 266.636 98.939 266.836 103.459 267.057C103.299 269.636 102.889 273.437 102.749 275.996C96.849 276.956 91.25 277.085 85.279 277.536C83.793 277.648 77.646 276.932 77.555 277.738C77.453 278.659 83.449 281.936 84.7 282.72Z" fill="white"/>
<path d="M50 50V550H550.001V50H50ZM85.28 277.54C91.251 277.089 96.849 276.96 102.75 276C102.89 273.44 103.3 269.64 103.46 267.061C98.94 266.84 94.4 266.64 89.94 265.76C87.219 265.361 84.355 265.322 82.033 263.861C80.456 262.869 79.482 262.391 78.463 260.831C80.223 259.952 82.964 259.684 84.923 259.668C91.893 259.611 97.868 258.675 103.848 256.835C106.488 255.494 108.08 252.601 110.321 250.562C114.501 241.841 118.361 232.941 121.76 223.881C128.2 207.141 132.54 189.341 142.56 174.241C145.64 163.281 149.68 149.72 161.701 145.701C173.821 142.741 185.961 147.64 198.121 148.261C207.941 145.521 218.02 145.101 227.961 147.421C230.641 148.301 233.321 149.121 235.982 150.001C243.482 152.94 251.641 152.581 259.402 154.261C266.002 155.362 272.782 155.261 279.381 154.362C290.121 152.221 301.142 153.141 312.002 151.941C330.803 150.162 349.541 153.082 368.123 155.641C371.361 156.541 374.643 157.362 377.9 158.242C393.462 162.982 408.822 168.862 422.92 177.002C438.9 187.563 455.822 196.962 469.963 210.042C476.783 216.521 485.322 221.441 490.361 229.622C495.162 237.262 499.701 245.262 501.541 254.202C504.721 265.282 505.021 277.322 510.721 287.582C514.143 296.502 514.143 306.221 516.901 315.303C519.503 324.362 521.522 333.662 525.643 342.221C529.842 352.162 535.221 362.942 532.362 374.002C528.964 377.742 525.823 383.861 519.823 382.902C514.1 379.181 513.522 371.941 512.444 365.861C510.483 364.822 508.522 363.783 506.561 362.742C506.541 357.062 506.202 351.162 508.561 345.822C507.444 341.302 506.541 336.701 506.643 332.041C506.963 321.861 503.881 311.643 497.92 303.361C497.123 310.341 496.943 317.381 496.623 324.402C495.361 330.802 495.381 337.322 496.541 343.72C496.783 353.921 498.701 363.962 499.721 374.081C502.022 386.681 504.6 399.241 506.561 411.921C506.963 426.161 510.784 440.421 506.581 454.462C502.284 458.101 497.261 460.681 492.042 462.681C486.144 463.72 480.241 464.822 474.241 464.701C465.624 462.283 455.182 464.221 448.643 456.822C448.702 451.422 447.944 445.761 449.803 440.582C456.201 428.541 458.92 413.342 453.08 400.541C449.861 396.201 445.342 393.002 441.783 388.963C440.283 388.742 438.803 388.541 437.322 388.361C433.56 400.582 430.381 413.22 430.982 426.101C431.4 433.642 429.802 441.021 428.42 448.38C424.92 451.521 421.662 455.122 417.502 457.421C400.561 462.581 376.881 459.921 368.502 442.021C370.881 436.623 374.662 432.123 378.061 427.402C383.944 417.562 389.76 407.402 392.342 396.123C393.944 386.422 392.963 376.562 393.201 366.783C388.681 362.701 383.221 360.021 377.9 357.181C375.802 356.962 373.72 356.761 371.623 356.562C363.283 350.601 353.1 348.462 343.861 344.361C341.341 343.422 338.841 342.482 336.341 341.541C331.22 339.803 326.099 338.041 320.962 336.361C322.321 352.521 319.021 368.341 316.099 384.123C314.701 393.361 315.4 402.742 315.24 412.062C314.74 422.88 322.881 432.623 320.06 443.541C318.22 450.941 310.759 454.602 303.982 456.342C289.201 456.783 272.621 458.463 259.72 449.803C256.14 439.403 264.14 430.162 264.861 420.063C265.52 405.643 266.201 390.682 260.081 377.221C257.421 382.602 254.781 388.082 253.501 393.983C251.121 406.022 246.161 417.503 245.381 429.862C245.121 435.542 245.181 441.202 245.061 446.882C241.742 450.103 238.402 453.923 233.541 454.542C223.801 455.583 213.981 455.063 204.221 454.583C196.461 451.823 188.301 450.583 180.341 448.583C181.442 444.382 181.982 439.923 183.982 436.042C186.442 433.522 189.561 431.804 192.482 429.923C193.921 425.362 194.902 420.663 195.601 415.943C198.381 406.744 203.362 397.964 203.181 388.125C203.421 374.764 204.702 361.484 205.421 348.145C206.301 345.364 207.021 342.543 207.761 339.723C209.362 336.043 210.942 332.344 212.521 328.664C213.482 325.043 214.542 321.443 215.582 317.844C220.222 307.383 223.162 296.124 224.322 284.744C222.702 279.683 219.681 275.244 217.082 270.643C213.342 270.824 209.602 271.043 205.862 271.324C199.902 274.384 193.382 276.223 187.662 279.744C182.021 283.204 178.002 289.364 171.002 290.264C170.942 288.164 170.882 286.044 170.822 283.944C167.122 284.545 163.422 285.184 159.822 286.205C158.362 286.545 155.422 287.205 153.942 287.524C149.181 288.684 144.381 289.745 139.662 291.024C139.302 296.085 138.322 301.065 136.402 305.764C133.862 311.764 134.641 318.405 134.742 324.744C134.322 324.785 133.502 324.863 133.082 324.883C131.982 342.444 122.036 364.891 135.842 377.824C137.881 379.734 142.103 380.982 146.962 378.965C150.608 377.451 153.452 373.875 154.902 370.244C156.512 366.211 155.181 361.584 155.301 357.264C156.801 357.364 158.322 357.465 159.841 357.584C163.521 359.484 167.402 359.203 170.521 356.443C171.841 355.023 173.141 353.584 174.461 352.164C176.301 361.305 177.641 370.625 176.301 379.943C175.421 381.923 174.561 383.923 173.721 385.943C171.061 394.584 167.111 396.998 161.264 402.306C159.316 404.076 155.083 406.663 151.816 407.445C140.365 410.183 131.492 409.201 122.702 404.625C116.023 401.148 111.042 394.785 107.982 387.764C102.982 377.604 96.864 367.455 95.502 356.104C93.107 336.145 94.102 315.723 98.402 295.985C98.601 293.285 98.782 290.604 98.942 287.924C94.101 286.464 89.362 284.684 84.702 282.724C83.451 281.94 77.455 278.663 77.558 277.746C77.647 276.937 83.794 277.652 85.28 277.54Z" fill="#22409A"/>
<path d="M131.78 275.64C139.7 273.661 147.059 270.12 154.759 267.481C160.9 266.781 167.039 268.88 173.199 269.18C173.079 270.92 172.959 272.66 172.859 274.401C166.298 274.26 159.939 275.8 153.718 277.741C153.198 278.421 152.158 279.801 151.638 280.481C147.518 280.781 143.378 281.281 139.678 283.22C132.538 287.741 123.998 287.3 115.939 286.72C113.338 285.66 110.627 285.153 107.926 284.372C106.107 283.847 102.538 282.48 100.698 282.1C107.698 280.18 115.078 280.08 122.038 277.92C125.299 277.16 128.559 276.44 131.78 275.64Z" fill="#22409A" stroke="#22409A" stroke-width="0.1875"/>
<path d="M100.98 345.92C100.12 326.781 102.2 307.74 105.04 288.86C109.8 289.719 114.54 290.62 119.32 291.439C120.639 292.5 121.96 293.58 123.299 294.639C121.779 303.62 120.459 312.62 120.119 321.74C123.159 321.439 126.179 321.14 129.219 320.859C129.019 323.259 128.799 325.679 128.599 328.099C127.259 327.019 124.599 324.859 123.28 323.781C120.08 328.24 117.74 333.199 116.12 338.439C119.58 338.66 123.059 338.878 126.519 339.08C123.48 351.5 122.254 365.691 129.719 376.199C130.031 376.638 130.918 377.269 131.24 377.699C135.774 383.752 142.752 385.519 148.76 383.56C155.88 381.238 157.861 372.039 159.64 364.839C163.3 368.099 167.321 370.198 171.56 366.198C171.361 370.979 174.004 376.766 171.04 380.518C168.829 383.317 163.322 380.903 160.68 383.319C158.826 385.014 163.173 389.602 161.334 391.333C155.168 397.132 157.167 402.165 140.334 401.665C136.756 401.56 127.667 400.665 124.334 397.999C110.889 387.246 99.059 364.981 100.98 345.92Z" fill="#22409A" stroke="#22409A" stroke-width="0.1875"/>
<path d="M229.42 293.5C233.02 299.66 236.46 305.939 240.46 311.879C244.78 317.379 250.1 321.961 255 326.92C255.66 338.66 257.46 350.301 258.54 361.961C254.5 375.281 249.36 388.301 245.94 401.82C244.44 406.4 243 411.019 241.48 415.599C237.44 425.759 239.919 436.878 237 447.281C235.94 447.219 233.82 447.08 232.76 447.019C228.861 440.499 222.981 435.66 215.941 432.859C213.34 434.099 210.741 435.32 208.161 436.599C207.461 436.679 206.06 436.82 205.361 436.878C203.1 435.48 200.84 434.099 198.581 432.718C199.741 427.14 200.961 421.579 202.201 416.019C203.581 407.16 207.861 399.019 208.761 390.06C209.942 373.919 209.902 357.539 213.421 341.699C220.78 326.401 224.94 309.801 229.42 293.5Z" fill="#22409A" stroke="#22409A" stroke-width="0.1875"/>
<path d="M410.079 304.74C411.681 307.719 414.141 309.439 417.442 309.879C416.34 312.24 415.258 314.58 414.219 316.961C411.059 317 407.899 317.061 404.758 317.121C404.899 316.32 405.18 314.76 405.32 313.961C407.098 310.981 408.661 307.901 410.079 304.74Z" fill="#22409A" stroke="#22409A" stroke-width="0.1875"/>
<path d="M511.02 324.42C511.86 324.6 513.52 324.981 514.34 325.16C515.578 338.939 525.699 350.121 525.801 364.039C527.399 367.82 526.18 371.68 524.942 375.34C523.001 375.219 521.059 375.1 519.122 374.981C519.122 371.719 519.099 368.461 519.122 365.219C516.899 363.02 514.681 360.84 512.442 358.68C513.7 351.401 515.38 344.08 512.981 336.821L511.059 336.94C511.059 332.76 511.059 328.6 511.02 324.42Z" fill="#22409A" stroke="#22409A" stroke-width="0.1875"/>
<path d="M172.48 362.6C173.42 363.52 173.42 363.52 172.48 362.6Z" fill="#22409A" stroke="#22409A" stroke-width="0.1875"/>
<path d="M189.2 437.36C191.4 437.18 193.62 437.001 195.82 436.84C198.36 439.039 200.719 441.561 203.759 443.1C209.299 442.34 214.719 440.68 220.379 440.901C222.499 442.6 224.659 444.301 226.839 445.962C226.759 447.482 226.699 449.001 226.619 450.521C223.719 450.521 220.839 450.521 217.939 450.501C207.999 449.161 198.378 446.481 188.579 444.44C188.78 442.08 188.98 439.719 189.2 437.36Z" fill="#22409A" stroke="#22409A" stroke-width="0.1875"/>
<path d="M375.321 438.42C379.981 438.32 384.481 439.461 388.641 441.52C388.739 444.1 388.821 446.68 388.942 449.282C390.442 449.18 393.481 449.001 395.001 448.921C395.181 446.501 395.36 444.101 395.56 441.681C397.302 441.501 399.04 441.322 400.783 441.142C401.943 441.902 404.26 443.402 405.42 444.162C404.522 447.861 404.041 452.101 401.1 454.861C396.983 455.22 393.002 453.783 389.061 452.861V451.802C383.92 450.22 379.463 447.2 375.26 443.962C375.282 442.58 375.301 439.801 375.321 438.42Z" fill="#22409A" stroke="#22409A" stroke-width="0.1875"/>
<path d="M305.981 164.8C308.942 164.821 311.899 164.88 314.86 164.96C314.86 166.88 314.86 168.78 314.86 170.7C313.122 170.639 311.38 170.58 309.661 170.519C308.419 168.62 307.2 166.7 305.981 164.8Z" fill="#F6F8FB" stroke="#F6F8FB" stroke-width="0.1875"/>
<path d="M325.001 165.2C326.04 165.08 328.099 164.84 329.142 164.72L329.001 167.3C330.462 167.26 333.38 167.2 334.841 167.18C334.9 168.14 335.001 170.061 335.06 171.02C331.861 170.781 328.662 170.561 325.462 170.361C325.301 168.64 325.161 166.92 325.001 165.2Z" fill="#F6F8FB" stroke="#F6F8FB" stroke-width="0.1875"/>
<path d="M248.98 172.061C252 170.321 255.019 168.621 258.019 166.861C264.139 166.861 270.219 167.76 276.16 169.161C282.019 172.161 287.78 175.361 293.2 179.081C293.08 182.381 292.92 185.701 292.76 189.001C291.16 189.062 287.981 189.201 286.401 189.281C282.441 184.501 277.76 180.14 272.041 177.581C265.381 176.141 258.481 177.101 251.721 176.961C250.82 175.32 249.9 173.7 248.98 172.061Z" fill="#F6F8FB" stroke="#F6F8FB" stroke-width="0.1875"/>
<path d="M238.36 206.481C241.38 204.96 244.38 203.44 247.4 201.92C247.28 205.8 247.16 209.7 247.04 213.58C244.58 213.54 242.14 213.48 239.7 213.42C233.74 216.34 228.48 220.46 224.12 225.46C222.099 224.64 216.099 226.561 218.78 222.2C218.74 218.2 223.74 217.9 226.28 216.019C228.36 212.759 228.84 206.74 233.92 207.099C235.019 206.96 237.259 206.64 238.36 206.481Z" fill="#F6F8FB" stroke="#F6F8FB" stroke-width="0.1875"/>
<path d="M440.18 206.08C440.641 205.7 441.578 204.92 442.039 204.54C442.758 205.42 444.18 207.16 444.898 208.04C444.839 208.88 444.738 210.58 444.679 211.439C443.058 213.299 441.441 215.179 439.859 217.08C435.597 216.38 431.379 215.5 427.16 214.64C427.219 216.201 427.379 219.321 427.441 220.901C425.121 219.901 422.781 218.94 420.441 217.981C420.879 217.661 421.8 217.02 422.257 216.68C423.237 215.12 424.077 212 426.558 213.361C432.059 214.16 435.641 208.3 440.18 206.08Z" fill="#F6F8FB" stroke="#F6F8FB" stroke-width="0.1875"/>
<path d="M411.219 231.54C413.758 227.96 416.781 224.64 421.301 223.76C421.02 225.7 420.739 227.64 420.442 229.561C415.782 236.561 416.661 245.321 414.899 253.201C412.782 253.14 408.559 253.041 406.461 252.981C406.66 248.46 408.219 244.26 410.598 240.44C410.84 237.481 411.04 234.5 411.219 231.54Z" fill="#F6F8FB" stroke="#F6F8FB" stroke-width="0.1875"/>
<path d="M336.641 243.401C336.598 236.64 331.481 225.64 341.18 223.321C341.442 229.22 340.86 235.361 343.34 240.901C346.66 248.861 344.781 257.581 345.059 265.921C343.641 265.562 340.782 264.861 339.36 264.501C338.899 261.421 338.782 258.341 338.641 255.241C336.121 254.381 333.641 253.52 331.141 252.661C331.801 248.201 327.258 239.861 335.282 239.881C335.321 241.181 335.36 243.781 335.38 245.081C337.142 244.661 338.919 244.241 340.7 243.821C339.68 243.7 337.661 243.5 336.641 243.401Z" fill="#F6F8FB" stroke="#F6F8FB" stroke-width="0.1875"/>
<path d="M269.88 234.92C271.52 231.2 275.901 233.1 278.96 232.7C278.84 233.519 278.64 235.2 278.54 236.019C277.92 237.16 276.68 239.459 276.06 240.599C273.52 240.959 270.981 241.32 268.46 241.66C268.64 239.4 268.82 237.12 269.02 234.86L269.88 234.92Z" fill="#F6F8FB" stroke="#F6F8FB" stroke-width="0.1875"/>
<path d="M276.799 245.08C281.019 243.62 284.48 245.28 286.86 248.96C286.799 250 286.719 252.12 286.679 253.18C284.539 253.061 282.4 252.94 280.259 252.821C279.12 250.24 277.96 247.66 276.799 245.08Z" fill="#F6F8FB" stroke="#F6F8FB" stroke-width="0.1875"/>
<path d="M410.501 263.8C413.021 260.5 415.462 256.78 419.821 255.861C419.598 258.581 419.399 261.34 419.18 264.081C424.301 272.141 418.782 283.261 411.539 288.081C411.398 286.761 411.121 284.101 410.98 282.781C409.3 282.821 405.918 282.901 404.218 282.94C404.597 279.861 405.14 276.821 405.859 273.821C408.718 273.001 411.679 272.561 414.621 272.081C414.699 271.281 414.84 269.661 414.918 268.861C413.442 267.18 411.981 265.481 410.501 263.8Z" fill="#F6F8FB" stroke="#F6F8FB" stroke-width="0.1875"/>
<path d="M390.758 264.86C393.84 267.62 397.461 270.08 399.52 273.799C398.04 278.839 395.801 283.599 393.899 288.48C390.18 281.12 390.801 272.84 390.758 264.86Z" fill="#F6F8FB" stroke="#F6F8FB" stroke-width="0.1875"/>
<path d="M344.919 270.52C350.481 271.081 356.001 271.981 361.521 272.92L361.58 276.44C358.041 277.981 354.521 279.621 351.06 281.321C350.283 284.72 349.501 288.14 348.783 291.561L344.623 291.161C344.88 284.28 344.801 277.401 344.919 270.52Z" fill="#F6F8FB" stroke="#F6F8FB" stroke-width="0.1875"/>
<path d="M321.258 280C324.68 281.04 328.02 282.26 331.399 283.46C331.18 285.12 330.961 286.82 330.739 288.5C329.501 288.561 327.04 288.68 325.821 288.74C325.899 293.719 322.88 297.32 319.2 300.219C319.22 302.981 319.239 305.76 319.239 308.52C316.559 306.94 313.942 305.321 311.321 303.641C310.36 303.34 308.399 302.719 307.442 302.401C307.34 300.68 307.239 298.94 307.141 297.22C309.68 296.401 312.2 295.561 314.758 294.76C315.559 292.16 316.399 289.561 317.219 286.96C318.16 286.92 320.02 286.86 320.942 286.82C321.02 285.12 321.18 281.7 321.258 280Z" fill="#F6F8FB" stroke="#F6F8FB" stroke-width="0.1875"/>
<path d="M383.962 295.42C386.841 295.78 389.661 296.58 392.501 297.22C393.759 301.42 396.079 305.621 395.321 310.141C393.899 314.901 391.622 319.321 389.68 323.86C388.821 329.719 387.078 335.36 384.899 340.84C382.961 340.94 379.122 341.16 377.2 341.26C375.7 339.641 374.18 338.039 372.661 336.44C371.54 327.641 372.7 318.719 378.38 311.6C379.442 306 380.559 300.16 383.962 295.42Z" fill="#F6F8FB" stroke="#F6F8FB" stroke-width="0.1875"/>
<path d="M301.399 331.401C303.04 331.219 304.68 331.061 306.34 330.88C306.942 331.821 308.121 333.7 308.699 334.642C308.801 335.742 308.98 337.902 309.058 338.982C307.578 338.982 304.64 338.982 303.16 338.982C302.68 339.662 301.738 341.041 301.28 341.742C301.281 338.281 301.339 334.84 301.399 331.401Z" fill="#F6F8FB" stroke="#F6F8FB" stroke-width="0.1875"/>
<path d="M450.641 370.781C451.739 370.76 453.899 370.74 454.981 370.719C454.239 373.44 454.282 376.061 455.098 378.58C457.68 380 460.481 380.98 463.258 381.961C463.36 385.84 463.481 389.719 463.559 393.6C461.539 393.379 459.52 393.161 457.52 392.94C457.161 388.901 457.418 384.782 456.442 380.821C455.501 381.001 453.641 381.401 452.719 381.6L453.578 378.719L451.058 378.92C450.919 376.199 450.782 373.481 450.641 370.781Z" fill="#F6F8FB" stroke="#F6F8FB" stroke-width="0.1875"/>
<path d="M299.299 397.82C302.078 399.48 305.301 400.82 307.219 403.621C306.039 408.199 304.16 412.58 302.598 417.06C299.719 415.378 296.86 413.679 293.98 412.06C290.339 410.759 287.16 408.679 285.919 404.74C290.319 404.64 294.719 404.801 299.099 405.039C299.16 403.24 299.24 399.621 299.299 397.82Z" fill="#F6F8FB" stroke="#F6F8FB" stroke-width="0.1875"/>
<path d="M485.219 431.52C486.739 431.561 488.281 431.622 489.821 431.68C491.18 433.44 492.559 435.2 493.942 436.981C491.239 438.34 488.258 438.92 485.282 439.282C485.219 436.68 485.219 434.1 485.219 431.52Z" fill="#F6F8FB" stroke="#F6F8FB" stroke-width="0.1875"/>
<path d="M507.739 307.5C508.2 307.561 509.098 307.699 509.559 307.76C509.141 304.5 508.719 301.26 508.2 298.04C501.942 284.68 498.399 270.36 496.481 255.78C493.919 248.58 491.301 241.32 487.52 234.66C482.079 226.12 473.161 220.78 466 213.88C449.5 198.901 429.918 188.28 410.879 177C392.461 167.52 371.981 163.061 351.781 159.24C339.898 158.179 327.859 155.86 315.961 157.96C310.199 158.939 304.359 159.04 298.539 159.16C299.499 162.8 300.499 166.4 301.418 170.04C305.379 172.54 309.219 175.24 313.078 177.86C312.941 179.219 312.801 180.58 312.66 181.939C300.159 190.5 292.659 203.9 282.759 215C275.559 222.76 271.94 234.16 261.179 238.08C261.119 236.14 261.059 234.18 260.999 232.24C265.699 226.939 270.679 221.86 274.799 216.08C276.759 211.26 274.099 206.2 272.86 201.54C271.24 201.26 267.98 200.66 266.36 200.38C267.38 198.04 268.54 195.78 269.88 193.62C273.72 192.019 277.64 194.12 281.32 195.18C280.42 199.5 279.42 203.8 278.799 208.16C282.659 206.28 285.259 202.9 287.839 199.639C293.039 192.919 299.019 186.86 304.961 180.78C304.84 180.099 304.641 178.74 304.52 178.06C300.299 175.499 296.139 172.839 291.919 170.299C288.519 169.019 285.139 167.739 281.759 166.48C271.799 159.759 259.519 160.139 248.459 163.599C245.679 165.959 242.799 168.179 239.959 170.459C234.219 171.379 228.419 171.139 222.659 170.938C222.799 169.279 222.959 167.638 223.098 165.979C224.279 165.138 226.619 163.479 227.779 162.638C231.598 163.438 235.319 164.538 239.098 165.498C238.939 164.158 238.598 161.458 238.439 160.098C239.739 160.479 242.359 161.199 243.659 161.559C243.279 160.838 242.539 159.399 242.159 158.659C233.518 156.279 225.079 152.199 215.919 152.539C203.279 153.339 190.359 151.479 178.159 155.799C177.098 153.579 175.919 151.419 174.638 149.32C163.598 147.78 151.159 156.5 150.638 168C151.798 172.18 155.078 175.82 154.659 180.38C151.779 180.981 148.899 181.44 145.999 181.78C138.379 192.46 133.259 204.86 132.399 218.04C127.459 231.26 119.999 243.3 114.279 256.16C113.558 258.04 112.839 259.92 112.119 261.8C110.518 266.14 109.299 270.62 108.479 275.18C113.058 274.12 117.638 273.04 122.079 271.5C124.558 271.24 127.039 270.98 129.539 270.76C130.999 269.02 132.479 267.281 133.919 265.52C140.079 263.94 146.199 262.26 152.379 260.781C154.179 258.26 156.019 255.76 157.839 253.26C159.559 252.981 161.299 252.72 163.059 252.44C163.019 253.621 162.959 255.981 162.919 257.161C161.94 257.14 159.959 257.14 158.98 257.14C158.959 259.04 158.959 260.96 158.94 262.88C163.5 263.08 168.08 263.481 172.519 264.58C177.259 262.18 181.959 259.66 186.759 257.36C186.339 262.9 182.139 266.32 179.159 270.46C178.879 273.12 178.759 275.78 178.819 278.46C182.199 275.52 184.959 271.939 186.218 267.58C194.218 265.939 201.859 262.82 210.018 261.98C211.479 263.439 212.958 264.9 214.418 266.36C214.618 264.54 215.018 260.88 215.238 259.04C216.418 259.061 218.818 259.1 220.017 259.1C221.517 257.061 223.038 255.02 224.597 253C224.497 250.4 224.398 247.8 224.297 245.2C226.517 244.3 228.737 243.439 230.957 242.56C231.017 241.139 231.157 238.28 231.237 236.86C234.016 236.82 236.797 236.799 239.596 236.799C239.397 233.98 239.197 231.159 238.956 228.339C237.716 225.799 236.556 223.199 235.396 220.619C237.875 220.719 240.335 220.839 242.816 220.959C245.036 227.119 245.595 233.659 245.336 240.179C247.456 246.28 249.857 252.259 251.956 258.379C250.016 257.799 246.096 256.659 244.136 256.079C242.496 253.139 241.676 249.839 240.556 246.679C239.556 246.86 237.536 247.219 236.516 247.4C236.876 252.099 238.977 256.259 241.777 259.96C245.516 260.981 247.117 263.84 247.317 267.54C246.457 269.22 244.737 272.58 243.877 274.26C241.117 273.52 238.398 272.66 235.717 271.7C234.697 271.48 232.677 271.04 231.657 270.82C228.897 267.799 226.037 264.86 223.096 262C220.737 265.46 221.576 268.98 224.216 272C226.516 275.84 228.556 279.82 230.296 283.939C236.996 295.259 242.916 307.32 252.276 316.759C252.663 316.738 253.052 316.728 253.44 316.706C253.44 316.706 253.378 315.261 253.356 315.259C252.816 303.439 253.396 291.579 252.476 279.759C251.795 282.439 251.175 285.139 250.515 287.839C248.936 290.879 247.536 294.019 246.135 297.139C244.875 296.519 243.615 295.879 242.356 295.259C242.616 290.48 243.956 285.9 246.376 281.759C246.616 280.699 247.096 278.579 247.336 277.519C249.076 274.62 250.776 271.679 252.416 268.7C252.516 262.179 256.196 256.74 259.236 251.24C262.796 249.54 266.316 247.82 269.936 246.28C269.116 250.219 267.956 254.099 266.715 257.92C265.535 260.52 264.396 263.12 263.255 265.72C263.035 267.3 262.795 268.88 262.575 270.46C261.455 275.561 260.875 280.74 260.215 285.92C258.335 295.76 261.027 305.797 260.868 315.758C260.832 315.754 260.777 316.381 260.815 316.379C259.855 335.18 264.634 353.561 265.254 372.26C266.554 380.301 271.054 387.621 271.094 395.86C271.374 407.241 270.935 418.622 270.695 430.001C273.415 427.241 275.735 423.802 279.895 423.021C279.134 427.88 277.615 432.582 276.455 437.361C279.915 437.181 283.575 437.261 286.575 435.22C289.615 435.062 292.655 435.021 295.715 435.04C297.396 436.642 298.635 439.802 301.555 439.061C304.836 436.641 307.356 432.981 311.696 432.282C310.876 436.901 308.516 440.981 306.016 444.88C303.317 444.982 300.616 445.101 297.915 445.2C295.855 443.622 293.875 441.921 291.635 440.6C288.255 440.981 285.575 443.26 282.736 444.879C281.916 444.92 280.256 444.981 279.436 445.02C275.375 442.122 271.236 438.081 265.776 439.219C265.196 441.58 264.856 444 264.496 446.401C268.316 447.84 272.156 449.241 275.976 450.719C285.496 451.141 295.036 451.039 304.575 451C308.255 448.42 311.915 445.801 315.356 442.9C315.438 432.218 309.157 422.74 309.297 412.039C308.035 393.439 311.477 375.08 313.496 356.68C310.695 356.94 307.894 357.219 305.094 357.52C304.637 362.52 304.957 367.52 305.235 372.52C295.135 369.7 299.356 358.1 299.055 350.622C301.637 349.061 304.317 347.681 307.094 346.462C309.235 349.101 312.035 351.001 315.117 352.441C315.176 346.902 314.695 341.361 315.215 335.841C316.317 331.122 319.836 327.482 321.477 322.982C325.157 317.041 329.957 311.941 334.055 306.302C336.895 302.062 339.778 297.822 343.297 294.121C346.957 298.761 351.156 296.961 354.817 293.761C360.618 291.021 366.536 287.562 366.176 280.201C369.735 275.44 372.278 270.081 373.856 264.361C375.594 265.561 377.317 266.76 378.997 268.061C378.716 271.581 377.497 274.901 376.556 278.281C375.458 280.481 373.576 282.481 373.357 285.02C374.416 287.401 375.818 289.621 377.158 291.88C377.138 293.5 377.119 296.78 377.119 298.401C375.119 300.801 373.119 303.2 371.096 305.581C371.018 308.481 370.94 311.38 370.858 314.282C367.717 320.341 362.62 325.921 363.096 333.18C362.377 333.241 360.94 333.36 360.217 333.42C354.959 337.9 349.639 333.58 345.799 329.719C337.998 326 329.658 323.34 320.998 325.92C321.236 327.44 321.697 330.5 321.939 332.02L323.279 331.02C330.978 335.34 339.818 336.42 348.037 339.401C354.717 342.401 361.896 344.122 368.596 347.122C379.299 352.282 391.678 355.341 399.178 365.341C400.057 380.361 398.979 395.501 393.838 409.741C390.818 417.462 384.897 424.52 384.717 433.061C388.44 436.379 393.518 438.801 397.819 434.94C401.698 434.94 405.358 436.141 408.917 437.6C409.28 443.061 409.378 448.539 409.339 454.02C412.878 453.04 416.941 452.5 419.339 449.379C425.48 443.24 424.659 433.981 424.718 426.039C424.558 414.719 427.378 403.699 429.718 392.719C428.12 392.6 424.941 392.36 423.359 392.24C423.441 399.519 418.898 405.439 414.879 411.06C413.039 411.08 409.359 411.099 407.52 411.121C405.622 408.82 403.782 406.48 401.981 404.1C405.02 397.92 411.321 398.401 417.141 398.879C417.039 397.94 416.84 396.08 416.739 395.141C413.86 395.301 411.001 395.461 408.122 395.641C408.462 393.401 408.802 391.141 409.142 388.92C411.259 388.879 413.38 388.84 415.501 388.82C415.341 387.939 415.001 386.199 414.841 385.32C413.2 385.199 409.919 384.939 408.282 384.8C408.598 383.579 409.239 381.14 409.559 379.919C413.68 381.659 417.579 383.78 421.579 385.78C421.321 381.698 420.321 377.739 418.739 373.979C418.219 373.639 417.141 372.959 416.598 372.62C416.84 369.399 417.039 366.179 417.219 362.938C418.821 363.098 420.418 363.258 422.02 363.418C424.942 368.639 428.399 373.518 431.719 378.479C435 379.239 438.52 382.418 441.66 379.698C444.82 376.12 438.98 373.858 437.238 371.12C437.078 369.919 436.738 367.499 436.578 366.28C434.16 364.759 431.781 363.239 429.379 361.718C429.098 357.3 428.859 352.878 428.699 348.48C423.84 348.699 419 349.06 414.16 348.98C412.558 350.621 411.039 352.359 409.519 354.099C408.82 354.259 407.417 354.56 406.718 354.718C406.718 349.32 410.519 344.499 415.058 341.859C415.038 340.461 415.019 337.679 414.999 336.3C411.058 334.4 411.179 329.739 410.058 326.218C404.058 331.339 404.64 339.218 404.441 346.32C402.597 346.74 400.738 347.16 398.898 347.58C397.578 344.961 396.078 342.439 395.097 339.699C396.097 327.539 399.019 315.64 401.738 303.76C404.758 301.879 407.758 299.981 410.738 298.08C411.039 300.18 411.621 304.379 411.918 306.48C413.52 304.378 416.738 300.199 418.34 298.12C418.559 301.121 418.781 304.099 418.981 307.121L420.961 306.699C421.238 310.82 418.899 316.859 424.68 317.92C424.719 321.981 424.821 326.039 425.078 330.1C426.84 331.461 428.621 332.86 430.379 334.241C430.539 337.821 430.738 341.401 430.961 345.001C431.859 344.94 433.66 344.841 434.559 344.802C436.059 349.322 436.879 354.021 436.52 358.802C440.161 359.642 443.782 360.601 447.399 361.54C447.001 364.421 446.559 367.282 446.001 370.142C445.021 374.622 444.079 379.122 443.142 383.601C449.142 387.941 455.419 392.521 459.099 399.101C461.302 405.04 461.079 411.501 461.9 417.701C461.361 421.822 460.943 425.922 460.58 430.041C458.822 434.361 457.142 438.701 455.541 443.082C459.123 443.102 462.682 443.123 466.283 443.182C470.002 445.963 474.322 445.942 478.26 443.541C479.963 443.361 483.381 443.021 485.1 442.842C487.541 445.822 493.522 449.483 489.662 453.623C486.283 456.963 485.502 451.402 483.822 449.322C482.123 449.142 480.4 448.941 478.701 448.783C477.099 451.142 475.502 453.482 473.943 455.881C469.361 455.502 466.123 452.643 463.599 449.063C460.701 449.042 457.802 449.083 454.9 449.163C454.92 451.583 454.962 454.003 455.021 456.423C469.341 458.263 484.861 460.984 498.419 454.403C499.942 452.284 501.462 450.163 503.021 448.063C503.099 440.702 504.021 433.083 501.541 425.983C501.08 420.102 500.74 414.221 500.42 408.342C496.76 409.582 493.1 410.803 489.283 411.403C490.26 402.983 488.58 394.882 486.24 386.842C488.302 386.842 490.361 386.862 492.42 386.881C493.143 392.123 494.381 397.262 496.322 402.201C497.74 396.922 497.361 391.482 496.599 386.142C490.9 358.662 487.982 329.941 493.161 302.122C494.899 293.761 490.739 285.94 488.36 278.181C485.559 268.941 478.301 261.921 475.622 252.621C480.302 253.541 484.942 254.701 489.642 255.52C490.599 256.72 492.521 259.1 493.482 260.281C492.443 263.421 490.599 266.421 490.599 269.821C494.122 283.32 501.462 295.2 507.739 307.5ZM184.94 212.88C184.019 213.52 182.16 214.82 181.24 215.46C181.139 218.68 183.16 222.86 180.84 225.1C176.579 229.212 169.02 224.861 163.1 224.621C165.281 220.261 165.58 215.481 165.08 210.701C167.48 209.161 169.86 207.621 172.28 206.121C172.74 205.621 173.66 204.641 174.12 204.141C175.42 206.322 176.74 208.461 178.04 210.641C174.9 212.242 170.48 212.388 168.62 215.381C168.113 216.196 168.599 218.241 168.599 219.181C170.579 218.961 173.133 219.912 174.539 218.501C175.334 217.703 174.879 215.101 174.999 213.961C176.679 212.421 178.339 210.861 179.959 209.261C181.699 209.101 183.459 208.921 185.219 208.761C185.139 209.78 185 211.84 184.94 212.88ZM247.04 213.58C244.58 213.54 242.14 213.48 239.7 213.42C233.74 216.34 228.48 220.46 224.12 225.46C222.099 224.64 216.099 226.561 218.78 222.2C218.74 218.2 223.74 217.9 226.28 216.019C228.36 212.759 228.84 206.74 233.92 207.099C235.02 206.959 237.26 206.639 238.36 206.48C241.38 204.959 244.38 203.439 247.4 201.919C247.28 205.8 247.16 209.7 247.04 213.58ZM251.719 176.96C250.82 175.32 249.9 173.7 248.98 172.061C252 170.321 255.019 168.621 258.019 166.861C264.139 166.861 270.219 167.76 276.16 169.161C282.019 172.161 287.78 175.361 293.2 179.081C293.08 182.381 292.92 185.701 292.76 189.001C291.16 189.062 287.981 189.201 286.401 189.281C282.441 184.501 277.76 180.14 272.041 177.581C265.38 176.14 258.48 177.1 251.719 176.96ZM268.46 241.66C268.64 239.4 268.82 237.12 269.02 234.86L269.88 234.92C271.52 231.2 275.901 233.1 278.96 232.7C278.84 233.519 278.64 235.2 278.54 236.019C277.92 237.16 276.68 239.459 276.06 240.599C273.519 240.96 270.98 241.32 268.46 241.66ZM276.799 245.08C281.019 243.62 284.48 245.28 286.86 248.96C286.799 250 286.719 252.12 286.679 253.18C284.539 253.061 282.4 252.94 280.259 252.821C279.12 250.24 277.96 247.66 276.799 245.08ZM299.099 405.039C299.16 403.24 299.24 399.621 299.299 397.82C302.078 399.48 305.301 400.82 307.219 403.621C306.039 408.199 304.16 412.58 302.598 417.06C299.719 415.378 296.86 413.679 293.98 412.06C290.339 410.759 287.16 408.679 285.919 404.74C290.32 404.641 294.719 404.801 299.099 405.039ZM329.141 164.72L329 167.3C330.461 167.26 333.379 167.2 334.84 167.18C334.899 168.14 335 170.061 335.059 171.02C331.86 170.781 328.661 170.561 325.461 170.361C325.301 168.64 325.16 166.921 325 165.201C326.04 165.08 328.098 164.84 329.141 164.72ZM309.661 170.52C308.419 168.621 307.2 166.701 305.981 164.8C308.942 164.821 311.899 164.88 314.86 164.96C314.86 166.88 314.86 168.78 314.86 170.7C313.122 170.64 311.38 170.58 309.661 170.52ZM303.161 338.981C302.681 339.661 301.739 341.04 301.281 341.741C301.281 338.282 301.34 334.841 301.399 331.401C303.04 331.219 304.68 331.061 306.34 330.88C306.942 331.821 308.121 333.7 308.699 334.642C308.801 335.742 308.98 337.902 309.058 338.982C307.579 338.981 304.641 338.981 303.161 338.981ZM330.739 288.5C329.501 288.561 327.04 288.68 325.821 288.74C325.899 293.719 322.88 297.32 319.2 300.219C319.22 302.981 319.239 305.76 319.239 308.52C316.559 306.94 313.942 305.321 311.321 303.641C310.36 303.34 308.399 302.719 307.442 302.401C307.34 300.68 307.239 298.94 307.141 297.22C309.68 296.401 312.2 295.561 314.758 294.76C315.559 292.16 316.399 289.561 317.219 286.96C318.16 286.92 320.02 286.86 320.942 286.82C321.02 285.12 321.18 281.7 321.258 280C324.68 281.04 328.02 282.26 331.399 283.46C331.18 285.12 330.962 286.82 330.739 288.5ZM339.36 264.5C338.899 261.42 338.782 258.34 338.641 255.24C336.121 254.38 333.641 253.519 331.141 252.66C331.801 248.2 327.258 239.86 335.282 239.88C335.321 241.18 335.36 243.78 335.38 245.08C337.142 244.66 338.919 244.24 340.7 243.82C339.68 243.7 337.661 243.5 336.641 243.4C336.598 236.639 331.481 225.639 341.18 223.32C341.442 229.219 340.86 235.36 343.34 240.9C346.66 248.86 344.781 257.58 345.059 265.92C343.641 265.561 340.782 264.86 339.36 264.5ZM351.059 281.32C350.282 284.719 349.5 288.139 348.782 291.56L344.622 291.16C344.88 284.28 344.802 277.4 344.919 270.519C350.481 271.08 356.001 271.98 361.521 272.919L361.58 276.439C358.04 277.981 354.52 279.62 351.059 281.32ZM395.321 310.141C393.899 314.901 391.622 319.321 389.68 323.86C388.821 329.719 387.078 335.36 384.899 340.84C382.961 340.94 379.122 341.16 377.2 341.26C375.7 339.641 374.18 338.039 372.661 336.44C371.54 327.641 372.7 318.719 378.38 311.6C379.442 306 380.56 300.161 383.962 295.42C386.841 295.78 389.661 296.58 392.501 297.22C393.758 301.42 396.079 305.621 395.321 310.141ZM393.899 288.481C390.18 281.121 390.801 272.84 390.758 264.861C393.84 267.621 397.461 270.081 399.52 273.8C398.04 278.84 395.801 283.6 393.899 288.481ZM411.54 288.08C411.399 286.76 411.122 284.1 410.981 282.78C409.301 282.82 405.919 282.9 404.219 282.939C404.598 279.86 405.141 276.82 405.86 273.82C408.719 273 411.68 272.56 414.622 272.08C414.7 271.28 414.841 269.66 414.919 268.86C413.442 267.179 411.981 265.48 410.501 263.799C413.021 260.499 415.462 256.779 419.821 255.86C419.598 258.58 419.399 261.339 419.18 264.08C424.301 272.14 418.782 283.26 411.54 288.08ZM420.442 229.561C415.782 236.561 416.661 245.321 414.899 253.201C412.782 253.14 408.559 253.041 406.461 252.981C406.66 248.46 408.219 244.26 410.598 240.44C410.84 237.481 411.039 234.501 411.219 231.541C413.758 227.961 416.781 224.641 421.301 223.761C421.02 225.7 420.739 227.64 420.442 229.561ZM444.68 211.44C443.059 213.3 441.442 215.18 439.86 217.081C435.598 216.381 431.38 215.501 427.161 214.641C427.22 216.202 427.38 219.322 427.442 220.902C425.122 219.902 422.782 218.941 420.442 217.982C420.88 217.662 421.801 217.021 422.258 216.681C423.238 215.121 424.078 212.001 426.559 213.362C432.059 214.162 435.641 208.301 440.18 206.082C440.641 205.702 441.578 204.922 442.039 204.542C442.758 205.422 444.18 207.162 444.898 208.042C444.84 208.88 444.739 210.58 444.68 211.44ZM457.52 392.94C457.161 388.901 457.418 384.782 456.442 380.821C455.501 381.001 453.641 381.401 452.719 381.6L453.578 378.719L451.058 378.92C450.917 376.199 450.781 373.481 450.64 370.781C451.738 370.76 453.898 370.74 454.98 370.719C454.238 373.44 454.281 376.061 455.097 378.58C457.679 380 460.48 380.98 463.257 381.961C463.359 385.84 463.48 389.719 463.558 393.6C461.54 393.379 459.52 393.16 457.52 392.94ZM489.821 431.68C491.18 433.44 492.559 435.2 493.942 436.981C491.239 438.34 488.258 438.92 485.282 439.282C485.22 436.68 485.22 434.1 485.22 431.52C486.739 431.561 488.282 431.621 489.821 431.68Z" fill="#22409A"/>
</svg>
