<svg width="16" height="16" viewBox="0 0 16 16" fill="none" xmlns="http://www.w3.org/2000/svg">
<g clip-path="url(#clip0_1197_13779)">
<path d="M13.6432 8.50966C12.7861 7.99537 12.6194 10.0573 12.6432 11.1525C13.0242 10.5096 13.7499 9.22477 13.7861 9.15248C13.8575 9.00963 13.9289 8.79534 13.6432 8.50966Z" fill="#DE8F57"/>
<path d="M13.8573 8.79531C13.2859 7.99531 12.8097 9.89056 12.643 10.9382L12.4287 11.9382C13.643 11.4382 13.8573 9.15249 13.8573 8.79531Z" fill="#F8AD73"/>
<path d="M2.35711 8.65223C3.21425 8.13795 3.38092 10.1999 3.35711 11.2951C2.97617 10.6522 2.25042 9.36735 2.21428 9.29506C2.14285 9.15221 2.07142 8.93792 2.35711 8.65223Z" fill="#DE8F57"/>
<path d="M2.14307 8.93789C2.7145 8.13789 3.19069 10.0331 3.35735 11.0807L3.57164 12.0808C2.35735 11.5808 2.14307 9.29506 2.14307 8.93789Z" fill="#FBAD6F"/>
<path d="M12.7859 8.4281C13.8573 16.7853 3.42871 19.7139 2.92871 8.4281C5.00014 0.928096 6.85728 4.64238 9.643 4.07095C11.4716 4.69952 12.5001 7.23762 12.7859 8.4281Z" fill="#FBC088" stroke="#F9AE77" stroke-width="0.2"/>
<path d="M12.8574 9.00006C12.8574 7.42863 11.2145 5.21434 11.1431 5.14291C12.5145 4.91434 13.2668 5.69053 13.4573 6.07147C13.743 7.28576 13.6431 7.8572 12.8574 9.00006Z" fill="#201F25"/>
<path d="M3.02894 8.71387C3.02894 7.97101 3.88609 6.26148 4.31466 5.49958C4.24323 5.40434 3.91466 5.11387 3.17181 4.71387C2.71466 5.17101 2.50514 5.76148 2.45752 5.99958C2.24323 6.73768 2.05752 8.31387 3.02894 8.71387Z" fill="#201F25"/>
<path d="M7.67159 5.42857C7.38587 5.14286 7.4573 1.69047 7.52873 0C7.88586 0 8.60016 0.142857 12.3859 2.14286C12.3144 2.57143 12.3859 3.35714 13.0287 5.57143C12.3859 4.85714 8.67159 5.28571 7.67159 5.42857Z" fill="#E8E7E5"/>
<path d="M3.95724 2.14286C4.12867 1.8 6.40962 0.571429 7.52867 0C7.3001 2.4 7.52867 4.61904 7.67152 5.42857C6.26677 5.45239 3.28581 5.5 2.6001 5.5C3.02867 5 3.31438 3.71429 3.95724 2.14286Z" fill="#AFB1B0"/>
<path d="M10.1131 7.28983C10.9449 7.35866 11.2348 7.63663 11.2758 7.76702L10.7143 7.57106L10.0715 7.49963H9.57149L9.14291 7.71392L8.70654 7.66039C9.21039 7.25236 9.55757 7.26678 10.1131 7.28983Z" fill="#5C4531" fill-opacity="0.7"/>
<path d="M5.67162 7.23624C6.5057 7.20457 6.8269 7.44568 6.88324 7.57019L6.42885 7.64298L5.92885 7.50012H5.50028H5.21457L4.85742 7.57155L4.31982 7.77319C4.77097 7.30755 5.11737 7.28012 5.67162 7.23624Z" fill="#5C4531" fill-opacity="0.7"/>
<path d="M6.71436 13.1426C7.20007 13.3629 8.1715 13.6567 9.14293 13.1426C8.57626 13.1426 8.25246 13.2895 6.71436 13.1426Z" fill="#E19B67"/>
<path d="M10.1429 9.42871C10.3796 9.42871 10.5715 9.20485 10.5715 8.92871C10.5715 8.65257 10.3796 8.42871 10.1429 8.42871C9.90623 8.42871 9.71436 8.65257 9.71436 8.92871C9.71436 9.20485 9.90623 9.42871 10.1429 9.42871Z" fill="#855931"/>
<path d="M5.85728 9.42871C6.09398 9.42871 6.28585 9.20485 6.28585 8.92871C6.28585 8.65257 6.09398 8.42871 5.85728 8.42871C5.62059 8.42871 5.42871 8.65257 5.42871 8.92871C5.42871 9.20485 5.62059 9.42871 5.85728 9.42871Z" fill="#855931"/>
<path d="M8.00256 9.56665C8.19743 10.8607 8.36155 11.0898 7.57178 11.1033C8.18718 11.6155 8.40878 10.8778 8.35749 10.5004C8.34046 10.3288 8.16758 9.77625 8.08962 9.25755C8.02671 8.83906 8.02559 8.44262 8.21795 8.28613C7.83231 8.3724 7.91366 9.17576 8.00256 9.56665Z" fill="#C59366"/>
</g>
<defs>
<clipPath id="clip0_1197_13779">
<rect width="11.7143" height="16" fill="white" transform="translate(2.14307)"/>
</clipPath>
</defs>
</svg>
