<svg width="779" height="779" viewBox="0 0 779 779" fill="none" xmlns="http://www.w3.org/2000/svg">
<rect x="3" y="3" width="773" height="773" rx="386.5" fill="white"/>
<rect x="3" y="3" width="773" height="773" rx="386.5" stroke="black" stroke-width="6"/>
<path d="M217.896 274.712C207.531 275.588 195.013 278.435 184.539 282.34C180.561 283.836 170.488 288.69 166.911 290.88C161.655 294.092 159.904 295.259 159.32 295.88C158.955 296.281 158.517 296.61 158.298 296.61C156.947 296.61 142.568 309.639 138.152 314.858C134.794 318.836 130.196 325.004 128.663 327.559C128.444 327.887 127.677 329.165 126.874 330.332C126.108 331.537 125.378 332.778 125.269 333.07C125.159 333.398 124.466 334.712 123.699 336.026C118.517 345.223 113.955 359.42 112.349 371.318C111.436 378.106 111.29 390.332 112.02 396.792C113.042 405.807 113.225 407.194 114.064 411.208C116.071 420.807 117.568 425.916 120.67 433.763C126.108 447.559 134.064 459.858 144.101 470.077C152.75 478.873 162.057 485.624 172.823 490.916C180.816 494.821 181.984 495.332 189.794 497.96C198.115 500.77 211.801 503.435 222.458 504.274C229.831 504.894 241.692 504.019 252.75 502.048C259.794 500.807 266.582 499.055 271.582 497.23C273.48 496.537 275.524 495.807 276.108 495.588C281.29 493.763 290.451 489.019 296.181 485.186C305.488 478.946 312.86 471.975 321.363 461.391C322.166 460.405 323.006 459.311 323.188 458.982C323.407 458.654 324.575 456.902 325.816 455.077C328.882 450.515 332.349 444.602 334.356 440.405C336.655 435.515 337.312 434.384 338.042 433.727C338.736 433.143 342.933 433.106 415.159 433.106C480.67 433.106 491.582 433.179 491.947 433.617C492.276 434.019 492.385 441.646 492.349 464.347C492.349 492.121 492.385 494.566 492.933 495.186C493.517 495.843 494.867 495.88 526.911 495.88C549.21 495.88 560.524 495.77 560.998 495.515C561.655 495.15 561.692 494.493 561.692 473.836C561.692 453.325 561.728 452.522 562.385 451.938C563.006 451.391 563.736 451.318 567.823 451.427C571.108 451.5 572.714 451.683 573.115 452.048C573.663 452.486 573.736 454.493 573.736 473.836C573.736 494.493 573.772 495.15 574.429 495.515C575.524 496.099 640.962 496.026 641.546 495.442C641.874 495.113 641.984 487.741 641.984 464.566C641.984 444.311 642.093 433.909 642.349 433.435C642.714 432.778 643.261 432.741 654.502 432.741C661.254 432.741 666.473 432.595 666.801 432.376C667.276 432.084 667.349 427.084 667.422 391.464C667.495 364.931 667.385 350.661 667.13 350.223C666.801 349.529 662.641 349.529 502.349 349.529C390.269 349.529 337.714 349.42 337.203 349.165C336.436 348.727 335.415 346.975 335.415 346.062C335.415 345.734 335.086 344.785 334.685 343.982C334.283 343.143 333.955 342.303 333.955 342.121C333.955 341.245 328.115 329.383 327.166 328.325C326.874 328.033 326.655 327.632 326.655 327.486C326.655 327.084 323.553 322.34 321.254 319.238C315.488 311.5 309.904 305.697 302.385 299.748C298.553 296.719 294.539 294.019 288.882 290.661C287.933 290.113 280.925 286.683 276.473 284.566C274.794 283.763 265.998 280.697 263.334 279.967C257.02 278.252 252.02 277.157 246.728 276.318C243.407 275.807 239.721 275.223 238.517 275.04C235.488 274.566 222.093 274.347 217.896 274.712ZM234.137 286.573C245.415 287.814 252.276 289.092 259.685 291.245C264.539 292.668 271.509 295.113 273.188 295.989C273.809 296.318 275.852 297.34 277.787 298.252C291.254 304.712 302.531 313.946 311.4 325.77C313.152 328.106 314.867 330.515 315.232 331.172C319.612 338.946 320.451 340.478 320.451 340.624C320.451 340.734 320.925 341.829 321.546 343.07C322.969 346.099 325.378 352.632 326.436 356.573C326.947 358.362 327.604 360.113 327.969 360.515C328.59 361.208 331.801 361.208 491.473 361.208C639.064 361.208 654.393 361.245 654.904 361.792C655.415 362.303 655.488 365.442 655.488 391.099C655.488 415.478 655.415 419.931 654.977 420.296C654.612 420.624 651.327 420.734 643.188 420.697C633.517 420.697 631.838 420.77 631.144 421.245L630.305 421.829V452.668V483.471L629.356 483.836C628.809 484.055 620.232 484.201 607.495 484.201C588.882 484.201 586.509 484.128 585.998 483.617C585.451 483.106 585.415 480.734 585.415 461.975C585.415 450.369 585.342 440.624 585.196 440.296C585.013 439.748 583.371 439.675 568.334 439.602C557.458 439.529 551.436 439.639 550.962 439.858C550.196 440.223 550.196 440.442 550.086 461.683L550.013 483.106L549.137 483.654C548.407 484.165 545.634 484.201 526.728 484.128C511.984 484.055 505.05 483.909 504.758 483.617C504.502 483.362 504.393 474.019 504.393 452.96C504.393 427.267 504.32 422.559 503.882 421.975C503.371 421.245 502.239 421.245 417.239 421.135L331.144 421.062L330.269 421.938C329.794 422.413 328.809 424.201 328.152 425.843C326.546 429.785 320.67 441.391 318.845 444.238C315.779 449.019 314.721 450.551 312.641 453.362C306.4 461.719 296.728 471.026 289.831 475.259C289.502 475.442 288.772 475.953 288.152 476.391C286.801 477.303 281.217 480.405 278.48 481.719C267.933 486.792 255.706 490.077 240.524 491.938C235.597 492.522 221.655 492.522 217.166 491.938C210.634 491.062 202.02 489.274 196.363 487.595C193.261 486.683 190.451 485.807 190.086 485.624C189.758 485.442 188.298 484.858 186.801 484.347C184.466 483.471 175.123 479.055 173.188 477.887C157.677 468.362 147.641 458.581 139.174 444.675C137.166 441.354 133.225 433.836 133.225 433.325C133.225 433.179 132.86 432.267 132.385 431.318C131.035 428.654 127.933 419.165 126.692 413.946C122.896 398.033 122.312 379.457 125.159 366.135C128.663 349.675 136.801 334.019 148.48 321.062C150.962 318.325 156.692 312.741 159.174 310.661C161.619 308.581 168.48 303.727 171.546 301.938C173.444 300.807 175.269 299.712 175.561 299.529C178.699 297.522 193.699 291.135 195.232 291.135C195.451 291.135 196.582 290.807 197.714 290.442C202.385 288.873 212.714 287.011 219.904 286.427C225.634 285.953 229.028 285.989 234.137 286.573Z" fill="black"/>
<path d="M221.728 328.763C211.035 329.785 203.626 332.194 194.904 337.449C188.772 341.172 181.984 347.34 178.042 352.814C177.093 354.128 175.999 355.625 175.561 356.172C174.794 357.194 171.436 363.617 170.342 366.172C168.991 369.347 167.933 372.96 166.947 377.668C165.999 382.121 165.926 383.216 165.926 389.676C165.962 395.989 166.072 397.267 166.947 401.172C167.933 405.625 169.028 409.42 169.904 411.391C170.159 411.975 170.67 413.216 171.035 414.128C172.75 418.471 177.276 425.406 181.29 429.895C186.582 435.771 191.874 439.822 199.429 443.727C213.59 451.026 230.707 452.194 246.181 446.902C249.977 445.625 255.889 442.887 257.568 441.646C258.188 441.172 258.845 440.771 258.991 440.771C259.466 440.771 264.137 437.267 266.984 434.712C272.531 429.785 277.02 423.909 280.415 417.194C283.334 411.391 283.772 410.296 285.013 405.698C289.794 387.741 286.765 369.895 276.4 354.639C272.969 349.566 267.422 343.8 263.371 341.026C262.568 340.479 261.619 339.785 261.327 339.493C260.634 338.873 254.758 335.296 254.429 335.296C254.32 335.296 253.444 334.895 252.531 334.42C244.648 330.223 231.582 327.814 221.728 328.763ZM234.356 340.953C249.356 343.216 263.371 353.544 270.305 367.413C273.188 373.216 274.685 378.617 275.232 385.187C276.218 396.61 273.444 407.23 267.057 416.756C263.663 421.829 260.269 425.223 253.298 430.515C250.232 432.814 241.363 436.464 236.692 437.34C224.466 439.603 213.517 437.997 203.334 432.486C199.32 430.296 198.225 429.566 194.685 426.537C183.772 417.194 177.604 403.69 177.641 389.311C177.677 378.179 181.436 367.303 188.006 359.201C191.801 354.53 197.568 349.311 200.926 347.486C201.327 347.267 202.714 346.5 204.028 345.807C208.006 343.617 214.977 341.318 219.174 340.807C223.334 340.296 230.597 340.369 234.356 340.953Z" fill="black"/>
</svg>
