<svg width="1000" height="1000" viewBox="0 0 1000 1000" fill="none" xmlns="http://www.w3.org/2000/svg">
<g clip-path="url(#clip0_1179_1605)">
<rect width="1000" height="1000" rx="500" fill="#FF0000"/>
<path d="M-173 53H1172.11V947.5H-173V53Z" fill="#FF0000"/>
<path d="M226.417 677.794C234.536 664.905 245.326 653.74 258.157 644.963C270.302 636.657 284.016 630.668 298.575 627.304C298.575 627.304 297.907 402.261 299.244 385.252C300.581 368.243 274.51 374.565 274.51 354.178C274.51 335.845 282.002 332.493 298.575 327.029C306.944 324.269 313.281 321.958 324.98 327.029C334.204 331.027 335.919 331.75 338.349 339.785C340.773 347.799 339.602 339.867 341.356 356.467C343.112 373.067 343.362 429.737 343.362 429.737C341.243 533.143 340.291 579.592 339.863 600.461H340.529C345.294 583.529 361.155 552.052 409.541 497.774C493.459 403.636 561.796 383.169 666.235 339.458C699.623 325.485 730.409 327.029 730.409 327.029C747.789 328.992 747.789 328.992 747.789 328.992L737.093 340.113L726.644 345.496C726.644 345.496 631.485 383.212 584.682 419.27C539.841 453.815 496.36 496.746 468.367 554.033C440.031 612.022 450.319 602.444 444.302 620.761C443.348 623.663 442.7 625.806 442.279 627.363H444.271C444.29 627.328 444.302 627.304 444.302 627.304C537.933 627.565 631.563 627.827 725.194 628.088C737.281 629.351 748.6 634.623 757.281 643.135C766.672 652.342 772.308 664.685 773.238 677.794C590.964 677.794 408.69 677.794 226.417 677.794Z" fill="white"/>
</g>
<defs>
<clipPath id="clip0_1179_1605">
<rect width="1000" height="1000" rx="500" fill="white"/>
</clipPath>
</defs>
</svg>
