<svg width="460" height="460" viewBox="0 0 460 460" fill="none" xmlns="http://www.w3.org/2000/svg">
<rect x="3" y="3" width="454" height="454" rx="227" fill="white"/>
<rect x="3" y="3" width="454" height="454" rx="227" stroke="black" stroke-width="6"/>
<path fill-rule="evenodd" clip-rule="evenodd" d="M78.9435 122.748C80.6315 122.398 80.5895 123.781 81.4535 124.256C81.2365 125.377 80.5665 126.045 79.4455 126.264C79.2845 125.084 78.6525 124.379 78.9435 122.748Z" fill="black"/>
<path fill-rule="evenodd" clip-rule="evenodd" d="M97.5175 125.26C98.0195 125.26 98.5215 125.26 99.0235 125.26C99.0235 126.098 99.0235 126.936 99.0235 127.772C97.9865 127.471 97.1205 126.994 97.5175 125.26Z" fill="black"/>
<path fill-rule="evenodd" clip-rule="evenodd" d="M102.537 128.775C106.924 129.074 105.746 134.941 109.062 136.31C108.935 138.783 108.919 141.144 110.066 142.341C108.519 141.964 109.455 144.071 107.556 143.343C106.789 137.581 103.596 134.247 102.537 128.775Z" fill="black"/>
<path fill-rule="evenodd" clip-rule="evenodd" d="M106.552 128.775C107.22 128.775 107.89 128.775 108.56 128.775C108.826 131.693 111.326 132.373 111.07 135.808C110.402 135.808 109.732 135.808 109.062 135.808C109.197 132.493 107.655 130.851 106.552 128.775Z" fill="black"/>
<path fill-rule="evenodd" clip-rule="evenodd" d="M111.573 128.775C112.243 128.775 112.913 128.775 113.581 128.775C114.841 135.888 119.352 139.744 120.108 147.363C116.233 147.386 118.286 141.482 115.087 140.834C115.619 135.11 111.639 133.9 111.573 128.775Z" fill="black"/>
<path fill-rule="evenodd" clip-rule="evenodd" d="M82.4566 143.845C82.8846 143.753 82.9296 144.042 82.9586 144.349C84.6106 145.708 87.7826 145.55 87.9786 148.369C89.8766 148.478 92.5056 147.857 92.4986 149.877C87.1586 149.857 83.3756 148.287 81.4536 144.852C82.3066 145.036 82.4006 144.46 82.4566 143.845Z" fill="black"/>
<path fill-rule="evenodd" clip-rule="evenodd" d="M74.4255 146.359C75.2615 146.359 76.0975 146.359 76.9355 146.359C77.2145 149.429 82.1155 147.873 82.4565 150.88C81.2845 150.88 80.1145 150.88 78.9425 150.88C79.5305 147.276 74.2885 149.509 74.4255 146.359Z" fill="black"/>
<path fill-rule="evenodd" clip-rule="evenodd" d="M156.752 146.359C157.643 147.14 158.686 147.771 158.256 149.877C157.047 149.412 156.211 148.576 155.748 147.363C156.602 147.548 156.696 146.972 156.752 146.359Z" fill="black"/>
<path fill-rule="evenodd" clip-rule="evenodd" d="M137.174 148.87C138.893 149.161 138.742 151.319 140.186 151.884C141.612 151.97 141.166 150.185 143.198 150.88C143.091 154.001 145.208 154.896 144.706 158.415C143.868 158.415 143.03 158.415 142.194 158.415C142.811 155.786 141.376 155.216 141.19 153.392C139.202 152.742 140.165 155.044 138.178 154.396C137.17 153.228 136.967 151.253 137.174 148.87Z" fill="black"/>
<path fill-rule="evenodd" clip-rule="evenodd" d="M161.772 151.885C162.274 151.885 162.776 151.885 163.278 151.885C163.278 152.723 163.278 153.561 163.278 154.397C162.803 153.533 161.422 153.574 161.772 151.885Z" fill="black"/>
<path fill-rule="evenodd" clip-rule="evenodd" d="M86.4745 152.386C90.5075 155.048 95.3295 156.919 99.0235 159.921C96.0505 163.105 94.2945 156.708 90.4885 157.411C90.2775 154.607 86.2185 155.655 86.4745 152.386Z" fill="black"/>
<path fill-rule="evenodd" clip-rule="evenodd" d="M79.4455 154.396C80.4045 154.607 81.6055 154.578 81.4535 155.904C80.1405 156.044 78.9415 156.073 79.4455 154.396Z" fill="black"/>
<path fill-rule="evenodd" clip-rule="evenodd" d="M399.713 158.416C401.02 162.611 397.158 170.227 393.69 172.984C392.219 172.951 392.213 171.449 391.182 170.974C387.907 172.052 384.432 172.929 380.639 173.486C386.049 167.516 393.977 164.061 399.713 158.416Z" fill="white"/>
<path fill-rule="evenodd" clip-rule="evenodd" d="M372.103 167.458C373.681 167.36 374.517 166.522 374.615 164.946C376.029 164.686 378.857 165.841 378.127 163.438C378.965 163.438 379.803 163.438 380.639 163.438C379.58 165.393 379.311 168.137 377.627 169.465C375.775 167.662 374.84 169.106 373.107 169.967C372.542 169.364 371.675 169.06 372.103 167.458Z" fill="black"/>
<path fill-rule="evenodd" clip-rule="evenodd" d="M96.0115 167.459C98.8145 167.33 101.398 167.424 101.532 169.969C99.2455 169.58 96.6875 169.459 96.0115 167.459Z" fill="black"/>
<path fill-rule="evenodd" clip-rule="evenodd" d="M367.084 169.467C366.906 171.465 365.383 172.119 365.58 174.49C364.908 174.49 364.24 174.49 363.572 174.49C363.367 171.442 365.278 170.504 367.084 169.467Z" fill="white"/>
<path fill-rule="evenodd" clip-rule="evenodd" d="M82.4566 175.998C83.1266 175.998 83.7946 175.998 84.4646 175.998C92.9586 180.56 100.305 186.268 111.07 188.557C111.849 193.471 121.168 189.838 122.115 194.584C106.344 191.779 95.9386 183.604 82.9586 178.006C83.0216 177.106 82.3436 176.947 82.4566 175.998Z" fill="black"/>
<path fill-rule="evenodd" clip-rule="evenodd" d="M303.834 179.513C304.924 179.429 304.061 181.296 304.338 182.025C302.44 181.298 303.373 183.406 301.826 183.031C300.912 180.275 303.918 181.439 303.834 179.513Z" fill="black"/>
<path fill-rule="evenodd" clip-rule="evenodd" d="M368.592 191.067C368.592 190.229 368.592 189.393 368.592 188.555C371.569 188.856 373.065 187.672 376.119 188.053C377.406 187.496 377.107 185.356 377.125 183.532C381.133 183.684 383.436 179.473 387.666 181.522C386.559 184.098 382.889 184.11 379.635 184.538C378.625 186.403 380.143 187.694 379.131 189.559C374.924 189.368 373.551 192.013 368.592 191.067Z" fill="black"/>
<path fill-rule="evenodd" clip-rule="evenodd" d="M297.811 191.067C298.315 191.067 298.815 191.067 299.315 191.067C299.104 192.028 299.135 193.229 297.811 193.077C297.811 192.407 297.811 191.737 297.811 191.067Z" fill="white"/>
<path fill-rule="evenodd" clip-rule="evenodd" d="M379.635 191.067C378.096 194.885 372.526 194.671 368.09 195.588C369.086 191.23 374.571 191.359 379.635 191.067Z" fill="black"/>
<path fill-rule="evenodd" clip-rule="evenodd" d="M381.643 194.583C381.1 196.72 378.954 197.253 376.12 197.095C371.255 199.427 366.167 201.533 359.558 202.12C359.558 201.282 359.558 200.444 359.558 199.608C367.756 198.876 373.877 194.167 381.643 194.583Z" fill="black"/>
<path fill-rule="evenodd" clip-rule="evenodd" d="M191.388 196.594C192.931 195.826 192.931 199.875 191.388 199.108C191.388 198.268 191.388 197.432 191.388 196.594Z" fill="white"/>
<path fill-rule="evenodd" clip-rule="evenodd" d="M380.638 199.107C380.638 199.943 380.638 200.781 380.638 201.619C376.552 202.217 374.259 204.613 369.595 204.631C371.173 200.689 376.279 200.269 380.638 199.107Z" fill="black"/>
<path fill-rule="evenodd" clip-rule="evenodd" d="M191.389 203.125C191.891 203.125 192.393 203.125 192.895 203.125C192.622 203.855 193.481 205.721 192.393 205.637C190.705 206.152 191.612 204.076 191.389 203.125Z" fill="white"/>
<path fill-rule="evenodd" clip-rule="evenodd" d="M269.698 204.128C271.386 205.118 272.528 206.653 272.208 209.655C270.317 210.04 269.81 209.042 268.192 209.153C267.646 206.429 268.902 205.509 269.698 204.128Z" fill="white"/>
<path fill-rule="evenodd" clip-rule="evenodd" d="M269.198 210.661C269.721 212.083 269.721 212.753 269.198 214.177C267.171 214.529 266.882 213.146 265.682 212.669C266.008 211.151 267.063 210.366 269.198 210.661Z" fill="white"/>
<path fill-rule="evenodd" clip-rule="evenodd" d="M255.643 218.197C257.553 217.793 256.282 220.57 256.647 221.713C255.977 221.713 255.309 221.713 254.641 221.713C254.033 219.6 255.449 219.51 255.643 218.197Z" fill="black"/>
<path fill-rule="evenodd" clip-rule="evenodd" d="M150.728 231.76C138.755 229.674 125.505 228.867 117.095 223.219C120.294 224.485 125.915 223.798 131.15 225.732C132.121 226.089 132.164 227.478 133.158 227.74C139.138 229.319 147.62 227.195 150.728 231.76Z" fill="black"/>
<path fill-rule="evenodd" clip-rule="evenodd" d="M357.044 223.219C356.675 225.194 354.013 224.873 352.024 225.229C352.989 223.85 354.818 223.334 357.044 223.219Z" fill="white"/>
<path fill-rule="evenodd" clip-rule="evenodd" d="M248.114 227.74C247.542 230.013 245.749 231.066 244.6 232.763C244.703 230.022 244.983 227.453 248.114 227.74Z" fill="white"/>
<path fill-rule="evenodd" clip-rule="evenodd" d="M154.241 230.753C157.571 230.937 160.735 231.286 162.774 232.763C159.93 232.763 157.085 232.763 154.241 232.763C154.241 232.095 154.241 231.423 154.241 230.753Z" fill="black"/>
<path fill-rule="evenodd" clip-rule="evenodd" d="M334.959 242.306C334.855 243.63 330.332 245.029 329.936 242.81C331.258 242.29 333.018 242.21 334.959 242.306Z" fill="white"/>
<path fill-rule="evenodd" clip-rule="evenodd" d="M323.911 250.847C323.876 252.654 321.818 252.435 319.896 252.357C320.055 250.671 322.173 250.946 323.911 250.847Z" fill="white"/>
<path fill-rule="evenodd" clip-rule="evenodd" d="M320.901 254.364C321.21 256.344 318.145 254.954 316.885 255.37C316.375 255.47 320.151 253.003 320.901 254.364Z" fill="white"/>
<path fill-rule="evenodd" clip-rule="evenodd" d="M202.936 255.37C203.268 255.37 203.604 255.37 203.938 255.37C209.469 260.63 211.487 271.891 206.95 279.985C204.465 272.927 204.989 262.859 202.936 255.37Z" fill="white"/>
<path fill-rule="evenodd" clip-rule="evenodd" d="M264.678 286.014C275.03 286.287 277.662 286.096 282.752 287.018C289.166 284.733 299.775 286.643 307.85 286.014C307.803 289.483 300.643 285.834 299.819 288.526C297.585 288.803 294.022 287.749 293.292 289.532C291.327 289.514 287.888 287.225 284.759 289.532C280.945 288.616 274.128 288.372 266.689 288.526C268.668 292.239 278.679 287.913 280.242 292.042C281.43 289.919 285.242 291.421 286.769 292.042C282.351 293.151 279.265 292.495 276.73 293.55C270.017 290.679 261.187 294.308 255.644 290.538C257.144 286.849 260.66 289.72 264.179 289.532C265.299 289.315 264.379 287.057 264.678 286.014Z" fill="black"/>
<path fill-rule="evenodd" clip-rule="evenodd" d="M220.504 295.056C221.867 294.697 220.145 297.423 221.508 297.066C217.32 302.923 212.162 307.806 205.444 311.13C205.251 313.448 205.756 316.466 203.938 317.161C204.358 314.046 203.305 309.77 203.938 308.116C209.084 305.278 215.496 299.673 220.504 295.056Z" fill="white"/>
<path fill-rule="evenodd" clip-rule="evenodd" d="M208.959 334.741C208.449 338.251 208.256 342.075 206.449 344.286C203.017 342.731 208.224 337.786 205.443 336.751C205.768 335.234 206.824 334.448 208.959 334.741Z" fill="white"/>
<path fill-rule="evenodd" clip-rule="evenodd" d="M84.4646 122.747C83.2696 121.651 85.4896 122.997 86.4746 122.747C85.7306 124.997 87.9436 124.29 87.4766 126.263C86.0566 126.345 86.3086 124.755 84.9666 124.757C84.9256 123.962 85.2086 122.841 84.4646 122.747Z" fill="black"/>
<path fill-rule="evenodd" clip-rule="evenodd" d="M89.9865 171.979C91.7055 173.432 93.9005 172.37 96.0115 173.487C96.5385 173.766 96.8255 175.253 97.5175 175.497C99.4255 176.167 101.466 175.327 103.54 175.999C104.282 176.239 104.319 177.702 105.046 178.007C106.569 178.652 108.843 178.075 110.567 178.511C113.383 179.222 116.104 181.449 118.598 182.027C128.172 184.254 140.641 179.701 143.698 188.558C148.583 189.197 148.565 194.74 153.237 195.591C153.425 199.011 159.239 199.171 158.255 202.122C143.31 202.497 131.025 201.386 119.101 197.097C109.081 193.495 101.099 186.605 90.9905 185.542C91.1505 189.737 94.3965 190.843 98.5215 191.069C101.597 195.358 109.15 195.171 112.576 199.108C119.012 199.893 123.305 202.405 130.146 204.129C138.759 206.301 148.322 206.108 156.25 205.637C158.213 205.522 159.893 204.737 161.771 205.135C168.287 206.52 169.957 214.748 174.822 217.694C158.033 220.028 139.396 220.557 123.621 216.69C123.244 215.141 125.35 216.077 124.623 214.178C128.234 213.912 129.555 215.94 133.66 215.182C131.172 210.819 125.342 212.735 120.609 211.664C116.505 210.738 112.894 207.435 108.56 208.148C107.482 205.543 104.331 205.013 101.031 204.63C101.027 207.146 103.674 207.009 106.051 207.144C109.67 210.218 114.946 211.638 121.11 212.165C121.21 213.909 123.749 213.212 123.622 215.181C122.55 214.947 122.665 215.9 122.616 216.689C117.44 214.837 112.116 213.132 107.557 210.662C106.004 210.615 106.061 212.178 106.051 213.674C109.365 215.549 114.112 215.988 115.086 220.205C119.85 222.303 126.703 222.31 130.647 225.228C136.491 224.005 145.643 227.898 154.745 226.736C152.409 224.55 147.714 224.728 143.7 224.224C150.846 220.808 167.419 225.579 175.327 220.706C182.464 225.622 186.647 233.489 192.895 239.294C183.889 239.767 173.207 241.261 166.791 241.302C153.078 238.835 135.955 240.136 126.131 232.763C138.541 233.909 150.799 237.884 163.277 237.286C151.492 233.28 137.556 234.966 126.131 229.247C123.717 228.507 124.035 230.499 122.115 230.251C112.289 224.009 105.289 214.939 97.5175 206.642C97.0605 203.749 95.1715 202.288 92.9995 201.115C92.5365 198.564 90.5795 197.506 89.9855 195.088C89.6185 194.619 89.0735 194.326 88.4795 194.082C83.5345 185.213 79.6785 175.978 75.4265 165.951C69.4445 151.826 69.0765 135.459 62.3755 122.748C74.8925 134.17 91.0015 141.994 102.536 154.397C101.364 154.397 100.192 154.397 99.0225 154.397C101.334 157.002 105.266 155.594 108.057 157.413C109.682 158.47 110.045 160.729 111.571 161.933C112.596 162.744 114.399 163.076 115.587 163.943C121.667 168.386 129.392 174.541 134.663 179.515C130.352 177.581 124.558 178.947 119.602 178.007C117.598 177.628 115.704 176.71 112.073 175.999C102.628 174.147 93.3315 166.849 83.9625 167.46C83.5715 169.858 85.0115 170.429 86.9745 170.472C87.3335 171.839 84.6075 170.115 84.9665 171.478C84.5055 173.613 86.1695 173.624 87.9785 173.488C88.5485 175.261 89.8785 176.273 92.4985 176C101.35 182.713 112.678 186.949 124.623 190.568C125.228 190.002 125.533 189.134 127.135 189.562C123.598 186.908 117.768 186.546 112.576 185.542C105.757 180.311 94.9935 179.026 89.9865 171.979ZM68.9025 131.289C65.0075 135.945 72.9395 135.416 73.9235 138.322C72.8665 138.771 70.9275 138.338 71.4135 140.33C74.5635 140.693 75.8115 142.961 78.9425 143.344C76.5475 141.219 77.2885 135.959 72.9195 135.809C72.2985 134.186 74.5445 135.426 73.9235 133.801C72.6205 133.598 72.4745 132.237 71.9155 131.289C70.9115 131.289 69.9075 131.289 68.9025 131.289ZM81.4525 144.852C83.3745 148.288 87.1575 149.858 92.4975 149.877C92.5055 147.857 89.8765 148.479 87.9775 148.369C87.7825 145.551 84.6105 145.709 82.9575 144.349C82.9285 144.042 82.8835 143.753 82.4555 143.845C82.4005 144.461 82.3065 145.037 81.4525 144.852ZM78.9435 150.881C80.1155 150.881 81.2855 150.881 82.4575 150.881C82.1155 147.873 77.2155 149.43 76.9365 146.36C76.0985 146.36 75.2625 146.36 74.4265 146.36C74.2885 149.51 79.5305 147.277 78.9435 150.881ZM90.4885 157.412C94.2955 156.709 96.0505 163.105 99.0235 159.922C95.3305 156.92 90.5075 155.049 86.4745 152.387C86.2185 155.656 90.2775 154.608 90.4885 157.412ZM81.4525 155.904C81.6045 154.578 80.4035 154.607 79.4445 154.396C78.9415 156.074 80.1405 156.045 81.4525 155.904ZM99.0235 164.947C99.4375 163.527 98.3145 163.646 98.5215 162.433C91.2855 163.31 90.1665 158.07 84.9665 156.908C87.0585 162.184 94.2795 162.326 99.0235 164.947ZM92.4975 166.955C90.0995 164.615 85.4315 159.357 81.4525 161.932C85.1365 163.604 88.7045 165.393 92.4975 166.955ZM101.532 169.969C101.397 167.424 98.8135 167.33 96.0115 167.459C96.6875 169.459 99.2455 169.58 101.532 169.969ZM82.9585 178.006C95.9385 183.604 106.343 191.779 122.114 194.584C121.167 189.838 111.848 193.471 111.069 188.557C100.303 186.268 92.9585 180.561 84.4645 175.998C83.7945 175.998 83.1265 175.998 82.4565 175.998C82.3435 176.947 83.0215 177.106 82.9585 178.006ZM101.532 200.111C107.239 201.431 109.862 205.841 117.094 205.636C117.071 206.327 117.328 206.74 117.594 207.144C122.864 206.279 127.725 210.996 131.149 208.65C123.362 205.224 112.315 205.06 106.551 199.609C104.26 199.892 103.424 198.718 101.03 199.107C99.4565 195.826 96.7045 193.72 91.4915 194.082C92.6975 198.235 99.4825 196.805 101.532 200.111ZM133.157 227.74C132.163 227.478 132.12 226.09 131.149 225.732C125.915 223.798 120.294 224.484 117.094 223.218C125.504 228.866 138.754 229.673 150.727 231.759C147.62 227.195 139.138 229.32 133.157 227.74ZM154.241 232.764C157.085 232.764 159.93 232.764 162.774 232.764C160.735 231.287 157.571 230.938 154.241 230.754C154.241 231.424 154.241 232.096 154.241 232.764Z" fill="white"/>
<path fill-rule="evenodd" clip-rule="evenodd" d="M71.9156 131.288C72.4746 132.235 72.6206 133.597 73.9236 133.8C74.5446 135.425 72.2986 134.185 72.9196 135.808C77.2886 135.958 76.5486 141.218 78.9426 143.343C75.8116 142.96 74.5636 140.693 71.4136 140.329C70.9276 138.337 72.8666 138.77 73.9236 138.321C72.9396 135.415 65.0076 135.944 68.9026 131.288C69.9076 131.288 70.9116 131.288 71.9156 131.288Z" fill="black"/>
<path fill-rule="evenodd" clip-rule="evenodd" d="M84.9666 156.907C90.1656 158.069 91.2846 163.309 98.5216 162.432C98.3146 163.645 99.4376 163.526 99.0236 164.946C94.2796 162.325 87.0586 162.183 84.9666 156.907Z" fill="black"/>
<path fill-rule="evenodd" clip-rule="evenodd" d="M386.16 160.423C388.092 159.341 390.927 159.165 393.688 158.917C391.465 161.212 388.205 162.47 386.16 164.946C385.006 164.56 387.99 161.485 386.16 160.423Z" fill="white"/>
<path fill-rule="evenodd" clip-rule="evenodd" d="M372.104 164.946C367.956 165.301 366.1 166.434 363.069 164.442C362.081 166.299 360.542 167.606 359.557 169.465C357.578 170.27 359.381 167.295 358.049 167.457C356.627 168.711 354.123 168.887 354.533 171.977C352.668 172.004 352.549 170.282 350.017 170.973C352.163 169.129 348.205 166.674 351.021 164.946C348.076 162.688 347.533 167.13 346 167.96C345.354 169.948 347.652 168.985 347.006 170.974C346.152 170.788 346.059 171.367 346 171.978C344.078 170.572 345.24 172.101 342.486 171.978C342.713 175.101 343.716 177.445 346 178.509C346.256 180.544 342.986 179.361 342.988 178.509C341.435 178.796 341.095 180.298 339.976 181.021C340.49 184.205 346.783 184.544 346.503 180.519C349.462 183.308 341.325 187.156 341.985 192.576C341.899 193.664 343.762 192.803 344.493 193.078C348.313 188.275 349.55 182.099 353.028 178.006C352.809 176.887 352.139 176.217 351.02 175.998C353.633 174.932 354.553 172.166 357.043 170.975C357.096 172.702 357.301 174.582 356.039 174.995C358.021 177.106 358.676 173.643 359.555 172.985C361.127 173.755 361.2 176.026 363.067 176.503C362.452 181.745 358.008 183.161 358.047 189.06C352.215 191.931 348.611 197.033 342.485 199.611C342.821 198.468 343.784 195.398 341.985 195.09C338.497 195.281 339.583 200.055 338.973 203.127C331.875 208.25 324.741 213.334 318.389 219.203C318.575 202.641 329.942 192.918 335.457 180.019C335.363 179.611 334.953 179.517 334.957 179.013C328.309 181.742 327.564 190.372 322.406 194.585C318.301 203.202 314.781 212.411 312.869 223.22C306.342 227.909 299.871 232.652 293.791 237.788C293.23 233.808 296.109 228.226 297.809 223.22C299.547 218.101 300.918 212.622 303.832 209.156C305.193 204.324 306.52 199.453 309.857 196.595C309.418 192.3 314.23 190.601 312.365 186.548C315.238 185.739 316.605 183.421 318.892 182.027C318.386 183.539 320.011 182.918 320.898 183.033C320.898 183.869 320.898 184.707 320.898 185.543C322.753 184.555 324.06 183.014 325.921 182.027C326.192 182.757 325.331 184.625 326.421 184.541C331.855 179.096 337.269 173.629 340.98 166.455C338.671 164.67 337.144 167.959 336.46 169.469C333.499 167.428 331.839 170.994 327.927 169.469C327.4 170.783 326.007 171.235 325.921 172.987C326.284 174.11 328.782 173.229 328.429 171.981C329.99 173.575 327.101 174.981 326.421 176.001C325.091 175.153 321.659 176.411 321.4 174.493C320.546 176.431 317.234 175.524 317.386 173.489C314.331 173.782 316.208 179.01 313.37 179.516C311.837 179.543 312.165 177.707 310.358 178.008C309.889 178.545 308.506 178.166 308.85 179.516C308.077 181.631 311.448 179.598 311.362 181.024C311.18 182.852 309.341 183.02 308.85 184.542C307.09 182.706 304.323 183.821 303.83 186.048C301.537 186.302 300.984 185.177 299.31 186.048C295.419 191.245 290.451 197.878 289.271 204.132C294.376 202.548 292.546 191.896 300.316 194.587C302.189 195.122 301.111 192.704 302.826 193.081C303.482 195.563 305.888 192.046 307.346 192.077C300.299 205.118 295.459 220.37 289.272 234.274C289.665 237.512 288.528 239.219 288.772 242.309C280.604 246.528 274.876 253.188 267.186 257.883C268.389 242.949 273.284 232.301 278.229 221.211C280.725 215.613 285.155 209.951 284.252 203.629C277.857 208.113 277.641 218.783 272.205 224.227C268.266 235.692 264.775 247.602 263.168 261.399C261.844 261.247 261.873 262.45 261.662 263.411C255.047 264.995 253.205 271.356 247.103 273.458C250.048 255.47 254.876 239.372 260.66 224.228C262.283 223.607 261.045 225.853 262.666 225.232C264.621 223 265.271 219.466 266.684 216.693C270.856 217.685 270.541 214.193 274.713 215.185C278.039 210.81 278.438 203.505 284.252 201.623C283.951 202.928 284.455 203.43 285.76 203.129C289.514 198.014 294.059 193.686 295.295 186.049C293.803 187.233 292.607 188.719 289.775 188.561C289.287 191.254 286.611 191.76 285.759 194.086C284.986 193.522 284.521 192.643 283.751 192.078C282.79 193.963 280.692 194.713 279.735 196.598C277.837 197.327 278.77 195.219 277.223 195.594C275.297 197.518 274 200.071 272.203 202.125C270.619 202.369 270.432 201.221 268.687 201.623C266.265 207.57 261.542 211.217 260.658 218.703C260.769 219.426 262.156 218.877 262.164 219.705C262.566 221.449 261.414 221.639 261.66 223.223C259.926 223.631 259.543 222.285 258.648 223.223C250.199 238.043 246.632 257.752 243.089 277.477C235.925 282.2 230.062 288.223 223.509 293.553C232.097 282.889 233.796 260.979 239.071 245.326C242.364 245.273 242.495 242.056 246.6 242.814C248.955 235.962 252.455 230.255 254.633 223.222C253.963 222.259 252.404 223.8 251.117 222.72C250.66 215.904 256.027 213.409 259.15 209.158C259.681 208.433 259.238 207.349 259.65 206.646C260.615 205.005 262.818 204.675 264.17 203.128C265.203 201.944 265.272 199.194 267.682 199.11C268.612 199.032 267.993 197.409 268.686 197.098C289.655 185.094 309.159 171.625 332.94 162.436C335.76 162.243 339.002 162.473 340.473 160.93C354.78 160.344 371.481 162.155 384.147 159.924C379.995 171.344 371.422 178.336 362.057 184.541C362.821 178.271 367.881 176.303 368.584 169.971C370.869 169.403 372.385 168.071 372.104 164.946ZM373.108 169.968C374.84 169.107 375.776 167.663 377.628 169.466C379.312 168.138 379.581 165.394 380.64 163.439C379.804 163.439 378.966 163.439 378.128 163.439C378.858 165.841 376.03 164.687 374.616 164.947C374.518 166.523 373.682 167.361 372.104 167.459C371.676 169.06 372.543 169.364 373.108 169.968ZM301.826 183.03C303.373 183.405 302.439 181.298 304.338 182.024C304.061 181.295 304.924 179.428 303.834 179.512C303.918 181.439 300.912 180.275 301.826 183.03ZM254.641 221.712C255.309 221.712 255.977 221.712 256.647 221.712C256.282 220.569 257.553 217.792 255.643 218.196C255.449 219.509 254.033 219.599 254.641 221.712Z" fill="white"/>
<path fill-rule="evenodd" clip-rule="evenodd" d="M56.8555 112.7C56.8555 112.868 56.8555 113.036 56.8555 113.202C85.2365 117.593 111.624 115.989 133.661 123.753C152.95 130.548 174.89 143.571 185.366 159.921C193.991 173.382 201.675 187.675 202.432 209.655C202.6 214.471 202.506 219.885 202.432 225.227C202.366 229.997 200.286 235.309 200.926 239.795C201.871 246.399 208.768 250.277 210.967 256.875C212.778 241.59 214.908 225.086 216.99 209.152C217.609 204.416 216.892 198.414 220.504 195.086C222.693 195.574 224.119 196.826 226.025 197.598C223.427 229.494 218.101 263.01 213.978 295.055C215.556 297 218.517 291.993 220.503 291.035C228.003 281.625 230.657 263.187 234.56 249.34C241.08 226.203 251.814 208.235 267.689 193.578C277.093 188.84 287.064 181.853 297.81 175.996C308.271 170.293 318.697 163.621 328.935 159.418C344.993 152.822 374.579 159.324 393.189 155.398C398.322 154.316 401.49 150.968 406.74 151.378C406.74 153.222 406.74 155.064 406.74 156.905C406.574 156.905 406.408 156.905 406.24 156.905C405.243 160.852 403.079 164.936 401.219 168.46C399.49 171.741 396.373 174.53 395.699 177.501C395.205 179.673 395.933 181.683 395.699 183.53C395.5 185.091 394.539 186.462 394.193 188.051C391.685 199.53 387.732 208.729 382.646 219.197C380.734 223.129 377.408 226.433 375.115 230.75C372.986 234.764 371.99 239.447 370.095 243.309C362.783 258.241 352.13 270.108 338.47 279.479C321.025 291.45 299.181 301.575 269.699 300.579C263.619 300.374 256.385 299.407 249.619 298.569C243.625 297.827 235.986 295.604 230.041 297.063C224.377 298.452 219.857 309.155 216.488 315.147C215.256 317.338 214.066 319.952 213.474 322.178C211.494 329.664 212.966 340.885 211.468 347.299C208.456 347.299 205.443 347.299 202.431 347.299C201.122 341.998 194.245 337.319 193.898 331.725C193.619 327.213 198.248 320.243 199.419 314.143C202.222 299.573 202.198 280.049 199.923 265.413C199.267 261.204 198.65 253.925 196.407 250.845C191.532 244.148 168.77 246.773 155.747 245.824C129.45 243.908 115.858 234.265 102.536 219.699C88.9005 204.799 77.4735 186.347 69.9065 165.949C64.4915 151.353 64.5485 129.495 53.3415 119.734C53.6655 117.546 52.6875 114.054 53.8435 112.701C54.8475 112.7 55.8515 112.7 56.8555 112.7ZM197.914 209.153C198.521 194.007 192.652 183.688 187.373 173.987C181.777 163.706 179.252 158.772 172.314 151.883C165.509 145.129 156.412 140.654 147.212 135.807C130.978 127.252 119.442 123.282 97.5165 122.245C86.0925 121.704 73.8705 118.985 63.8815 119.733C66.0025 120.794 67.1435 122.833 69.4025 123.753C69.2505 122.427 70.4535 122.456 71.4125 122.245C72.0235 124.477 72.6705 126.679 74.4245 127.77C76.7975 128.137 76.0575 125.387 77.9385 125.258C78.6265 127.752 80.3255 129.231 80.4485 132.291C87.5205 136.434 92.9095 142.26 100.025 146.357C98.0755 137.925 93.4735 132.148 90.9895 124.253C96.1225 122.046 95.5095 129.718 98.5205 131.286C100.148 136.989 104.615 142.364 102.537 148.868C109.926 154.198 115.473 161.374 124.623 164.944C124.42 166.153 125.541 166.034 125.127 167.456C130.623 168.651 131.971 174.003 137.174 175.493C136.444 171.278 134.811 167.341 133.66 163.436C131.068 154.631 127.703 146.262 122.615 139.825C122.9 144.264 122.832 143.206 123.621 146.356C122.201 146.77 122.32 145.647 121.109 145.854C121.513 138.916 115.734 135.497 116.591 129.778C118.45 130.764 118.884 133.176 120.107 134.801C122.052 134.239 122.685 132.36 124.121 131.285C124.533 132.549 126.412 132.342 128.139 132.289C130.498 137.965 133.024 143.475 134.664 149.873C133.935 150.146 132.07 149.285 132.154 150.375C136.631 158.629 140.34 170.301 141.189 180.516C146.584 184.327 150.277 189.84 156.25 193.075C155.326 178.761 152.375 166.475 148.219 155.397C149.067 154.405 150.424 153.92 150.729 152.383C148.647 147.432 146.385 142.664 143.7 138.319C147.68 138.557 147.716 142.358 151.731 141.333C154.295 150.153 156.893 158.942 160.266 166.952C155.616 167.421 157.756 161.091 154.745 159.919C155.886 171.171 159.979 183.817 159.765 198.099C165.576 201.16 168.035 207.572 174.824 209.654C173.898 195.675 170.021 184.656 167.797 171.976C166.25 171.601 167.186 173.708 165.287 172.982C162.986 166.408 159.473 158.373 158.762 151.882C162.352 155.655 161.7 163.679 165.789 166.952C167.289 161.534 161.467 158.307 164.283 154.895C166.4 154.116 164.174 157.684 166.291 156.905C167.064 156.339 167.527 155.464 168.299 154.895C167.559 157.143 169.77 156.438 169.305 158.413C167.33 158.878 168.037 156.665 165.789 157.409C165.742 159.632 166.426 161.124 167.797 161.929C168.334 163.226 168.145 159.658 170.307 160.925C170.577 178.773 179.245 194.333 177.836 215.681C185.324 221.417 190.215 229.753 196.41 236.781C197.92 226.792 197.573 217.669 197.914 209.153ZM112.576 185.54C117.767 186.544 123.597 186.905 127.135 189.56C125.533 189.132 125.229 189.999 124.623 190.566C112.678 186.947 101.35 182.711 92.4975 175.998C89.8785 176.271 88.5485 175.26 87.9775 173.486C86.1685 173.623 84.5045 173.611 84.9655 171.476C84.6065 170.113 87.3325 171.837 86.9735 170.47C85.0105 170.427 83.5715 169.857 83.9615 167.458C93.3305 166.847 102.628 174.146 112.073 175.997C115.704 176.708 117.598 177.626 119.602 178.005C124.557 178.944 130.352 177.579 134.663 179.513C129.392 174.538 121.667 168.384 115.587 163.941C114.399 163.074 112.597 162.742 111.571 161.931C110.046 160.728 109.682 158.468 108.057 157.411C105.266 155.593 101.334 157.001 99.0215 154.395C100.192 154.395 101.364 154.395 102.536 154.395C91.0015 141.993 74.8925 134.169 62.3765 122.747C69.0775 135.458 69.4445 151.825 75.4275 165.95C79.6795 175.977 83.5345 185.212 88.4805 194.081C89.0745 194.325 89.6195 194.618 89.9865 195.087C90.5805 197.505 92.5375 198.564 93.0005 201.114C95.1725 202.288 97.0615 203.749 97.5185 206.641C105.29 214.938 112.29 224.008 122.117 230.25C124.037 230.498 123.719 228.506 126.133 229.246C137.559 234.965 151.494 233.279 163.279 237.285C150.8 237.883 138.543 233.908 126.133 232.762C135.957 240.135 153.08 238.834 166.793 241.301C173.209 241.26 183.891 239.766 192.897 239.293C186.649 233.488 182.465 225.621 175.329 220.705C167.421 225.578 150.849 220.807 143.702 224.223C147.716 224.727 152.411 224.549 154.747 226.735C145.645 227.897 136.493 224.005 130.649 225.227C126.706 222.309 119.852 222.301 115.088 220.204C114.113 215.987 109.367 215.548 106.053 213.673C106.063 212.177 106.006 210.614 107.559 210.661C112.118 213.132 117.442 214.837 122.618 216.688C122.667 215.899 122.552 214.946 123.624 215.18C123.751 213.211 121.212 213.909 121.112 212.164C114.948 211.637 109.673 210.217 106.053 207.143C103.676 207.008 101.03 207.145 101.033 204.629C104.334 205.012 107.484 205.541 108.562 208.147C112.896 207.434 116.507 210.737 120.611 211.663C125.343 212.733 131.173 210.817 133.662 215.181C129.557 215.939 128.236 213.911 124.625 214.177C125.352 216.075 123.246 215.14 123.623 216.689C139.398 220.556 158.035 220.027 174.824 217.693C169.959 214.748 168.289 206.519 161.773 205.134C159.894 204.736 158.214 205.521 156.252 205.636C148.324 206.107 138.762 206.3 130.148 204.128C123.306 202.403 119.013 199.892 112.578 199.107C109.152 195.169 101.599 195.357 98.5225 191.068C94.3975 190.841 91.1515 189.736 90.9915 185.541C101.101 186.603 109.084 193.494 119.103 197.096C131.027 201.385 143.312 202.496 158.257 202.121C159.241 199.17 153.427 199.01 153.239 195.59C148.567 194.738 148.585 189.195 143.7 188.557C140.643 179.7 128.175 184.252 118.6 182.026C116.106 181.448 113.385 179.221 110.569 178.51C108.844 178.074 106.571 178.651 105.048 178.006C104.321 177.701 104.284 176.238 103.542 175.998C101.468 175.326 99.4265 176.166 97.5185 175.496C96.8275 175.252 96.5395 173.766 96.0125 173.486C93.9015 172.369 91.7055 173.431 89.9875 171.978C94.9935 179.025 105.758 180.31 112.576 185.54ZM380.639 173.485C384.432 172.928 387.907 172.051 391.182 170.973C392.213 171.448 392.219 172.95 393.69 172.983C397.159 170.225 401.02 162.61 399.713 158.415C393.977 164.06 386.049 167.515 380.639 173.485ZM386.16 164.946C388.205 162.469 391.467 161.212 393.689 158.917C390.927 159.165 388.091 159.341 386.16 160.423C387.99 161.485 385.006 164.56 386.16 164.946ZM368.592 169.968C367.889 176.3 362.828 178.269 362.065 184.538C371.43 178.333 380.003 171.341 384.155 159.921C371.489 162.151 354.788 160.341 340.48 160.927C339.009 162.47 335.768 162.239 332.948 162.433C309.167 171.622 289.663 185.091 268.694 197.095C268.001 197.406 268.62 199.029 267.69 199.107C265.28 199.191 265.211 201.941 264.178 203.125C262.826 204.672 260.623 205.002 259.658 206.643C259.246 207.346 259.689 208.43 259.158 209.155C256.035 213.407 250.668 215.901 251.125 222.717C252.412 223.797 253.971 222.256 254.641 223.219C252.463 230.252 248.963 235.959 246.608 242.811C242.503 242.053 242.372 245.27 239.079 245.323C233.804 260.975 232.104 282.885 223.517 293.55C230.07 288.22 235.933 282.196 243.097 277.474C246.64 257.749 250.206 238.04 258.656 223.22C259.551 222.282 259.933 223.628 261.668 223.22C261.422 221.636 262.574 221.447 262.172 219.702C262.164 218.874 260.777 219.423 260.666 218.7C261.551 211.214 266.273 207.567 268.695 201.62C270.439 201.218 270.627 202.366 272.211 202.122C274.008 200.067 275.305 197.515 277.231 195.591C278.778 195.216 277.844 197.323 279.743 196.595C280.7 194.71 282.798 193.96 283.759 192.075C284.529 192.639 284.993 193.518 285.767 194.083C286.619 191.757 289.294 191.251 289.783 188.558C292.615 188.716 293.81 187.23 295.303 186.046C294.067 193.683 289.522 198.011 285.768 203.126C284.463 203.427 283.959 202.925 284.26 201.62C278.446 203.503 278.047 210.808 274.721 215.182C270.549 214.19 270.864 217.682 266.692 216.69C265.28 219.463 264.63 222.997 262.674 225.229C261.053 225.85 262.291 223.604 260.668 224.225C254.885 239.37 250.057 255.467 247.111 273.455C253.213 271.353 255.054 264.992 261.67 263.408C261.881 262.447 261.852 261.244 263.176 261.396C264.783 247.599 268.274 235.689 272.213 224.224C277.649 218.781 277.865 208.111 284.26 203.626C285.162 209.948 280.733 215.61 278.237 221.208C273.292 232.298 268.397 242.946 267.194 257.88C274.883 253.185 280.612 246.525 288.78 242.306C288.536 239.216 289.673 237.509 289.28 234.271C295.468 220.367 300.307 205.115 307.354 192.074C305.897 192.043 303.491 195.56 302.834 193.078C301.119 192.701 302.197 195.119 300.324 194.584C292.554 191.893 294.385 202.545 289.279 204.129C290.459 197.875 295.427 191.242 299.318 186.045C300.992 185.174 301.545 186.299 303.838 186.045C304.33 183.818 307.098 182.703 308.858 184.539C309.348 183.018 311.188 182.85 311.37 181.021C311.456 179.595 308.085 181.628 308.858 179.513C308.514 178.163 309.897 178.542 310.366 178.005C312.173 177.704 311.845 179.54 313.378 179.513C316.216 179.007 314.339 173.779 317.394 173.486C317.242 175.521 320.553 176.427 321.408 174.49C321.668 176.408 325.099 175.15 326.429 175.998C327.109 174.978 329.997 173.572 328.437 171.978C328.791 173.226 326.292 174.107 325.929 172.984C326.015 171.232 327.408 170.781 327.935 169.466C331.846 170.991 333.507 167.425 336.467 169.466C337.151 167.956 338.679 164.667 340.988 166.452C337.277 173.626 331.863 179.093 326.429 184.538C325.339 184.622 326.2 182.755 325.929 182.024C324.068 183.01 322.761 184.551 320.906 185.54C320.906 184.704 320.906 183.866 320.906 183.03C320.019 182.915 318.393 183.536 318.9 182.024C316.613 183.419 315.246 185.737 312.373 186.545C314.238 190.598 309.426 192.297 309.865 196.592C306.527 199.449 305.201 204.321 303.84 209.153C300.926 212.62 299.555 218.098 297.817 223.217C296.118 228.223 293.239 233.805 293.799 237.785C299.879 232.648 306.35 227.906 312.877 223.217C314.789 212.408 318.309 203.199 322.414 194.582C327.572 190.369 328.316 181.738 334.965 179.01C334.961 179.514 335.371 179.608 335.465 180.016C329.949 192.914 318.582 202.637 318.397 219.2C324.749 213.331 331.883 208.247 338.98 203.124C339.59 200.052 338.504 195.278 341.993 195.087C343.792 195.396 342.829 198.466 342.493 199.608C348.62 197.03 352.223 191.928 358.055 189.057C358.016 183.159 362.459 181.743 363.075 176.5C361.208 176.023 361.135 173.752 359.562 172.982C358.684 173.64 358.03 177.103 356.047 174.992C357.309 174.58 357.104 172.699 357.051 170.972C354.561 172.163 353.641 174.929 351.028 175.995C352.147 176.214 352.817 176.884 353.036 178.003C349.557 182.097 348.321 188.273 344.501 193.075C343.771 192.8 341.907 193.661 341.993 192.573C341.333 187.153 349.47 183.305 346.511 180.516C346.79 184.541 340.497 184.202 339.984 181.018C341.103 180.295 341.443 178.793 342.996 178.506C342.993 179.358 346.264 180.541 346.008 178.506C343.725 177.442 342.72 175.098 342.493 171.975C345.247 172.098 344.086 170.569 346.008 171.975C346.066 171.364 346.16 170.786 347.014 170.971C347.66 168.983 345.362 169.946 346.008 167.957C347.54 167.127 348.083 162.686 351.029 164.943C348.212 166.672 352.172 169.127 350.025 170.97C352.556 170.279 352.675 172.001 354.541 171.974C354.131 168.884 356.635 168.708 358.057 167.454C359.389 167.292 357.586 170.266 359.565 169.462C360.549 167.603 362.087 166.296 363.077 164.439C366.108 166.431 367.964 165.298 372.112 164.943C372.385 168.071 370.869 169.403 368.592 169.968ZM363.573 174.489C364.241 174.489 364.909 174.489 365.581 174.489C365.384 172.118 366.906 171.464 367.085 169.466C365.277 170.503 363.367 171.441 363.573 174.489ZM229.539 292.542C229.795 293.782 231.203 292.272 233.055 292.04C236.604 291.595 242.108 292.507 244.096 292.04C245.067 289.325 249.51 290.091 253.135 290.032C253.949 291.677 253.022 291.954 253.135 294.052C265.143 295.556 276.787 296.634 287.77 295.056C302.159 292.986 311.852 288.552 322.409 283.001C346.249 270.454 364.364 252.417 372.104 225.731C381.006 214.711 387.461 201.243 390.178 184.036C390.487 182.673 392.276 182.784 392.184 181.02C391.569 177.774 391.798 176.155 392.688 173.485C387.53 174.518 382.327 175.508 378.631 178.005C377.84 177.96 378.238 176.726 377.125 177.001C371.951 180.864 367.576 185.53 362.568 189.56C364.294 189.171 364.963 189.841 364.574 191.572C363.613 192.972 360.015 193.783 358.049 192.576C351.834 197.912 344.807 202.431 338.471 207.646C347.653 207.376 357.42 202.607 365.58 204.63C360.519 210.12 348.892 209.032 341.482 212.165C338.9 210.778 335.9 212.806 332.447 212.165C324.79 218.571 316.164 224.005 308.853 230.753C319.197 231.056 327.603 229.425 336.462 228.241C336.659 226.71 335.142 225.684 336.964 225.227C337.634 225.227 338.302 225.227 338.974 225.227C339.001 227.207 341.115 228.918 342.486 226.735C341.493 225.553 340.14 224.729 339.976 222.715C340.962 222.865 340.971 222.037 341.482 221.711C342.625 222.074 341.63 224.574 343.492 224.223C344.16 222.547 348.185 224.231 348.51 222.213C348.104 220.777 346.069 220.975 344.998 220.203C343.246 213.148 355.99 216.549 359.557 213.17C358.971 209.738 361.436 209.359 364.575 209.654C364.69 210.543 364.07 212.17 365.581 211.662C367.057 211.279 369.874 209.629 371.604 211.16C371.405 213.976 366.768 212.351 365.581 214.176C365.026 216.737 370.147 213.623 369.597 216.184C365.046 218.633 362.01 218.948 357.046 219.2C356.823 218.249 357.729 216.173 356.042 216.688C355.831 219.102 355.858 216.088 354.534 216.688C355.316 218.473 352.831 216.991 353.03 218.196C353.413 218.985 354.624 218.946 354.534 220.204C353.663 220.669 351.842 220.188 352.026 221.712C355.171 221.341 357.462 220.118 361.061 220.204C361.331 221.981 360.25 222.405 359.557 223.218C362.969 223.527 367.342 218.218 369.596 222.214C361.057 229.013 346.576 229.415 333.451 231.759C324.533 233.351 314.693 235.138 304.338 233.769C299.022 238.498 292.779 242.298 287.77 247.331C300.479 247.638 307.527 248.751 318.895 247.835C319.905 243.653 323.459 242.023 326.924 240.3C328.211 242.607 330.186 238.849 331.947 241.302C332.431 240.452 333.332 240.013 334.959 240.3C335.424 238.325 333.213 239.032 333.953 236.782C335.131 236.622 335.837 235.987 337.469 236.28C337.74 235.551 336.881 233.682 337.971 233.768C343.35 230.61 352.338 231.065 358.049 228.241C357.268 230.028 359.756 228.546 359.557 229.749C357.567 229.938 358.539 233.085 357.545 234.27C350.541 236.969 342.379 235.459 335.963 238.79C335.805 240.792 338.877 239.556 339.475 240.802C339.004 242.005 337.424 242.099 336.463 242.81C340.779 242.107 346.633 242.943 350.018 241.302C350.092 242.55 349.759 243.388 349.012 243.816C347.026 244.462 347.991 242.162 346 242.81C346.189 244.341 344.177 243.664 343.993 244.822C335.048 244.412 326.065 246.64 320.4 247.836C332.798 247.971 344.329 246.299 354.033 243.816C356.112 243.283 359.806 240.603 361.06 243.816C356.699 248.492 346.271 247.099 341.482 251.351C340.514 251.15 341.439 249.052 339.474 249.845C337.267 253.404 329.634 251.351 327.427 254.866C332.919 253.712 338.841 253.202 341.986 253.36C342.918 255.633 340.181 254.233 339.976 255.37C342.162 255.692 345.65 254.714 347.005 255.872C344.946 257.702 340.696 259.106 338.47 257.88C329.124 261.571 319.493 262.325 309.859 262.905C311.752 259.438 318.111 260.446 322.908 259.891C323.638 258.106 327.203 259.161 329.435 258.885C331.372 256.301 338.247 258.662 339.474 255.369C330.507 255.621 319.621 259.26 311.365 256.875C312.203 255.703 315.685 257.184 315.379 254.865C313.204 254.496 312.272 256.002 311.365 254.363C310.715 252.375 313.017 253.34 312.367 251.349C301.185 251.374 292.885 251.507 283.756 249.843C277.705 255.343 270.596 259.781 264.678 265.413C279.658 265.165 295.703 265.985 308.854 263.909C320.686 265.284 336.19 259.167 348.51 259.386C345.494 263.96 337.717 263.923 331.444 264.913C323.659 266.138 314.893 267.202 308.354 268.429C313.915 269.577 321.872 266.718 327.428 267.925C323.592 270.284 315.83 268.71 312.367 271.445C316.81 272.461 322.267 269.402 324.918 271.945C317.29 274.195 304.596 274.047 296.807 274.459C296.764 272.07 300.034 273 300.823 271.445C302.032 271.142 299.327 270.668 300.321 268.929C301.155 268.87 304.868 269.206 303.333 268.429C288.55 268.031 274.776 269.617 260.665 268.429C256.317 271.617 251.888 274.716 248.114 278.476C264.366 281.761 288.823 283.226 306.344 281.49C308.287 281.297 311.631 281.531 312.367 278.98C302.172 279.628 292.478 279.738 282.752 280.484C282.744 279.824 281.873 280.025 281.746 279.48C285.892 274.218 295.6 279.835 302.326 276.464C309.865 279.72 320.779 272.581 328.431 275.964C323.945 277.335 318.015 277.261 314.876 279.984C317.23 280.308 320.888 279.328 322.407 280.484C320.751 283.179 314.727 281.507 312.87 284.004C289.579 285.645 263.136 286.063 244.599 280.988C239.381 284.644 234.756 288.892 229.539 292.542ZM297.811 193.077C299.135 193.229 299.104 192.028 299.315 191.067C298.815 191.067 298.315 191.067 297.811 191.067C297.811 191.737 297.811 192.407 297.811 193.077ZM268.194 209.153C269.811 209.042 270.319 210.04 272.21 209.655C272.53 206.653 271.388 205.118 269.7 204.128C268.903 205.509 267.647 206.429 268.194 209.153ZM265.682 212.669C266.881 213.146 267.17 214.528 269.198 214.177C269.721 212.753 269.721 212.083 269.198 210.661C267.063 210.366 266.008 211.151 265.682 212.669ZM352.026 225.228C354.014 224.873 356.676 225.193 357.046 223.218C354.819 223.333 352.99 223.849 352.026 225.228ZM244.6 232.763C245.748 231.066 247.541 230.013 248.114 227.74C244.983 227.452 244.703 230.021 244.6 232.763ZM241.084 241.302C241.363 239.404 243.463 239.329 243.096 236.782C241.791 237.341 240.377 240.396 241.084 241.302ZM329.936 242.81C330.332 245.029 334.856 243.63 334.959 242.306C333.018 242.21 331.258 242.29 329.936 242.81ZM319.897 252.357C321.819 252.435 323.876 252.654 323.913 250.847C322.173 250.946 320.055 250.671 319.897 252.357ZM316.885 255.37C318.145 254.954 321.209 256.345 320.901 254.364C320.151 253.003 316.375 255.47 316.885 255.37ZM206.949 279.985C211.486 271.891 209.469 260.63 203.937 255.37C203.603 255.37 203.267 255.37 202.935 255.37C204.989 262.859 204.465 272.927 206.949 279.985ZM203.938 308.116C203.305 309.77 204.358 314.046 203.938 317.161C205.756 316.466 205.25 313.448 205.444 311.13C212.163 307.806 217.321 302.923 221.508 297.066C220.145 297.423 221.867 294.697 220.504 295.056C215.496 299.673 209.084 305.278 203.938 308.116ZM205.444 336.751C208.225 337.786 203.018 342.731 206.45 344.286C208.257 342.075 208.45 338.251 208.96 334.741C206.824 334.448 205.768 335.234 205.444 336.751Z" fill="black"/>
<path fill-rule="evenodd" clip-rule="evenodd" d="M81.4526 161.932C85.4316 159.358 90.0986 164.616 92.4976 166.955C88.7046 165.393 85.1366 163.604 81.4526 161.932Z" fill="black"/>
<path fill-rule="evenodd" clip-rule="evenodd" d="M244.6 280.989C263.137 286.063 289.58 285.645 312.871 284.005C314.728 281.509 320.752 283.181 322.408 280.485C320.888 279.329 317.23 280.309 314.877 279.985C318.016 277.262 323.945 277.337 328.432 275.965C320.78 272.582 309.866 279.721 302.327 276.465C295.6 279.836 285.893 274.219 281.747 279.481C281.874 280.026 282.745 279.825 282.753 280.485C292.48 279.739 302.173 279.63 312.368 278.981C311.632 281.532 308.288 281.297 306.345 281.491C288.824 283.227 264.366 281.762 248.115 278.477C251.888 274.717 256.318 271.618 260.666 268.43C274.777 269.618 288.551 268.032 303.334 268.43C304.869 269.207 301.156 268.871 300.322 268.93C299.328 270.668 302.033 271.143 300.824 271.446C300.035 273.001 296.765 272.071 296.808 274.46C304.597 274.048 317.292 274.196 324.919 271.946C322.269 269.403 316.812 272.462 312.368 271.446C315.831 268.712 323.593 270.286 327.429 267.926C321.872 266.719 313.915 269.578 308.355 268.43C314.894 267.203 323.66 266.139 331.445 264.914C337.718 263.924 345.496 263.961 348.511 259.387C336.191 259.168 320.687 265.285 308.855 263.91C295.705 265.986 279.66 265.166 264.679 265.414C270.597 259.781 277.706 255.344 283.757 249.844C292.886 251.508 301.187 251.375 312.368 251.35C313.018 253.34 310.716 252.375 311.366 254.364C312.272 256.003 313.206 254.497 315.38 254.866C315.687 257.184 312.204 255.704 311.366 256.876C319.624 259.261 330.509 255.622 339.475 255.37C338.248 258.663 331.373 256.302 329.436 258.886C327.204 259.161 323.639 258.107 322.909 259.892C318.112 260.447 311.753 259.439 309.86 262.906C319.495 262.326 329.126 261.572 338.471 257.881C340.698 259.108 344.948 257.703 347.006 255.873C345.651 254.715 342.162 255.693 339.977 255.371C340.182 254.234 342.918 255.635 341.987 253.361C338.842 253.203 332.921 253.713 327.428 254.867C329.635 251.351 337.268 253.404 339.475 249.846C341.44 249.053 340.516 251.151 341.483 251.352C346.272 247.1 356.7 248.493 361.061 243.817C359.807 240.604 356.114 243.284 354.034 243.817C344.331 246.299 332.8 247.971 320.401 247.837C326.067 246.642 335.049 244.413 343.995 244.823C344.179 243.665 346.19 244.343 346.001 242.811C347.991 242.163 347.026 244.463 349.013 243.817C349.761 243.389 350.093 242.551 350.019 241.303C346.634 242.944 340.781 242.108 336.464 242.811C337.425 242.1 339.005 242.006 339.476 240.803C338.878 239.557 335.806 240.793 335.964 238.791C342.38 235.461 350.542 236.971 357.546 234.271C358.54 233.085 357.567 229.939 359.558 229.75C359.757 228.547 357.269 230.029 358.05 228.242C352.339 231.066 343.351 230.611 337.972 233.769C336.882 233.683 337.742 235.552 337.47 236.281C335.839 235.988 335.132 236.623 333.954 236.783C333.214 239.033 335.425 238.326 334.96 240.301C333.333 240.014 332.433 240.453 331.948 241.303C330.186 238.85 328.212 242.608 326.925 240.301C323.46 242.024 319.905 243.655 318.896 247.836C307.529 248.752 300.48 247.639 287.771 247.332C292.781 242.299 299.023 238.498 304.339 233.77C314.694 235.139 324.534 233.352 333.452 231.76C346.577 229.416 361.057 229.014 369.597 222.215C367.343 218.219 362.97 223.527 359.558 223.219C360.251 222.407 361.331 221.983 361.062 220.205C357.462 220.119 355.171 221.342 352.027 221.713C351.843 220.19 353.664 220.67 354.535 220.205C354.625 218.947 353.414 218.986 353.031 218.197C352.832 216.992 355.318 218.474 354.535 216.689C355.859 216.089 355.832 219.103 356.043 216.689C357.731 216.173 356.824 218.25 357.047 219.201C362.012 218.949 365.047 218.635 369.598 216.185C370.149 213.624 365.028 216.738 365.582 214.177C366.77 212.353 371.406 213.978 371.605 211.161C369.875 209.63 367.058 211.28 365.582 211.663C364.072 212.171 364.691 210.544 364.576 209.655C361.437 209.36 358.972 209.739 359.558 213.171C355.992 216.55 343.247 213.15 344.999 220.204C346.069 220.975 348.104 220.778 348.511 222.214C348.187 224.232 344.161 222.548 343.493 224.224C341.632 224.576 342.626 222.076 341.483 221.712C340.973 222.038 340.963 222.866 339.977 222.716C340.141 224.73 341.495 225.554 342.487 226.736C341.116 228.92 339.003 227.209 338.975 225.228C338.303 225.228 337.635 225.228 336.965 225.228C335.143 225.685 336.66 226.71 336.463 228.242C327.604 229.426 319.197 231.056 308.854 230.754C316.165 224.006 324.792 218.572 332.448 212.166C335.901 212.807 338.901 210.779 341.483 212.166C348.893 209.033 360.52 210.121 365.581 204.631C357.421 202.608 347.653 207.377 338.472 207.647C344.808 202.432 351.835 197.913 358.05 192.577C360.017 193.784 363.614 192.973 364.575 191.573C364.964 189.843 364.296 189.173 362.569 189.561C367.577 185.532 371.952 180.866 377.126 177.002C378.239 176.727 377.841 177.961 378.632 178.006C382.327 175.51 387.53 174.52 392.689 173.486C391.8 176.156 391.57 177.775 392.185 181.021C392.277 182.785 390.488 182.673 390.179 184.037C387.462 201.244 381.007 214.713 372.105 225.732C364.365 252.418 346.25 270.455 322.41 283.002C311.853 288.553 302.16 292.986 287.771 295.057C276.789 296.635 265.144 295.557 253.136 294.053C253.023 291.955 253.95 291.678 253.136 290.033C249.511 290.092 245.068 289.326 244.097 292.041C242.109 292.508 236.605 291.596 233.056 292.041C231.204 292.273 229.796 293.783 229.54 292.543C234.756 288.892 239.381 284.644 244.6 280.989ZM368.09 195.589C372.526 194.671 378.096 194.886 379.635 191.068C374.571 191.359 369.086 191.23 368.09 195.589ZM359.557 199.609C359.557 200.445 359.557 201.283 359.557 202.121C366.166 201.533 371.254 199.428 376.119 197.096C378.953 197.254 381.099 196.721 381.642 194.584C373.877 194.167 367.756 198.876 359.557 199.609ZM379.131 189.56C380.143 187.695 378.625 186.404 379.635 184.539C382.889 184.111 386.559 184.1 387.666 181.523C383.436 179.474 381.133 183.685 377.125 183.533C377.107 185.357 377.406 187.498 376.119 188.054C373.064 187.673 371.568 188.857 368.592 188.556C368.592 189.394 368.592 190.23 368.592 191.068C373.551 192.013 374.924 189.368 379.131 189.56ZM369.596 204.63C374.26 204.612 376.553 202.216 380.639 201.618C380.639 200.78 380.639 199.942 380.639 199.106C376.28 200.269 371.174 200.689 369.596 204.63ZM264.178 289.53C260.658 289.718 257.143 286.846 255.643 290.536C261.186 294.306 270.016 290.677 276.729 293.548C279.264 292.493 282.35 293.15 286.768 292.04C285.241 291.419 281.428 289.917 280.241 292.04C278.679 287.911 268.667 292.237 266.688 288.524C274.127 288.37 280.944 288.614 284.758 289.53C287.887 287.223 291.326 289.512 293.291 289.53C294.021 287.747 297.584 288.801 299.818 288.524C300.642 285.833 307.802 289.481 307.849 286.012C299.775 286.641 289.165 284.731 282.751 287.016C277.661 286.094 275.028 286.286 264.677 286.012C264.379 287.056 265.299 289.314 264.178 289.53Z" fill="white"/>
<path fill-rule="evenodd" clip-rule="evenodd" d="M91.4915 194.081C96.7045 193.72 99.4564 195.825 101.03 199.106C103.425 198.717 104.26 199.891 106.551 199.608C112.315 205.059 123.362 205.223 131.149 208.649C127.725 210.995 122.864 206.278 117.594 207.143C117.328 206.739 117.071 206.327 117.094 205.635C109.862 205.84 107.239 201.43 101.532 200.11C99.4825 196.804 92.6975 198.234 91.4915 194.081Z" fill="black"/>
<path fill-rule="evenodd" clip-rule="evenodd" d="M243.096 236.782C243.463 239.329 241.364 239.403 241.084 241.302C240.377 240.396 241.791 237.341 243.096 236.782Z" fill="white"/>
<path fill-rule="evenodd" clip-rule="evenodd" d="M131.151 133.298C133.503 133.458 135.671 133.798 137.174 134.804C136.434 137.722 138.178 138.154 138.68 139.827C140.578 138.087 140.651 139.786 143.198 139.827C142.778 145.102 147.257 145.477 146.712 150.88C142.294 149.775 143.112 143.431 140.187 140.833C138.384 142.669 141.464 143.882 141.191 145.856C140.689 145.856 140.187 145.856 139.685 145.856C138.24 144.79 137.21 143.307 134.665 143.342C134.057 139.431 131.184 137.786 131.151 133.298Z" fill="black"/>
<path fill-rule="evenodd" clip-rule="evenodd" d="M196.408 236.782C190.213 229.755 185.322 221.419 177.834 215.682C179.242 194.334 170.574 178.774 170.305 160.926C168.143 159.658 168.332 163.227 167.795 161.93C166.424 161.125 165.74 159.633 165.787 157.41C168.035 156.666 167.328 158.879 169.303 158.414C169.768 156.439 167.557 157.144 168.297 154.896C167.526 155.464 167.063 156.339 166.289 156.906C164.172 157.685 166.398 154.117 164.281 154.896C161.465 158.308 167.287 161.535 165.787 166.953C161.697 163.68 162.349 155.656 158.76 151.883C159.471 158.373 162.985 166.408 165.285 172.983C167.183 173.71 166.248 171.602 167.795 171.977C170.02 184.657 173.897 195.676 174.822 209.655C168.033 207.573 165.574 201.161 159.763 198.1C159.978 183.819 155.884 171.172 154.743 159.92C157.755 161.092 155.614 167.422 160.264 166.953C156.891 158.943 154.293 150.154 151.729 141.334C147.713 142.359 147.678 138.559 143.698 138.32C146.384 142.666 148.645 147.433 150.727 152.384C150.422 153.921 149.065 154.405 148.217 155.398C152.373 166.476 155.324 178.761 156.248 193.076C150.275 189.842 146.582 184.328 141.187 180.517C140.337 170.302 136.628 158.63 132.152 150.376C132.068 149.286 133.933 150.147 134.662 149.874C133.021 143.476 130.496 137.966 128.137 132.29C126.41 132.343 124.532 132.55 124.119 131.286C122.683 132.36 122.051 134.239 120.105 134.802C118.882 133.177 118.449 130.765 116.589 129.779C115.732 135.498 121.511 138.918 121.107 145.855C122.318 145.648 122.199 146.771 123.619 146.357C122.83 143.207 122.898 144.265 122.613 139.826C127.701 146.264 131.066 154.633 133.658 163.437C134.808 167.341 136.441 171.279 137.172 175.494C131.969 174.004 130.621 168.652 125.125 167.457C125.539 166.035 124.418 166.154 124.621 164.945C115.471 161.375 109.924 154.199 102.535 148.869C104.613 142.365 100.146 136.99 98.5186 131.287C95.5066 129.719 96.1206 122.047 90.9876 124.254C93.4716 132.149 98.0736 137.926 100.023 146.358C92.9076 142.26 87.5186 136.434 80.4466 132.292C80.3236 129.231 78.6246 127.753 77.9366 125.259C76.0556 125.388 76.7956 128.138 74.4226 127.771C72.6686 126.679 72.0226 124.478 71.4106 122.246C70.4516 122.457 69.2486 122.428 69.4006 123.754C67.1406 122.834 66.0006 120.795 63.8796 119.734C73.8676 118.986 86.0906 121.705 97.5146 122.246C119.441 123.283 130.976 127.254 147.21 135.808C156.409 140.656 165.507 145.13 172.312 151.884C179.25 158.773 181.775 163.706 187.371 173.988C192.65 183.689 198.519 194.008 197.912 209.154C197.573 217.669 197.92 226.792 196.408 236.782ZM84.9666 124.757C86.3086 124.755 86.0566 126.345 87.4766 126.263C87.9436 124.29 85.7306 124.997 86.4746 122.747C85.4906 122.997 83.2696 121.651 84.4646 122.747C85.2086 122.841 84.9256 123.962 84.9666 124.757ZM79.4456 126.263C80.5666 126.044 81.2366 125.376 81.4536 124.255C80.5906 123.78 80.6316 122.398 78.9436 122.747C78.6526 124.378 79.2846 125.083 79.4456 126.263ZM99.0236 127.771C99.0236 126.935 99.0236 126.097 99.0236 125.259C98.5216 125.259 98.0196 125.259 97.5176 125.259C97.1206 126.993 97.9866 127.47 99.0236 127.771ZM107.557 143.343C109.455 144.072 108.52 141.964 110.067 142.341C108.921 141.144 108.936 138.782 109.063 136.31C105.747 134.941 106.924 129.074 102.538 128.775C103.596 134.247 106.789 137.581 107.557 143.343ZM109.063 135.808C109.733 135.808 110.403 135.808 111.071 135.808C111.327 132.372 108.827 131.693 108.561 128.775C107.891 128.775 107.221 128.775 106.553 128.775C107.656 130.851 109.198 132.493 109.063 135.808ZM115.086 140.833C118.285 141.481 116.232 147.386 120.107 147.362C119.351 139.743 114.839 135.887 113.58 128.774C112.912 128.774 112.242 128.774 111.572 128.774C111.639 133.9 115.619 135.11 115.086 140.833ZM134.664 143.343C137.209 143.308 138.238 144.79 139.684 145.857C140.186 145.857 140.688 145.857 141.19 145.857C141.463 143.882 138.383 142.669 140.186 140.834C143.112 143.432 142.293 149.775 146.711 150.881C147.256 145.479 142.777 145.104 143.197 139.828C140.65 139.787 140.578 138.088 138.679 139.828C138.177 138.154 136.433 137.723 137.173 134.805C135.669 133.799 133.501 133.459 131.15 133.299C131.184 137.786 134.057 139.431 134.664 143.343ZM155.748 147.362C156.211 148.575 157.047 149.411 158.256 149.876C158.686 147.771 157.643 147.14 156.752 146.358C156.696 146.972 156.602 147.548 155.748 147.362ZM138.178 154.396C140.164 155.044 139.201 152.742 141.19 153.392C141.376 155.216 142.811 155.787 142.194 158.415C143.03 158.415 143.868 158.415 144.706 158.415C145.208 154.895 143.091 154.001 143.198 150.88C141.167 150.185 141.612 151.97 140.186 151.884C138.743 151.32 138.893 149.161 137.174 148.87C136.967 151.253 137.17 153.228 138.178 154.396ZM163.278 154.396C163.278 153.56 163.278 152.722 163.278 151.884C162.776 151.884 162.274 151.884 161.772 151.884C161.422 153.573 162.803 153.532 163.278 154.396ZM174.321 169.466C175.632 169.661 177.077 169.724 177.835 170.47C177.835 171.476 177.835 172.482 177.835 173.486C176.999 173.486 176.163 173.486 175.327 173.486C175.747 177.252 176.339 180.845 176.831 184.539C181.02 185.203 181.372 189.709 181.852 194.082C183.475 194.703 182.235 192.457 183.86 193.078C184.391 196.396 185.94 198.697 185.366 203.125C186.284 203.881 187.845 203.994 188.88 204.631C189.017 206.338 188.491 208.705 189.382 209.656C192.431 208.689 192.194 209.924 194.402 210.662C196.246 207.121 194.136 200.244 193.9 195.59C191.593 195.889 190.058 195.418 189.382 194.082C190.732 189.103 186.405 186.539 188.88 183.533C186.636 182.597 188.993 177.056 185.866 177.002C185.753 178.1 182.511 178.613 181.852 177.504C183.483 176.959 182.678 173.979 182.854 171.979C181.684 171.979 180.512 171.979 179.34 171.979C179.61 170.036 178.445 169.528 178.84 167.459C176.537 167.416 175.619 165.99 173.317 165.951C172.852 167.923 175.063 167.218 174.321 169.466Z" fill="white"/>
<path fill-rule="evenodd" clip-rule="evenodd" d="M173.317 165.95C175.62 165.989 176.538 167.415 178.84 167.458C178.445 169.526 179.61 170.034 179.34 171.978C180.512 171.978 181.684 171.978 182.854 171.978C182.678 173.978 183.483 176.958 181.852 177.503C182.51 178.612 185.752 178.099 185.866 177.001C188.993 177.056 186.636 182.597 188.88 183.532C186.405 186.538 190.732 189.102 189.382 194.081C190.058 195.417 191.593 195.888 193.9 195.589C194.136 200.243 196.246 207.12 194.402 210.661C192.195 209.923 192.431 208.688 189.382 209.655C188.491 208.704 189.017 206.337 188.88 204.63C187.845 203.993 186.284 203.88 185.366 203.124C185.94 198.696 184.391 196.395 183.86 193.077C182.235 192.456 183.475 194.702 181.852 194.081C181.372 189.708 181.02 185.202 176.831 184.538C176.339 180.845 175.747 177.251 175.327 173.485C176.163 173.485 176.999 173.485 177.835 173.485C177.835 172.481 177.835 171.475 177.835 170.469C177.077 169.723 175.632 169.66 174.321 169.465C175.063 167.218 172.852 167.923 173.317 165.95ZM191.389 199.107C192.932 199.875 192.932 195.826 191.389 196.593C191.389 197.431 191.389 198.267 191.389 199.107ZM192.393 205.636C193.481 205.72 192.622 203.855 192.895 203.124C192.393 203.124 191.891 203.124 191.389 203.124C191.612 204.075 190.705 206.151 192.393 205.636Z" fill="black"/>
</svg>
