<svg width="24" height="24" viewBox="0 0 24 24" fill="none" xmlns="http://www.w3.org/2000/svg">
<rect x="0.1" y="0.1" width="23.8" height="23.8" rx="11.9" fill="white"/>
<rect x="0.1" y="0.1" width="23.8" height="23.8" rx="11.9" stroke="#98A2B3" stroke-width="0.2"/>
<path d="M12.5381 7.7168H9.854V8.25235H12.5381V7.7168Z" fill="black"/>
<path d="M14.149 7.9845C14.149 8.1318 14.0281 8.25235 13.8803 8.25235H13.3434C13.1957 8.25235 13.0752 8.1318 13.0752 7.9845C13.0752 7.8372 13.1957 7.7168 13.3434 7.7168H13.8803C14.0281 7.71675 14.149 7.83715 14.149 7.9845Z" fill="black"/>
<path d="M12.5381 15.748H9.854V16.2834H12.5381V15.748Z" fill="black"/>
<path d="M14.149 16.0157C14.149 16.163 14.0281 16.2834 13.8803 16.2834H13.3434C13.1957 16.2834 13.0752 16.1631 13.0752 16.0157C13.0752 15.8684 13.1957 15.748 13.3434 15.748H13.8803C14.0281 15.748 14.149 15.8684 14.149 16.0157Z" fill="black"/>
<path d="M10.0791 14.6772H12.538V14.1416H10.7688L10.0791 14.6772Z" fill="black"/>
<path d="M13.2542 14.1582C13.1503 14.195 13.0752 14.2943 13.0752 14.4101C13.0752 14.5573 13.1957 14.6778 13.3434 14.6778H13.8803C13.8937 14.6778 13.9067 14.6766 13.9197 14.6746L13.2542 14.1582Z" fill="black"/>
<path d="M13.2536 9.84382L13.9191 9.32747C13.9063 9.32542 13.8937 9.32422 13.8803 9.32422H13.3434C13.1957 9.32422 13.0752 9.44477 13.0752 9.59207C13.0751 9.70772 13.1502 9.80677 13.2536 9.84382Z" fill="black"/>
<path d="M10.7695 9.85977H12.5381V9.32422H10.0796L10.7695 9.85977Z" fill="black"/>
<path d="M14.9545 15.4775V17.3548H9.04901V15.4775L8.51221 15.8944V17.8908H9.04901V17.89H14.9545V17.8908H15.491V15.8944L14.9545 15.4775Z" fill="black"/>
<path d="M9.04901 10.8929L8.51221 10.4766V13.5237L9.04901 13.1071V10.8929Z" fill="black"/>
<path d="M15.4911 10.4766L14.9546 10.8931V13.1071L15.4911 13.5237V10.4766Z" fill="black"/>
<path d="M9.04901 8.5234V6.64655H14.9545V8.5234L15.491 8.10675V6.11035H14.9545V6.11115H9.04901V6.11035H8.51221V8.10675L9.04901 8.5234Z" fill="black"/>
<path d="M19.0542 16.4596L13.3095 12.0002L19.0534 7.54124L19.0544 7.54099C19.4048 7.26884 19.4672 6.76599 19.1935 6.41794C18.9193 6.06974 18.4135 6.00794 18.0629 6.27994L12.0016 10.985L5.94035 6.27994H5.94025C5.58975 6.00794 5.0837 6.06974 4.80975 6.41794C4.5361 6.76599 4.5983 7.26884 4.9488 7.54099C4.94895 7.54109 4.9492 7.54109 4.9492 7.54109L10.6937 12.0002L4.9488 16.4596C4.59815 16.7317 4.5361 17.2346 4.81 17.5826C5.0837 17.9308 5.58975 17.9927 5.94025 17.7206L5.9423 17.7187L12.0017 13.0154L18.0606 17.7187C18.0618 17.7195 18.0622 17.7201 18.0622 17.7201C18.4135 17.9927 18.9193 17.9308 19.1935 17.5826C19.4672 17.2346 19.4048 16.7317 19.0542 16.4596Z" fill="black"/>
</svg>
