<svg width="779" height="779" viewBox="0 0 779 779" fill="none" xmlns="http://www.w3.org/2000/svg">
<rect x="3" y="3" width="773" height="773" rx="386.5" fill="white"/>
<rect x="3" y="3" width="773" height="773" rx="386.5" stroke="black" stroke-width="6"/>
<path d="M262.096 649.779C253.389 647.594 250.845 646.447 246.46 642.735C241.173 638.259 231.377 626.791 226.041 618.832L223.145 614.512V584.373C223.145 567.797 224.084 532.816 225.232 506.637C226.379 480.458 227.539 449.928 227.809 438.792C228.079 427.655 228.553 417.825 228.863 416.945C229.172 416.066 229.926 402.399 230.537 386.574C231.148 370.749 232.103 348.929 232.659 338.086C233.214 327.243 233.925 306.862 234.237 292.795C234.961 260.213 235.838 242.831 237.046 237.135C237.572 234.656 239.644 230.051 241.65 226.903C244.841 221.893 245.935 221.013 250.406 219.861C253.216 219.137 259.097 217.107 263.475 215.35C267.852 213.594 274.9 211.004 279.135 209.594C286.594 207.112 295.343 203.615 304.542 199.439C306.991 198.328 309.481 197.418 310.077 197.418C311.518 197.418 320.269 194.424 325.561 192.12C334.241 188.34 344.224 184.63 345.713 184.63C346.558 184.63 352.877 182.399 359.754 179.673C366.631 176.946 375.124 173.865 378.626 172.826C384.495 171.086 392.585 168.235 424.262 156.744C430.683 154.415 440.234 151.156 445.488 149.503C450.741 147.849 459.522 144.766 465.001 142.652C473.509 139.368 476.225 138.807 483.614 138.807H492.266L500.716 147.148C513.137 159.408 516.883 161.748 531.907 166.628C542.577 170.094 547.794 171.162 557.943 171.959C576.935 173.45 575.498 170.993 575.494 201.972C575.492 217.27 573.319 273.599 570.162 340.218C567.231 402.053 564.377 467.991 563.82 486.747C562.695 524.602 561.868 529.668 555.312 538.834C551.894 543.612 548.195 546.057 542.066 547.587C540.315 548.025 533.868 550.514 527.739 553.119C521.61 555.723 514.446 558.468 511.819 559.217C509.193 559.966 502.506 562.485 496.961 564.815C491.416 567.144 483.598 570.131 479.588 571.453C475.578 572.775 471.041 574.515 469.506 575.32C467.97 576.124 466.184 576.785 465.535 576.789C464.887 576.792 462.67 577.945 460.608 579.35C458.547 580.755 455.33 582.241 453.46 582.654C451.591 583.066 446.539 585.015 442.234 586.985C437.929 588.955 430.45 591.969 425.615 593.682C420.78 595.396 413.722 598.258 409.93 600.041C406.138 601.825 400.096 604.268 396.502 605.47C392.909 606.672 385.029 609.759 378.991 612.33C372.953 614.901 365.386 617.866 362.176 618.919C358.965 619.972 352.465 622.621 347.732 624.806C342.998 626.99 337.591 629.116 335.716 629.53C330.663 630.644 318.567 636.367 315.132 639.267C313.482 640.661 311.616 641.801 310.987 641.801C310.357 641.801 308.236 643.03 306.274 644.533C295.737 652.603 280.538 654.408 262.096 649.779ZM292.172 632.461C294.775 631.363 299.771 629.858 303.273 629.117C306.776 628.376 311.714 626.786 314.247 625.585L318.854 623.402L318.236 618.481C316.94 608.162 316.404 569.362 317.401 558.146C317.975 551.699 318.096 546.049 317.671 545.591C317.246 545.133 314.071 545.512 310.616 546.432C307.161 547.352 297.887 548.374 290.007 548.703C274.323 549.358 272.895 549.047 253.017 540.659C244.609 537.111 241.375 536.597 240.679 538.698C240.436 539.43 239.522 555.814 238.649 575.107C237.315 604.557 237.289 610.733 238.485 613.607C239.268 615.49 240.436 617.357 241.079 617.756C241.722 618.155 242.248 619.357 242.248 620.427C242.248 622.836 250.055 630.079 252.652 630.079C253.701 630.079 255.013 630.518 255.568 631.054C260.248 635.584 282.721 636.447 292.172 632.461ZM345.725 609.831C351.211 607.487 356.249 605.568 356.92 605.568C357.591 605.568 359.645 604.886 361.485 604.051C370.831 599.811 380.393 595.92 386.586 593.838C390.38 592.562 395.394 590.653 397.729 589.596C406.609 585.573 415.223 582.124 416.386 582.124C417.051 582.124 422.659 579.91 428.849 577.203C435.038 574.497 442.464 571.579 445.35 570.718C448.236 569.858 453.029 568.045 456.002 566.689C466.35 561.97 474.62 558.679 476.128 558.679C476.963 558.679 481.867 556.73 487.026 554.348C492.185 551.967 499.493 549.016 503.267 547.792C507.041 546.568 514.547 543.507 519.947 540.99C525.347 538.474 531.339 536.111 533.263 535.739C538.835 534.663 545.046 530.632 545.864 527.563C546.702 524.415 548.705 495.516 549.505 475.024C552.305 403.327 552.007 409.422 560.136 257.628C561.58 230.667 562.762 204.835 562.762 200.225C562.762 192.749 562.561 191.899 560.905 192.371C559.883 192.662 555.227 193.981 550.557 195.302C545.887 196.623 535.141 199.99 526.678 202.784C518.214 205.578 509.856 208.165 508.105 208.533C504.978 209.189 492.017 213.239 451.832 226.116C440.729 229.674 430.998 232.585 430.208 232.585C429.418 232.585 420.948 235.223 411.386 238.446C401.823 241.67 393.322 244.308 392.494 244.308C391.666 244.308 383.143 246.945 373.554 250.169C363.966 253.392 355.186 256.03 354.044 256.03C348.936 256.03 348.579 257.365 347.352 281.073C346.715 293.381 345.033 320.236 343.614 340.75C342.195 361.264 340.497 397.231 339.841 420.675C339.105 446.952 336.85 490.016 333.961 532.95C329.146 604.524 328.768 612.163 329.983 613.383C331.541 614.948 336.224 613.892 345.725 609.831ZM300.014 529.933C301.807 529.361 306.007 528.609 309.348 528.261C320.69 527.08 319.572 531.781 323.548 468.532C325.46 438.108 327.361 405.914 327.771 396.989C328.621 378.521 328.561 378.388 320.495 380.669C307.173 384.438 302.331 385.19 290.538 385.325C274.099 385.513 265.639 383.423 255.836 376.753C246.187 370.188 245.44 370.641 245.402 383.077C245.385 388.517 244.461 419.823 243.349 452.645C241.328 512.292 241.328 512.325 243.458 516.817C245.752 521.657 252.977 527.745 256.52 527.823C257.718 527.849 260.131 528.53 261.883 529.335C265.702 531.091 294.944 531.549 300.014 529.933ZM299.559 369.235C302.186 368.671 308.703 366.706 314.043 364.87C319.382 363.033 324.458 361.531 325.322 361.531C326.186 361.531 327.433 360.877 328.094 360.078C329.665 358.176 335.915 261.215 334.554 259.843C333.96 259.244 331.395 259.553 327.978 260.636C317.944 263.816 299.921 265.915 289.584 265.108C281.046 264.441 279.113 263.848 269.42 258.919C263.523 255.92 257.56 252.605 256.168 251.551C253.395 249.453 250.165 249.048 249.165 250.673C248.11 252.387 246.625 351.254 247.626 353.136C248.132 354.087 251.432 357.375 254.959 360.444C261.443 366.083 264.787 367.501 274.847 368.873C277.891 369.288 280.753 370 281.206 370.454C282.164 371.416 292.647 370.72 299.559 369.235ZM302.378 249.514C306.373 247.689 312.984 245.101 317.07 243.763C321.156 242.426 328.559 239.56 333.521 237.396C338.482 235.231 344.691 232.836 347.317 232.072C352.214 230.648 357.13 228.706 365.131 225.035C367.632 223.888 373.124 221.803 377.336 220.403C384.745 217.939 388.783 216.345 397.729 212.354C400.064 211.312 403.168 210.117 404.628 209.697C407.47 208.879 435.008 198.25 448.141 192.902C452.519 191.119 461.593 187.632 468.306 185.153C475.019 182.674 483.615 179.346 487.409 177.756C491.204 176.167 497.173 173.899 500.676 172.717C504.178 171.535 507.591 170.118 508.261 169.568C509.828 168.279 508.966 165.013 506.455 162.732C504.225 160.705 504.185 160.715 489.532 167.047C484.57 169.191 477.884 171.875 474.674 173.01C468.448 175.213 446.425 183.792 433.283 189.134C428.905 190.913 419.831 194.408 413.118 196.901C401.97 201.039 398.908 202.266 389.239 206.463C387.488 207.223 383.906 208.538 381.279 209.384C378.652 210.23 370.772 213.222 363.768 216.033C356.763 218.845 345.301 223.442 338.296 226.249C331.292 229.056 324.367 231.669 322.907 232.054C321.448 232.439 318.821 233.395 317.07 234.177C308.946 237.807 295.271 243.147 289.708 244.861C282.403 247.112 281.436 248.261 284.649 250.874C288.191 253.754 294.09 253.302 302.378 249.514ZM357.4 244.961C360.902 243.963 367.255 241.49 371.518 239.465C375.781 237.439 380.144 235.782 381.213 235.782C384.211 235.782 416.831 225.358 421.912 222.776C422.954 222.246 427.013 220.94 430.933 219.872C434.852 218.805 441.402 216.624 445.488 215.026C449.574 213.428 456.977 210.979 461.938 209.583C469.917 207.339 473.273 206.157 481.572 202.664C485.398 201.053 500.162 196.353 501.393 196.353C502.055 196.353 509.09 193.986 517.025 191.093C524.961 188.201 533.125 185.413 535.168 184.898C537.813 184.231 538.883 183.368 538.883 181.898C538.883 180.21 537.821 179.681 533.045 178.987C517.468 176.725 516.924 176.764 507.187 180.811C502.133 182.912 497.444 184.63 496.768 184.63C496.092 184.63 489.053 187.232 481.126 190.412C473.2 193.592 465.281 196.548 463.53 196.982C461.779 197.416 457.003 199.181 452.917 200.903C448.831 202.625 440.847 205.645 435.174 207.614C429.501 209.583 420.875 212.85 416.004 214.875C411.133 216.9 404.489 219.332 401.239 220.281C397.989 221.23 390.616 223.961 384.855 226.351C379.094 228.741 372.232 231.304 369.605 232.047C366.978 232.79 358.859 235.783 351.563 238.7C344.266 241.616 337.461 244.296 336.439 244.655C335.418 245.013 334.582 245.837 334.582 246.487C334.582 248.194 349.567 247.192 357.4 244.961ZM276.219 237.672C282.353 235.072 288.764 232.595 290.465 232.166C292.166 231.737 300.155 228.779 308.218 225.592C316.28 222.405 323.607 219.797 324.499 219.797C325.39 219.797 326.949 219.325 327.963 218.747C331.247 216.876 353.889 208.075 355.419 208.075C356.236 208.075 362.619 205.677 369.605 202.747C376.59 199.816 382.862 197.418 383.542 197.418C384.222 197.418 391.274 194.819 399.213 191.642C407.153 188.465 415.32 185.404 417.363 184.838C419.406 184.273 427.146 181.357 434.563 178.359C441.98 175.361 448.736 172.908 449.576 172.908C450.902 172.908 459.321 169.619 469.898 164.968C471.649 164.199 474.992 162.997 477.327 162.297C486.638 159.509 492.663 156.636 493.278 154.693C494.058 152.226 493.125 150.529 490.99 150.529C489.563 150.529 472.19 156.141 444.427 165.571C439.173 167.356 430.815 170.032 425.854 171.518C420.892 173.005 411.579 176.056 405.158 178.299C398.738 180.541 390.619 183.186 387.116 184.176C383.614 185.166 374.301 188.254 366.421 191.037C358.541 193.821 350.422 196.437 348.379 196.851C346.336 197.264 338.217 199.928 330.337 202.77C322.456 205.612 314.099 208.272 311.764 208.681C309.429 209.091 306.161 210.116 304.502 210.96C302.843 211.804 298.067 213.607 293.889 214.967C289.711 216.328 284.517 218.211 282.347 219.152C280.177 220.093 277.168 220.863 275.661 220.863C274.154 220.863 271.392 221.668 269.524 222.652C267.656 223.637 263.769 224.985 260.887 225.649C250.98 227.93 248.763 236.494 256.911 241.01C261.701 243.665 262.339 243.554 276.219 237.672Z" fill="#131313"/>
</svg>
