<svg width="190" height="190" viewBox="0 0 190 190" fill="none" xmlns="http://www.w3.org/2000/svg">
<g filter="url(#filter0_f_1484_14149)">
<circle cx="95" cy="95" r="91" fill="#FF9933"/>
</g>
<g filter="url(#filter1_f_1484_14149)">
<path d="M137.507 14.5381C123.079 6.91575 106.867 3.31328 90.5682 4.10798C74.2696 4.90268 58.4846 10.0653 44.8663 19.0552C31.2481 28.0451 20.2976 40.5314 13.1619 55.2064C6.02622 69.8814 2.96779 86.2052 4.30696 102.468L95 95L137.507 14.5381Z" fill="#165DFF"/>
</g>
<g filter="url(#filter2_f_1484_14149)">
<path d="M109.065 184.907C127.828 181.971 145.203 173.239 158.755 159.933C172.306 146.628 181.355 129.416 184.634 110.709C187.912 92.0026 185.256 72.739 177.037 55.6179C168.818 38.4968 155.448 24.3762 138.801 15.235L95 95L109.065 184.907Z" fill="#E4BD1E"/>
</g>
<g filter="url(#filter3_d_1484_14149)">
<path d="M59.2269 90V75.4545H64.4116C65.5385 75.4545 66.4736 75.6487 67.217 76.0369C67.9651 76.4252 68.5238 76.9626 68.8931 77.6491C69.2624 78.331 69.4471 79.1193 69.4471 80.0142C69.4471 80.9044 69.2601 81.688 68.886 82.3651C68.5167 83.0374 67.958 83.5606 67.2099 83.9347C66.4665 84.3087 65.5314 84.4957 64.4045 84.4957H60.4769V82.6065H64.2056C64.9158 82.6065 65.4935 82.5047 65.9386 82.3011C66.3884 82.0975 66.7174 81.8016 66.9258 81.4134C67.1341 81.0251 67.2383 80.5587 67.2383 80.0142C67.2383 79.465 67.1317 78.9891 66.9187 78.5866C66.7103 78.1842 66.3813 77.8764 65.9315 77.6634C65.4864 77.4455 64.9016 77.3366 64.1772 77.3366H61.4215V90H59.2269ZM66.4073 83.4375L70.0011 90H67.5011L63.9783 83.4375H66.4073ZM76.5121 90.2202C75.4373 90.2202 74.5116 89.9905 73.7351 89.5312C72.9633 89.0672 72.3667 88.4162 71.9453 87.5781C71.5286 86.7353 71.3203 85.7481 71.3203 84.6165C71.3203 83.4991 71.5286 82.5142 71.9453 81.6619C72.3667 80.8097 72.9538 80.1444 73.7067 79.6662C74.4643 79.188 75.3497 78.9489 76.3629 78.9489C76.9785 78.9489 77.575 79.0507 78.1527 79.2543C78.7304 79.4579 79.2488 79.7775 79.7081 80.2131C80.1674 80.6487 80.5296 81.2145 80.7947 81.9105C81.0599 82.6018 81.1925 83.4422 81.1925 84.4318V85.1847H72.5206V83.5938H79.1115C79.1115 83.035 78.9979 82.5402 78.7706 82.1094C78.5433 81.6738 78.2237 81.3305 77.8118 81.0795C77.4046 80.8286 76.9264 80.7031 76.3771 80.7031C75.7805 80.7031 75.2597 80.8499 74.8146 81.1435C74.3743 81.4323 74.0334 81.8111 73.7919 82.2798C73.5552 82.7438 73.4368 83.2481 73.4368 83.7926V85.0355C73.4368 85.7647 73.5646 86.3849 73.8203 86.8963C74.0807 87.4077 74.4429 87.7983 74.907 88.0682C75.371 88.3333 75.9131 88.4659 76.5334 88.4659C76.9358 88.4659 77.3028 88.4091 77.6342 88.2955C77.9657 88.1771 78.2521 88.0019 78.4936 87.7699C78.7351 87.5379 78.9197 87.2514 79.0476 86.9105L81.0575 87.2727C80.8965 87.8646 80.6077 88.383 80.1911 88.8281C79.7791 89.2685 79.2607 89.6117 78.6357 89.858C78.0154 90.0994 77.3075 90.2202 76.5121 90.2202ZM91.7234 81.7543L89.7987 82.0952C89.7182 81.849 89.5903 81.6146 89.4151 81.392C89.2447 81.1695 89.0127 80.9872 88.7191 80.8452C88.4255 80.7031 88.0586 80.6321 87.6183 80.6321C87.0169 80.6321 86.515 80.767 86.1126 81.0369C85.7101 81.3021 85.5089 81.6454 85.5089 82.0668C85.5089 82.4313 85.6438 82.7249 85.9137 82.9474C86.1836 83.17 86.6192 83.3523 87.2205 83.4943L88.9535 83.892C89.9573 84.1241 90.7054 84.4815 91.1978 84.9645C91.6902 85.4474 91.9364 86.0748 91.9364 86.8466C91.9364 87.5 91.747 88.0824 91.3683 88.5938C90.9942 89.1004 90.471 89.4981 89.7987 89.7869C89.131 90.0758 88.3569 90.2202 87.4762 90.2202C86.2546 90.2202 85.2579 89.9598 84.4862 89.4389C83.7144 88.9134 83.2409 88.1676 83.0657 87.2017L85.1183 86.8892C85.2461 87.4242 85.5089 87.8291 85.9066 88.1037C86.3043 88.3736 86.8228 88.5085 87.462 88.5085C88.158 88.5085 88.7144 88.3641 89.131 88.0753C89.5477 87.7817 89.756 87.4242 89.756 87.0028C89.756 86.6619 89.6282 86.3755 89.3725 86.1435C89.1216 85.9115 88.7357 85.7363 88.2148 85.6179L86.3683 85.2131C85.3503 84.9811 84.5974 84.6117 84.1097 84.1051C83.6268 83.5985 83.3853 82.9569 83.3853 82.1804C83.3853 81.5365 83.5652 80.973 83.9251 80.4901C84.2849 80.0071 84.7821 79.6307 85.4165 79.3608C86.051 79.0862 86.7778 78.9489 87.5969 78.9489C88.7759 78.9489 89.704 79.2045 90.381 79.7159C91.0581 80.2225 91.5056 80.902 91.7234 81.7543ZM101.182 85.4759V79.0909H103.312V90H101.224V88.1108H101.111C100.86 88.6932 100.457 89.1785 99.9034 89.5668C99.3542 89.9503 98.67 90.142 97.8509 90.142C97.1501 90.142 96.5298 89.9882 95.9901 89.6804C95.455 89.3679 95.0336 88.9062 94.7259 88.2955C94.4228 87.6847 94.2713 86.9295 94.2713 86.0298V79.0909H96.3949V85.7741C96.3949 86.5175 96.6009 87.1094 97.0128 87.5497C97.4247 87.9901 97.9598 88.2102 98.6179 88.2102C99.0156 88.2102 99.411 88.1108 99.804 87.9119C100.202 87.7131 100.531 87.4124 100.791 87.0099C101.056 86.6075 101.187 86.0961 101.182 85.4759ZM108.289 75.4545V90H106.166V75.4545H108.289ZM116.239 79.0909V80.7955H110.28V79.0909H116.239ZM111.878 76.4773H114.001V86.7969C114.001 87.2088 114.063 87.5189 114.186 87.7273C114.309 87.9309 114.468 88.0705 114.662 88.1463C114.861 88.2173 115.076 88.2528 115.308 88.2528C115.479 88.2528 115.628 88.241 115.756 88.2173C115.884 88.1937 115.983 88.1747 116.054 88.1605L116.438 89.9148C116.314 89.9621 116.139 90.0095 115.912 90.0568C115.685 90.1089 115.401 90.1373 115.06 90.142C114.501 90.1515 113.98 90.0521 113.497 89.8438C113.014 89.6354 112.624 89.3134 112.325 88.8778C112.027 88.4422 111.878 87.8954 111.878 87.2372V76.4773ZM126.587 81.7543L124.662 82.0952C124.581 81.849 124.454 81.6146 124.278 81.392C124.108 81.1695 123.876 80.9872 123.582 80.8452C123.289 80.7031 122.922 80.6321 122.482 80.6321C121.88 80.6321 121.378 80.767 120.976 81.0369C120.573 81.3021 120.372 81.6454 120.372 82.0668C120.372 82.4313 120.507 82.7249 120.777 82.9474C121.047 83.17 121.482 83.3523 122.084 83.4943L123.817 83.892C124.821 84.1241 125.569 84.4815 126.061 84.9645C126.554 85.4474 126.8 86.0748 126.8 86.8466C126.8 87.5 126.61 88.0824 126.232 88.5938C125.857 89.1004 125.334 89.4981 124.662 89.7869C123.994 90.0758 123.22 90.2202 122.339 90.2202C121.118 90.2202 120.121 89.9598 119.349 89.4389C118.578 88.9134 118.104 88.1676 117.929 87.2017L119.982 86.8892C120.109 87.4242 120.372 87.8291 120.77 88.1037C121.168 88.3736 121.686 88.5085 122.325 88.5085C123.021 88.5085 123.578 88.3641 123.994 88.0753C124.411 87.7817 124.619 87.4242 124.619 87.0028C124.619 86.6619 124.491 86.3755 124.236 86.1435C123.985 85.9115 123.599 85.7363 123.078 85.6179L121.232 85.2131C120.214 84.9811 119.461 84.6117 118.973 84.1051C118.49 83.5985 118.249 82.9569 118.249 82.1804C118.249 81.5365 118.429 80.973 118.788 80.4901C119.148 80.0071 119.645 79.6307 120.28 79.3608C120.914 79.0862 121.641 78.9489 122.46 78.9489C123.639 78.9489 124.567 79.2045 125.244 79.7159C125.921 80.2225 126.369 80.902 126.587 81.7543ZM61.7624 114.241C61.0711 114.241 60.4461 114.114 59.8874 113.858C59.3287 113.598 58.886 113.221 58.5593 112.729C58.2373 112.236 58.0763 111.633 58.0763 110.918C58.0763 110.302 58.1947 109.795 58.4315 109.398C58.6682 109 58.9878 108.685 59.3903 108.453C59.7927 108.221 60.2425 108.046 60.7397 107.928C61.2369 107.809 61.7435 107.719 62.2596 107.658C62.913 107.582 63.4433 107.52 63.8505 107.473C64.2577 107.421 64.5536 107.338 64.7383 107.224C64.9229 107.111 65.0153 106.926 65.0153 106.67V106.621C65.0153 106 64.8401 105.52 64.4897 105.179C64.1441 104.838 63.628 104.668 62.9414 104.668C62.2264 104.668 61.663 104.826 61.2511 105.143C60.8439 105.456 60.5621 105.804 60.4059 106.188L58.4102 105.733C58.6469 105.07 58.9925 104.535 59.4471 104.128C59.9064 103.716 60.4343 103.418 61.0309 103.233C61.6275 103.044 62.2549 102.949 62.913 102.949C63.3486 102.949 63.8103 103.001 64.2979 103.105C64.7904 103.205 65.2496 103.389 65.6758 103.659C66.1067 103.929 66.4594 104.315 66.734 104.817C67.0086 105.314 67.146 105.96 67.146 106.756V114H65.0721V112.509H64.9869C64.8496 112.783 64.6436 113.053 64.369 113.318C64.0943 113.583 63.7416 113.804 63.3107 113.979C62.8799 114.154 62.3638 114.241 61.7624 114.241ZM62.2241 112.537C62.8112 112.537 63.3131 112.421 63.7298 112.189C64.1512 111.957 64.4708 111.654 64.6886 111.28C64.9111 110.901 65.0224 110.496 65.0224 110.065V108.659C64.9466 108.735 64.7998 108.806 64.582 108.872C64.369 108.934 64.1251 108.988 63.8505 109.036C63.5759 109.078 63.3084 109.118 63.0479 109.156C62.7875 109.189 62.5697 109.218 62.3945 109.241C61.9826 109.294 61.6062 109.381 61.2653 109.504C60.9291 109.627 60.6592 109.805 60.4556 110.037C60.2567 110.264 60.1573 110.567 60.1573 110.946C60.1573 111.472 60.3514 111.869 60.7397 112.139C61.128 112.404 61.6228 112.537 62.2241 112.537ZM72.3395 114L69.1293 103.091H71.3239L73.4616 111.102H73.5682L75.7131 103.091H77.9077L80.0384 111.067H80.1449L82.2685 103.091H84.4631L81.2599 114H79.0938L76.8778 106.124H76.7145L74.4986 114H72.3395ZM89.6531 114.241C88.9618 114.241 88.3368 114.114 87.7781 113.858C87.2193 113.598 86.7766 113.221 86.4499 112.729C86.128 112.236 85.967 111.633 85.967 110.918C85.967 110.302 86.0853 109.795 86.3221 109.398C86.5588 109 86.8784 108.685 87.2809 108.453C87.6834 108.221 88.1332 108.046 88.6303 107.928C89.1275 107.809 89.6341 107.719 90.1502 107.658C90.8036 107.582 91.3339 107.52 91.7411 107.473C92.1483 107.421 92.4442 107.338 92.6289 107.224C92.8136 107.111 92.9059 106.926 92.9059 106.67V106.621C92.9059 106 92.7307 105.52 92.3803 105.179C92.0347 104.838 91.5186 104.668 90.832 104.668C90.1171 104.668 89.5536 104.826 89.1417 105.143C88.7345 105.456 88.4528 105.804 88.2965 106.188L86.3008 105.733C86.5375 105.07 86.8832 104.535 87.3377 104.128C87.797 103.716 88.3249 103.418 88.9215 103.233C89.5181 103.044 90.1455 102.949 90.8036 102.949C91.2392 102.949 91.7009 103.001 92.1886 103.105C92.681 103.205 93.1403 103.389 93.5664 103.659C93.9973 103.929 94.35 104.315 94.6246 104.817C94.8993 105.314 95.0366 105.96 95.0366 106.756V114H92.9627V112.509H92.8775C92.7402 112.783 92.5342 113.053 92.2596 113.318C91.985 113.583 91.6322 113.804 91.2013 113.979C90.7705 114.154 90.2544 114.241 89.6531 114.241ZM90.1147 112.537C90.7018 112.537 91.2037 112.421 91.6204 112.189C92.0418 111.957 92.3614 111.654 92.5792 111.28C92.8017 110.901 92.913 110.496 92.913 110.065V108.659C92.8372 108.735 92.6905 108.806 92.4727 108.872C92.2596 108.934 92.0157 108.988 91.7411 109.036C91.4665 109.078 91.199 109.118 90.9386 109.156C90.6781 109.189 90.4603 109.218 90.2852 109.241C89.8732 109.294 89.4968 109.381 89.1559 109.504C88.8197 109.627 88.5498 109.805 88.3462 110.037C88.1474 110.264 88.0479 110.567 88.0479 110.946C88.0479 111.472 88.2421 111.869 88.6303 112.139C89.0186 112.404 89.5134 112.537 90.1147 112.537ZM97.8651 114V103.091H99.9886V114H97.8651ZM98.9375 101.408C98.5682 101.408 98.2509 101.285 97.9858 101.038C97.7254 100.787 97.5952 100.489 97.5952 100.143C97.5952 99.7931 97.7254 99.4948 97.9858 99.2486C98.2509 98.9976 98.5682 98.8722 98.9375 98.8722C99.3068 98.8722 99.6217 98.9976 99.8821 99.2486C100.147 99.4948 100.28 99.7931 100.28 100.143C100.28 100.489 100.147 100.787 99.8821 101.038C99.6217 101.285 99.3068 101.408 98.9375 101.408ZM107.938 103.091V104.795H101.979V103.091H107.938ZM103.577 100.477H105.701V110.797C105.701 111.209 105.762 111.519 105.885 111.727C106.008 111.931 106.167 112.071 106.361 112.146C106.56 112.217 106.775 112.253 107.007 112.253C107.178 112.253 107.327 112.241 107.455 112.217C107.583 112.194 107.682 112.175 107.753 112.161L108.137 113.915C108.014 113.962 107.838 114.009 107.611 114.057C107.384 114.109 107.1 114.137 106.759 114.142C106.2 114.152 105.679 114.052 105.196 113.844C104.713 113.635 104.323 113.313 104.025 112.878C103.726 112.442 103.577 111.895 103.577 111.237V100.477ZM114.871 114.22C113.797 114.22 112.871 113.991 112.094 113.531C111.323 113.067 110.726 112.416 110.305 111.578C109.888 110.735 109.68 109.748 109.68 108.616C109.68 107.499 109.888 106.514 110.305 105.662C110.726 104.81 111.313 104.144 112.066 103.666C112.824 103.188 113.709 102.949 114.722 102.949C115.338 102.949 115.934 103.051 116.512 103.254C117.09 103.458 117.608 103.777 118.067 104.213C118.527 104.649 118.889 105.214 119.154 105.911C119.419 106.602 119.552 107.442 119.552 108.432V109.185H110.88V107.594H117.471C117.471 107.035 117.357 106.54 117.13 106.109C116.903 105.674 116.583 105.33 116.171 105.08C115.764 104.829 115.286 104.703 114.737 104.703C114.14 104.703 113.619 104.85 113.174 105.143C112.734 105.432 112.393 105.811 112.151 106.28C111.915 106.744 111.796 107.248 111.796 107.793V109.036C111.796 109.765 111.924 110.385 112.18 110.896C112.44 111.408 112.802 111.798 113.266 112.068C113.73 112.333 114.272 112.466 114.893 112.466C115.295 112.466 115.662 112.409 115.994 112.295C116.325 112.177 116.612 112.002 116.853 111.77C117.094 111.538 117.279 111.251 117.407 110.911L119.417 111.273C119.256 111.865 118.967 112.383 118.55 112.828C118.138 113.268 117.62 113.612 116.995 113.858C116.375 114.099 115.667 114.22 114.871 114.22ZM125.992 114.213C125.111 114.213 124.325 113.988 123.634 113.538C122.947 113.084 122.408 112.437 122.015 111.599C121.626 110.757 121.432 109.746 121.432 108.567C121.432 107.388 121.629 106.379 122.022 105.541C122.419 104.703 122.964 104.062 123.655 103.616C124.346 103.171 125.13 102.949 126.006 102.949C126.683 102.949 127.228 103.062 127.64 103.29C128.056 103.512 128.378 103.773 128.605 104.071C128.837 104.369 129.017 104.632 129.145 104.859H129.273V99.4545H131.397V114H129.323V112.303H129.145C129.017 112.535 128.833 112.8 128.591 113.098C128.355 113.396 128.028 113.657 127.611 113.879C127.194 114.102 126.655 114.213 125.992 114.213ZM126.461 112.402C127.071 112.402 127.587 112.241 128.009 111.919C128.435 111.592 128.757 111.14 128.975 110.562C129.197 109.985 129.309 109.312 129.309 108.545C129.309 107.788 129.2 107.125 128.982 106.557C128.764 105.989 128.444 105.546 128.023 105.229C127.602 104.911 127.081 104.753 126.461 104.753C125.821 104.753 125.289 104.919 124.863 105.25C124.436 105.581 124.114 106.034 123.897 106.607C123.684 107.179 123.577 107.826 123.577 108.545C123.577 109.275 123.686 109.93 123.904 110.513C124.122 111.095 124.444 111.557 124.87 111.898C125.301 112.234 125.831 112.402 126.461 112.402Z" fill="white"/>
</g>
<defs>
<filter id="filter0_f_1484_14149" x="0" y="0" width="190" height="190" filterUnits="userSpaceOnUse" color-interpolation-filters="sRGB">
<feFlood flood-opacity="0" result="BackgroundImageFix"/>
<feBlend mode="normal" in="SourceGraphic" in2="BackgroundImageFix" result="shape"/>
<feGaussianBlur stdDeviation="2" result="effect1_foregroundBlur_1484_14149"/>
</filter>
<filter id="filter1_f_1484_14149" x="0" y="0" width="141.508" height="106.469" filterUnits="userSpaceOnUse" color-interpolation-filters="sRGB">
<feFlood flood-opacity="0" result="BackgroundImageFix"/>
<feBlend mode="normal" in="SourceGraphic" in2="BackgroundImageFix" result="shape"/>
<feGaussianBlur stdDeviation="2" result="effect1_foregroundBlur_1484_14149"/>
</filter>
<filter id="filter2_f_1484_14149" x="91" y="11.2344" width="99" height="177.672" filterUnits="userSpaceOnUse" color-interpolation-filters="sRGB">
<feFlood flood-opacity="0" result="BackgroundImageFix"/>
<feBlend mode="normal" in="SourceGraphic" in2="BackgroundImageFix" result="shape"/>
<feGaussianBlur stdDeviation="2" result="effect1_foregroundBlur_1484_14149"/>
</filter>
<filter id="filter3_d_1484_14149" x="54.0762" y="75.4551" width="81.3203" height="46.7871" filterUnits="userSpaceOnUse" color-interpolation-filters="sRGB">
<feFlood flood-opacity="0" result="BackgroundImageFix"/>
<feColorMatrix in="SourceAlpha" type="matrix" values="0 0 0 0 0 0 0 0 0 0 0 0 0 0 0 0 0 0 127 0" result="hardAlpha"/>
<feOffset dy="4"/>
<feGaussianBlur stdDeviation="2"/>
<feComposite in2="hardAlpha" operator="out"/>
<feColorMatrix type="matrix" values="0 0 0 0 0.0627451 0 0 0 0 0.0941176 0 0 0 0 0.156863 0 0 0 0.25 0"/>
<feBlend mode="normal" in2="BackgroundImageFix" result="effect1_dropShadow_1484_14149"/>
<feBlend mode="normal" in="SourceGraphic" in2="effect1_dropShadow_1484_14149" result="shape"/>
</filter>
</defs>
</svg>
