<svg width="327" height="73" viewBox="0 0 327 73" fill="none" xmlns="http://www.w3.org/2000/svg">
<mask id="mask0_106_2" style="mask-type:alpha" maskUnits="userSpaceOnUse" x="3" y="16" width="266" height="37">
<path d="M14.5996 26.5361C14.9251 26.5361 15.2425 26.5687 15.5518 26.6338C15.861 26.6826 16.1377 26.7396 16.3818 26.8047C16.6748 26.8861 16.9434 26.9756 17.1875 27.0732L16.6504 30.5645C16.5853 30.5156 16.4714 30.4587 16.3086 30.3936C16.1784 30.361 15.9912 30.3285 15.7471 30.2959C15.5029 30.2471 15.1855 30.2227 14.7949 30.2227C13.8672 30.2227 13.0127 30.3447 12.2314 30.5889C11.4502 30.833 10.7747 31.0934 10.2051 31.3701C9.53776 31.6956 8.92741 32.07 8.37402 32.4932V52H3.85742V26.7803L7.00684 26.5361L7.86133 29.6123C8.80534 28.6357 9.85514 27.8789 11.0107 27.3418C12.1663 26.8047 13.3626 26.5361 14.5996 26.5361ZM31.2988 29.8809C30.5339 29.8809 29.7933 30.0029 29.0771 30.2471C28.3773 30.4749 27.7425 30.8656 27.1729 31.4189C26.6032 31.9723 26.123 32.7048 25.7324 33.6162C25.3581 34.5114 25.1221 35.6914 25.0244 37.1562H36.5723C36.5723 36.8958 36.5804 36.6924 36.5967 36.5459C36.613 36.4157 36.6211 36.2855 36.6211 36.1553C36.6211 36.0251 36.6211 35.903 36.6211 35.7891C36.5885 34.7474 36.4339 33.8604 36.1572 33.1279C35.8805 32.3792 35.5062 31.7689 35.0342 31.2969C34.5622 30.8086 34.0088 30.4505 33.374 30.2227C32.7393 29.9948 32.0475 29.8809 31.2988 29.8809ZM39.0137 51.2676C38.4277 51.4792 37.7767 51.6745 37.0605 51.8535C36.4421 52 35.7178 52.1302 34.8877 52.2441C34.0576 52.3743 33.1462 52.4395 32.1533 52.4395C28.2145 52.4395 25.2523 51.3815 23.2666 49.2656C21.2809 47.1497 20.2881 43.984 20.2881 39.7686C20.2881 37.4085 20.5648 35.4147 21.1182 33.7871C21.6715 32.1432 22.4365 30.7842 23.4131 29.71C24.3896 28.6357 25.5452 27.8382 26.8799 27.3174C28.2145 26.7965 29.6549 26.5361 31.2012 26.5361C32.7311 26.5361 34.0739 26.7803 35.2295 27.2686C36.3851 27.7568 37.3454 28.4079 38.1104 29.2217C38.8753 30.0192 39.4531 30.9388 39.8438 31.9805C40.2507 33.0221 40.4704 34.1045 40.5029 35.2275C40.5029 35.5693 40.4867 36.0007 40.4541 36.5215C40.4378 37.026 40.4053 37.498 40.3564 37.9375C40.3239 38.3607 40.2832 38.7513 40.2344 39.1094C40.2018 39.4674 40.1611 39.7279 40.1123 39.8906H24.9512V40.7695C24.9512 42.2669 25.1302 43.5609 25.4883 44.6514C25.8464 45.7419 26.3509 46.6126 27.002 47.2637C27.6693 47.8984 28.4668 48.3542 29.3945 48.6309C30.3223 48.8913 31.3477 49.0215 32.4707 49.0215C33.3984 49.0215 34.2773 48.9727 35.1074 48.875C35.9538 48.7611 36.7025 48.639 37.3535 48.5088C38.1185 48.3623 38.8265 48.1914 39.4775 47.9961L39.0137 51.2676ZM45.3613 33.0303C45.3776 31.8421 45.6055 30.8411 46.0449 30.0273C46.4844 29.2135 47.0947 28.5462 47.876 28.0254C48.6572 27.4883 49.5931 27.1058 50.6836 26.8779C51.7741 26.6338 52.9948 26.5199 54.3457 26.5361C55.3711 26.5524 56.2988 26.6175 57.1289 26.7314C57.9753 26.8291 58.7077 26.943 59.3262 27.0732C60.0423 27.236 60.6852 27.415 61.2549 27.6104L61.7432 31.0527C61.1572 30.8737 60.5143 30.7109 59.8145 30.5645C59.2122 30.4342 58.4961 30.3203 57.666 30.2227C56.8522 30.1087 55.957 30.0436 54.9805 30.0273C54.1178 30.0273 53.3447 30.068 52.6611 30.1494C51.9938 30.2308 51.4242 30.3854 50.9521 30.6133C50.4964 30.8249 50.1465 31.126 49.9023 31.5166C49.6582 31.9072 49.5361 32.4362 49.5361 33.1035C49.5361 33.7057 49.6175 34.194 49.7803 34.5684C49.943 34.9264 50.2441 35.2601 50.6836 35.5693C51.1393 35.8623 51.7578 36.139 52.5391 36.3994C53.3203 36.6598 54.3213 36.9447 55.542 37.2539C56.958 37.6283 58.1624 38.0352 59.1553 38.4746C60.1481 38.8978 60.9538 39.4186 61.5723 40.0371C62.207 40.6393 62.6628 41.3717 62.9395 42.2344C63.2324 43.0807 63.3708 44.041 63.3545 45.1152C63.3382 46.2057 63.1429 47.1986 62.7686 48.0938C62.4105 48.9889 61.849 49.762 61.084 50.4131C60.3353 51.0479 59.3831 51.5443 58.2275 51.9023C57.0719 52.2604 55.6966 52.4395 54.1016 52.4395C52.7669 52.4395 51.6032 52.3662 50.6104 52.2197C49.6338 52.0732 48.8037 51.9105 48.1201 51.7314C47.3389 51.5361 46.6634 51.3001 46.0938 51.0234L45.6299 47.5566C46.3135 47.8171 47.0785 48.0449 47.9248 48.2402C48.6572 48.4193 49.5117 48.582 50.4883 48.7285C51.4811 48.875 52.5635 48.9564 53.7354 48.9727C55.542 48.9889 56.8848 48.7122 57.7637 48.1426C58.6426 47.5566 59.0902 46.5801 59.1064 45.2129C59.1064 44.6921 59.0332 44.1956 58.8867 43.7236C58.7402 43.2516 58.4391 42.8447 57.9834 42.5029C57.5439 42.1449 56.9092 41.8193 56.0791 41.5264C55.2653 41.2334 54.1992 40.9242 52.8809 40.5986C51.6927 40.3057 50.6266 39.9639 49.6826 39.5732C48.7386 39.1826 47.9411 38.7025 47.29 38.1328C46.639 37.5632 46.1426 36.8714 45.8008 36.0576C45.4753 35.2275 45.3288 34.2184 45.3613 33.0303ZM89.8438 52L86.5723 52.2686L85.9619 49.1191C85.3271 49.7376 84.5703 50.291 83.6914 50.7793C82.9427 51.2025 82.0312 51.585 80.957 51.9268C79.8991 52.2686 78.6784 52.4395 77.2949 52.4395C74.4629 52.4395 72.3877 51.5443 71.0693 49.7539C69.7673 47.9473 69.1162 45.1315 69.1162 41.3066V26.8291H73.6084V41.1357C73.6084 42.5518 73.6816 43.7643 73.8281 44.7734C73.9909 45.7663 74.2513 46.5801 74.6094 47.2148C74.9837 47.8333 75.472 48.2891 76.0742 48.582C76.6927 48.875 77.4495 49.0215 78.3447 49.0215C79.3701 49.0215 80.306 48.9076 81.1523 48.6797C82.015 48.4355 82.7555 48.167 83.374 47.874C84.1064 47.5322 84.7575 47.1416 85.3271 46.7021V26.8291H89.8438V52ZM97.5586 17.3564L102.051 16.917V52H97.5586V17.3564ZM116.748 52.4395C115.641 52.4395 114.705 52.3011 113.94 52.0244C113.175 51.7477 112.557 51.2757 112.085 50.6084C111.613 49.9411 111.263 49.054 111.035 47.9473C110.824 46.8242 110.718 45.4326 110.718 43.7725V29.3682H107.251V26.8291H110.889L111.523 19.1631L115.161 18.4551V26.8291H121.411V29.3682H115.234V44.7246C115.234 45.6035 115.259 46.3359 115.308 46.9219C115.373 47.4915 115.495 47.9473 115.674 48.2891C115.869 48.6309 116.138 48.875 116.479 49.0215C116.838 49.1517 117.318 49.2168 117.92 49.2168C118.359 49.2168 118.783 49.2005 119.189 49.168C119.596 49.1191 119.963 49.0622 120.288 48.9971C120.662 48.932 121.004 48.8587 121.313 48.7773L120.923 51.9268C120.63 52.0407 120.272 52.1302 119.849 52.1953C119.491 52.2604 119.051 52.3174 118.53 52.3662C118.026 52.415 117.432 52.4395 116.748 52.4395ZM125 33.0303C125.016 31.8421 125.244 30.8411 125.684 30.0273C126.123 29.2135 126.733 28.5462 127.515 28.0254C128.296 27.4883 129.232 27.1058 130.322 26.8779C131.413 26.6338 132.633 26.5199 133.984 26.5361C135.01 26.5524 135.938 26.6175 136.768 26.7314C137.614 26.8291 138.346 26.943 138.965 27.0732C139.681 27.236 140.324 27.415 140.894 27.6104L141.382 31.0527C140.796 30.8737 140.153 30.7109 139.453 30.5645C138.851 30.4342 138.135 30.3203 137.305 30.2227C136.491 30.1087 135.596 30.0436 134.619 30.0273C133.757 30.0273 132.983 30.068 132.3 30.1494C131.632 30.2308 131.063 30.3854 130.591 30.6133C130.135 30.8249 129.785 31.126 129.541 31.5166C129.297 31.9072 129.175 32.4362 129.175 33.1035C129.175 33.7057 129.256 34.194 129.419 34.5684C129.582 34.9264 129.883 35.2601 130.322 35.5693C130.778 35.8623 131.396 36.139 132.178 36.3994C132.959 36.6598 133.96 36.9447 135.181 37.2539C136.597 37.6283 137.801 38.0352 138.794 38.4746C139.787 38.8978 140.592 39.4186 141.211 40.0371C141.846 40.6393 142.301 41.3717 142.578 42.2344C142.871 43.0807 143.009 44.041 142.993 45.1152C142.977 46.2057 142.782 47.1986 142.407 48.0938C142.049 48.9889 141.488 49.762 140.723 50.4131C139.974 51.0479 139.022 51.5443 137.866 51.9023C136.711 52.2604 135.335 52.4395 133.74 52.4395C132.406 52.4395 131.242 52.3662 130.249 52.2197C129.272 52.0732 128.442 51.9105 127.759 51.7314C126.978 51.5361 126.302 51.3001 125.732 51.0234L125.269 47.5566C125.952 47.8171 126.717 48.0449 127.563 48.2402C128.296 48.4193 129.15 48.582 130.127 48.7285C131.12 48.875 132.202 48.9564 133.374 48.9727C135.181 48.9889 136.523 48.7122 137.402 48.1426C138.281 47.5566 138.729 46.5801 138.745 45.2129C138.745 44.6921 138.672 44.1956 138.525 43.7236C138.379 43.2516 138.078 42.8447 137.622 42.5029C137.183 42.1449 136.548 41.8193 135.718 41.5264C134.904 41.2334 133.838 40.9242 132.52 40.5986C131.331 40.3057 130.265 39.9639 129.321 39.5732C128.377 39.1826 127.58 38.7025 126.929 38.1328C126.278 37.5632 125.781 36.8714 125.439 36.0576C125.114 35.2275 124.967 34.2184 125 33.0303ZM154.648 25.3789C155.924 25.3789 157.031 25.5547 157.969 25.9062C158.906 26.2448 159.681 26.7331 160.293 27.3711C160.918 28.0091 161.38 28.7708 161.68 29.6562C161.979 30.5286 162.129 31.4922 162.129 32.5469C162.129 33.3542 162.031 34.1029 161.836 34.793C161.654 35.4831 161.4 36.1536 161.074 36.8047C160.749 37.4557 160.358 38.0938 159.902 38.7188C159.447 39.3307 158.958 39.9492 158.438 40.5742L151.055 49.1875H161.836L161.445 52H147.461L146.875 49.1484L155.918 38.3281C156.23 37.9505 156.549 37.5404 156.875 37.0977C157.201 36.6549 157.487 36.1927 157.734 35.7109C157.995 35.2161 158.203 34.7148 158.359 34.207C158.529 33.6992 158.613 33.1654 158.613 32.6055C158.613 31.9935 158.522 31.4206 158.34 30.8867C158.158 30.3398 157.878 29.8711 157.5 29.4805C157.135 29.0768 156.667 28.7708 156.094 28.5625C155.521 28.3411 154.844 28.2305 154.062 28.2305C153.333 28.2305 152.578 28.3086 151.797 28.4648C151.029 28.6211 150.312 28.7904 149.648 28.9727C148.88 29.2201 148.132 29.474 147.402 29.7344L147.793 26.6875C148.47 26.4531 149.186 26.2383 149.941 26.043C150.592 25.8737 151.322 25.724 152.129 25.5938C152.949 25.4505 153.789 25.3789 154.648 25.3789ZM176.895 49.5977C178.184 49.5977 179.232 49.3438 180.039 48.8359C180.859 48.3151 181.491 47.5924 181.934 46.668C182.389 45.7305 182.695 44.6042 182.852 43.2891C183.021 41.9609 183.105 40.4766 183.105 38.8359C183.105 37.2474 183.014 35.7891 182.832 34.4609C182.663 33.1328 182.344 32 181.875 31.0625C181.419 30.112 180.788 29.3698 179.98 28.8359C179.173 28.3021 178.145 28.0352 176.895 28.0352C175.645 28.0352 174.616 28.3021 173.809 28.8359C173.014 29.3568 172.383 30.0924 171.914 31.043C171.458 31.9805 171.146 33.1133 170.977 34.4414C170.807 35.7695 170.723 37.2344 170.723 38.8359C170.723 40.4766 170.807 41.9609 170.977 43.2891C171.159 44.6042 171.478 45.7305 171.934 46.668C172.402 47.5924 173.034 48.3151 173.828 48.8359C174.635 49.3438 175.658 49.5977 176.895 49.5977ZM167.012 38.8555C167.012 36.7591 167.174 34.8646 167.5 33.1719C167.826 31.4792 168.372 30.0469 169.141 28.875C169.909 27.7031 170.924 26.8112 172.188 26.1992C173.451 25.5742 175.02 25.2617 176.895 25.2617C178.783 25.2617 180.358 25.5742 181.621 26.1992C182.897 26.8112 183.919 27.7031 184.688 28.875C185.456 30.0469 186.003 31.4792 186.328 33.1719C186.654 34.8646 186.816 36.7591 186.816 38.8555C186.816 40.9909 186.647 42.9049 186.309 44.5977C185.97 46.2904 185.41 47.7161 184.629 48.875C183.848 50.0339 182.826 50.9258 181.562 51.5508C180.299 52.1628 178.743 52.4688 176.895 52.4688C175.046 52.4688 173.49 52.1628 172.227 51.5508C170.977 50.9258 169.961 50.0339 169.18 48.875C168.411 47.7161 167.858 46.2904 167.52 44.5977C167.181 42.9049 167.012 40.9909 167.012 38.8555ZM198.945 25.3789C200.221 25.3789 201.328 25.5547 202.266 25.9062C203.203 26.2448 203.978 26.7331 204.59 27.3711C205.215 28.0091 205.677 28.7708 205.977 29.6562C206.276 30.5286 206.426 31.4922 206.426 32.5469C206.426 33.3542 206.328 34.1029 206.133 34.793C205.951 35.4831 205.697 36.1536 205.371 36.8047C205.046 37.4557 204.655 38.0938 204.199 38.7188C203.743 39.3307 203.255 39.9492 202.734 40.5742L195.352 49.1875H206.133L205.742 52H191.758L191.172 49.1484L200.215 38.3281C200.527 37.9505 200.846 37.5404 201.172 37.0977C201.497 36.6549 201.784 36.1927 202.031 35.7109C202.292 35.2161 202.5 34.7148 202.656 34.207C202.826 33.6992 202.91 33.1654 202.91 32.6055C202.91 31.9935 202.819 31.4206 202.637 30.8867C202.454 30.3398 202.174 29.8711 201.797 29.4805C201.432 29.0768 200.964 28.7708 200.391 28.5625C199.818 28.3411 199.141 28.2305 198.359 28.2305C197.63 28.2305 196.875 28.3086 196.094 28.4648C195.326 28.6211 194.609 28.7904 193.945 28.9727C193.177 29.2201 192.428 29.474 191.699 29.7344L192.09 26.6875C192.767 26.4531 193.483 26.2383 194.238 26.043C194.889 25.8737 195.618 25.724 196.426 25.5938C197.246 25.4505 198.086 25.3789 198.945 25.3789ZM219.844 25.9258L225.039 26.0625L225.059 44.2461H228.32V46.9805H225.059V52.2734L221.641 52.3711V46.9805H210.352L209.453 44.5977L219.844 25.9258ZM221.641 44.2461V35.6133L221.836 28.2305L218.242 35.3398L213.262 44.3242L216.992 44.2461H221.641ZM236.27 48.0547V52.1758H232.559V48.0547H236.27ZM242.109 52V31.8633H245.703V52H242.109ZM245.781 24.5V28.0547H242.012V24.5H245.781ZM251.875 31.8633L254.395 31.6289L254.922 33.9922C255.234 33.7578 255.618 33.5039 256.074 33.2305C256.543 32.944 257.07 32.6836 257.656 32.4492C258.255 32.2148 258.913 32.0195 259.629 31.8633C260.358 31.707 261.133 31.6289 261.953 31.6289C262.982 31.6289 263.893 31.7786 264.688 32.0781C265.495 32.3646 266.178 32.8333 266.738 33.4844C267.298 34.1224 267.721 34.9622 268.008 36.0039C268.307 37.0456 268.457 38.3151 268.457 39.8125V52H264.844V40.5938C264.844 39.526 264.785 38.6016 264.668 37.8203C264.551 37.0391 264.355 36.3945 264.082 35.8867C263.809 35.3789 263.438 35.0078 262.969 34.7734C262.513 34.526 261.94 34.4023 261.25 34.4023C260.521 34.4023 259.811 34.5 259.121 34.6953C258.444 34.8906 257.832 35.099 257.285 35.3203C256.66 35.5807 256.061 35.8802 255.488 36.2188V52H251.875V31.8633Z" fill="black"/>
</mask>
<g mask="url(#mask0_106_2)">
<rect x="-7" y="-19" width="155" height="101" fill="#FF671F"/>
<rect x="145" y="-18" width="191" height="100" fill="#046A38"/>
</g>
</svg>
