<svg width="1320" height="1320" viewBox="0 0 1320 1320" fill="none" xmlns="http://www.w3.org/2000/svg">
<rect x="30" y="30" width="1259.63" height="1259.63" rx="629.815" fill="#102463"/>
<rect x="30" y="30" width="1259.63" height="1259.63" rx="629.815" stroke="#FEA503" stroke-width="60"/>
<path d="M687.047 473.835C703.136 475.043 717.939 475.929 732.742 477.217C751.245 478.827 769.587 481 788.09 482.61C815.121 485.026 842.152 486.958 869.102 489.453C880.284 490.5 891.467 491.868 902.488 493.962C911.016 495.572 917.371 491.466 924.209 488.004C934.426 482.932 945.528 488.004 952.608 498.47C957.837 506.118 956.228 513.283 954.619 521.092C953.895 524.634 953.573 528.901 954.941 532.04C967.491 560.378 980.604 588.474 993.315 616.812C1003.05 638.548 1012.3 660.606 1022.03 682.423C1029.76 699.731 1037.96 716.718 1045.61 734.026C1053.41 751.737 1060.57 769.851 1068.45 787.562C1074.25 800.523 1081.08 813.001 1087.04 825.882C1095.97 845.203 1091.86 866.295 1075.94 881.028C1064.43 891.735 1052.85 902.442 1040.22 911.62C1033.86 916.208 1024.85 917.174 1017.21 920.153C988.809 931.182 959.365 926.191 930.404 924.983C909.728 924.098 890.099 916.53 872.963 905.421C862.264 898.497 851.323 890.366 845.209 877.888C841.106 869.596 835.957 861.707 830.647 854.139C825.257 846.491 827.027 838.843 829.682 831.195C832.9 821.937 837.003 813.001 839.899 803.663C844.806 787.884 848.748 771.783 853.817 756.004C858.322 741.996 863.873 728.311 868.78 714.383C876.101 693.855 883.502 673.245 890.582 652.636C896.213 636.133 901.523 619.549 906.752 602.965C910.935 589.762 914.797 576.559 919.06 563.357C920.991 557.399 923.887 551.844 925.657 545.887C928.232 537.112 930.404 528.257 932.335 519.321C932.576 518.032 930.806 515.054 929.841 515.054C926.864 514.812 921.715 514.812 921.072 516.261C915.119 529.867 903.695 528.498 892.11 528.418C830.969 528.257 769.909 528.498 708.768 528.257C688.656 528.176 683.909 534.375 678.76 550.395C677.393 554.582 675.382 558.687 673.129 562.471C669.911 568.026 664.923 567.945 662.188 561.988C659.453 556.192 657.924 549.832 655.672 543.794C651.971 533.972 642.639 527.935 632.422 527.452C622.446 526.968 612.471 525.439 602.576 524.392C592.6 523.346 582.705 521.977 572.729 521.575C553.502 520.77 534.275 520.85 515.048 519.884C486.408 518.435 457.849 516.583 429.209 514.41C420.44 513.766 412.395 510.224 406.764 502.656C405.959 501.529 403.143 500.724 402.178 501.288C400.569 502.334 399.362 504.427 398.558 506.279C392.685 520.77 400.328 533.248 404.672 546.129C407.81 555.467 410.947 564.806 414.165 574.144C419.716 590.326 425.267 606.507 430.818 622.689C436.771 639.997 442.805 657.386 448.758 674.694C458.251 702.147 467.663 729.599 477.156 756.97C485.764 781.685 494.533 806.32 502.98 831.034C503.704 833.047 502.739 835.945 501.854 838.119C491.717 861.465 476.834 880.303 454.711 894.07C435.162 906.306 413.682 911.217 391.881 915.323C380.94 917.416 369.436 919.429 358.494 918.302C344.014 916.852 329.694 912.666 315.535 908.882C306.927 906.628 298.48 903.408 290.355 899.785C271.449 891.493 254.635 879.498 241.844 863.719C232.19 851.724 224.065 837.072 229.938 820.247C232.673 812.438 237.982 805.515 241.281 797.867C248.36 781.685 254.877 765.262 261.634 748.92C264.209 742.64 266.783 736.442 269.76 730.323C274.747 719.938 279.977 709.633 285.206 699.329C294.457 681.054 304.111 662.86 313.041 644.425C321.649 626.714 329.453 608.6 337.739 590.809C342.646 580.343 348.117 570.199 353.024 559.814C360.264 544.599 367.344 529.223 374.262 513.846C374.986 512.156 374.102 509.499 373.377 507.486C368.711 493.479 378.365 479.229 393.007 476.814C401.132 475.526 406.201 480.92 412.797 482.771C418.187 484.221 423.738 486.153 429.209 485.992C449.562 485.187 469.835 483.415 490.189 482.449C512.151 481.403 534.033 481 555.996 480.034C572.005 479.31 588.095 478.022 604.104 477.056C616.413 476.251 628.721 475.365 641.03 474.882C646.018 474.721 647.949 472.869 647.386 468.039C645.616 451.938 643.926 435.757 642.237 419.575C642.076 417.804 641.513 415.47 642.398 414.343C648.431 406.534 653.097 397.034 663.073 393.411C673.531 389.628 686.242 397.759 690.989 409.271C696.459 422.634 692.195 435.515 690.586 448.637C689.38 456.849 688.173 464.98 687.047 473.835ZM375.55 545.726C374.826 545.485 374.021 545.324 373.297 545.082C332.349 632.269 291.4 719.455 249.406 808.815C291.803 791.748 334.038 790.058 377.078 789.172C377.078 766.55 377.239 742.962 376.998 719.375C376.676 688.541 375.871 657.708 375.55 626.875C375.308 599.825 375.55 572.776 375.55 545.726ZM953.814 561.102C953.251 561.102 952.608 561.102 952.044 561.183C952.044 641.124 952.044 720.985 952.044 801.328C993.475 800.523 1033.06 804.548 1071.43 821.132C1031.69 733.463 992.751 647.323 953.814 561.102ZM390.754 543.15C390.272 543.311 389.789 543.472 389.306 543.552C389.306 626.311 389.306 709.07 389.306 790.46C420.842 796.82 451.413 802.938 481.661 809.057C451.493 720.743 421.084 631.947 390.754 543.15ZM938.77 801.57C938.77 718.731 938.77 637.018 938.77 555.306C938.046 555.226 937.322 555.065 936.518 554.984C906.913 642.976 877.308 731.048 847.461 819.925C877.79 810.184 907.315 800.121 938.77 801.57ZM234.523 828.217C240.879 832.967 245.303 838.038 250.774 839.89C266.783 845.284 283.034 850.034 299.526 853.656C312.88 856.554 326.556 858.165 340.233 859.211C355.518 860.419 371.044 862.109 386.088 860.338C411.591 857.359 436.771 851.966 462.032 847.457C471.203 845.847 485.845 836.911 491.878 828.378C406.12 798.35 321.569 789.977 234.523 828.217ZM952.688 812.921C943.919 813.645 934.668 814.209 925.416 815.175C897.581 818.234 870.47 824.192 844.887 836.106C843.358 836.831 842.071 838.038 840.623 839.085C841.91 840.051 843.037 841.178 844.485 841.822C853.334 846.33 862.425 850.436 871.194 855.266C883.502 862.029 896.454 866.456 910.453 867.745C913.912 868.067 917.371 869.113 920.83 869.355C936.035 870.643 951.16 872.575 966.364 872.655C976.26 872.655 986.155 869.113 996.13 868.469C1024.21 866.779 1050.75 860.258 1075.21 846.25C1077.22 845.123 1078.91 841.581 1078.83 839.165C1078.75 837.475 1075.85 835.382 1073.76 834.255C1071.59 833.047 1068.86 833.128 1066.6 832.162C1047.38 824.192 1027.18 819.683 1006.75 816.785C989.051 814.45 971.111 814.209 952.688 812.921ZM325.591 895.116C326.717 895.438 327.2 895.599 327.683 895.68C337.98 896.726 348.438 893.828 358.655 898.497C361.552 899.866 366.218 897.531 369.436 896.968C365.976 891.493 363.321 887.388 359.943 881.994C361.23 882.396 360.828 882.155 360.345 882.155C352.702 882.074 345.14 881.913 337.497 882.155C333.073 882.316 328.326 882.396 324.545 884.248C323.419 884.812 325.189 891.171 325.591 895.116ZM668.302 416.838C666.371 418.609 663.153 420.219 663.234 421.588C663.717 428.431 665.165 435.113 666.21 441.875C667.9 441.231 670.394 440.99 671.037 439.782C672.646 436.884 673.531 433.503 674.577 430.282C675.543 427.384 677.554 423.842 676.669 421.588C675.784 419.495 671.681 418.609 668.302 416.838ZM317.948 878.291C306.122 878.291 296.066 878.291 285.286 878.291C286.091 879.901 286.573 881.752 287.137 881.752C296.066 882.477 304.996 883.121 313.926 883.362C315.052 883.362 316.259 880.545 317.948 878.291ZM909.085 892.943C914.314 888.434 918.578 884.812 922.6 881.269C915.923 878.613 909.809 881.43 906.913 889.32C906.591 890.447 908.844 892.54 909.085 892.943Z" fill="white"/>
</svg>
