<svg width="10" height="10" viewBox="0 0 10 10" fill="none" xmlns="http://www.w3.org/2000/svg">
<path d="M9 9.5C9 8.80222 9 8.45333 8.91388 8.16943C8.71998 7.53023 8.21977 7.03002 7.58057 6.83612C7.29667 6.75 6.94778 6.75 6.25 6.75H3.75C3.05222 6.75 2.70333 6.75 2.41943 6.83612C1.78023 7.03002 1.28002 7.53023 1.08612 8.16943C1 8.45333 1 8.80222 1 9.5M7.25 2.75C7.25 3.99264 6.24264 5 5 5C3.75736 5 2.75 3.99264 2.75 2.75C2.75 1.50736 3.75736 0.5 5 0.5C6.24264 0.5 7.25 1.50736 7.25 2.75Z" stroke="#667085" stroke-linecap="round" stroke-linejoin="round"/>
</svg>
